<svg width="1142" height="235" viewBox="0 0 1142 235" fill="none" xmlns="http://www.w3.org/2000/svg">
<path d="M832.326 25.4883H845.215V20.0588H832.326V25.4883Z" fill="#EBEBEB"/>
<path d="M839.515 13.232L845.901 13.0962L849.148 13.0428C850.228 13.0428 851.318 13.0428 852.404 13.0137H852.618V13.232V18.6615V18.9041H852.375L845.93 18.8701C843.784 18.8701 841.632 18.8167 839.486 18.7925H839.35V18.6615C839.35 17.7396 839.389 16.8225 839.413 15.9152L839.515 13.232ZM839.515 13.232L839.583 15.9734C839.583 16.8759 839.637 17.7736 839.647 18.6615L839.515 18.5256C841.662 18.5014 843.813 18.4528 845.959 18.448L852.404 18.4189L852.161 18.6615L852.185 13.232L852.404 13.4455C851.343 13.4455 850.282 13.4455 849.216 13.4455L846.018 13.3921L839.515 13.232Z" fill="#EBEBEB"/>
<path d="M825.136 13.2329L831.532 13.0825L834.774 13.0291C835.859 13.0291 836.949 13.0291 838.035 13H838.249V13.2329L838.278 18.6624V18.905H838.035L831.581 18.8564C829.429 18.8564 827.283 18.8031 825.136 18.7788H825V18.6478C825 17.7259 825.044 16.8089 825.063 15.9015L825.136 13.2329ZM825.136 13.2329L825.204 15.9598C825.204 16.8622 825.258 17.7599 825.268 18.6478L825.136 18.512C827.283 18.4877 829.429 18.4392 831.581 18.4343L838.025 18.4052L837.782 18.6478V13.2183L838.001 13.4318C836.935 13.4318 835.879 13.4318 834.813 13.4318L831.61 13.3785L825.136 13.2329Z" fill="#EBEBEB"/>
<path d="M1100.39 59.0319L1106.77 58.896L1110.01 58.8426C1111.1 58.8184 1112.19 58.8426 1113.28 58.8184H1113.49V59.0367L1113.52 64.4662V64.7088H1113.28L1106.83 64.6651C1104.68 64.6651 1102.53 64.6069 1100.39 64.5826H1100.25V64.4516C1100.25 63.5297 1100.29 62.6127 1100.31 61.7102L1100.39 59.0319ZM1100.39 59.0319L1100.45 61.7733C1100.45 62.6806 1100.51 63.5734 1100.52 64.4613L1100.39 64.3303C1102.53 64.3061 1104.68 64.2527 1106.83 64.2478L1113.28 64.2187L1113.03 64.4613V59.0319L1113.25 59.2502C1112.19 59.2502 1111.13 59.2502 1110.06 59.2211L1106.86 59.1677L1100.39 59.0319Z" fill="#EBEBEB"/>
<path d="M1107.57 57.6152H1120.46V52.1858H1107.57V57.6152Z" fill="#EBEBEB"/>
<path d="M983.916 111.759L990.306 111.623L993.548 111.57C994.629 111.57 995.719 111.57 996.804 111.541H997.023V111.759L997.048 117.189V117.431H996.8L990.355 117.397C988.209 117.397 986.062 117.344 983.911 117.32H983.779V117.189C983.779 116.267 983.823 115.35 983.843 114.443L983.916 111.759ZM983.916 111.759L983.984 114.501C984.008 115.403 984.042 116.301 984.052 117.189L983.916 117.053C986.067 117.029 988.213 116.98 990.36 116.975L996.804 116.946L996.561 117.189L996.59 111.759L996.804 111.973C995.743 111.973 994.687 111.973 993.621 111.949L990.418 111.895L983.916 111.759Z" fill="#EBEBEB"/>
<path d="M991.109 110.342H1004V104.912H991.109V110.342Z" fill="#EBEBEB"/>
<path d="M1093.2 52.1853L1099.58 52.0495L1102.82 51.9961C1103.91 51.9961 1105 51.9961 1106.09 51.9961H1106.3V52.2144L1106.33 57.6439V57.8865H1106.09L1099.64 57.8574C1097.49 57.8574 1095.34 57.804 1093.2 57.7749H1093.06V57.6439C1093.06 56.722 1093.1 55.805 1093.12 54.9025L1093.2 52.1853ZM1093.2 52.1853L1093.26 54.9316C1093.26 55.8341 1093.32 56.7269 1093.33 57.6148L1093.2 57.4838C1095.34 57.4838 1097.49 57.4062 1099.64 57.4013L1106.09 57.3722L1105.84 57.6148V52.1853L1106.06 52.4037C1105 52.4037 1103.94 52.4037 1102.87 52.3746L1099.67 52.3212L1093.2 52.1853Z" fill="#EBEBEB"/>
<path d="M1115.11 13.232L1121.5 13.0962L1124.75 13.0428C1125.83 13.0428 1126.92 13.0428 1128 13.0137H1128.22V13.232L1128.25 18.6615V18.9041H1128L1121.56 18.8701C1119.41 18.8701 1117.26 18.8167 1115.11 18.7925H1114.98V18.6615C1114.98 17.7396 1115.02 16.8225 1115.05 15.9152L1115.11 13.232ZM1115.11 13.232L1115.18 15.9734C1115.18 16.8759 1115.24 17.7736 1115.25 18.6615L1115.11 18.5256C1117.26 18.5014 1119.41 18.4528 1121.56 18.448L1128 18.4189L1127.76 18.6615L1127.79 13.232L1128 13.4455C1126.94 13.4455 1125.88 13.4455 1124.82 13.4455L1121.63 13.3533L1115.11 13.232Z" fill="#EBEBEB"/>
<path d="M936.78 52.8943L943.166 52.7585L946.408 52.7051C947.493 52.7051 948.583 52.7051 949.669 52.7051H949.883V52.9234L949.912 58.3529V58.5955H949.669L943.224 58.5664C941.073 58.5664 938.926 58.513 936.78 58.4839H936.668V58.3529C936.668 57.431 936.712 56.5139 936.731 55.6115L936.78 52.8943ZM936.78 52.8943L936.848 55.6406C936.848 56.5431 936.902 57.4358 936.911 58.3238L936.78 58.1928C938.926 58.1928 941.073 58.1151 943.224 58.1103L949.669 58.0812L949.425 58.3238L949.45 52.8943L949.669 53.1127C948.603 53.1127 947.547 53.1127 946.481 53.0835L943.278 53.0302L936.78 52.8943Z" fill="#EBEBEB"/>
<path d="M833.07 180.451L839.456 180.315L842.702 180.262C843.783 180.237 844.873 180.262 845.959 180.232H846.173V180.451V185.88V186.123H845.929L839.485 186.094C837.338 186.094 835.187 186.036 833.041 186.011H832.904V185.88C832.904 184.958 832.943 184.041 832.968 183.139L833.07 180.451ZM833.07 180.451L833.138 183.192C833.138 184.1 833.191 184.992 833.201 185.88L833.07 185.749C835.216 185.725 837.368 185.672 839.514 185.667L845.959 185.638L845.715 185.88V180.451L845.934 180.669C844.873 180.669 843.812 180.669 842.746 180.64L839.548 180.587L833.07 180.451Z" fill="#EBEBEB"/>
<path d="M825.881 179.033H838.77V173.604H825.881V179.033Z" fill="#EBEBEB"/>
<path d="M1120.98 185.875H1133.87V180.446H1120.98V185.875Z" fill="#EBEBEB"/>
<path d="M877.359 103.904H836.371V146.035H877.359V103.904Z" fill="#EBEBEB"/>
<path d="M898.521 103.904H877.357V146.035H898.521V103.904Z" fill="#DBDBDB"/>
<path d="M897.066 143.346C895.499 140.351 893.945 137.346 892.403 134.331L887.813 125.267L883.282 116.17C881.779 113.132 880.292 110.083 878.818 107.023C880.386 110.016 881.938 113.021 883.476 116.039L888.066 125.097L892.598 134.2C894.104 137.237 895.593 140.286 897.066 143.346Z" fill="#EBEBEB"/>
<path d="M897.066 107.023C895.593 110.08 894.104 113.129 892.598 116.17L888.066 125.267L883.476 134.331C881.938 137.349 880.386 140.354 878.818 143.346C880.288 140.289 881.776 137.241 883.282 134.2L887.813 125.097L892.403 116.039C893.941 113.021 895.496 110.016 897.066 107.023Z" fill="#EBEBEB"/>
<path d="M874.662 138.883H870.111V143.42H874.662V138.883Z" fill="white"/>
<path d="M874.666 77.6973H833.678V103.903H874.666V77.6973Z" fill="#DBDBDB"/>
<path d="M895.829 77.6973H874.666V103.903H895.829V77.6973Z" fill="#C7C7C7"/>
<path d="M857.651 87.479H856.785H856.133L855.763 86.7221L855.242 87.479L854.531 85.9264L853.859 87.479H851.942H851.066L850.749 86.4407L850.452 87.479H849.883V77.6973H857.651V87.479Z" fill="white"/>
<path d="M894.375 102.346C892.807 100.437 891.255 98.5273 889.717 96.6156L885.122 90.8659L880.59 85.0823C879.085 83.1414 877.597 81.2006 876.127 79.2598C877.694 81.1618 879.247 83.0719 880.785 84.9901L885.375 90.7495L889.911 96.5331C891.41 98.4643 892.898 100.402 894.375 102.346Z" fill="#DBDBDB"/>
<path d="M894.375 79.2598C892.898 81.2006 891.41 83.1414 889.911 85.0823L885.375 90.8659L880.785 96.6253C879.247 98.5435 877.694 100.454 876.127 102.356C877.603 100.415 879.091 98.474 880.59 96.5331L885.122 90.7495L889.717 84.9901C891.251 83.0848 892.804 81.1747 894.375 79.2598Z" fill="#DBDBDB"/>
<path d="M879.758 146.033H830.924V193.19H879.758V146.033Z" fill="#DBDBDB"/>
<path d="M904.976 146.033H879.758V193.195H904.976V146.033Z" fill="#C7C7C7"/>
<path d="M859.486 157.683H858.454H857.676L857.233 156.79L856.61 157.683L855.768 155.839L854.969 157.683H852.682H851.64L851.26 156.455L850.91 157.683H850.229V146.033H859.486V157.683Z" fill="white"/>
<path d="M903.239 190.392C901.376 186.966 899.526 183.528 897.69 180.077L892.219 169.713L886.816 159.305C885.025 155.831 883.252 152.344 881.496 148.844C883.365 152.269 885.216 155.706 887.05 159.154L892.521 169.518L897.919 179.931C899.71 183.405 901.483 186.892 903.239 190.392Z" fill="#DBDBDB"/>
<path d="M903.239 148.844C901.483 152.34 899.71 155.827 897.919 159.305L892.521 169.713L887.05 180.081C885.22 183.526 883.368 186.963 881.496 190.392C883.252 186.895 885.025 183.408 886.816 179.931L892.219 169.518L897.69 159.154C899.52 155.706 901.37 152.269 903.239 148.844Z" fill="#DBDBDB"/>
<path d="M838.259 190.475H838.492V187.214H838.259V190.475Z" fill="white"/>
<path d="M837.7 190.475H837.934V187.214H837.7V190.475Z" fill="white"/>
<path d="M837.143 190.475H837.377V187.214H837.143V190.475Z" fill="white"/>
<path d="M836.589 190.475H836.822V187.214H836.589V190.475Z" fill="white"/>
<path d="M836.03 190.475H836.264V187.214H836.03V190.475Z" fill="white"/>
<path d="M835.475 190.475H835.709V187.214H835.475V190.475Z" fill="white"/>
<path d="M834.921 190.475H835.154V187.214H834.921V190.475Z" fill="white"/>
<path d="M834.364 190.475H834.598V187.214H834.364V190.475Z" fill="white"/>
<path d="M833.805 190.475H834.039V187.214H833.805V190.475Z" fill="white"/>
<path d="M840.779 190.227L839.889 190.475H841.982L841.086 190.222V189.024C841.729 188.941 841.982 188.315 841.982 187.219H839.889C839.889 188.31 840.142 188.941 840.779 189.024V190.227Z" fill="white"/>
<path d="M842.455 188.878H843V190.475H844.402V188.878H844.947L843.701 187.219L842.455 188.878Z" fill="white"/>
<path d="M870.723 43.3301H839.592V77.6973H870.723V43.3301Z" fill="#EBEBEB"/>
<path d="M886.802 43.3301H870.725V77.7021H886.802V43.3301Z" fill="#DBDBDB"/>
<path d="M885.691 75.3386C884.504 72.8997 883.324 70.4494 882.153 67.9877L878.668 60.5932L875.222 53.1695C874.083 50.6917 872.947 48.2042 871.814 45.707C873.002 48.1492 874.182 50.6012 875.353 53.0628L878.838 60.4525L882.284 67.881C883.436 70.3491 884.572 72.835 885.691 75.3386Z" fill="#EBEBEB"/>
<path d="M885.691 45.6973C884.572 48.1912 883.436 50.6787 882.284 53.1597L878.838 60.5834L875.353 67.978C874.185 70.4364 873.005 72.8867 871.814 75.3289C872.934 72.8349 874.07 70.3474 875.222 67.8664L878.668 60.4427L882.153 53.053C883.321 50.5946 884.5 48.1427 885.691 45.6973Z" fill="#EBEBEB"/>
<path d="M839.535 194.686H833.324V200.188H839.535V194.686Z" fill="#DBDBDB"/>
<path d="M839.535 195.899L833.324 196.646V194.686H839.535V195.899Z" fill="#C7C7C7"/>
<path d="M872.013 194.686H865.803V200.188H872.013V194.686Z" fill="#DBDBDB"/>
<path d="M872.013 195.899L865.803 196.646V194.686H872.013V195.899Z" fill="#C7C7C7"/>
<path d="M904.494 194.686H898.283V200.188H904.494V194.686Z" fill="#DBDBDB"/>
<path d="M904.494 195.899L898.283 196.646V194.686H904.494V195.899Z" fill="#C7C7C7"/>
<path d="M907.916 193.195H829.902V194.685H907.916V193.195Z" fill="#DBDBDB"/>
<path d="M907.916 200.188H829.902V201.677H907.916V200.188Z" fill="#DBDBDB"/>
<path d="M965.277 147.951H924.289V193.197H965.277V147.951Z" fill="#EBEBEB"/>
<path d="M986.441 147.951H965.277V193.197H986.441V147.951Z" fill="#DBDBDB"/>
<path d="M984.98 190.082C983.413 186.866 981.86 183.632 980.322 180.378L975.732 170.644L971.196 160.872C969.693 157.605 968.206 154.33 966.732 151.047C968.3 154.262 969.854 157.497 971.395 160.751L975.985 170.484L980.517 180.256C982.022 183.52 983.51 186.795 984.98 190.082Z" fill="#EBEBEB"/>
<path d="M984.98 151.066C983.507 154.35 982.019 157.625 980.517 160.892L975.985 170.664L971.395 180.397C969.857 183.632 968.303 186.867 966.732 190.101C968.209 186.815 969.697 183.54 971.196 180.276L975.732 170.504L980.322 160.737C981.86 157.502 983.413 154.278 984.98 151.066Z" fill="#EBEBEB"/>
<path d="M967.537 90.5938H937.232V121.744H967.537V90.5938Z" fill="#EBEBEB"/>
<path d="M983.184 90.5938H967.535V121.744H983.184V90.5938Z" fill="#DBDBDB"/>
<path d="M954.959 97.8233H954.317H953.835L953.558 97.2653L953.173 97.8233L952.652 96.6782L952.156 97.8233H950.734H950.087L949.853 97.0616L949.634 97.8233H949.211V90.5938H954.959V97.8233Z" fill="#DBDBDB"/>
<path d="M982.109 119.759C980.95 117.544 979.801 115.321 978.662 113.093L975.255 106.392L971.902 99.6622C970.792 97.4173 969.692 95.1627 968.602 92.8984C969.76 95.1142 970.909 97.3365 972.048 99.5652L975.455 106.266L978.808 112.996C979.918 115.244 981.018 117.498 982.109 119.759Z" fill="#EBEBEB"/>
<path d="M982.109 92.8984C981.018 95.1627 979.918 97.4173 978.808 99.6622L975.455 106.392L972.048 113.093C970.909 115.318 969.76 117.54 968.602 119.759C969.692 117.495 970.792 115.241 971.902 112.996L975.255 106.266L978.662 99.5652C979.801 97.3235 980.95 95.1013 982.109 92.8984Z" fill="#EBEBEB"/>
<path d="M965.541 116.455H962.178V119.808H965.541V116.455Z" fill="white"/>
<path d="M942.425 120.031H942.596V117.62H942.425V120.031Z" fill="white"/>
<path d="M942.011 120.031H942.182V117.62H942.011V120.031Z" fill="white"/>
<path d="M941.603 120.031H941.773V117.62H941.603V120.031Z" fill="white"/>
<path d="M941.189 120.031H941.359V117.62H941.189V120.031Z" fill="white"/>
<path d="M940.781 120.031H940.951V117.62H940.781V120.031Z" fill="white"/>
<path d="M940.367 120.031H940.537V117.62H940.367V120.031Z" fill="white"/>
<path d="M939.957 120.031H940.127V117.62H939.957V120.031Z" fill="white"/>
<path d="M939.544 120.031H939.715V117.62H939.544V120.031Z" fill="white"/>
<path d="M939.134 120.031H939.305V117.62H939.134V120.031Z" fill="white"/>
<path d="M944.275 119.847L943.613 120.032H945.161L944.504 119.847V118.964C944.991 118.901 945.161 118.435 945.161 117.625H943.613C943.613 118.435 943.803 118.901 944.275 118.964V119.847Z" fill="white"/>
<path d="M945.521 118.853H945.925V120.032H946.962V118.853H947.371L946.446 117.625L945.521 118.853Z" fill="white"/>
<path d="M968.008 121.744H927.02V147.945H968.008V121.744Z" fill="#DBDBDB"/>
<path d="M989.171 121.744H968.008V147.95H989.171V121.744Z" fill="#C7C7C7"/>
<path d="M950.991 131.521H950.125H949.472L949.098 130.769L948.577 131.521L947.871 129.973L947.199 131.521H945.282H944.405L944.089 130.488L943.792 131.521H943.223V121.744H950.991V131.521Z" fill="white"/>
<path d="M987.711 146.393C986.143 144.484 984.591 142.574 983.053 140.662L978.463 134.903L973.926 129.119C972.427 127.179 970.939 125.238 969.463 123.297C971.03 125.199 972.584 127.107 974.126 129.022L978.716 134.782L983.247 140.565C984.753 142.503 986.241 144.445 987.711 146.393Z" fill="#DBDBDB"/>
<path d="M987.711 123.307C986.241 125.247 984.753 127.188 983.247 129.129L978.716 134.913L974.145 140.663C972.607 142.577 971.053 144.488 969.482 146.393C970.959 144.452 972.447 142.511 973.946 140.57L978.482 134.787L983.072 129.027C984.584 127.112 986.13 125.205 987.711 123.307Z" fill="#DBDBDB"/>
<path d="M929.502 194.686H923.291V200.188H929.502V194.686Z" fill="#DBDBDB"/>
<path d="M929.507 195.899L923.291 196.646V194.686H929.507V195.899Z" fill="#C7C7C7"/>
<path d="M961.982 194.686H955.771V200.188H961.982V194.686Z" fill="#DBDBDB"/>
<path d="M961.987 195.899L955.771 196.646V194.686H961.987V195.899Z" fill="#C7C7C7"/>
<path d="M994.463 194.686H988.252V200.188H994.463V194.686Z" fill="#DBDBDB"/>
<path d="M994.468 195.899L988.252 196.646V194.686H994.468V195.899Z" fill="#C7C7C7"/>
<path d="M997.883 193.195H919.869V194.685H997.883V193.195Z" fill="#DBDBDB"/>
<path d="M997.883 200.188H919.869V201.677H997.883V200.188Z" fill="#DBDBDB"/>
<path d="M1025.17 30.3262H1009.15V201.682H1025.17V30.3262Z" fill="#C7C7C7"/>
<path d="M1129.54 30.3262H1113.52V201.682H1129.54V30.3262Z" fill="#EBEBEB"/>
<path d="M1113.52 47.1348H1015.72V52.8893H1113.52V47.1348Z" fill="#DBDBDB"/>
<path d="M1113.52 84.3301H1015.72V90.0846H1113.52V84.3301Z" fill="#DBDBDB"/>
<path d="M1113.52 121.531H1015.72V127.286H1113.52V121.531Z" fill="#DBDBDB"/>
<path d="M1113.52 158.727H1015.72V164.481H1113.52V158.727Z" fill="#DBDBDB"/>
<path d="M1113.52 195.928H1015.72V201.682H1113.52V195.928Z" fill="#DBDBDB"/>
<path d="M1057.35 53.1758H1027.04V84.3309H1057.35V53.1758Z" fill="#EBEBEB"/>
<path d="M1073 53.1758H1057.35V84.3309H1073V53.1758Z" fill="#DBDBDB"/>
<path d="M1044.77 60.4054H1044.13H1043.65L1043.37 59.8522L1042.99 60.4054L1042.46 59.2603L1041.97 60.4054H1040.55H1039.9L1039.66 59.6436L1039.45 60.4054H1039.03V53.1758H1044.77V60.4054Z" fill="#DBDBDB"/>
<path d="M1071.93 82.3405C1070.77 80.128 1069.62 77.9057 1068.48 75.6738L1065.07 68.9731L1061.76 62.2384C1060.64 59.9935 1059.54 57.7389 1058.46 55.4746C1059.62 57.6904 1060.77 59.9126 1061.91 62.1414L1065.31 68.8421L1068.67 75.5719C1069.75 77.8232 1070.84 80.0795 1071.93 82.3405Z" fill="#EBEBEB"/>
<path d="M1071.93 55.4805C1070.84 57.7448 1069.74 59.9994 1068.63 62.2442L1065.27 68.9741L1061.87 75.6748C1060.73 77.9067 1059.58 80.129 1058.42 82.3415C1059.51 80.0772 1060.61 77.8226 1061.72 75.5777L1065.07 68.8479L1068.48 62.1472C1069.62 59.9217 1070.77 57.6995 1071.93 55.4805Z" fill="#EBEBEB"/>
<path d="M1055.36 79.041H1051.99V82.3938H1055.36V79.041Z" fill="white"/>
<path d="M1076.44 102.152H1046.13V121.532H1076.44V102.152Z" fill="#DBDBDB"/>
<path d="M1092.09 102.152H1076.44V121.532H1092.09V102.152Z" fill="#C7C7C7"/>
<path d="M1063.86 109.382H1063.22H1062.74L1062.46 108.824L1062.08 109.382L1061.55 108.237L1061.05 109.382H1059.64H1058.99L1058.76 108.62L1058.54 109.382H1058.11V102.152H1063.86V109.382Z" fill="white"/>
<path d="M1091.01 120.376C1089.85 118.969 1088.7 117.557 1087.56 116.14L1084.16 111.88L1080.8 107.606C1079.69 106.176 1078.59 104.743 1077.5 103.307C1078.66 104.714 1079.81 106.126 1080.95 107.542L1084.36 111.803L1087.71 116.077C1088.83 117.504 1089.92 118.94 1091.01 120.376Z" fill="#DBDBDB"/>
<path d="M1091.01 103.307C1089.92 104.762 1088.83 106.174 1087.71 107.601L1084.36 111.88L1080.95 116.14C1079.81 117.557 1078.66 118.969 1077.5 120.376C1078.59 118.94 1079.69 117.507 1080.8 116.077L1084.16 111.803L1087.56 107.542C1088.7 106.129 1089.85 104.717 1091.01 103.307Z" fill="#DBDBDB"/>
<path d="M0 201.143L39.7143 201.022L79.4236 200.983L158.852 200.9L238.281 200.983L277.995 201.022L317.704 201.143L277.995 201.259L238.281 201.303L158.852 201.386L79.4236 201.303L39.7143 201.259L0 201.143Z" fill="#263238"/>
<path d="M206.826 28.4199H197.615V187.335H206.826V28.4199Z" fill="#37474F"/>
<path d="M202.819 34.4355H201.629V181.317H202.819V34.4355Z" fill="#263238"/>
<path d="M189.072 62.9084L197.615 65.3199V28.4199L189.072 30.8314V62.9084Z" fill="#263238"/>
<path d="M211.658 63.8438L206.826 67.4634V152.588L211.658 156.208V63.8438Z" fill="#263238"/>
<path d="M295.119 152.846H211.658V156.208L295.119 153.918V152.846Z" fill="#263238"/>
<path d="M188.956 189.493H21.9414V146.455H63.3232H96.6842H102.877H175.654L188.956 158.619V189.493Z" fill="#FF9E35"/>
<path opacity="0.2" d="M80.1012 189.493H32.566C30.4289 185.425 29.3822 180.878 29.5269 176.291C29.6716 171.703 31.0029 167.23 33.3921 163.304C35.7813 159.378 39.1478 156.132 43.1661 153.878C47.1844 151.625 51.7188 150.441 56.3312 150.441C60.9435 150.441 65.4779 151.625 69.4962 153.878C73.5145 156.132 76.881 159.378 79.2702 163.304C81.6594 167.23 82.9907 171.703 83.1354 176.291C83.2801 180.878 82.2334 185.425 80.0963 189.493H80.1012Z" fill="black"/>
<path opacity="0.2" d="M188.956 158.615V189.494H159.018C157.015 185.664 155.976 181.408 155.99 177.091C156.004 172.773 157.071 168.524 159.098 164.707C161.125 160.89 164.053 157.619 167.629 155.175C171.206 152.732 175.325 151.188 179.633 150.677L180.194 150.619L188.956 158.615Z" fill="black"/>
<path opacity="0.2" d="M150.202 177.174H114.262L102.877 166.96V146.455H150.202V177.174Z" fill="black"/>
<path d="M175.654 146.455H197.615V151.734L188.956 158.614L175.654 146.455Z" fill="#37474F"/>
<g opacity="0.2">
<path d="M90.0087 146.455H81.666L92.8562 189.488H101.194L90.0087 146.455Z" fill="white"/>
<path d="M95.7623 146.455H93.4121L104.602 189.488H106.952L95.7623 146.455Z" fill="white"/>
</g>
<path d="M205.699 172.89L205.353 172.851L205.739 176.097L206.065 175.98C206.065 175.466 205.997 174.942 205.934 174.423C205.87 173.904 205.797 173.394 205.699 172.89ZM205.212 172.142L205.519 171.973C205.283 170.961 204.98 169.965 204.612 168.993H204.261L205.212 172.142ZM205.578 180.076L205.924 180.022C206.056 178.991 206.115 177.952 206.099 176.912L205.768 176.815L205.578 180.076ZM204.266 168.12C203.864 167.163 203.394 166.236 202.862 165.345L202.52 165.427L203.983 168.338L204.266 168.12ZM204.724 183.972H205.071C205.381 182.979 205.622 181.965 205.792 180.939L205.475 180.784L204.724 183.972ZM200.175 162.191L202.125 164.811L202.35 164.544C201.786 163.671 201.16 162.839 200.477 162.055L200.175 162.191ZM203.223 187.659L203.559 187.718C204.037 186.796 204.451 185.843 204.797 184.865L204.52 184.656L203.223 187.659ZM197.318 159.42L199.712 161.657L199.887 161.361C199.179 160.598 198.418 159.884 197.61 159.226L197.318 159.42ZM201.072 191.027L201.399 191.143C202.029 190.315 202.602 189.446 203.115 188.542L202.876 188.295L201.072 191.027ZM194.007 157.179L196.747 158.969L196.874 158.644C196.041 158.018 195.166 157.449 194.256 156.941L194.007 157.179ZM198.395 193.977L198.693 194.147C199.457 193.439 200.174 192.682 200.838 191.881L200.648 191.59L198.395 193.977ZM190.365 155.548L193.383 156.839L193.451 156.495C192.521 156.022 191.56 155.612 190.574 155.267L190.365 155.548ZM195.241 196.408L195.509 196.631C196.385 196.068 197.221 195.446 198.01 194.768L197.874 194.457L195.241 196.408ZM186.503 154.573L189.697 155.32V154.971C188.701 154.663 187.684 154.426 186.654 154.263L186.503 154.573ZM191.696 198.242L191.915 198.509C192.878 198.108 193.812 197.641 194.709 197.111L194.626 196.776L191.696 198.242ZM182.607 153.938L182.51 154.267L185.781 154.452L185.728 154.112C184.671 153.988 183.608 153.934 182.544 153.952L182.607 153.938ZM188.049 199.746C189.067 199.52 190.067 199.222 191.043 198.853L191.018 198.509L187.878 199.45L188.049 199.746ZM180.106 154.098C179.584 154.161 179.072 154.233 178.56 154.335L178.521 154.675L181.783 154.292L181.666 153.971C181.086 154.005 180.569 154.049 180.042 154.112L180.106 154.098ZM184.007 200.304C184.523 200.28 185.045 200.236 185.567 200.173C186.089 200.11 186.61 200.037 187.117 199.935L187.156 199.6L183.894 199.984L184.007 200.304ZM174.63 155.417L174.655 155.762L177.8 154.821L177.629 154.525C176.592 154.753 175.574 155.057 174.581 155.432L174.63 155.417ZM179.95 200.158C180.985 200.287 182.027 200.346 183.07 200.333L183.168 200.003L179.886 199.819L179.95 200.158ZM170.968 157.164L171.046 157.499L173.972 156.043L173.748 155.772C172.773 156.174 171.828 156.644 170.92 157.179L170.968 157.164ZM175.917 199.324C176.913 199.635 177.93 199.875 178.96 200.042L179.111 199.731L175.917 198.984V199.324ZM167.628 159.537L167.765 159.852L170.398 157.911L170.135 157.683C169.257 158.243 168.42 158.862 167.628 159.537ZM172.173 197.8C173.102 198.277 174.063 198.689 175.05 199.033L175.254 198.751L172.236 197.465L172.173 197.8ZM164.786 162.424L164.976 162.71L167.229 160.333L166.931 160.158C166.159 160.862 165.437 161.619 164.771 162.424H164.786ZM168.735 195.651C169.567 196.28 170.442 196.85 171.354 197.359L171.597 197.126L168.852 195.331L168.735 195.651ZM162.489 165.762L162.728 166.009L164.527 163.278L164.206 163.161C163.569 163.987 162.99 164.856 162.475 165.762H162.489ZM165.722 192.934C166.431 193.698 167.193 194.412 168.004 195.069L168.282 194.879L165.893 192.642L165.722 192.934ZM160.802 169.44L161.08 169.644L162.377 166.64L162.041 166.582C161.561 167.505 161.147 168.46 160.802 169.44ZM163.24 189.751C163.806 190.622 164.43 191.456 165.108 192.245L165.425 192.109L163.474 189.489L163.24 189.751ZM159.827 173.36L160.139 173.511L160.89 170.328H160.539C160.219 171.321 159.967 172.334 159.783 173.36H159.827ZM161.29 186.18C161.696 187.138 162.169 188.066 162.704 188.96L163.035 188.872L161.573 185.961L161.29 186.18ZM159.973 174.224L159.637 174.282C159.505 175.314 159.445 176.353 159.456 177.392L159.783 177.489L159.973 174.224ZM160.339 182.162L160.046 182.327C160.278 183.341 160.579 184.338 160.948 185.311L161.285 185.287L160.339 182.162ZM159.827 178.208L159.505 178.319C159.505 178.833 159.573 179.353 159.632 179.872C159.69 180.391 159.778 180.91 159.876 181.42L160.212 181.454L159.827 178.208Z" fill="#263238"/>
<path d="M205.739 176.097L206.066 175.981C206.066 176.291 206.095 176.602 206.095 176.912L205.764 176.815L205.573 180.076L205.92 180.023C205.885 180.333 205.837 180.639 205.788 180.944L205.471 180.789L204.72 183.972H205.066C204.979 184.27 204.881 184.566 204.774 184.86L204.496 184.651L203.223 187.66L203.56 187.718C203.423 187.994 203.272 188.276 203.116 188.543L202.877 188.295L201.073 191.027L201.4 191.143C201.214 191.391 201.014 191.629 200.819 191.881L200.629 191.59L198.347 193.977L198.645 194.147C198.42 194.356 198.182 194.564 197.943 194.768L197.806 194.457L195.173 196.398L195.441 196.621C195.178 196.791 194.915 196.961 194.642 197.107L194.559 196.772L191.633 198.228L191.853 198.494C191.565 198.621 191.277 198.732 190.98 198.839L190.955 198.494L187.815 199.436L187.986 199.732C187.684 199.804 187.377 199.863 187.069 199.921L187.108 199.586L183.846 199.969L183.959 200.29C183.633 200.29 183.321 200.299 183.022 200.319L183.12 199.989L179.838 199.804L179.902 200.144C179.59 200.11 179.283 200.066 178.97 200.013L179.122 199.703L175.918 198.984V199.324C175.621 199.232 175.318 199.14 175.026 199.033L175.231 198.752L172.212 197.466L172.149 197.801C171.871 197.665 171.603 197.514 171.33 197.359L171.574 197.126L168.829 195.331L168.712 195.651C168.463 195.462 168.224 195.273 167.98 195.074L168.258 194.884L165.869 192.648L165.698 192.939C165.484 192.711 165.274 192.483 165.069 192.245L165.386 192.109L163.436 189.489L163.216 189.751C163.041 189.489 162.88 189.227 162.729 188.96L163.06 188.873L161.598 185.961L161.329 186.185C161.212 185.898 161.091 185.612 160.988 185.316L161.325 185.292L160.379 182.167L160.086 182.332C160.018 182.031 159.954 181.73 159.901 181.425L160.237 181.459L159.852 178.213L159.53 178.324C159.53 178.019 159.501 177.708 159.496 177.398L159.823 177.495L160.013 174.229L159.676 174.287C159.711 173.977 159.755 173.671 159.808 173.365L160.12 173.516L160.871 170.333H160.52C160.613 170.037 160.715 169.741 160.817 169.445L161.095 169.649L162.392 166.645L162.056 166.587C162.197 166.311 162.349 166.034 162.5 165.767L162.739 166.015L164.538 163.283L164.216 163.166C164.401 162.919 164.596 162.681 164.796 162.429L164.986 162.715L167.239 160.338L166.942 160.163C167.166 159.95 167.4 159.746 167.639 159.542L167.775 159.857L170.408 157.916L170.145 157.688C170.403 157.519 170.672 157.354 170.945 157.203L171.023 157.538L173.948 156.082L173.724 155.811C174.017 155.685 174.309 155.573 174.602 155.466L174.626 155.811L177.771 154.869L177.6 154.573C177.903 154.501 178.21 154.438 178.517 154.384L178.478 154.724L181.74 154.341L181.623 154.02C181.94 153.996 182.252 153.991 182.564 153.986L182.466 154.316L185.738 154.501L185.685 154.161C185.997 154.195 186.304 154.239 186.616 154.297L186.46 154.607L189.654 155.355V155.005C189.951 155.097 190.253 155.194 190.546 155.301L190.336 155.583L193.354 156.873L193.423 156.529C193.701 156.674 193.974 156.82 194.247 156.975L193.998 157.213L196.738 159.003L196.865 158.678C197.114 158.872 197.353 159.062 197.601 159.261L197.309 159.455L199.703 161.691L199.878 161.395C200.093 161.619 200.303 161.852 200.502 162.089L200.186 162.225L202.136 164.845L202.36 164.578C202.536 164.84 202.698 165.107 202.848 165.379L202.506 165.461L203.969 168.373L204.237 168.15C204.364 168.436 204.481 168.727 204.584 169.023H204.233L205.183 172.152L205.491 171.983C205.554 172.288 205.622 172.589 205.676 172.9L205.33 172.861L205.739 176.097Z" fill="#263238"/>
<path d="M181.719 154.307L178.457 154.69L178.501 154.351L178.613 153.293L181.241 152.982L181.602 153.987L181.719 154.307Z" fill="#263238"/>
<path d="M177.751 154.835L174.606 155.776L174.582 155.432L174.514 154.379L177.049 153.617L177.581 154.539L177.751 154.835Z" fill="#263238"/>
<path d="M173.928 156.048L170.998 157.518L170.92 157.178L170.666 156.15L173.031 154.961L173.704 155.776L173.928 156.048Z" fill="#263238"/>
<path d="M170.384 157.893L167.751 159.853L167.61 159.538L167.186 158.562L169.307 156.99L170.121 157.67L170.384 157.893Z" fill="#263238"/>
<path d="M167.209 160.328L164.961 162.71L164.771 162.424L164.176 161.541L165.99 159.619L166.916 160.158L167.209 160.328Z" fill="#263238"/>
<path d="M164.514 163.278L162.714 166.01L162.476 165.762L161.734 164.996L163.187 162.793L164.192 163.162L164.514 163.278Z" fill="#263238"/>
<path d="M162.367 166.64L161.07 169.643L160.792 169.445L159.934 168.814L160.977 166.393L162.025 166.582L162.367 166.64Z" fill="#263238"/>
<path d="M160.846 170.327L160.095 173.51L159.783 173.36L158.822 172.889L159.432 170.322L160.5 170.327H160.846Z" fill="#263238"/>
<path d="M159.988 174.225L159.798 177.49L159.471 177.393L158.447 177.097L158.598 174.462L159.652 174.283L159.988 174.225Z" fill="#263238"/>
<path d="M159.827 178.207L160.212 181.453L159.876 181.419L158.803 181.298L158.496 178.687L159.505 178.319L159.827 178.207Z" fill="#263238"/>
<path d="M161.299 185.287L160.962 185.311L159.894 185.379L159.129 182.856L160.06 182.327L160.353 182.162L161.299 185.287Z" fill="#263238"/>
<path d="M163.051 188.878L162.719 188.96L161.676 189.213L160.486 186.86L161.305 186.18L161.574 185.957L163.051 188.878Z" fill="#263238"/>
<path d="M165.396 192.108L165.079 192.244L164.099 192.676L162.52 190.561L163.212 189.75L163.431 189.488L165.396 192.108Z" fill="#263238"/>
<path d="M168.267 194.883L167.989 195.073L167.092 195.664L165.166 193.86L165.707 192.938L165.878 192.646L168.267 194.883Z" fill="#263238"/>
<path d="M171.582 197.125L171.339 197.358L170.563 198.091L168.35 196.65L168.72 195.65L168.837 195.33L171.582 197.125Z" fill="#263238"/>
<path d="M175.24 198.751L175.036 199.032L174.407 199.891L171.969 198.843L172.159 197.8L172.222 197.465L175.24 198.751Z" fill="#263238"/>
<path d="M179.12 199.732L178.969 200.042L178.501 200.988L175.922 200.387L175.927 199.324V198.984L179.12 199.732Z" fill="#263238"/>
<path d="M183.119 200.018L183.022 200.348L182.724 201.372L180.082 201.222L179.901 200.174L179.838 199.834L183.119 200.018Z" fill="#263238"/>
<path d="M187.109 199.615L187.07 199.95L186.953 201.013L184.325 201.323L183.959 200.319L183.842 199.999L187.109 199.615Z" fill="#263238"/>
<path d="M190.955 198.523L190.979 198.868L191.052 199.926L188.517 200.687L187.985 199.761L187.814 199.465L190.955 198.523Z" fill="#263238"/>
<path d="M194.9 198.154L192.535 199.338L191.852 198.523L191.633 198.256L194.563 196.791L194.646 197.126L194.9 198.154Z" fill="#263238"/>
<path d="M198.381 195.738L196.26 197.315L195.446 196.631L195.178 196.408L197.811 194.457L197.947 194.768L198.381 195.738Z" fill="#263238"/>
<path d="M201.389 192.764L199.571 194.681L198.649 194.147L198.352 193.977L200.604 191.59L200.794 191.881L201.389 192.764Z" fill="#263238"/>
<path d="M203.828 189.309L202.38 191.512L201.376 191.143L201.049 191.027L202.853 188.295L203.092 188.542L203.828 189.309Z" fill="#263238"/>
<path d="M205.631 185.491L204.583 187.912L203.535 187.718L203.193 187.66L204.495 184.656L204.773 184.865L205.631 185.491Z" fill="#263238"/>
<path d="M206.732 181.415L206.133 183.982L205.07 183.977L204.719 183.972L205.47 180.789L205.787 180.944L206.732 181.415Z" fill="#263238"/>
<path d="M207.118 177.207L206.967 179.842L205.918 180.022L205.572 180.075L205.758 176.814L206.094 176.912L207.118 177.207Z" fill="#263238"/>
<path d="M206.758 173.007L207.07 175.622L206.065 175.981L205.739 176.098L205.354 172.852L205.7 172.89L206.758 173.007Z" fill="#263238"/>
<path d="M206.435 171.449L205.514 171.973L205.207 172.148L204.256 169.013L204.607 168.994L205.67 168.926L206.435 171.449Z" fill="#263238"/>
<path d="M205.075 167.445L204.261 168.119L203.993 168.343L202.516 165.427L202.857 165.344L203.891 165.092L205.075 167.445Z" fill="#263238"/>
<path d="M203.047 163.744L202.359 164.545L202.135 164.812L200.17 162.197L200.487 162.056L201.457 161.629L203.047 163.744Z" fill="#263238"/>
<path d="M200.394 160.444L199.863 161.361L199.687 161.657L197.293 159.42L197.586 159.226L198.473 158.639L200.394 160.444Z" fill="#263238"/>
<path d="M197.215 157.655L196.849 158.645L196.728 158.97L193.982 157.179L194.231 156.942L195.001 156.209L197.215 157.655Z" fill="#263238"/>
<path d="M193.592 155.455L193.407 156.494L193.338 156.838L190.32 155.548L190.53 155.266L191.159 154.412L193.592 155.455Z" fill="#263238"/>
<path d="M189.643 153.919L189.638 154.972L189.633 155.321L186.439 154.574L186.591 154.259L187.064 153.312L189.643 153.919Z" fill="#263238"/>
<path d="M185.724 154.466L182.447 154.282L182.545 153.952L182.842 152.938L185.485 153.088L185.665 154.126L185.724 154.466Z" fill="#263238"/>
<path d="M201.477 174.953C201.914 178.632 201.245 182.358 199.554 185.659C197.863 188.96 195.227 191.688 191.978 193.498C188.729 195.308 185.014 196.119 181.302 195.828C177.59 195.537 174.048 194.157 171.125 191.863C168.201 189.569 166.026 186.463 164.876 182.94C163.726 179.416 163.651 175.632 164.662 172.066C165.673 168.5 167.724 165.312 170.555 162.906C173.387 160.5 176.871 158.983 180.569 158.548C183.024 158.259 185.513 158.454 187.892 159.122C190.272 159.79 192.496 160.917 194.437 162.441C196.379 163.964 198 165.853 199.208 168C200.415 170.147 201.186 172.509 201.477 174.953Z" fill="#37474F"/>
<path d="M194.817 175.723C195.099 178.091 194.669 180.489 193.582 182.615C192.494 184.74 190.798 186.496 188.707 187.662C186.617 188.828 184.226 189.35 181.836 189.164C179.447 188.977 177.167 188.09 175.285 186.614C173.403 185.138 172.003 183.139 171.262 180.871C170.521 178.603 170.472 176.167 171.122 173.872C171.773 171.577 173.092 169.525 174.914 167.976C176.737 166.427 178.979 165.45 181.359 165.17C184.55 164.794 187.76 165.694 190.284 167.673C192.808 169.652 194.438 172.548 194.817 175.723Z" fill="#455A64"/>
<path d="M188.107 176.523C188.23 177.572 188.038 178.633 187.555 179.572C187.072 180.512 186.32 181.288 185.393 181.802C184.467 182.317 183.409 182.546 182.352 182.462C181.294 182.378 180.286 181.984 179.454 181.329C178.622 180.675 178.003 179.79 177.677 178.786C177.35 177.781 177.33 176.703 177.619 175.688C177.908 174.672 178.493 173.765 179.3 173.08C180.107 172.396 181.1 171.964 182.153 171.841C182.853 171.759 183.563 171.816 184.241 172.007C184.919 172.198 185.552 172.52 186.105 172.955C186.658 173.389 187.119 173.928 187.463 174.541C187.806 175.153 188.025 175.827 188.107 176.523Z" fill="#263238"/>
<path d="M183.602 184.055C182.229 184.217 180.84 183.969 179.609 183.345C178.377 182.72 177.36 181.746 176.685 180.546C176.01 179.346 175.708 177.974 175.817 176.603C175.925 175.232 176.44 173.924 177.296 172.844C178.152 171.764 179.311 170.961 180.625 170.537C181.939 170.112 183.351 170.085 184.681 170.459C186.011 170.833 187.2 171.59 188.097 172.637C188.994 173.683 189.559 174.97 189.721 176.336C189.937 178.167 189.414 180.008 188.266 181.455C187.119 182.903 185.441 183.838 183.602 184.055ZM182.037 170.872C180.793 171.02 179.62 171.531 178.668 172.341C177.715 173.151 177.026 174.223 176.685 175.423C176.345 176.623 176.37 177.896 176.757 179.082C177.143 180.268 177.875 181.313 178.858 182.086C179.841 182.859 181.032 183.324 182.281 183.423C183.53 183.523 184.781 183.251 185.875 182.644C186.969 182.036 187.857 181.12 188.428 180.01C188.999 178.9 189.227 177.647 189.082 176.408C188.881 174.747 188.027 173.232 186.707 172.195C185.387 171.157 183.708 170.682 182.037 170.872Z" fill="#263238"/>
<path d="M182.793 167.602C182.823 167.824 182.787 168.05 182.687 168.251C182.588 168.453 182.431 168.62 182.236 168.732C182.041 168.845 181.816 168.897 181.592 168.882C181.367 168.867 181.151 168.785 180.973 168.648C180.795 168.511 180.661 168.325 180.59 168.112C180.518 167.899 180.512 167.67 180.572 167.454C180.632 167.238 180.755 167.044 180.925 166.897C181.096 166.751 181.307 166.658 181.53 166.631C181.827 166.595 182.125 166.677 182.362 166.859C182.598 167.04 182.753 167.307 182.793 167.602Z" fill="#263238"/>
<path d="M177.995 168.877C178.129 169.056 178.206 169.271 178.218 169.494C178.23 169.717 178.174 169.939 178.06 170.13C177.945 170.322 177.776 170.476 177.573 170.573C177.371 170.669 177.144 170.703 176.922 170.671C176.7 170.64 176.492 170.543 176.325 170.394C176.158 170.245 176.039 170.05 175.983 169.833C175.927 169.617 175.937 169.389 176.011 169.178C176.085 168.968 176.221 168.783 176.4 168.649C176.52 168.56 176.656 168.494 176.801 168.457C176.946 168.42 177.097 168.412 177.245 168.433C177.393 168.455 177.536 168.505 177.664 168.581C177.793 168.657 177.905 168.758 177.995 168.877Z" fill="#263238"/>
<path d="M174.479 172.371C174.685 172.46 174.86 172.608 174.982 172.795C175.103 172.983 175.166 173.202 175.163 173.426C175.159 173.649 175.089 173.866 174.962 174.05C174.834 174.234 174.655 174.376 174.446 174.458C174.238 174.541 174.009 174.56 173.79 174.514C173.57 174.467 173.369 174.357 173.213 174.197C173.056 174.037 172.951 173.834 172.91 173.615C172.869 173.395 172.894 173.168 172.982 172.963C173.041 172.826 173.127 172.702 173.234 172.598C173.341 172.494 173.468 172.412 173.607 172.357C173.746 172.302 173.895 172.275 174.045 172.277C174.194 172.28 174.342 172.312 174.479 172.371Z" fill="#263238"/>
<path d="M173.188 177.139C173.411 177.109 173.639 177.146 173.841 177.244C174.043 177.343 174.212 177.5 174.324 177.694C174.437 177.888 174.489 178.111 174.474 178.335C174.459 178.559 174.378 178.773 174.24 178.95C174.102 179.128 173.914 179.261 173.701 179.332C173.487 179.403 173.257 179.409 173.039 179.35C172.822 179.29 172.628 179.168 172.48 178.998C172.333 178.828 172.24 178.618 172.213 178.396C172.178 178.101 172.261 177.805 172.443 177.57C172.625 177.335 172.893 177.18 173.188 177.139Z" fill="#263238"/>
<path d="M174.456 181.915C174.636 181.782 174.851 181.704 175.075 181.693C175.3 181.681 175.522 181.736 175.715 181.85C175.908 181.965 176.063 182.133 176.159 182.335C176.256 182.536 176.291 182.762 176.259 182.983C176.227 183.204 176.13 183.411 175.98 183.577C175.83 183.743 175.634 183.861 175.417 183.917C175.199 183.973 174.97 183.963 174.758 183.889C174.546 183.815 174.361 183.68 174.226 183.502C174.046 183.261 173.969 182.959 174.012 182.661C174.055 182.364 174.214 182.096 174.456 181.915Z" fill="#263238"/>
<path d="M177.975 185.426C178.064 185.221 178.212 185.046 178.401 184.925C178.589 184.803 178.81 184.739 179.034 184.742C179.259 184.745 179.478 184.814 179.663 184.941C179.848 185.068 179.991 185.246 180.075 185.454C180.158 185.662 180.177 185.889 180.131 186.108C180.084 186.327 179.973 186.527 179.812 186.683C179.651 186.839 179.447 186.944 179.226 186.984C179.005 187.025 178.777 187 178.57 186.911C178.295 186.792 178.077 186.569 177.966 186.291C177.854 186.013 177.858 185.702 177.975 185.426Z" fill="#263238"/>
<path d="M182.774 186.698C182.744 186.476 182.781 186.25 182.88 186.049C182.979 185.847 183.136 185.68 183.331 185.568C183.526 185.455 183.751 185.404 183.976 185.419C184.2 185.434 184.416 185.515 184.594 185.652C184.772 185.789 184.906 185.976 184.977 186.188C185.049 186.401 185.055 186.63 184.995 186.846C184.935 187.063 184.812 187.256 184.642 187.403C184.471 187.549 184.261 187.642 184.037 187.669C183.74 187.705 183.442 187.623 183.205 187.441C182.969 187.26 182.814 186.993 182.774 186.698Z" fill="#263238"/>
<path d="M187.57 185.427C187.436 185.248 187.357 185.033 187.345 184.81C187.333 184.587 187.388 184.365 187.503 184.173C187.618 183.98 187.787 183.826 187.99 183.73C188.193 183.633 188.42 183.599 188.642 183.631C188.864 183.663 189.072 183.759 189.239 183.909C189.407 184.059 189.525 184.254 189.581 184.471C189.636 184.687 189.626 184.916 189.551 185.127C189.476 185.337 189.34 185.521 189.16 185.655C188.918 185.833 188.616 185.909 188.318 185.867C188.02 185.824 187.752 185.666 187.57 185.427Z" fill="#263238"/>
<path d="M191.086 181.935C190.88 181.847 190.704 181.699 190.582 181.512C190.459 181.324 190.396 181.105 190.399 180.881C190.401 180.658 190.471 180.44 190.598 180.256C190.726 180.071 190.905 179.929 191.114 179.846C191.323 179.763 191.551 179.744 191.771 179.79C191.991 179.837 192.192 179.947 192.349 180.108C192.505 180.268 192.611 180.471 192.652 180.691C192.693 180.911 192.667 181.138 192.578 181.343C192.459 181.618 192.235 181.835 191.955 181.946C191.675 182.057 191.363 182.053 191.086 181.935Z" fill="#263238"/>
<path d="M192.379 177.179C192.155 177.209 191.928 177.172 191.726 177.073C191.523 176.974 191.355 176.818 191.242 176.624C191.13 176.43 191.077 176.207 191.092 175.983C191.107 175.759 191.189 175.545 191.327 175.367C191.464 175.19 191.652 175.057 191.866 174.986C192.08 174.915 192.31 174.909 192.527 174.968C192.744 175.028 192.939 175.15 193.086 175.32C193.233 175.49 193.327 175.699 193.354 175.922C193.391 176.217 193.309 176.515 193.127 176.75C192.944 176.986 192.675 177.14 192.379 177.179Z" fill="#263238"/>
<path d="M191.096 172.385C190.916 172.519 190.701 172.597 190.476 172.609C190.252 172.621 190.029 172.566 189.836 172.452C189.642 172.338 189.487 172.17 189.39 171.968C189.293 171.766 189.259 171.54 189.291 171.319C189.323 171.097 189.42 170.891 189.571 170.724C189.721 170.558 189.917 170.44 190.135 170.385C190.353 170.329 190.582 170.34 190.794 170.414C191.006 170.489 191.191 170.624 191.325 170.803C191.506 171.043 191.583 171.345 191.54 171.641C191.497 171.938 191.337 172.206 191.096 172.385Z" fill="#263238"/>
<path d="M187.591 168.888C187.503 169.093 187.355 169.268 187.167 169.39C186.979 169.512 186.758 169.576 186.534 169.573C186.309 169.571 186.09 169.502 185.905 169.376C185.72 169.25 185.576 169.072 185.492 168.865C185.408 168.657 185.388 168.43 185.434 168.211C185.48 167.992 185.591 167.792 185.751 167.636C185.911 167.479 186.115 167.374 186.336 167.332C186.556 167.291 186.784 167.315 186.991 167.403C187.268 167.521 187.486 167.744 187.598 168.022C187.711 168.3 187.708 168.611 187.591 168.888Z" fill="#263238"/>
<path d="M79.2523 172.89L78.911 172.851L79.2962 176.098L79.618 175.981C79.618 175.467 79.5547 174.943 79.4913 174.424C79.4279 173.904 79.3742 173.395 79.2523 172.89ZM78.7648 172.143L79.0719 171.973C78.84 170.961 78.5387 169.965 78.1699 168.994H77.8188L78.7648 172.143ZM79.1304 180.091L79.4766 180.037C79.6063 179.006 79.665 177.967 79.6522 176.927L79.3157 176.83L79.1304 180.091ZM77.8188 168.135C77.4166 167.179 76.9473 166.251 76.4146 165.36L76.0733 165.442L77.536 168.354L77.8188 168.135ZM78.2772 183.987H78.6234C78.9337 182.994 79.1748 181.981 79.345 180.954L79.028 180.799L78.2772 183.987ZM73.7231 162.206L75.6734 164.826L75.8977 164.559C75.3309 163.687 74.7036 162.855 74.0205 162.07L73.7231 162.206ZM76.751 187.675L77.0923 187.733C77.5688 186.81 77.9825 185.857 78.3308 184.88L78.048 184.671L76.751 187.675ZM70.8512 159.436L73.2452 161.672L73.4208 161.376C72.7124 160.613 71.9516 159.9 71.1437 159.241L70.8512 159.436ZM74.6056 191.042L74.9323 191.158C75.562 190.332 76.1339 189.463 76.6437 188.558L76.4097 188.31L74.6056 191.042ZM67.5355 157.194L70.2807 158.984L70.4026 158.659C69.57 158.032 68.6952 157.463 67.7842 156.956L67.5355 157.194ZM71.9239 193.992L72.2213 194.162C72.9856 193.456 73.7007 192.699 74.3618 191.896L74.1717 191.605L71.9239 193.992ZM63.8932 155.564L66.9114 156.854L66.9748 156.51C66.0465 156.036 65.087 155.626 64.1029 155.282L63.8932 155.564ZM68.7691 196.423L69.0373 196.646C69.9128 196.082 70.7485 195.46 71.5387 194.783L71.4021 194.472L68.7691 196.423ZM60.0267 154.588L63.2253 155.336V154.986C62.2276 154.678 61.2093 154.442 60.1778 154.278L60.0267 154.588ZM65.2195 198.257L65.4438 198.524C66.4063 198.123 67.3398 197.656 68.2377 197.126L68.1548 196.792L65.2195 198.257ZM56.1308 153.953L56.0333 154.283L59.3099 154.467L59.2563 154.127C58.2082 153.999 57.1526 153.941 56.0967 153.953H56.1308ZM61.5772 199.761C62.5951 199.534 63.5955 199.236 64.571 198.868V198.524L61.4309 199.465L61.5772 199.761ZM53.6343 154.113C53.1126 154.176 52.5958 154.249 52.0887 154.351L52.0497 154.69L55.3117 154.307L55.1946 153.987C54.6437 154.006 54.1219 154.05 53.6002 154.113H53.6343ZM57.5351 200.319C58.0519 200.295 58.5785 200.251 59.1002 200.188C59.622 200.125 60.1437 200.052 60.6508 199.95L60.6849 199.616L57.4229 199.999L57.5351 200.319ZM48.1636 155.433V155.777L51.3085 154.836L51.1379 154.54C50.1184 154.766 49.1163 155.065 48.1392 155.433H48.1636ZM53.4783 200.174C54.5149 200.303 55.5592 200.361 56.6038 200.348L56.7013 200.018L53.4198 199.834L53.4783 200.174ZM44.4969 157.179L44.5798 157.514L47.5053 156.058L47.281 155.787C46.3141 156.187 45.3757 156.652 44.4725 157.179H44.4969ZM49.5045 199.324C50.5018 199.636 51.5202 199.875 52.5519 200.042L52.703 199.732L49.5045 198.985V199.324ZM41.191 159.537L41.3276 159.853L43.9605 157.912L43.6973 157.684C42.8133 158.245 41.9679 158.864 41.1667 159.537H41.191ZM45.7305 197.801C46.6577 198.278 47.6174 198.69 48.6024 199.033L48.8072 198.752L45.789 197.466L45.7305 197.801ZM38.3435 162.424L38.5337 162.711L40.7815 160.333L40.484 160.158C39.7124 160.862 38.9921 161.619 38.3289 162.424H38.3435ZM42.293 195.651C43.1243 196.281 43.9993 196.852 44.9114 197.359L45.1551 197.126L42.41 195.331L42.293 195.651ZM36.047 165.763L36.281 166.01L38.0802 163.278L37.7584 163.162C37.1231 163.988 36.5463 164.857 36.0323 165.763H36.047ZM39.2748 192.934C39.9836 193.699 40.7462 194.412 41.5567 195.069L41.8395 194.88L39.4503 192.643L39.2748 192.934ZM34.3599 169.436L34.6427 169.639L35.9397 166.636L35.5984 166.578C35.1159 167.503 34.6972 168.459 34.3453 169.44L34.3599 169.436ZM36.7978 189.746C37.3654 190.618 37.9909 191.452 38.6702 192.24L38.9871 192.105L37.0368 189.484L36.7978 189.746ZM33.3847 173.356L33.6919 173.507L34.4428 170.324H34.0966C33.7721 171.317 33.5195 172.332 33.3408 173.361L33.3847 173.356ZM34.906 186.175C35.3129 187.132 35.7836 188.061 36.3151 188.956L36.6467 188.868L35.1839 185.957L34.906 186.175ZM33.5407 174.225L33.2043 174.283C33.0778 175.315 33.0175 176.354 33.0239 177.393L33.3555 177.49L33.5407 174.225ZM33.9113 182.163L33.6188 182.328C33.8483 183.342 34.1481 184.339 34.5159 185.312L34.8572 185.287L33.9113 182.163ZM33.3798 178.208L33.0629 178.32C33.0629 178.834 33.1263 179.353 33.1897 179.872C33.2531 180.392 33.3311 180.911 33.4286 181.42L33.765 181.454L33.3798 178.208Z" fill="#263238"/>
<path d="M79.2959 176.096L79.6177 175.98C79.6177 176.29 79.6469 176.601 79.6518 176.911L79.3154 176.814L79.1301 180.089L79.4763 180.036C79.4422 180.346 79.3934 180.652 79.3446 180.958L79.0277 180.803L78.2768 183.971H78.623C78.5304 184.267 78.4377 184.563 78.3304 184.859L78.0476 184.65L76.7506 187.654L77.092 187.712C76.9506 187.988 76.8043 188.27 76.6434 188.537L76.4093 188.289L74.6053 191.021L74.9319 191.137C74.7418 191.385 74.5467 191.623 74.3468 191.875L74.1567 191.584L71.9089 193.971L72.2063 194.141C71.982 194.35 71.7187 194.558 71.5042 194.762L71.3677 194.451L68.7347 196.392L69.0028 196.615C68.7395 196.785 68.4714 196.955 68.2032 197.101L68.1203 196.766L65.1948 198.221L65.419 198.488C65.1314 198.614 64.8437 198.726 64.5463 198.833V198.488L61.4062 199.43L61.5768 199.726C61.2697 199.798 60.9673 199.857 60.6602 199.915L60.6943 199.58L57.4323 199.963L57.5445 200.284C57.2373 200.284 56.9252 200.308 56.6132 200.313L56.7107 199.983L53.4292 199.798L53.4877 200.138C53.1757 200.104 52.8685 200.06 52.5613 200.007L52.7124 199.696L49.5138 198.949V199.289C49.2164 199.197 48.919 199.105 48.6216 198.998L48.8263 198.716L45.8082 197.431L45.7496 197.765C45.4717 197.63 45.1987 197.479 44.9305 197.324L45.1743 197.091L42.4292 195.296L42.3121 195.616C42.0635 195.427 41.8245 195.237 41.5759 195.039L41.8587 194.849L39.4695 192.612L39.2939 192.904C39.0794 192.676 38.8746 192.448 38.6698 192.21L38.9868 192.074L37.0364 189.454L36.817 189.716C36.6463 189.454 36.4854 189.192 36.3294 188.925L36.661 188.838L35.1982 185.926L34.93 186.15C34.8081 185.863 34.6911 185.577 34.5838 185.281L34.9251 185.257L33.9792 182.132L33.6867 182.297C33.6135 181.996 33.555 181.695 33.4965 181.39L33.8329 181.424L33.4477 178.178L33.1308 178.289C33.1308 177.983 33.1015 177.673 33.0918 177.362L33.4234 177.459L33.6086 174.194L33.2722 174.252C33.3063 173.942 33.3502 173.636 33.4087 173.33L33.7159 173.481L34.4668 170.298H34.1206C34.2116 170 34.3091 169.704 34.4132 169.41L34.696 169.614L35.993 166.61L35.6516 166.552C35.7979 166.275 35.9442 165.999 36.1002 165.732L36.3343 165.979L38.1335 163.248L37.8117 163.131C38.0018 162.884 38.192 162.646 38.3968 162.394L38.5869 162.68L40.8347 160.303L40.5373 160.128C40.7665 159.914 40.9956 159.711 41.2346 159.507L41.3711 159.822L44.0041 157.881L43.7408 157.653C44.0041 157.483 44.2722 157.319 44.5404 157.168L44.6233 157.503L47.5489 156.047L47.3246 155.776C47.6122 155.649 47.9048 155.538 48.2022 155.431V155.776L51.3472 154.834L51.1765 154.538C51.4837 154.465 51.786 154.402 52.0981 154.349L52.0591 154.689L55.321 154.305L55.204 153.985C55.5161 153.961 55.8281 153.956 56.1402 153.951L56.0427 154.281L59.3193 154.465L59.2657 154.126C59.5777 154.16 59.8849 154.203 60.1921 154.262L60.036 154.572L63.2346 155.319V154.97C63.5321 155.062 63.8295 155.159 64.1269 155.266L63.9173 155.548L66.9355 156.838L66.9988 156.494C67.2768 156.639 67.5547 156.785 67.8229 156.94L67.5742 157.178L70.3193 158.968L70.4412 158.643C70.6899 158.837 70.9288 159.026 71.1824 159.225L70.8898 159.419L73.2839 161.656L73.4594 161.36C73.674 161.583 73.8787 161.816 74.0787 162.054L73.7617 162.19L75.7121 164.81L75.9364 164.543C76.107 164.805 76.2777 165.072 76.424 165.344L76.0827 165.426L77.5454 168.338L77.8185 168.114C77.9452 168.401 78.0574 168.692 78.1647 168.988H77.8136L78.7595 172.117L79.0667 171.948C79.135 172.253 79.2032 172.554 79.252 172.865L78.9107 172.826L79.2959 176.096Z" fill="#263238"/>
<path d="M55.2776 154.307L52.0156 154.69L52.0546 154.351L52.1717 153.293L54.7949 152.982L55.1606 153.987L55.2776 154.307Z" fill="#263238"/>
<path d="M51.305 154.835L48.16 155.776L48.1405 155.432L48.0723 154.379L50.6077 153.617L51.1343 154.539L51.305 154.835Z" fill="#263238"/>
<path d="M47.4856 156.048L44.5552 157.518L44.4723 157.178L44.2188 156.15L46.5836 154.961L47.2613 155.776L47.4856 156.048Z" fill="#263238"/>
<path d="M43.9369 157.893L41.3088 159.853L41.1674 159.538L40.7383 158.562L42.8642 156.99L43.6736 157.67L43.9369 157.893Z" fill="#263238"/>
<path d="M40.7672 160.328L38.5194 162.71L38.3292 162.424L37.7344 161.541L39.5482 159.619L40.4698 160.158L40.7672 160.328Z" fill="#263238"/>
<path d="M38.0654 163.278L36.2662 166.01L36.0322 165.762L35.291 164.996L36.744 162.793L37.7436 163.162L38.0654 163.278Z" fill="#263238"/>
<path d="M35.9262 166.64L34.6292 169.643L34.3464 169.445L33.4883 168.814L34.5366 166.393L35.5849 166.582L35.9262 166.64Z" fill="#263238"/>
<path d="M34.3995 170.327L33.6486 173.51L33.3414 173.36L32.3809 172.889L32.9903 170.322L34.0533 170.327H34.3995Z" fill="#263238"/>
<path d="M33.5408 174.225L33.3555 177.49L33.0239 177.393L32 177.097L32.156 174.462L33.2044 174.283L33.5408 174.225Z" fill="#263238"/>
<path d="M33.3799 178.207L33.7651 181.453L33.4287 181.419L32.3609 181.298L32.0488 178.687L33.063 178.319L33.3799 178.207Z" fill="#263238"/>
<path d="M34.8573 185.287L34.516 185.311L33.453 185.379L32.6875 182.856L33.6188 182.327L33.9114 182.162L34.8573 185.287Z" fill="#263238"/>
<path d="M36.6038 188.878L36.2722 188.96L35.2337 189.213L34.0391 186.86L34.8631 186.18L35.1313 185.957L36.6038 188.878Z" fill="#263238"/>
<path d="M38.9481 192.108L38.636 192.244L37.656 192.676L36.0762 190.561L36.7637 189.75L36.9831 189.488L38.9481 192.108Z" fill="#263238"/>
<path d="M41.8247 194.883L41.5419 195.073L40.6496 195.664L38.7188 193.86L39.26 192.938L39.4355 192.646L41.8247 194.883Z" fill="#263238"/>
<path d="M45.1409 197.125L44.8971 197.358L44.1219 198.091L41.9082 196.65L42.2788 195.65L42.3958 195.33L45.1409 197.125Z" fill="#263238"/>
<path d="M48.7922 198.751L48.5875 199.032L47.9585 199.891L45.5254 198.843L45.7156 197.8L45.7741 197.465L48.7922 198.751Z" fill="#263238"/>
<path d="M52.68 199.732L52.5289 200.042L52.0559 200.988L49.4766 200.387L49.4814 199.324V198.984L52.68 199.732Z" fill="#263238"/>
<path d="M56.678 200.018L56.5804 200.348L56.283 201.372L53.6354 201.222L53.455 200.174L53.3965 199.834L56.678 200.018Z" fill="#263238"/>
<path d="M60.6604 199.615L60.6263 199.95L60.5044 201.013L57.8812 201.323L57.5106 200.319L57.3984 199.999L60.6604 199.615Z" fill="#263238"/>
<path d="M64.5131 198.523L64.5375 198.868L64.6106 199.926L62.0703 200.687L61.5437 199.761L61.373 199.465L64.5131 198.523Z" fill="#263238"/>
<path d="M68.4573 198.154L66.0925 199.338L65.4098 198.523L65.1855 198.256L68.116 196.791L68.2037 197.126L68.4573 198.154Z" fill="#263238"/>
<path d="M71.9398 195.738L69.8188 197.315L69.0045 196.631L68.7363 196.408L71.3693 194.457L71.5058 194.768L71.9398 195.738Z" fill="#263238"/>
<path d="M74.943 192.764L73.1291 194.681L72.2076 194.147L71.9102 193.977L74.1579 191.59L74.3481 191.881L74.943 192.764Z" fill="#263238"/>
<path d="M77.3799 189.309L75.9317 191.512L74.9322 191.143L74.6055 191.027L76.4096 188.295L76.6436 188.542L77.3799 189.309Z" fill="#263238"/>
<path d="M79.1899 185.491L78.1416 187.912L77.0933 187.718L76.752 187.66L78.0489 184.656L78.3317 184.865L79.1899 185.491Z" fill="#263238"/>
<path d="M80.2911 181.415L79.6865 183.982L78.6235 183.977L78.2773 183.972L79.0282 180.789L79.3452 180.944L80.2911 181.415Z" fill="#263238"/>
<path d="M80.6765 177.207L80.5254 179.842L79.4771 180.022L79.1309 180.075L79.3161 176.814L79.6526 176.912L80.6765 177.207Z" fill="#263238"/>
<path d="M80.3164 173.007L80.6284 175.622L79.6191 175.981L79.2973 176.098L78.9121 172.852L79.2534 172.89L80.3164 173.007Z" fill="#263238"/>
<path d="M79.9891 171.449L79.0676 171.973L78.7604 172.148L77.8145 169.013L78.1655 168.994L79.2236 168.926L79.9891 171.449Z" fill="#263238"/>
<path d="M78.6341 167.445L77.8198 168.119L77.5467 168.343L76.0742 165.427L76.4155 165.344L77.4443 165.092L78.6341 167.445Z" fill="#263238"/>
<path d="M76.5994 163.744L75.9168 164.545L75.6925 164.812L73.7227 162.197L74.0396 162.056L75.0148 161.629L76.5994 163.744Z" fill="#263238"/>
<path d="M73.9536 160.444L73.4221 161.361L73.2466 161.657L70.8477 159.42L71.1451 159.226L72.0276 158.639L73.9536 160.444Z" fill="#263238"/>
<path d="M70.7679 157.655L70.4022 158.645L70.2803 158.97L67.5352 157.179L67.7838 156.942L68.5542 156.209L70.7679 157.655Z" fill="#263238"/>
<path d="M67.1506 155.455L66.9605 156.494L66.8971 156.838L63.8789 155.548L64.0886 155.266L64.7176 154.412L67.1506 155.455Z" fill="#263238"/>
<path d="M63.2005 153.919L63.1957 154.972L63.1908 155.321L59.9922 154.574L60.1482 154.259L60.6212 153.312L63.2005 153.919Z" fill="#263238"/>
<path d="M59.2766 154.466L56 154.282L56.0975 153.952L56.3949 152.938L59.0426 153.088L59.223 154.126L59.2766 154.466Z" fill="#263238"/>
<path d="M75.0293 174.953C75.4665 178.632 74.7974 182.358 73.1065 185.66C71.4156 188.961 68.7789 191.689 65.5298 193.499C62.2807 195.309 58.5653 196.12 54.8532 195.828C51.1412 195.537 47.5994 194.157 44.6757 191.862C41.752 189.567 39.5778 186.462 38.4279 182.937C37.2781 179.413 37.2043 175.629 38.2159 172.063C39.2275 168.497 41.279 165.309 44.1111 162.904C46.9431 160.498 50.4285 158.982 54.1263 158.548C56.5813 158.259 59.0695 158.454 61.4488 159.122C63.8281 159.79 66.0518 160.918 67.9929 162.441C69.934 163.965 71.5545 165.854 72.7618 168C73.9692 170.147 74.7397 172.509 75.0293 174.953Z" fill="#37474F"/>
<path d="M68.3695 175.722C68.652 178.091 68.2222 180.489 67.1346 182.615C66.047 184.74 64.3505 186.497 62.2595 187.662C60.1685 188.828 57.7771 189.351 55.3877 189.164C52.9983 188.977 50.7183 188.089 48.836 186.612C46.9538 185.136 45.5539 183.137 44.8135 180.868C44.073 178.6 44.0252 176.164 44.6761 173.869C45.3271 171.573 46.6475 169.522 48.4703 167.973C50.2932 166.425 52.5367 165.449 54.9169 165.169C58.107 164.794 61.316 165.696 63.8386 167.674C66.3612 169.653 67.9909 172.548 68.3695 175.722Z" fill="#455A64"/>
<path d="M61.6655 176.524C61.7883 177.572 61.5961 178.633 61.1133 179.572C60.6304 180.512 59.8786 181.288 58.9527 181.802C58.0269 182.316 56.9686 182.546 55.9116 182.462C54.8546 182.378 53.8463 181.985 53.0141 181.331C52.1819 180.677 51.5632 179.792 51.2361 178.788C50.9091 177.784 50.8883 176.707 51.1765 175.691C51.4647 174.676 52.0489 173.768 52.8553 173.083C53.6617 172.398 54.6542 171.966 55.7072 171.842C56.4075 171.759 57.1172 171.815 57.7959 172.006C58.4745 172.196 59.1087 172.518 59.6621 172.953C60.2156 173.388 60.6774 173.927 61.0211 174.54C61.3649 175.153 61.5839 175.827 61.6655 176.524Z" fill="#263238"/>
<path d="M57.1596 184.054C55.7872 184.214 54.3979 183.966 53.1672 183.341C51.9365 182.716 50.9198 181.741 50.2456 180.541C49.5714 179.341 49.2699 177.968 49.3794 176.598C49.4888 175.227 50.0042 173.919 50.8604 172.84C51.7166 171.761 52.8752 170.958 54.1896 170.534C55.504 170.11 56.9153 170.083 58.245 170.457C59.5747 170.831 60.7631 171.589 61.66 172.635C62.5569 173.681 63.1219 174.969 63.2837 176.334C63.4981 178.166 62.9737 180.007 61.8256 181.454C60.6775 182.901 58.9995 183.836 57.1596 184.054ZM55.5895 170.871C54.347 171.022 53.1772 171.535 52.2275 172.347C51.2779 173.159 50.5911 174.232 50.2536 175.431C49.9161 176.631 49.943 177.903 50.331 179.087C50.719 180.272 51.4508 181.315 52.4339 182.086C53.417 182.857 54.6076 183.321 55.8554 183.42C57.1033 183.519 58.3525 183.247 59.4457 182.64C60.5388 182.034 61.427 181.118 61.9981 180.01C62.5691 178.901 62.7976 177.649 62.6547 176.412C62.5593 175.585 62.3004 174.786 61.893 174.059C61.4856 173.332 60.9378 172.693 60.2811 172.178C59.6244 171.663 58.8718 171.282 58.0666 171.058C57.2614 170.834 56.4195 170.77 55.5895 170.871Z" fill="#263238"/>
<path d="M56.3459 167.6C56.3761 167.823 56.3393 168.049 56.2401 168.25C56.1408 168.451 55.9836 168.619 55.7885 168.731C55.5934 168.843 55.3691 168.895 55.1443 168.88C54.9194 168.865 54.7041 168.784 54.5257 168.647C54.3473 168.51 54.214 168.323 54.1425 168.11C54.0711 167.898 54.0649 167.669 54.1246 167.452C54.1844 167.236 54.3074 167.043 54.4781 166.896C54.6487 166.75 54.8593 166.657 55.083 166.63C55.3796 166.593 55.679 166.674 55.9156 166.856C56.1523 167.038 56.307 167.305 56.3459 167.6Z" fill="#263238"/>
<path d="M51.5475 168.877C51.6822 169.056 51.7605 169.271 51.7725 169.494C51.7845 169.717 51.7297 169.939 51.615 170.131C51.5003 170.324 51.3308 170.478 51.1281 170.574C50.9253 170.671 50.6984 170.705 50.4759 170.673C50.2535 170.641 50.0456 170.545 49.8784 170.395C49.7113 170.246 49.5925 170.05 49.5371 169.833C49.4816 169.617 49.492 169.388 49.5669 169.177C49.6419 168.967 49.7779 168.783 49.9579 168.649C50.1992 168.469 50.5021 168.393 50.8002 168.435C51.0982 168.478 51.367 168.637 51.5475 168.877Z" fill="#263238"/>
<path d="M48.0318 172.371C48.2383 172.459 48.4138 172.607 48.5362 172.794C48.6586 172.982 48.7223 173.201 48.7193 173.425C48.7164 173.648 48.6468 173.866 48.5195 174.05C48.3922 174.235 48.2128 174.377 48.0041 174.46C47.7953 174.543 47.5666 174.562 47.3468 174.516C47.127 174.469 46.926 174.359 46.7693 174.198C46.6125 174.038 46.5071 173.835 46.4662 173.615C46.4253 173.395 46.4509 173.168 46.5398 172.963C46.6588 172.688 46.8828 172.471 47.1626 172.36C47.4424 172.249 47.755 172.253 48.0318 172.371Z" fill="#263238"/>
<path d="M46.7408 177.139C46.9641 177.109 47.1914 177.146 47.3937 177.244C47.596 177.343 47.7643 177.5 47.877 177.694C47.9898 177.888 48.042 178.111 48.0269 178.335C48.0119 178.559 47.9303 178.773 47.7926 178.95C47.6548 179.128 47.4671 179.261 47.2534 179.332C47.0396 179.403 46.8095 179.409 46.5922 179.35C46.3749 179.29 46.1803 179.168 46.0331 178.998C45.8859 178.828 45.7928 178.618 45.7656 178.396C45.7308 178.101 45.8135 177.805 45.9957 177.57C46.178 177.335 46.4454 177.18 46.7408 177.139Z" fill="#263238"/>
<path d="M48.022 181.915C48.202 181.782 48.4177 181.704 48.6419 181.693C48.866 181.681 49.0886 181.736 49.2815 181.85C49.4743 181.965 49.6289 182.133 49.7257 182.335C49.8224 182.536 49.857 182.762 49.8251 182.983C49.7931 183.204 49.6961 183.411 49.5462 183.577C49.3964 183.743 49.2004 183.861 48.983 183.917C48.7656 183.973 48.5365 183.963 48.3247 183.889C48.1129 183.815 47.9278 183.68 47.7928 183.502C47.7028 183.383 47.6373 183.247 47.6001 183.103C47.5629 182.959 47.5547 182.809 47.576 182.661C47.5973 182.514 47.6477 182.372 47.7242 182.244C47.8007 182.116 47.902 182.004 48.022 181.915Z" fill="#263238"/>
<path d="M51.5336 185.426C51.6223 185.221 51.7703 185.046 51.9588 184.925C52.1472 184.803 52.3678 184.739 52.5925 184.742C52.8172 184.745 53.0359 184.814 53.2211 184.941C53.4063 185.068 53.5496 185.246 53.6328 185.454C53.716 185.662 53.7355 185.889 53.6887 186.108C53.6419 186.327 53.531 186.527 53.3699 186.683C53.2089 186.839 53.005 186.944 52.784 186.984C52.5631 187.025 52.3349 187 52.1285 186.911C51.8518 186.793 51.6337 186.57 51.5222 186.291C51.4106 186.013 51.4148 185.702 51.5336 185.426Z" fill="#263238"/>
<path d="M56.3267 186.698C56.2964 186.476 56.3333 186.25 56.4325 186.049C56.5318 185.847 56.6889 185.68 56.8841 185.568C57.0792 185.455 57.3035 185.404 57.5283 185.419C57.7532 185.434 57.9685 185.515 58.1469 185.652C58.3252 185.789 58.4586 185.976 58.53 186.188C58.6014 186.401 58.6077 186.63 58.5479 186.846C58.4882 187.063 58.3652 187.256 58.1945 187.403C58.0239 187.549 57.8133 187.642 57.5896 187.669C57.2934 187.703 56.9954 187.621 56.7593 187.44C56.5233 187.258 56.368 186.992 56.3267 186.698Z" fill="#263238"/>
<path d="M61.1233 185.427C60.9893 185.248 60.9115 185.033 60.9 184.81C60.8884 184.587 60.9434 184.365 61.0582 184.174C61.173 183.982 61.3423 183.828 61.5448 183.732C61.7474 183.635 61.974 183.601 62.1962 183.633C62.4183 183.664 62.626 183.761 62.7931 183.91C62.9602 184.059 63.0792 184.254 63.135 184.471C63.1907 184.687 63.1809 184.915 63.1066 185.126C63.0324 185.336 62.8971 185.521 62.7177 185.655C62.4757 185.835 62.172 185.911 61.8732 185.869C61.5743 185.826 61.3047 185.667 61.1233 185.427Z" fill="#263238"/>
<path d="M64.6447 181.935C64.4382 181.847 64.2627 181.699 64.1403 181.512C64.0179 181.324 63.9542 181.105 63.9571 180.881C63.9601 180.658 64.0296 180.44 64.1569 180.256C64.2843 180.071 64.4636 179.929 64.6724 179.846C64.8811 179.763 65.1098 179.744 65.3296 179.79C65.5494 179.837 65.7504 179.947 65.9072 180.108C66.0639 180.268 66.1694 180.471 66.2103 180.691C66.2511 180.911 66.2255 181.138 66.1367 181.343C66.0167 181.617 65.7925 181.834 65.5131 181.944C65.2337 182.055 64.9216 182.052 64.6447 181.935Z" fill="#263238"/>
<path d="M65.9321 177.18C65.7839 177.197 65.6337 177.185 65.4901 177.145C65.3466 177.104 65.2125 177.036 65.0954 176.944C64.9784 176.851 64.8807 176.737 64.808 176.608C64.7353 176.478 64.689 176.335 64.6717 176.188C64.6544 176.04 64.6665 175.891 64.7073 175.748C64.748 175.605 64.8166 175.471 64.9092 175.355C65.0018 175.239 65.1166 175.141 65.2469 175.069C65.3772 174.997 65.5206 174.951 65.6688 174.933C65.8171 174.916 65.9673 174.928 66.1108 174.969C66.2544 175.009 66.3885 175.078 66.5056 175.17C66.6226 175.262 66.7203 175.376 66.793 175.506C66.8657 175.635 66.912 175.778 66.9293 175.926C66.9466 176.073 66.9345 176.223 66.8937 176.365C66.853 176.508 66.7843 176.642 66.6917 176.758C66.5991 176.875 66.4844 176.972 66.3541 177.044C66.2237 177.117 66.0804 177.163 65.9321 177.18Z" fill="#263238"/>
<path d="M64.6548 172.385C64.4749 172.519 64.2591 172.597 64.0347 172.609C63.8103 172.621 63.5874 172.566 63.3941 172.452C63.2008 172.338 63.0459 172.17 62.949 171.968C62.8521 171.766 62.8174 171.54 62.8495 171.319C62.8816 171.097 62.9789 170.891 63.1292 170.724C63.2794 170.558 63.4759 170.44 63.6937 170.385C63.9115 170.329 64.1408 170.34 64.3527 170.414C64.5646 170.489 64.7495 170.624 64.884 170.803C65.063 171.044 65.1394 171.345 65.0965 171.641C65.0535 171.937 64.8948 172.205 64.6548 172.385Z" fill="#263238"/>
<path d="M61.1428 168.887C61.0541 169.093 60.9062 169.267 60.7177 169.389C60.5292 169.511 60.3087 169.574 60.084 169.572C59.8593 169.569 59.6405 169.499 59.4553 169.373C59.2702 169.246 59.1269 169.067 59.0437 168.86C58.9604 168.652 58.941 168.424 58.9878 168.206C59.0346 167.987 59.1455 167.787 59.3065 167.631C59.4675 167.475 59.6714 167.37 59.8924 167.329C60.1134 167.289 60.3415 167.314 60.548 167.403C60.8246 167.521 61.0427 167.744 61.1543 168.022C61.2658 168.301 61.2617 168.612 61.1428 168.887Z" fill="#263238"/>
<path d="M85.2745 177.179H82.2465C82.1531 170.403 79.3824 163.935 74.5338 159.176C69.6853 154.417 63.1487 151.749 56.3384 151.749C49.5281 151.749 42.9915 154.417 38.143 159.176C33.2944 163.935 30.5237 170.403 30.4303 177.179H27.4023C27.5011 169.607 30.5932 162.378 36.009 157.059C41.4249 151.739 48.7285 148.756 56.3384 148.756C63.9483 148.756 71.2519 151.739 76.6678 157.059C82.0836 162.378 85.1757 169.607 85.2745 177.179Z" fill="#FF9E35"/>
<path opacity="0.2" d="M85.2745 177.179H82.2465C82.1531 170.403 79.3824 163.935 74.5338 159.176C69.6853 154.417 63.1487 151.749 56.3384 151.749C49.5281 151.749 42.9915 154.417 38.143 159.176C33.2944 163.935 30.5237 170.403 30.4303 177.179H27.4023C27.5011 169.607 30.5932 162.378 36.009 157.059C41.4249 151.739 48.7285 148.756 56.3384 148.756C63.9483 148.756 71.2519 151.739 76.6678 157.059C82.0836 162.378 85.1757 169.607 85.2745 177.179Z" fill="white"/>
<path d="M156.902 177.179H153.869C153.879 169.545 156.932 162.227 162.357 156.829C167.782 151.432 175.136 148.396 182.808 148.387V151.4C175.939 151.408 169.355 154.126 164.498 158.959C159.642 163.792 156.91 170.344 156.902 177.179Z" fill="#FF9E35"/>
<path opacity="0.2" d="M156.902 177.179H153.869C153.879 169.545 156.932 162.227 162.357 156.829C167.782 151.432 175.136 148.396 182.808 148.387V151.4C175.939 151.408 169.355 154.126 164.498 158.959C159.642 163.792 156.91 170.344 156.902 177.179Z" fill="white"/>
<path d="M63.45 138.367H25.6373L21.9414 146.456H63.45V138.367Z" fill="#FF9E35"/>
<path opacity="0.1" d="M63.45 138.367H25.6373L21.9414 146.456H63.45V138.367Z" fill="black"/>
<path d="M63.4494 110.895H25.6367V138.362H63.4494V110.895Z" fill="#FF9E35"/>
<g opacity="0.1">
<path d="M60.0612 113.738H43.9707V115.344H60.0612V113.738Z" fill="black"/>
<path d="M60.0612 117.145H43.9707V118.751H60.0612V117.145Z" fill="black"/>
<path d="M60.0612 120.555H43.9707V122.161H60.0612V120.555Z" fill="black"/>
<path d="M60.0612 123.961H43.9707V125.567H60.0612V123.961Z" fill="black"/>
<path d="M60.0612 127.373H43.9707V128.979H60.0612V127.373Z" fill="black"/>
</g>
<path d="M163.421 61.4906H149.676V60.4668H162.992L165.186 58.2833V37.9046H154.669L143.659 45.0906L143.094 44.2366L154.362 36.8809H166.215V58.7103L163.421 61.4906Z" fill="#263238"/>
<path d="M163.533 39.3125H155.473V58.0221H163.533V39.3125Z" fill="#263238"/>
<path d="M165.698 54.4648H163.533V55.4886H165.698V54.4648Z" fill="#263238"/>
<path d="M165.698 42.8828H163.533V43.9066H165.698V42.8828Z" fill="#263238"/>
<path d="M145.43 74.6567L124.912 95.0742L127.619 97.7675L148.136 77.35L145.43 74.6567Z" fill="#263238"/>
<path d="M144.872 91.0215L141.254 94.6217L135.096 90.3276L140.44 85.0098L144.872 91.0215Z" fill="#37474F"/>
<path d="M143.927 91.9582L142.289 93.5879L152.267 103.517L153.905 101.887L143.927 91.9582Z" fill="#263238"/>
<path d="M167.496 146.456L156.984 96.2609L132.799 25.6196H64.0538L63.4491 110.895H56.5059L60.4212 22H135.227L162.996 94.3589L175.653 146.456H167.496Z" fill="#37474F"/>
<path d="M156.984 96.2617L147.914 107.921V122.759L138.445 146.456H167.496L156.984 96.2617Z" fill="#263238"/>
<path d="M115.202 146.455H63.4492V110.584H102.778L115.202 146.455Z" fill="#37474F"/>
<path d="M110.721 102.695H69.5977V110.59H110.721V102.695Z" fill="#263238"/>
<path d="M63.9727 65.786L69.5994 102.696H80.8872L71.2573 63.9082L63.9727 65.786Z" fill="#263238"/>
<path d="M97.2977 46.852C95.8056 46.2066 91.5782 46.5317 89.8327 48.3415C88.0871 50.1514 87.541 53.5236 88.1651 53.9845C88.7892 54.4454 91.8123 54.7705 94.065 54.0476C96.3176 53.3246 98.0339 47.1673 97.2977 46.852Z" fill="#263238"/>
<path d="M97.3029 46.8619C97.3565 46.8619 97.3809 46.7745 97.3029 46.76C95.9474 46.464 94.3773 46.6338 93.0218 46.76C91.8971 46.7938 90.7923 47.0633 89.7793 47.5509C89.3046 47.8058 88.8912 48.1605 88.5679 48.5903C88.2445 49.0201 88.0191 49.5148 87.907 50.04C87.5779 51.3016 87.5779 52.626 87.907 53.8877C87.907 53.9216 87.9801 53.9216 87.9801 53.8877C87.7949 51.5053 87.7851 48.6377 90.3498 47.5314C92.5391 46.5853 95.0112 46.9055 97.3029 46.8619Z" fill="#263238"/>
<path d="M88.5055 53.4521C87.1061 53.3648 83.0591 55.2571 81.9572 57.7219C80.8552 60.1868 82.2107 64.4081 82.8251 64.8157C83.4395 65.2232 86.9355 63.3309 88.2764 61.7055C89.1686 60.6235 88.9297 59.1048 88.9102 57.6395C88.8761 55.4609 88.7249 53.4521 88.5055 53.4521Z" fill="#263238"/>
<path d="M89.1604 61.5254C90.0819 58.9781 89.097 56.0814 88.6728 53.534C88.6728 53.5276 88.6702 53.5214 88.6656 53.5169C88.6611 53.5123 88.6549 53.5098 88.6484 53.5098C88.6419 53.5098 88.6357 53.5123 88.6312 53.5169C88.6266 53.5214 88.624 53.5276 88.624 53.534C88.6728 55.9067 89.6479 58.2211 89.2189 60.6132C89.1243 61.3193 88.8599 61.9924 88.4482 62.5752C88.0366 63.158 87.4897 63.6334 86.8541 63.9611C85.6936 64.5143 84.3527 64.6113 83.0947 64.7957C83.0119 64.7957 83.0411 64.9315 83.0947 64.9218C85.6058 64.6113 88.2096 64.1601 89.1604 61.5254Z" fill="#263238"/>
<path d="M88.1509 53.6251C88.2241 53.6251 88.1997 53.4844 88.1266 53.5038C86.0055 54.0424 83.4116 54.9206 81.9878 56.6722C80.4519 58.5694 81.1394 61.0051 81.7635 63.1109C81.7635 63.14 81.8171 63.1109 81.8074 63.1109C81.2028 60.9808 80.6323 58.3704 82.295 56.5557C83.7626 54.9885 86.1616 54.1588 88.1509 53.6251Z" fill="#263238"/>
<path d="M83.1524 64.5195C83.9764 65.1503 85.0247 66.9456 84.9955 68.8282C84.9467 72.0402 86.2437 71.6424 89.5154 73.0883C92.2801 74.3159 92.3093 77.6492 90.4906 78.9641C90.4906 78.9641 91.7486 77.1398 90.003 75.8103C87.882 74.2237 82.1089 75.6987 80.0464 71.9286C77.3403 67.0766 83.1524 64.5195 83.1524 64.5195Z" fill="#263238"/>
<path d="M84.1175 66.1838C84.0882 66.1353 84.1711 66.0819 84.2052 66.1305C84.5294 66.5927 84.7642 67.111 84.8976 67.6589C85.0732 68.3721 84.9561 69.0854 85.078 69.8035C85.3901 71.6279 87.477 71.9432 88.9787 72.3266C90.973 72.8118 92.3919 74.3547 92.1091 76.4896C92.1091 76.4961 92.1065 76.5022 92.1019 76.5068C92.0974 76.5113 92.0912 76.5139 92.0847 76.5139C92.0782 76.5139 92.072 76.5113 92.0675 76.5068C92.0629 76.5022 92.0603 76.4961 92.0603 76.4896C92.1349 75.8298 92.0267 75.1623 91.7473 74.5594C91.468 73.9564 91.0282 73.441 90.4757 73.0689C89.3834 72.3605 88.0084 72.3799 86.8382 71.8656C86.0337 71.5114 85.2633 71.0068 85.0244 70.1237C84.9332 69.6294 84.8956 69.1267 84.9122 68.6244C84.8617 67.7566 84.5881 66.9162 84.1175 66.1838Z" fill="#263238"/>
<path d="M82.5526 64.8008C82.5526 64.8008 82.5964 64.8008 82.5526 64.8347C81.2019 65.7518 79.783 66.6591 79.1394 68.2312C78.4617 69.9343 79.0565 71.8702 80.256 73.19C81.6018 74.6456 83.3815 74.3982 85.1904 74.3739C86.4972 74.3739 87.8137 74.4418 88.9741 75.0969C89.0083 75.0969 88.9741 75.1745 88.94 75.16C87.0286 74.34 85.0929 74.5971 83.0889 74.5583C82.3361 74.5617 81.5977 74.3536 80.9585 73.9579C80.3194 73.5622 79.8054 72.995 79.4759 72.3215C77.7254 69.1919 79.6904 66.3243 82.5526 64.8008Z" fill="#263238"/>
<path d="M96.3812 45.2021C96.3127 45.0735 96.1956 44.9771 96.0557 44.9344C95.9158 44.8916 95.7645 44.9059 95.6352 44.9741C95.5059 45.0423 95.4091 45.1588 95.3661 45.298C95.3231 45.4373 95.3375 45.5878 95.406 45.7165C95.4746 45.8451 95.5917 45.9415 95.7316 45.9842C95.8715 46.027 96.0227 46.0127 96.1521 45.9445C96.2814 45.8763 96.3782 45.7598 96.4211 45.6206C96.4641 45.4813 96.4498 45.3308 96.3812 45.2021Z" fill="#FF9E35"/>
<path d="M96.6243 46.1738C96.5473 46.0602 96.4308 45.979 96.2972 45.946C96.1636 45.913 96.0224 45.9305 95.9011 45.9951C95.7797 46.0597 95.6867 46.1669 95.6402 46.2958C95.5936 46.4247 95.5968 46.5662 95.6491 46.6929C95.726 46.8065 95.8425 46.8877 95.9761 46.9207C96.1098 46.9537 96.2509 46.9362 96.3723 46.8716C96.4937 46.807 96.5866 46.6998 96.6332 46.5709C96.6797 46.442 96.6766 46.3005 96.6243 46.1738Z" fill="#FF9E35"/>
<path d="M97.0396 47.1436C96.962 47.0326 96.8462 46.9537 96.7142 46.9218C96.5822 46.89 96.4429 46.9073 96.3229 46.9707C96.2028 47.034 96.1102 47.1389 96.0626 47.2655C96.015 47.3921 96.0156 47.5317 96.0644 47.6579C96.142 47.7689 96.2577 47.8478 96.3897 47.8797C96.5218 47.9116 96.661 47.8942 96.781 47.8309C96.9011 47.7676 96.9937 47.6627 97.0413 47.536C97.089 47.4094 97.0883 47.2698 97.0396 47.1436Z" fill="#FF9E35"/>
<path d="M97.561 48.0069C97.4835 47.8959 97.3677 47.817 97.2357 47.7851C97.1036 47.7532 96.9644 47.7706 96.8444 47.8339C96.7243 47.8973 96.6317 48.0021 96.5841 48.1288C96.5365 48.2554 96.5371 48.395 96.5859 48.5212C96.6634 48.6322 96.7792 48.7111 96.9112 48.743C97.0433 48.7748 97.1825 48.7575 97.3025 48.6942C97.4226 48.6308 97.5152 48.526 97.5628 48.3993C97.6104 48.2727 97.6098 48.1331 97.561 48.0069Z" fill="#FF9E35"/>
<path d="M98.2388 48.7842C98.1612 48.6732 98.0455 48.5943 97.9134 48.5625C97.7814 48.5306 97.6422 48.548 97.5221 48.6113C97.4021 48.6746 97.3095 48.7795 97.2618 48.9061C97.2142 49.0327 97.2148 49.1723 97.2636 49.2985C97.3412 49.4096 97.4569 49.4884 97.589 49.5203C97.721 49.5522 97.8602 49.5348 97.9803 49.4715C98.1003 49.4082 98.1929 49.3033 98.2405 49.1767C98.2882 49.05 98.2875 48.9104 98.2388 48.7842Z" fill="#FF9E35"/>
<path d="M99.0181 49.4053C98.9405 49.2943 98.8248 49.2154 98.6927 49.1836C98.5607 49.1517 98.4215 49.169 98.3014 49.2324C98.1814 49.2957 98.0888 49.4006 98.0411 49.5272C97.9935 49.6538 97.9941 49.7934 98.0429 49.9196C98.1205 50.0307 98.2362 50.1095 98.3683 50.1414C98.5003 50.1733 98.6395 50.1559 98.7596 50.0926C98.8796 50.0293 98.9722 49.9244 99.0198 49.7978C99.0675 49.6711 99.0668 49.5315 99.0181 49.4053Z" fill="#FF9E35"/>
<path d="M141.171 146.174C140.152 146.533 110.633 146.087 109.507 145.393C109.375 145.315 108.707 139.687 108.707 139.687L111.584 117.916L130.956 117.697L127.674 136.305C127.674 136.305 131.985 138.154 135.549 139.774C137.106 140.43 138.622 141.178 140.088 142.016C141.244 142.909 142.185 145.82 141.171 146.174Z" fill="#D3766A"/>
<path d="M141.171 146.174C140.157 146.533 110.628 146.087 109.512 145.398C109.375 145.315 108.707 139.687 108.707 139.687L109.604 132.977L128.201 133.379L127.684 136.291C127.684 136.291 131.994 138.139 135.559 139.76C137.118 140.415 138.635 141.163 140.103 142.001C141.244 142.914 142.185 145.825 141.171 146.174Z" fill="#EBEBEB"/>
<path d="M141.157 146.214C140.118 146.563 110.439 146.597 109.283 145.884C108.849 145.622 108.591 141.313 108.43 136.102V135.937L127.592 135.699V136.024C127.592 136.024 138.967 141.07 140.133 141.987C141.298 142.905 142.195 145.864 141.157 146.214Z" fill="#FF9E35"/>
<path d="M140.81 145.063C135.802 144.947 115.592 144.951 110.633 145.213C110.594 145.213 110.594 145.243 110.633 145.247C115.596 145.471 135.802 145.306 140.81 145.146C140.922 145.155 140.922 145.068 140.81 145.063Z" fill="#263238"/>
<path d="M129.196 136.076C127.221 135.712 124.808 136.018 123.311 137.415C123.252 137.469 123.311 137.551 123.394 137.532C125.276 136.926 127.218 136.521 129.186 136.324C129.215 136.319 129.242 136.305 129.261 136.283C129.281 136.261 129.292 136.233 129.294 136.204C129.295 136.175 129.286 136.146 129.268 136.123C129.25 136.099 129.225 136.083 129.196 136.076Z" fill="#263238"/>
<path d="M130.615 136.931C128.665 136.567 126.227 136.867 124.735 138.27C124.676 138.323 124.735 138.406 124.817 138.386C126.699 137.776 128.641 137.37 130.61 137.178C130.639 137.173 130.665 137.158 130.684 137.136C130.703 137.114 130.714 137.085 130.715 137.056C130.715 137.027 130.706 136.999 130.687 136.976C130.669 136.953 130.644 136.937 130.615 136.931Z" fill="#263238"/>
<path d="M132.033 137.779C130.083 137.416 127.645 137.721 126.153 139.119C126.094 139.172 126.153 139.254 126.235 139.235C128.119 138.628 130.063 138.223 132.033 138.027C132.062 138.021 132.088 138.006 132.106 137.983C132.125 137.961 132.135 137.932 132.135 137.903C132.135 137.874 132.125 137.846 132.106 137.823C132.088 137.801 132.062 137.785 132.033 137.779Z" fill="#263238"/>
<path d="M129.138 134.045L108.43 134.157C108.43 134.157 114.676 102.783 113.911 101.784C113.082 100.702 88.1806 106.689 81.5396 98.2901C77.0147 92.5598 79.9062 80.7207 79.9062 80.7207L104.398 81.0361C104.398 81.0361 104.432 81.6086 104.451 84.4325C104.451 84.4325 115.344 83.137 123.848 84.2287C130.786 85.1167 134.331 90.6772 134.307 94.2919C134.199 110.25 129.138 134.045 129.138 134.045Z" fill="#455A64"/>
<path d="M128.786 130.395C126.397 130.225 124.008 130.181 121.609 130.142C119.21 130.103 116.826 130.099 114.432 130.142C113.081 130.171 111.735 130.268 110.385 130.298C110.374 130.298 110.364 130.302 110.357 130.309C110.35 130.316 110.346 130.326 110.346 130.336C110.346 130.347 110.35 130.357 110.357 130.364C110.364 130.371 110.374 130.375 110.385 130.375C111.589 130.375 112.789 130.477 113.993 130.501C115.197 130.526 116.367 130.545 117.557 130.555C119.951 130.555 122.345 130.555 124.735 130.555C126.085 130.555 127.431 130.521 128.781 130.467C128.84 130.492 128.84 130.399 128.786 130.395Z" fill="#263238"/>
<path d="M96.1621 82.8211C96.1329 82.9086 96.0953 82.993 96.05 83.0734C96.0445 83.0803 96.0414 83.0889 96.0414 83.0977C96.0414 83.1065 96.0445 83.1151 96.05 83.1219C95.7672 83.8983 95.6356 84.7328 95.3674 85.5092C95.109 86.3441 94.568 87.0642 93.8363 87.547C92.3053 88.5174 90.4915 88.9493 88.7361 89.3229C88.6776 89.3229 88.6971 89.4151 88.7361 89.4199C89.7436 89.4558 90.7504 89.3346 91.7202 89.0609C92.629 88.8412 93.4909 88.4616 94.2654 87.9401C94.9928 87.4292 95.5228 86.6862 95.7672 85.8343C95.8913 85.3809 95.989 84.9208 96.0598 84.4563C96.1777 83.9243 96.2543 83.3842 96.2889 82.8405C96.2834 82.8292 96.2752 82.8195 96.2651 82.812C96.2549 82.8046 96.2431 82.7997 96.2306 82.7978C96.2182 82.7959 96.2054 82.797 96.1935 82.8011C96.1816 82.8051 96.1708 82.812 96.1621 82.8211Z" fill="#263238"/>
<path d="M111.843 128.475C113.417 120.784 117.489 100.206 116.811 99.1729C116.489 98.9788 113.993 99.2166 111.101 99.4883C103.363 100.216 90.4032 101.429 85.4103 97.892C80.1541 94.1656 82.0459 82.7341 82.1288 82.2489C82.1288 82.1422 82.358 81.9384 82.3385 82.2489C82.3385 82.3702 80.5783 93.9764 85.6346 97.5669C90.5105 101.026 103.378 99.8134 111.067 99.0904C114.792 98.7411 116.601 98.581 117.04 98.8527C118.225 99.5854 113.188 123.749 112.018 128.649C111.994 128.751 111.745 128.955 111.843 128.475Z" fill="#263238"/>
<path d="M105.265 70.9913L106.367 84.7615C106.367 84.7615 84.0059 83.6455 78.4863 82.8934C78.4863 82.8934 85.3565 60.7049 91.739 54.6495C94.9328 51.6218 98.419 52.0876 100.516 54.4846C101.042 55.0911 106.23 62.5681 106.718 65.9985C106.841 66.8856 106.776 67.7886 106.525 68.6488C106.275 69.509 105.846 70.3072 105.265 70.9913Z" fill="#EBEBEB"/>
<path d="M106.372 84.7624L105.265 70.9922C105.846 70.3081 106.276 69.5103 106.528 68.6502C106.78 67.7902 106.848 66.8872 106.728 65.9995C106.24 62.5642 101.052 55.092 100.525 54.4855C100.33 54.2585 100.116 54.0476 99.8867 53.8547L103.202 64.2139L94.2648 52.9668C93.3095 53.333 92.4483 53.9065 91.7439 54.6456C85.3565 60.6961 78.4863 82.8895 78.4863 82.8895C84.0059 83.6464 106.372 84.7624 106.372 84.7624Z" fill="#FF9E35"/>
<path d="M80.7871 75.5666L105.776 77.3667L105.605 75.1687L81.499 73.4414C81.2747 74.1789 80.9821 74.8873 80.7871 75.5666Z" fill="#EBEBEB"/>
<path d="M79.5684 79.3185L106.088 81.2205L105.908 79.0225L80.2559 77.1836C80.0316 77.9599 79.7488 78.6829 79.5684 79.3185Z" fill="#EBEBEB"/>
<path d="M95.6445 53.3745C95.6787 53.8257 97.3072 56.9602 99.3063 57.1785C99.9597 57.2513 100.506 53.7287 100.506 53.7287L100.608 53.4764L102.008 49.9635L98.1459 46.5379L97.5803 46.0527C97.5803 46.0527 97.2633 47.0231 96.8781 48.2701L96.8196 48.4448C96.8196 48.5176 96.7757 48.5807 96.7562 48.6437C96.6977 48.8281 96.6343 49.0173 96.5807 49.2066C96.5271 49.3958 96.4929 49.488 96.4539 49.6384C96.4149 49.7888 96.371 49.9392 96.3272 50.0897C96.0246 51.1678 95.7965 52.2653 95.6445 53.3745Z" fill="#D3766A"/>
<path d="M96.8789 48.2944C97.0852 49.3759 97.5257 50.3997 98.1699 51.2946C98.814 52.1895 99.6464 52.934 100.609 53.4764L102.008 49.9635L98.1466 46.5379L97.581 46.0527C97.581 46.0527 97.2641 47.062 96.8789 48.2944Z" fill="#263238"/>
<path d="M108.556 45.0336C108.287 51.6615 104.27 52.2486 102.836 52.1904C101.529 52.1419 97.0972 51.7925 96.673 45.1743C96.2488 38.5561 99.4279 36.5813 102.417 36.5473C105.406 36.5134 108.819 38.4105 108.556 45.0336Z" fill="#D3766A"/>
<path d="M107.221 43.0638C107.068 43.0478 106.917 43.0219 106.768 42.9862C106.604 42.9824 106.446 42.9243 106.319 42.8212C106.286 42.7799 106.268 42.7286 106.268 42.6756C106.268 42.6227 106.286 42.5714 106.319 42.5301C106.393 42.4565 106.485 42.4035 106.586 42.3763C106.687 42.349 106.793 42.3485 106.894 42.3748C107.106 42.398 107.303 42.4982 107.445 42.6562C107.476 42.6951 107.495 42.7422 107.499 42.7916C107.503 42.841 107.493 42.8905 107.469 42.934C107.445 42.9774 107.409 43.0129 107.365 43.036C107.32 43.0591 107.271 43.0688 107.221 43.0638Z" fill="#263238"/>
<path d="M102.621 42.9893C102.777 42.9893 102.919 42.9456 103.075 42.9213C103.238 42.9179 103.397 42.8636 103.528 42.7661C103.56 42.7241 103.577 42.673 103.577 42.6205C103.577 42.568 103.56 42.5169 103.528 42.4749C103.456 42.3993 103.366 42.3437 103.266 42.3139C103.166 42.2841 103.059 42.2811 102.958 42.3051C102.744 42.3243 102.544 42.421 102.397 42.5768C102.364 42.6156 102.344 42.6632 102.339 42.7135C102.334 42.7637 102.344 42.8144 102.368 42.8588C102.393 42.9032 102.43 42.9394 102.475 42.9627C102.52 42.9859 102.571 42.9952 102.621 42.9893Z" fill="#263238"/>
<path d="M103.543 44.7461C103.543 44.7461 103.509 44.7461 103.509 44.7849C103.509 45.2362 103.426 45.7553 103.021 45.8863C103.514 45.8621 103.616 45.1731 103.543 44.7461Z" fill="#263238"/>
<path d="M103.158 44.2569C102.431 44.1793 102.319 45.63 102.992 45.7125C103.665 45.795 103.753 44.3297 103.158 44.2569Z" fill="#263238"/>
<path d="M102.865 44.3148C102.729 44.3876 102.592 44.5234 102.436 44.5234C102.28 44.5234 102.139 44.3682 102.032 44.2129H102.007C101.978 44.4895 102.066 44.7854 102.363 44.8485C102.661 44.9116 102.851 44.6738 102.939 44.4021C102.958 44.3633 102.919 44.2857 102.865 44.3148Z" fill="#263238"/>
<path d="M106.192 44.8379C106.192 44.8379 106.226 44.8379 106.221 44.8816C106.167 45.3279 106.187 45.852 106.582 46.0364C106.065 45.949 106.05 45.2552 106.192 44.8379Z" fill="#263238"/>
<path d="M106.616 44.4024C107.347 44.4024 107.279 45.858 106.616 45.858C105.953 45.858 106.002 44.3975 106.616 44.4024Z" fill="#263238"/>
<path d="M106.913 44.5134C107.025 44.5959 107.137 44.7415 107.274 44.756C107.41 44.7706 107.557 44.6202 107.669 44.4746C107.669 44.756 107.561 45.0423 107.288 45.0811C107.015 45.1199 106.869 44.8725 106.801 44.5959C106.825 44.5571 106.869 44.4795 106.913 44.5134Z" fill="#263238"/>
<path d="M105.417 46.8579C105.444 47.1903 105.454 47.5239 105.446 47.8574C105.446 47.8865 105.368 47.8962 105.261 47.8962C104.983 47.9272 104.703 47.882 104.449 47.7657C104.196 47.6494 103.979 47.4664 103.822 47.2363C103.822 47.2024 103.847 47.1732 103.876 47.1927C104.264 47.4974 104.742 47.6678 105.236 47.6779C105.261 47.5905 105.11 46.5182 105.158 46.5182C105.405 46.5555 105.647 46.6257 105.875 46.7269C105.812 45.3101 105.524 43.9127 105.48 42.5007C105.48 42.4891 105.485 42.478 105.493 42.4698C105.501 42.4616 105.512 42.457 105.524 42.457C105.536 42.457 105.547 42.4616 105.555 42.4698C105.563 42.478 105.568 42.4891 105.568 42.5007C105.922 43.9875 106.128 45.5055 106.182 47.0325C106.192 47.2024 105.543 46.9209 105.417 46.8579Z" fill="#263238"/>
<path d="M97.7122 45.7261C97.7122 45.7261 96.5323 43.4892 95.5278 43.8823C94.5234 44.2753 95.2304 47.3903 96.2787 47.9386C96.4086 48.0172 96.5531 48.0689 96.7035 48.0907C96.8539 48.1124 97.0072 48.1038 97.1542 48.0653C97.3012 48.0268 97.4389 47.9592 97.5591 47.8666C97.6792 47.774 97.7794 47.6582 97.8536 47.5262L97.7122 45.7261Z" fill="#D3766A"/>
<path d="M95.7511 44.7715C95.7511 44.7715 95.7267 44.7715 95.7511 44.8006C96.0823 45.02 96.3637 45.3061 96.577 45.6404C96.7903 45.9747 96.9309 46.3498 96.9896 46.7414C96.9545 46.6591 96.9019 46.5852 96.8354 46.5249C96.769 46.4646 96.6903 46.4194 96.6046 46.3922C96.5189 46.365 96.4284 46.3565 96.3391 46.3674C96.2499 46.3783 96.1641 46.4082 96.0875 46.4552V46.4988C96.2286 46.4714 96.3748 46.489 96.5053 46.5491C96.6357 46.6092 96.7438 46.7088 96.814 46.8336C96.933 47.0406 97.0279 47.2603 97.0968 47.4886C97.1261 47.5614 97.2577 47.542 97.2382 47.4595C97.3845 46.4697 96.7945 45.0044 95.7511 44.7715Z" fill="#263238"/>
<path d="M96.9713 44.9997C97.693 44.9997 99.7311 43.2045 100.077 39.7547C100.077 39.7547 99.5507 42.8309 99.2776 43.2676C99.0046 43.7042 100.419 42.2486 100.74 39.4684C101.57 40.1701 102.496 40.7501 103.49 41.1909C104.778 41.6761 105.592 41.7197 105.694 41.6324C105.797 41.5451 103.9 40.7784 103.427 40.1283C103.427 40.1283 106.806 42.0691 108.415 42.3068C108.6 42.336 109.146 38.5174 106.777 36.6833C104.407 34.8492 100.292 36.2757 99.1411 37.2122C99.1411 37.2122 97.8734 37.285 96.357 39.0171C94.8406 40.7493 96.1961 44.9803 96.9713 44.9997Z" fill="#263238"/>
<path d="M109.118 40.8845C109.118 40.8845 108.352 33.4172 101.653 34.0431C94.9532 34.669 95.5968 42.1412 95.5968 42.1412L109.118 40.8845Z" fill="#FF9E35"/>
<path d="M95.1457 42.702L109.662 41.3594L109.563 40.3013L95.0469 41.6439L95.1457 42.702Z" fill="#FF9E35"/>
<path d="M102.408 40.9718L105.431 40.6903L104.037 33.4316L101.014 33.7131L102.408 40.9718Z" fill="#FF9E35"/>
<path opacity="0.1" d="M102.408 40.9718L105.431 40.6903L104.037 33.4316L101.014 33.7131L102.408 40.9718Z" fill="black"/>
<path d="M91.9534 60.4333C93.0992 68.1287 97.507 80.812 99.7012 81.9862C103.802 84.2278 116.167 85.6301 120.385 85.5185C122.203 85.47 123.476 74.2374 122.433 72.6023C121.818 71.6319 105.679 72.1559 105.338 71.8793C104.811 71.4572 99.789 62.7671 96.6781 58.9582C92.0802 53.3444 91.3195 56.1489 91.9534 60.4333Z" fill="#D3766A"/>
<path d="M120.107 72.3751C120.107 72.3751 125.807 71.953 129.323 71.8899C131.273 71.8559 134.652 72.0937 136.105 72.7196C138.28 73.6609 146.769 78.9836 145.516 81.0603C144.379 82.938 137.675 77.4455 137.675 77.4455C137.675 77.4455 144.935 82.3898 143.151 84.4034C141.366 86.417 134.618 79.2068 134.618 79.2068C134.618 79.2068 141.966 84.4567 139.796 86.2423C138.158 87.5912 131.678 81.3902 131.678 81.3902C131.678 81.3902 137.958 85.9463 136.334 87.4068C134.54 89.0225 128.191 83.6853 128.191 83.6853C123.437 86.7032 119.927 86.2035 117.464 85.5533C116.884 85.4077 120.107 72.3751 120.107 72.3751Z" fill="#D3766A"/>
<path d="M135.27 75.5664C136.143 76.1195 137.036 76.6678 137.855 77.2937C138.674 77.9197 139.478 78.5747 140.239 79.2734C141.249 80.1695 142.154 81.1771 142.935 82.2768C141.404 80.4233 138.498 78.138 137.674 77.5121C136.85 76.8862 136.065 76.2263 135.236 75.6004L135.27 75.5664Z" fill="#263238"/>
<path d="M132.945 78.4831C134.032 79.2303 135.139 79.9387 136.192 80.7345C137.245 81.5302 138.142 82.3745 139.152 83.243C139.225 83.3061 139.152 83.3255 139.088 83.243C138.064 82.4181 137.055 81.734 136.021 80.9237C134.988 80.1134 133.983 79.2594 132.925 78.4977C132.91 78.4928 132.93 78.4686 132.945 78.4831Z" fill="#263238"/>
<path d="M130.502 80.623C132.194 81.7355 133.765 83.0184 135.193 84.4513C135.266 84.5193 135.193 84.5338 135.105 84.4513C133.569 83.1461 132.374 82.1175 130.463 80.6619C130.434 80.6619 130.463 80.623 130.502 80.623Z" fill="#263238"/>
<path d="M101.804 65.1651L93.188 70.1433C93.188 70.1433 90.9549 62.4285 91.3596 58.0131C91.7643 53.5977 93.7975 54.4129 95.8991 56.8874C98.0006 59.362 101.804 65.1651 101.804 65.1651Z" fill="#EBEBEB"/>
<path d="M100.307 64.1254C100.36 64.0914 100.404 64.1254 100.35 64.1594C98.0242 65.6892 95.6043 67.0731 93.1048 68.303C93.1048 68.303 93.0755 68.303 93.1048 68.2739C94.1873 67.4345 99.6921 64.4844 100.307 64.1254Z" fill="#263238"/>
<path d="M97.5032 58.8615C99.005 60.9285 100.521 63.1507 101.926 65.2129C101.95 65.2517 101.545 65.4021 101.389 65.4749C101.326 65.504 101.316 65.4312 101.389 65.3972C101.497 65.3366 101.598 65.2651 101.692 65.1837C100.268 63.0974 98.8538 61.0061 97.4983 58.8761C97.4691 58.8615 97.4934 58.8469 97.5032 58.8615Z" fill="#263238"/>
<path d="M1117.72 116.939H1034.87V151.724H1117.72V116.939Z" fill="#FF9E35"/>
<path opacity="0.1" d="M1117.72 116.939H1034.87V151.724H1117.72V116.939Z" fill="#263238"/>
<path opacity="0.2" d="M1117.72 116.939H1081.03V151.724H1117.72V116.939Z" fill="black"/>
<path d="M1115.91 149.329C1113.08 146.854 1110.28 144.373 1107.49 141.885L1099.2 134.404L1091.01 126.888C1088.29 124.381 1085.61 121.864 1082.95 119.338C1085.78 121.806 1088.59 124.284 1091.39 126.771L1099.68 134.253L1107.87 141.764C1110.57 144.278 1113.25 146.799 1115.91 149.329Z" fill="#FF9E35"/>
<path d="M1115.91 119.338C1113.25 121.861 1110.56 124.378 1107.85 126.888L1099.68 134.404L1091.39 141.885C1088.61 144.373 1085.8 146.854 1082.97 149.329C1085.63 146.799 1088.32 144.281 1091.03 141.774L1099.19 134.263L1107.48 126.771C1110.27 124.29 1113.08 121.812 1115.91 119.338Z" fill="#FF9E35"/>
<path opacity="0.7" d="M1054.39 122.209H1055.05L1055.57 121.772L1056.06 122.209H1056.36H1056.67H1057.13L1057.3 122.054L1057.52 122.209H1058.06H1058.2H1058.38L1058.46 122.097L1058.62 122.209L1058.85 122.015L1059.11 122.209H1059.48V116.939H1054.39V122.209Z" fill="white"/>
<path d="M1042.03 149.453H1042.27V146.013H1042.03V149.453Z" fill="white"/>
<path d="M1041.44 149.453H1041.68V146.013H1041.44V149.453Z" fill="white"/>
<path d="M1040.85 149.453H1041.09V146.013H1040.85V149.453Z" fill="white"/>
<path d="M1040.26 149.453H1040.5V146.013H1040.26V149.453Z" fill="white"/>
<path d="M1039.67 149.453H1039.92V146.013H1039.67V149.453Z" fill="white"/>
<path d="M1039.09 149.453H1039.33V146.013H1039.09V149.453Z" fill="white"/>
<path d="M1038.5 149.453H1038.74V146.013H1038.5V149.453Z" fill="white"/>
<path d="M1037.91 149.453H1038.16V146.013H1037.91V149.453Z" fill="white"/>
<path d="M1037.32 149.453H1037.57V146.013H1037.32V149.453Z" fill="white"/>
<path d="M1044.68 149.192L1043.73 149.449H1045.94L1045 149.187V147.925C1045.68 147.833 1045.94 147.173 1045.94 146.014H1043.73C1043.73 147.168 1044 147.833 1044.68 147.925V149.192Z" fill="white"/>
<path d="M1046.46 147.765H1047.04V149.449H1048.52V147.765H1049.1L1047.78 146.014L1046.46 147.765Z" fill="white"/>
<path opacity="0.1" d="M1034.87 151.724V150.395L1081.03 147.367V151.719L1034.87 151.724Z" fill="black"/>
<path d="M1085.18 82.1562H1035.94V116.941H1085.18V82.1562Z" fill="#FF9E35"/>
<path opacity="0.1" d="M1085.18 82.1562H1035.94V116.941H1085.18V82.1562Z" fill="#263238"/>
<path opacity="0.2" d="M1085.17 82.1562H1068.41V116.941H1085.17V82.1562Z" fill="black"/>
<path d="M1084.01 114.543C1082.78 112.069 1081.55 109.588 1080.32 107.1L1076.69 99.5989L1073.1 92.083C1071.91 89.5729 1070.73 87.0563 1069.56 84.5332C1070.8 87.0013 1072.03 89.4823 1073.25 91.9763L1076.89 99.4582L1080.48 106.974C1081.67 109.497 1082.85 112.02 1084.01 114.543Z" fill="#FF9E35"/>
<path d="M1084.01 84.5566C1082.85 87.0797 1081.67 89.5963 1080.48 92.1065L1076.89 99.5981L1073.25 107.08C1072.03 109.567 1070.8 112.048 1069.56 114.523C1070.73 112 1071.91 109.482 1073.1 106.968L1076.69 99.4574L1080.32 91.9755C1081.54 89.5009 1082.77 87.028 1084.01 84.5566Z" fill="#FF9E35"/>
<path opacity="0.7" d="M1048.89 89.2888H1049.54L1050.07 88.692L1050.56 89.2888H1050.86H1051.17H1051.62L1051.79 89.0753L1052.01 89.2888H1052.57H1052.7H1052.88L1052.96 89.1384L1053.12 89.2888L1053.35 89.0219L1053.61 89.2888H1053.98V82.1562H1048.89V89.2888Z" fill="white"/>
<path d="M1043.1 114.67H1043.34V111.23H1043.1V114.67Z" fill="white"/>
<path d="M1042.52 114.67H1042.76V111.23H1042.52V114.67Z" fill="white"/>
<path d="M1041.93 114.67H1042.17V111.23H1041.93V114.67Z" fill="white"/>
<path d="M1041.34 114.67H1041.58V111.23H1041.34V114.67Z" fill="white"/>
<path d="M1040.75 114.67H1040.99V111.23H1040.75V114.67Z" fill="white"/>
<path d="M1040.16 114.67H1040.4V111.23H1040.16V114.67Z" fill="white"/>
<path d="M1039.57 114.67H1039.82V111.23H1039.57V114.67Z" fill="white"/>
<path d="M1038.98 114.67H1039.23V111.23H1038.98V114.67Z" fill="white"/>
<path d="M1038.4 114.67H1038.64V111.23H1038.4V114.67Z" fill="white"/>
<path d="M1045.75 114.407L1044.81 114.664H1047.02L1046.07 114.402V113.14C1046.75 113.048 1047.02 112.388 1047.02 111.229H1044.8C1044.8 112.383 1045.07 113.048 1045.74 113.14L1045.75 114.407Z" fill="white"/>
<path d="M1047.53 112.985H1048.11V114.669H1049.59V112.985H1050.17L1048.85 111.229L1047.53 112.985Z" fill="white"/>
<path opacity="0.1" d="M1035.94 116.939V115.61L1068.41 112.582V116.934L1035.94 116.939Z" fill="black"/>
<path d="M1120.17 82.1562H1070.94V116.941H1120.17V82.1562Z" fill="#FF9E35"/>
<path opacity="0.1" d="M1120.17 82.1562H1070.94V116.941H1120.17V82.1562Z" fill="#263238"/>
<path opacity="0.2" d="M1120.17 82.1562H1103.41V116.941H1120.17V82.1562Z" fill="black"/>
<path d="M1119.01 114.542C1117.77 112.068 1116.55 109.587 1115.33 107.099L1111.69 99.5981L1108.1 92.0822C1106.91 89.5882 1105.72 87.0797 1104.55 84.5566C1105.8 87.0247 1107.03 89.5058 1108.24 91.9997L1111.88 99.4816L1115.47 106.997C1116.66 109.504 1117.85 112.019 1119.01 114.542Z" fill="#FF9E35"/>
<path d="M1119.01 84.5566C1117.85 87.0797 1116.67 89.5963 1115.48 92.1065L1111.89 99.5981L1108.25 107.08C1107.03 109.567 1105.8 112.048 1104.56 114.523C1105.73 112 1106.91 109.482 1108.1 106.968L1111.69 99.4574L1115.33 91.9755C1116.54 89.5009 1117.77 87.028 1119.01 84.5566Z" fill="#FF9E35"/>
<path opacity="0.7" d="M1083.89 89.2888H1084.54L1085.07 88.692L1085.56 89.2888H1085.86H1086.17H1086.62L1086.8 89.0753L1087.02 89.2888H1087.56H1087.69H1087.88L1087.96 89.1384L1088.12 89.2888L1088.35 89.0219L1088.61 89.2888H1088.98V82.1562H1083.89V89.2888Z" fill="white"/>
<path d="M1078.1 114.67H1078.34V111.23H1078.1V114.67Z" fill="white"/>
<path d="M1077.51 114.67H1077.76V111.23H1077.51V114.67Z" fill="white"/>
<path d="M1076.92 114.67H1077.17V111.23H1076.92V114.67Z" fill="white"/>
<path d="M1076.34 114.67H1076.58V111.23H1076.34V114.67Z" fill="white"/>
<path d="M1075.75 114.67H1075.99V111.23H1075.75V114.67Z" fill="white"/>
<path d="M1075.16 114.67H1075.41V111.23H1075.16V114.67Z" fill="white"/>
<path d="M1074.57 114.67H1074.81V111.23H1074.57V114.67Z" fill="white"/>
<path d="M1073.98 114.67H1074.23V111.23H1073.98V114.67Z" fill="white"/>
<path d="M1073.4 114.67H1073.64V111.23H1073.4V114.67Z" fill="white"/>
<path d="M1080.75 114.407L1079.81 114.664H1082.02L1081.07 114.402V113.14C1081.75 113.048 1082.02 112.388 1082.02 111.229H1079.81C1079.81 112.383 1080.07 113.048 1080.75 113.14V114.407Z" fill="white"/>
<path d="M1082.54 112.985H1083.11V114.669H1084.59V112.985H1085.17L1083.85 111.229L1082.54 112.985Z" fill="white"/>
<path opacity="0.1" d="M1070.94 116.939V115.61L1103.41 112.582V116.934L1070.94 116.939Z" fill="black"/>
<path d="M1102.62 47.3711H1043.1V82.1556H1102.62V47.3711Z" fill="#FF9E35"/>
<path opacity="0.1" d="M1102.62 47.3711H1043.1V82.1556H1102.62V47.3711Z" fill="#263238"/>
<path opacity="0.2" d="M1102.62 47.3711H1085.86V82.1556H1102.62V47.3711Z" fill="black"/>
<path d="M1101.47 79.7582C1100.22 77.2837 1098.99 74.8026 1097.77 72.3152L1094.14 64.8333L1090.55 57.3174C1089.36 54.8073 1088.18 52.2907 1087.01 49.7676C1088.25 52.2421 1089.48 54.7232 1090.7 57.2107L1094.34 64.6925L1097.93 72.2084C1099.12 74.7185 1100.3 77.2352 1101.47 79.7582Z" fill="#FF9E35"/>
<path d="M1101.47 49.7676C1100.3 52.2907 1099.12 54.8073 1097.93 57.3174L1094.34 64.8333L1090.7 72.3152C1089.48 74.8026 1088.26 77.2837 1087.01 79.7582C1088.18 77.2352 1089.36 74.7185 1090.55 72.2084L1094.14 64.6925L1097.77 57.2107C1098.99 54.7232 1100.22 52.2421 1101.47 49.7676Z" fill="#FF9E35"/>
<path opacity="0.7" d="M1061.93 54.5036H1062.59L1063.12 53.9117L1063.6 54.5036H1063.9H1064.22H1064.67L1064.84 54.2901L1065.06 54.5036H1065.61H1065.74H1065.93L1066 54.3532L1066.16 54.5036L1066.4 54.2368L1066.66 54.5036H1067.02V47.3711H1061.93V54.5036Z" fill="white"/>
<path d="M1050.26 79.8848H1050.5V76.4447H1050.26V79.8848Z" fill="white"/>
<path d="M1049.67 79.8848H1049.92V76.4447H1049.67V79.8848Z" fill="white"/>
<path d="M1049.08 79.8848H1049.33V76.4447H1049.08V79.8848Z" fill="white"/>
<path d="M1048.5 79.8848H1048.74V76.4447H1048.5V79.8848Z" fill="white"/>
<path d="M1047.9 79.8848H1048.15V76.4447H1047.9V79.8848Z" fill="white"/>
<path d="M1047.32 79.8848H1047.56V76.4447H1047.32V79.8848Z" fill="white"/>
<path d="M1046.73 79.8848H1046.98V76.4447H1046.73V79.8848Z" fill="white"/>
<path d="M1046.14 79.8848H1046.39V76.4447H1046.14V79.8848Z" fill="white"/>
<path d="M1045.56 79.8848H1045.8V76.4447H1045.56V79.8848Z" fill="white"/>
<path d="M1052.91 79.6234L1051.96 79.8854H1054.18L1053.23 79.6186V78.357C1053.91 78.2697 1054.18 77.605 1054.18 76.4453H1051.96C1051.96 77.6001 1052.23 78.2697 1052.91 78.357V79.6234Z" fill="white"/>
<path d="M1054.69 78.2018H1055.27V79.8854H1056.75V78.2018H1057.33L1056.01 76.4453L1054.69 78.2018Z" fill="white"/>
<path opacity="0.1" d="M1043.1 82.156V80.8314L1085.86 77.7988V82.1511L1043.1 82.156Z" fill="black"/>
<path d="M1045.26 153.297H1038.69V159.105H1045.26V153.297Z" fill="#FF9E35"/>
<path opacity="0.3" d="M1045.26 153.297H1038.69V159.105H1045.26V153.297Z" fill="black"/>
<path opacity="0.3" d="M1045.26 154.578L1038.69 155.369V153.297H1045.26V154.578Z" fill="black"/>
<path d="M1079.59 153.297H1073.02V159.105H1079.59V153.297Z" fill="#FF9E35"/>
<path opacity="0.3" d="M1079.59 153.297H1073.02V159.105H1079.59V153.297Z" fill="black"/>
<path opacity="0.3" d="M1079.59 154.578L1073.02 155.369V153.297H1079.59V154.578Z" fill="black"/>
<path d="M1113.93 153.297H1107.36V159.105H1113.93V153.297Z" fill="#FF9E35"/>
<path opacity="0.3" d="M1113.93 153.297H1107.36V159.105H1113.93V153.297Z" fill="black"/>
<path opacity="0.3" d="M1113.93 154.578L1107.36 155.369V153.297H1113.93V154.578Z" fill="black"/>
<path d="M1117.55 151.725H1035.07V153.297H1117.55V151.725Z" fill="#FF9E35"/>
<path opacity="0.3" d="M1117.55 151.725H1035.07V153.297H1117.55V151.725Z" fill="black"/>
<path d="M1117.55 159.105H1035.07V160.678H1117.55V159.105Z" fill="#FF9E35"/>
<path opacity="0.3" d="M1117.55 159.105H1035.07V160.678H1117.55V159.105Z" fill="black"/>
</svg>
