<svg width="758" height="174" viewBox="0 0 758 174" fill="none" xmlns="http://www.w3.org/2000/svg">
<path d="M0 157.123L31.251 157.027L62.4981 156.997L125 156.932L187.502 156.997L218.753 157.027L250 157.123L218.753 157.215L187.502 157.249L125 157.314L62.4981 157.249L31.251 157.215L0 157.123Z" fill="#263238"/>
<path d="M162.746 20.9751H155.498V146.244H162.746V20.9751Z" fill="#37474F"/>
<path d="M159.59 25.7217H158.653V141.505H159.59V25.7217Z" fill="#263238"/>
<path d="M148.803 48.1615L155.525 50.0624V20.9751L148.803 22.876V48.1615Z" fill="#263238"/>
<path d="M166.529 48.8999L162.727 51.7532V118.855L166.529 121.708V48.8999Z" fill="#263238"/>
<path d="M232.241 119.049H166.566V121.7L232.241 119.895V119.049Z" fill="#263238"/>
<path d="M148.67 147.937H17.2471V114.011H49.8102H76.0617H80.9344H138.203L148.67 123.6V147.937Z" fill="#FF9E35"/>
<path opacity="0.2" d="M63.0396 147.942H25.6343C23.9526 144.736 23.1289 141.152 23.2428 137.535C23.3567 133.919 24.4043 130.393 26.2844 127.298C28.1644 124.204 30.8134 121.645 33.9755 119.868C37.1375 118.092 40.7056 117.159 44.335 117.159C47.9645 117.159 51.5326 118.092 54.6946 119.868C57.8566 121.645 60.5056 124.204 62.3857 127.298C64.2657 130.393 65.3133 133.919 65.4272 137.535C65.5411 141.152 64.7174 144.736 63.0357 147.942H63.0396Z" fill="black"/>
<path opacity="0.2" d="M148.674 123.597V147.937H125.116C123.54 144.918 122.723 141.563 122.734 138.16C122.744 134.757 123.584 131.407 125.179 128.398C126.774 125.389 129.078 122.811 131.892 120.885C134.707 118.959 137.948 117.742 141.338 117.339L141.779 117.293L148.674 123.597Z" fill="black"/>
<path opacity="0.2" d="M118.173 138.226H89.8916L80.9326 130.175V114.011H118.173V138.226Z" fill="black"/>
<path d="M138.231 114.011H155.513V118.173L148.698 123.596L138.231 114.011Z" fill="#37474F"/>
<g opacity="0.2">
<path d="M70.8421 114.011H64.2773L73.0829 147.933H79.6438L70.8421 114.011Z" fill="white"/>
<path d="M75.3611 114.011H73.5117L82.3172 147.933H84.1666L75.3611 114.011Z" fill="white"/>
</g>
<path d="M161.861 134.851L161.589 134.821L161.892 137.379L162.149 137.288C162.149 136.882 162.095 136.469 162.045 136.06C161.995 135.651 161.938 135.249 161.861 134.851ZM161.478 134.262L161.719 134.128C161.534 133.331 161.295 132.546 161.006 131.78H160.729L161.478 134.262ZM161.765 140.516L162.038 140.474C162.142 139.661 162.188 138.841 162.176 138.022L161.915 137.945L161.765 140.516ZM160.733 131.091C160.417 130.337 160.047 129.606 159.628 128.904L159.36 128.969L160.511 131.264L160.733 131.091ZM161.094 143.587H161.366C161.61 142.804 161.8 142.005 161.934 141.196L161.685 141.074L161.094 143.587ZM157.514 126.418L159.049 128.483L159.225 128.273C158.782 127.584 158.289 126.929 157.752 126.31L157.514 126.418ZM159.912 146.494L160.177 146.54C160.553 145.813 160.879 145.062 161.151 144.291L160.933 144.126L159.912 146.494ZM155.266 124.234L157.15 125.997L157.288 125.764C156.73 125.162 156.132 124.599 155.496 124.081L155.266 124.234ZM158.22 149.148L158.477 149.24C158.973 148.587 159.424 147.902 159.828 147.19L159.64 146.995L158.22 149.148ZM152.66 122.467L154.817 123.878L154.917 123.622C154.261 123.128 153.572 122.68 152.856 122.279L152.66 122.467ZM156.114 151.474L156.348 151.607C156.949 151.05 157.513 150.453 158.036 149.821L157.886 149.592L156.114 151.474ZM149.794 121.181L152.169 122.199L152.223 121.927C151.491 121.555 150.735 121.231 149.959 120.96L149.794 121.181ZM153.631 153.39L153.842 153.566C154.532 153.122 155.189 152.632 155.811 152.097L155.703 151.852L153.631 153.39ZM146.756 120.413L149.269 121.002V120.726C148.485 120.484 147.685 120.297 146.875 120.168L146.756 120.413ZM150.842 154.836L151.014 155.046C151.772 154.73 152.507 154.362 153.213 153.944L153.148 153.68L150.842 154.836ZM143.69 119.912L143.613 120.172L146.188 120.317L146.146 120.049C145.314 119.951 144.477 119.909 143.64 119.923L143.69 119.912ZM147.972 156.021C148.773 155.843 149.56 155.608 150.328 155.317L150.309 155.046L147.838 155.788L147.972 156.021ZM141.722 120.038C141.311 120.088 140.908 120.145 140.505 120.225L140.475 120.493L143.042 120.191L142.949 119.938C142.493 119.965 142.086 120 141.672 120.049L141.722 120.038ZM144.791 156.461C145.198 156.442 145.608 156.408 146.019 156.358C146.429 156.308 146.84 156.251 147.239 156.17L147.27 155.907L144.703 156.209L144.791 156.461ZM137.413 121.078L137.432 121.35L139.907 120.608L139.773 120.374C138.957 120.555 138.155 120.794 137.375 121.09L137.413 121.078ZM141.599 156.346C142.413 156.448 143.234 156.494 144.054 156.484L144.131 156.224L141.549 156.079L141.599 156.346ZM134.531 122.455L134.593 122.719L136.895 121.572L136.718 121.357C135.952 121.675 135.208 122.045 134.493 122.467L134.531 122.455ZM138.426 155.689C139.209 155.934 140.009 156.123 140.82 156.255L140.939 156.01L138.426 155.421V155.689ZM131.903 124.325L132.011 124.574L134.083 123.044L133.875 122.864C133.185 123.306 132.526 123.794 131.903 124.325ZM135.479 154.488C136.21 154.864 136.967 155.188 137.743 155.459L137.904 155.237L135.529 154.224L135.479 154.488ZM129.666 126.601L129.816 126.827L131.589 124.953L131.355 124.815C130.747 125.37 130.179 125.967 129.655 126.601H129.666ZM132.774 152.793C133.429 153.289 134.117 153.739 134.835 154.139L135.026 153.956L132.866 152.541L132.774 152.793ZM127.859 129.233L128.047 129.428L129.463 127.274L129.21 127.182C128.709 127.834 128.253 128.519 127.848 129.233H127.859ZM130.403 150.651C130.961 151.254 131.561 151.816 132.199 152.334L132.417 152.185L130.537 150.422L130.403 150.651ZM126.532 132.132L126.75 132.292L127.771 129.925L127.506 129.879C127.129 130.606 126.803 131.359 126.532 132.132ZM128.45 148.142C128.895 148.829 129.386 149.486 129.92 150.108L130.169 150.001L128.634 147.936L128.45 148.142ZM125.764 135.222L126.01 135.341L126.601 132.832H126.324C126.073 133.614 125.874 134.413 125.73 135.222H125.764ZM126.915 145.327C127.235 146.082 127.607 146.815 128.028 147.519L128.289 147.45L127.138 145.155L126.915 145.327ZM125.879 135.903L125.615 135.949C125.511 136.762 125.464 137.581 125.473 138.401L125.73 138.477L125.879 135.903ZM126.167 142.16L125.937 142.29C126.119 143.09 126.356 143.876 126.647 144.643L126.912 144.623L126.167 142.16ZM125.764 139.043L125.511 139.131C125.511 139.537 125.565 139.946 125.611 140.355C125.657 140.764 125.726 141.173 125.803 141.575L126.067 141.602L125.764 139.043Z" fill="#263238"/>
<path d="M161.9 137.383L162.157 137.291C162.157 137.536 162.18 137.78 162.18 138.025L161.919 137.949L161.77 140.519L162.042 140.477C162.015 140.722 161.977 140.963 161.939 141.204L161.689 141.081L161.098 143.59H161.371C161.302 143.825 161.225 144.058 161.14 144.29L160.922 144.126L159.92 146.497L160.185 146.543C160.078 146.761 159.959 146.983 159.836 147.193L159.648 146.998L158.228 149.151L158.485 149.243C158.34 149.438 158.182 149.626 158.029 149.825L157.879 149.595L156.084 151.477L156.318 151.611C156.141 151.775 155.953 151.94 155.765 152.1L155.658 151.855L153.586 153.385L153.797 153.561C153.59 153.695 153.382 153.829 153.168 153.944L153.102 153.68L150.8 154.827L150.973 155.038C150.746 155.137 150.52 155.225 150.286 155.309L150.267 155.038L147.796 155.78L147.93 156.013C147.692 156.07 147.451 156.116 147.209 156.162L147.24 155.898L144.673 156.2L144.761 156.453C144.505 156.453 144.26 156.461 144.024 156.476L144.101 156.216L141.519 156.07L141.569 156.338C141.323 156.311 141.082 156.277 140.836 156.235L140.955 155.99L138.434 155.424V155.692C138.2 155.619 137.962 155.546 137.732 155.462L137.893 155.24L135.518 154.227L135.468 154.491C135.25 154.384 135.039 154.265 134.824 154.143L135.016 153.959L132.855 152.544L132.763 152.796C132.568 152.647 132.38 152.498 132.188 152.341L132.406 152.192L130.526 150.429L130.392 150.658C130.223 150.479 130.058 150.299 129.897 150.111L130.147 150.004L128.612 147.939L128.439 148.145C128.301 147.939 128.174 147.732 128.056 147.522L128.316 147.453L127.165 145.158L126.954 145.334C126.862 145.109 126.766 144.883 126.686 144.65L126.951 144.631L126.206 142.167L125.976 142.297C125.922 142.06 125.872 141.823 125.83 141.582L126.095 141.609L125.792 139.05L125.539 139.138C125.539 138.897 125.516 138.652 125.512 138.408L125.769 138.484L125.918 135.91L125.654 135.956C125.681 135.711 125.715 135.47 125.757 135.229L126.003 135.348L126.594 132.839H126.317C126.39 132.605 126.471 132.372 126.551 132.139L126.77 132.299L127.791 129.932L127.526 129.886C127.637 129.668 127.756 129.45 127.875 129.24L128.063 129.435L129.479 127.281L129.226 127.19C129.372 126.995 129.525 126.807 129.682 126.608L129.832 126.834L131.605 124.96L131.371 124.822C131.547 124.654 131.731 124.493 131.919 124.332L132.027 124.581L134.099 123.051L133.891 122.871C134.095 122.738 134.306 122.608 134.521 122.489L134.582 122.753L136.884 121.605L136.708 121.391C136.938 121.292 137.168 121.204 137.398 121.12L137.417 121.391L139.892 120.649L139.758 120.416C139.996 120.359 140.237 120.309 140.479 120.267L140.448 120.534L143.015 120.232L142.923 119.98C143.173 119.961 143.418 119.957 143.664 119.953L143.587 120.213L146.162 120.359L146.119 120.091C146.365 120.118 146.607 120.152 146.852 120.198L146.729 120.443L149.242 121.032V120.756C149.477 120.829 149.714 120.905 149.945 120.99L149.78 121.211L152.155 122.229L152.208 121.957C152.427 122.072 152.642 122.187 152.857 122.309L152.661 122.497L154.817 123.908L154.917 123.652C155.113 123.805 155.301 123.954 155.496 124.111L155.266 124.264L157.15 126.027L157.288 125.794C157.457 125.969 157.622 126.153 157.779 126.34L157.53 126.448L159.065 128.513L159.241 128.303C159.379 128.509 159.507 128.719 159.625 128.934L159.356 128.999L160.507 131.294L160.718 131.118C160.818 131.343 160.91 131.573 160.991 131.806H160.715L161.463 134.273L161.704 134.139C161.754 134.38 161.808 134.617 161.85 134.862L161.578 134.831L161.9 137.383Z" fill="#263238"/>
<path d="M143.007 120.199L140.44 120.501L140.475 120.233L140.563 119.4L142.631 119.155L142.915 119.947L143.007 120.199Z" fill="#263238"/>
<path d="M139.878 120.617L137.403 121.359L137.384 121.088L137.33 120.258L139.325 119.657L139.743 120.384L139.878 120.617Z" fill="#263238"/>
<path d="M136.869 121.573L134.563 122.732L134.501 122.464L134.302 121.653L136.163 120.716L136.692 121.359L136.869 121.573Z" fill="#263238"/>
<path d="M134.065 123.027L131.993 124.572L131.882 124.323L131.548 123.555L133.217 122.315L133.858 122.851L134.065 123.027Z" fill="#263238"/>
<path d="M131.588 124.947L129.819 126.825L129.669 126.599L129.201 125.903L130.628 124.389L131.357 124.813L131.588 124.947Z" fill="#263238"/>
<path d="M129.474 127.277L128.058 129.43L127.87 129.235L127.287 128.631L128.43 126.895L129.221 127.185L129.474 127.277Z" fill="#263238"/>
<path d="M127.768 129.927L126.747 132.295L126.529 132.138L125.854 131.641L126.675 129.732L127.5 129.881L127.768 129.927Z" fill="#263238"/>
<path d="M126.563 132.83L125.972 135.339L125.727 135.22L124.971 134.849L125.45 132.826L126.291 132.83H126.563Z" fill="#263238"/>
<path d="M125.874 135.902L125.724 138.476L125.467 138.399L124.661 138.166L124.78 136.089L125.609 135.948L125.874 135.902Z" fill="#263238"/>
<path d="M125.757 139.041L126.061 141.6L125.796 141.573L124.952 141.477L124.71 139.42L125.504 139.129L125.757 139.041Z" fill="#263238"/>
<path d="M126.919 144.625L126.655 144.644L125.814 144.698L125.212 142.709L125.945 142.292L126.175 142.162L126.919 144.625Z" fill="#263238"/>
<path d="M128.321 147.452L128.06 147.517L127.239 147.716L126.303 145.861L126.947 145.325L127.158 145.149L128.321 147.452Z" fill="#263238"/>
<path d="M130.137 149.999L129.887 150.106L129.116 150.446L127.873 148.779L128.418 148.14L128.591 147.934L130.137 149.999Z" fill="#263238"/>
<path d="M132.431 152.187L132.213 152.336L131.507 152.802L129.991 151.38L130.417 150.653L130.551 150.423L132.431 152.187Z" fill="#263238"/>
<path d="M134.994 153.956L134.802 154.14L134.192 154.717L132.45 153.581L132.742 152.793L132.834 152.541L134.994 153.956Z" fill="#263238"/>
<path d="M137.913 155.235L137.752 155.457L137.257 156.134L135.339 155.308L135.489 154.486L135.538 154.222L137.913 155.235Z" fill="#263238"/>
<path d="M140.952 156.009L140.833 156.254L140.464 157L138.435 156.525L138.438 155.688V155.42L140.952 156.009Z" fill="#263238"/>
<path d="M144.073 156.236L143.997 156.496L143.763 157.303L141.683 157.185L141.541 156.359L141.491 156.091L144.073 156.236Z" fill="#263238"/>
<path d="M147.225 155.915L147.194 156.179L147.102 157.017L145.034 157.261L144.746 156.47L144.654 156.217L147.225 155.915Z" fill="#263238"/>
<path d="M150.284 155.056L150.304 155.328L150.361 156.162L148.366 156.762L147.948 156.031L147.813 155.798L150.284 155.056Z" fill="#263238"/>
<path d="M153.344 154.765L151.483 155.698L150.946 155.055L150.773 154.845L153.079 153.69L153.145 153.954L153.344 154.765Z" fill="#263238"/>
<path d="M156.111 152.859L154.442 154.102L153.801 153.563L153.59 153.387L155.662 151.85L155.769 152.094L156.111 152.859Z" fill="#263238"/>
<path d="M158.493 150.517L157.062 152.028L156.337 151.607L156.103 151.474L157.875 149.592L158.025 149.821L158.493 150.517Z" fill="#263238"/>
<path d="M160.391 147.793L159.252 149.529L158.461 149.238L158.204 149.147L159.624 146.993L159.812 147.188L160.391 147.793Z" fill="#263238"/>
<path d="M161.805 144.786L160.98 146.694L160.155 146.541L159.887 146.495L160.911 144.128L161.13 144.292L161.805 144.786Z" fill="#263238"/>
<path d="M162.668 141.573L162.196 143.597L161.359 143.593L161.083 143.589L161.674 141.08L161.923 141.202L162.668 141.573Z" fill="#263238"/>
<path d="M162.96 138.254L162.841 140.331L162.017 140.473L161.744 140.515L161.89 137.944L162.155 138.021L162.96 138.254Z" fill="#263238"/>
<path d="M162.69 134.945L162.936 137.006L162.145 137.289L161.888 137.381L161.585 134.822L161.857 134.853L162.69 134.945Z" fill="#263238"/>
<path d="M162.466 133.713L161.741 134.126L161.499 134.264L160.751 131.793L161.027 131.778L161.864 131.724L162.466 133.713Z" fill="#263238"/>
<path d="M161.356 130.56L160.715 131.091L160.504 131.267L159.342 128.968L159.61 128.903L160.424 128.705L161.356 130.56Z" fill="#263238"/>
<path d="M159.788 127.639L159.247 128.27L159.071 128.481L157.524 126.419L157.774 126.308L158.537 125.972L159.788 127.639Z" fill="#263238"/>
<path d="M157.683 125.044L157.265 125.767L157.127 126L155.243 124.237L155.473 124.084L156.172 123.621L157.683 125.044Z" fill="#263238"/>
<path d="M155.203 122.839L154.915 123.62L154.819 123.876L152.659 122.465L152.855 122.277L153.461 121.7L155.203 122.839Z" fill="#263238"/>
<path d="M152.354 121.11L152.208 121.929L152.154 122.2L149.779 121.183L149.944 120.961L150.439 120.288L152.354 121.11Z" fill="#263238"/>
<path d="M149.224 119.895L149.22 120.725L149.216 121L146.703 120.411L146.822 120.163L147.194 119.417L149.224 119.895Z" fill="#263238"/>
<path d="M146.148 120.327L143.569 120.182L143.646 119.921L143.88 119.122L145.96 119.241L146.102 120.059L146.148 120.327Z" fill="#263238"/>
<path d="M158.555 136.474C158.899 139.375 158.372 142.312 157.042 144.914C155.711 147.516 153.637 149.666 151.08 151.093C148.524 152.52 145.6 153.159 142.679 152.93C139.759 152.7 136.972 151.612 134.671 149.804C132.37 147.996 130.659 145.548 129.754 142.77C128.849 139.992 128.79 137.009 129.586 134.199C130.381 131.388 131.995 128.875 134.223 126.978C136.451 125.081 139.193 123.886 142.103 123.543C144.035 123.315 145.993 123.469 147.865 123.995C149.738 124.522 151.488 125.411 153.016 126.612C154.543 127.812 155.819 129.301 156.769 130.994C157.72 132.686 158.327 134.548 158.555 136.474Z" fill="#37474F"/>
<path d="M153.305 137.084C153.528 138.951 153.189 140.841 152.334 142.517C151.478 144.192 150.143 145.577 148.498 146.495C146.853 147.414 144.971 147.826 143.091 147.679C141.211 147.532 139.417 146.833 137.936 145.669C136.455 144.505 135.353 142.93 134.77 141.142C134.187 139.355 134.149 137.435 134.66 135.625C135.172 133.816 136.21 132.198 137.644 130.977C139.078 129.756 140.843 128.986 142.716 128.765C145.227 128.469 147.753 129.179 149.739 130.739C151.725 132.299 153.007 134.581 153.305 137.084Z" fill="#455A64"/>
<path d="M148.01 137.719C148.107 138.545 147.956 139.381 147.576 140.122C147.196 140.863 146.604 141.475 145.875 141.88C145.146 142.286 144.313 142.466 143.481 142.4C142.649 142.334 141.856 142.023 141.201 141.507C140.546 140.991 140.06 140.293 139.803 139.502C139.546 138.71 139.53 137.861 139.757 137.06C139.985 136.26 140.445 135.544 141.08 135.005C141.715 134.465 142.497 134.125 143.325 134.028C143.876 133.963 144.434 134.008 144.968 134.158C145.502 134.309 146 134.563 146.435 134.905C146.87 135.248 147.233 135.673 147.504 136.156C147.774 136.639 147.946 137.17 148.01 137.719Z" fill="#263238"/>
<path d="M144.451 143.651C143.371 143.778 142.277 143.583 141.309 143.091C140.34 142.598 139.539 141.831 139.008 140.885C138.477 139.939 138.239 138.857 138.325 137.776C138.41 136.696 138.815 135.665 139.489 134.813C140.162 133.962 141.074 133.329 142.108 132.995C143.143 132.66 144.253 132.639 145.3 132.933C146.347 133.228 147.282 133.825 147.988 134.65C148.694 135.474 149.139 136.489 149.266 137.566C149.436 139.009 149.024 140.46 148.121 141.601C147.219 142.742 145.898 143.479 144.451 143.651ZM143.219 133.259C142.24 133.375 141.318 133.778 140.568 134.417C139.819 135.055 139.276 135.901 139.008 136.846C138.741 137.792 138.76 138.796 139.064 139.731C139.369 140.666 139.944 141.49 140.718 142.099C141.492 142.708 142.429 143.075 143.412 143.153C144.395 143.231 145.379 143.017 146.239 142.538C147.1 142.059 147.8 141.337 148.249 140.462C148.698 139.587 148.877 138.599 148.763 137.623C148.605 136.313 147.933 135.119 146.894 134.302C145.855 133.484 144.534 133.109 143.219 133.259Z" fill="#263238"/>
<path d="M143.831 130.679C143.854 130.854 143.825 131.033 143.747 131.191C143.669 131.35 143.546 131.482 143.392 131.57C143.239 131.659 143.062 131.7 142.885 131.688C142.708 131.676 142.539 131.612 142.398 131.504C142.258 131.396 142.153 131.249 142.097 131.081C142.041 130.914 142.036 130.733 142.083 130.563C142.13 130.392 142.227 130.24 142.361 130.124C142.495 130.009 142.661 129.936 142.837 129.914C143.07 129.886 143.305 129.95 143.491 130.094C143.677 130.237 143.799 130.447 143.831 130.679Z" fill="#263238"/>
<path d="M140.07 131.687C140.175 131.828 140.237 131.997 140.246 132.173C140.255 132.349 140.212 132.524 140.121 132.675C140.031 132.826 139.898 132.948 139.738 133.023C139.579 133.099 139.401 133.126 139.226 133.101C139.051 133.076 138.887 133 138.756 132.883C138.625 132.765 138.531 132.611 138.487 132.441C138.443 132.27 138.451 132.091 138.509 131.924C138.568 131.758 138.674 131.613 138.815 131.507C138.909 131.437 139.017 131.385 139.131 131.356C139.245 131.327 139.364 131.32 139.48 131.337C139.597 131.354 139.709 131.393 139.81 131.453C139.911 131.513 140 131.593 140.07 131.687Z" fill="#263238"/>
<path d="M137.313 134.444C137.475 134.514 137.612 134.631 137.708 134.779C137.804 134.927 137.853 135.1 137.85 135.276C137.848 135.452 137.793 135.623 137.692 135.768C137.592 135.913 137.451 136.025 137.287 136.09C137.122 136.155 136.943 136.17 136.77 136.133C136.597 136.097 136.439 136.01 136.316 135.884C136.193 135.757 136.11 135.598 136.078 135.425C136.045 135.252 136.065 135.073 136.135 134.911C136.181 134.803 136.248 134.705 136.333 134.623C136.417 134.541 136.517 134.477 136.626 134.434C136.736 134.39 136.853 134.369 136.971 134.371C137.088 134.373 137.205 134.398 137.313 134.444Z" fill="#263238"/>
<path d="M136.283 138.199C136.459 138.175 136.638 138.204 136.797 138.282C136.956 138.36 137.089 138.483 137.177 138.636C137.266 138.789 137.307 138.965 137.295 139.142C137.283 139.318 137.219 139.487 137.111 139.627C137.003 139.767 136.855 139.871 136.687 139.927C136.518 139.983 136.337 139.988 136.166 139.941C135.995 139.895 135.842 139.798 135.726 139.664C135.611 139.53 135.537 139.365 135.516 139.19C135.489 138.957 135.554 138.724 135.697 138.538C135.84 138.353 136.051 138.231 136.283 138.199Z" fill="#263238"/>
<path d="M137.267 141.966C137.408 141.861 137.578 141.8 137.754 141.791C137.931 141.782 138.106 141.825 138.258 141.915C138.41 142.005 138.531 142.138 138.607 142.297C138.683 142.456 138.711 142.634 138.686 142.808C138.66 142.982 138.584 143.145 138.466 143.276C138.348 143.407 138.194 143.501 138.023 143.544C137.852 143.588 137.672 143.58 137.505 143.522C137.338 143.464 137.193 143.358 137.086 143.217C136.944 143.027 136.884 142.789 136.917 142.555C136.951 142.32 137.077 142.109 137.267 141.966Z" fill="#263238"/>
<path d="M140.07 144.733C140.14 144.571 140.257 144.433 140.405 144.337C140.553 144.241 140.727 144.191 140.904 144.193C141.08 144.196 141.253 144.25 141.398 144.35C141.544 144.45 141.657 144.591 141.722 144.754C141.788 144.918 141.803 145.098 141.766 145.27C141.729 145.442 141.642 145.6 141.515 145.723C141.389 145.846 141.228 145.929 141.054 145.961C140.88 145.993 140.701 145.973 140.539 145.903C140.321 145.809 140.151 145.633 140.063 145.414C139.975 145.195 139.978 144.95 140.07 144.733Z" fill="#263238"/>
<path d="M143.828 145.738C143.805 145.563 143.834 145.385 143.912 145.226C143.99 145.068 144.113 144.936 144.267 144.847C144.421 144.759 144.597 144.718 144.774 144.73C144.951 144.741 145.12 144.805 145.261 144.913C145.401 145.021 145.506 145.169 145.562 145.336C145.618 145.504 145.623 145.685 145.576 145.855C145.529 146.025 145.432 146.178 145.298 146.294C145.164 146.409 144.998 146.482 144.822 146.503C144.589 146.532 144.354 146.467 144.168 146.324C143.982 146.181 143.86 145.971 143.828 145.738Z" fill="#263238"/>
<path d="M147.588 144.732C147.482 144.591 147.42 144.422 147.41 144.246C147.401 144.07 147.444 143.895 147.534 143.743C147.625 143.592 147.758 143.47 147.918 143.394C148.077 143.318 148.256 143.291 148.431 143.316C148.606 143.341 148.769 143.418 148.901 143.536C149.032 143.653 149.126 143.808 149.17 143.978C149.213 144.149 149.205 144.329 149.146 144.495C149.087 144.662 148.98 144.807 148.838 144.912C148.648 145.053 148.41 145.112 148.176 145.079C147.942 145.045 147.73 144.921 147.588 144.732Z" fill="#263238"/>
<path d="M150.345 141.978C150.182 141.908 150.044 141.792 149.948 141.645C149.852 141.497 149.801 141.324 149.804 141.147C149.806 140.971 149.861 140.8 149.961 140.654C150.061 140.509 150.202 140.397 150.367 140.331C150.531 140.266 150.711 140.251 150.884 140.288C151.057 140.324 151.215 140.411 151.338 140.538C151.462 140.664 151.545 140.824 151.577 140.997C151.609 141.171 151.589 141.349 151.519 141.511C151.425 141.728 151.249 141.9 151.029 141.987C150.809 142.075 150.563 142.071 150.345 141.978Z" fill="#263238"/>
<path d="M151.376 138.231C151.201 138.255 151.022 138.226 150.863 138.148C150.703 138.07 150.571 137.947 150.482 137.794C150.394 137.641 150.352 137.465 150.364 137.289C150.376 137.112 150.44 136.943 150.549 136.804C150.657 136.664 150.805 136.559 150.973 136.503C151.141 136.447 151.322 136.442 151.493 136.489C151.664 136.536 151.817 136.632 151.933 136.766C152.049 136.9 152.122 137.065 152.144 137.241C152.173 137.473 152.109 137.708 151.965 137.894C151.821 138.079 151.61 138.201 151.376 138.231Z" fill="#263238"/>
<path d="M150.377 134.453C150.235 134.558 150.066 134.62 149.889 134.629C149.712 134.639 149.537 134.596 149.385 134.506C149.233 134.416 149.111 134.283 149.035 134.124C148.958 133.965 148.931 133.787 148.956 133.612C148.982 133.438 149.058 133.275 149.176 133.143C149.295 133.012 149.449 132.919 149.621 132.876C149.792 132.832 149.973 132.84 150.139 132.899C150.306 132.958 150.451 133.065 150.557 133.206C150.699 133.395 150.76 133.633 150.726 133.866C150.692 134.1 150.567 134.311 150.377 134.453Z" fill="#263238"/>
<path d="M147.589 131.699C147.52 131.861 147.403 131.998 147.255 132.095C147.107 132.191 146.934 132.241 146.757 132.239C146.581 132.237 146.408 132.183 146.262 132.084C146.117 131.984 146.003 131.844 145.938 131.681C145.872 131.517 145.856 131.338 145.892 131.165C145.928 130.993 146.015 130.835 146.141 130.712C146.268 130.588 146.428 130.505 146.601 130.472C146.775 130.44 146.954 130.459 147.117 130.528C147.335 130.622 147.507 130.797 147.595 131.016C147.683 131.236 147.681 131.481 147.589 131.699Z" fill="#263238"/>
<path d="M62.3782 134.853L62.1097 134.822L62.4128 137.381L62.666 137.289C62.666 136.884 62.6161 136.47 62.5662 136.061C62.5164 135.652 62.4742 135.25 62.3782 134.853ZM61.9946 134.264L62.2363 134.13C62.0538 133.332 61.8166 132.547 61.5265 131.781H61.2502L61.9946 134.264ZM62.2823 140.529L62.5547 140.486C62.6568 139.673 62.7029 138.854 62.6929 138.035L62.4281 137.958L62.2823 140.529ZM61.2502 131.104C60.9337 130.35 60.5644 129.619 60.1452 128.917L59.8766 128.982L61.0277 131.276L61.2502 131.104ZM61.6109 143.6H61.8833C62.1275 142.817 62.3172 142.018 62.4511 141.209L62.2017 141.087L61.6109 143.6ZM58.0273 126.43L59.562 128.496L59.7385 128.285C59.2924 127.598 58.7988 126.942 58.2613 126.323L58.0273 126.43ZM60.4099 146.507L60.6785 146.553C61.0534 145.825 61.379 145.074 61.6531 144.304L61.4305 144.139L60.4099 146.507ZM55.7674 124.247L57.6513 126.01L57.7894 125.776C57.232 125.175 56.6333 124.612 55.9976 124.094L55.7674 124.247ZM58.7217 149.161L58.9788 149.253C59.4744 148.601 59.9243 147.916 60.3255 147.203L60.1414 147.008L58.7217 149.161ZM53.1584 122.479L55.3185 123.891L55.4144 123.635C54.7593 123.141 54.0709 122.692 53.354 122.292L53.1584 122.479ZM56.6115 151.486L56.8455 151.62C57.4469 151.064 58.0097 150.467 58.5299 149.834L58.3803 149.605L56.6115 151.486ZM50.2922 121.194L52.6672 122.212L52.7171 121.94C51.9867 121.567 51.2316 121.244 50.4572 120.973L50.2922 121.194ZM54.1291 153.403L54.3401 153.579C55.029 153.134 55.6866 152.644 56.3084 152.11L56.2009 151.865L54.1291 153.403ZM47.2497 120.426L49.7666 121.015V120.739C48.9816 120.496 48.1802 120.31 47.3686 120.181L47.2497 120.426ZM51.3359 154.848L51.5124 155.059C52.2697 154.743 53.0043 154.374 53.7109 153.957L53.6456 153.693L51.3359 154.848ZM44.184 119.925L44.1073 120.185L46.6856 120.33L46.6434 120.062C45.8187 119.961 44.9881 119.915 44.1572 119.925H44.184ZM48.4698 156.034C49.2707 155.855 50.058 155.62 50.8256 155.33V155.059L48.3547 155.801L48.4698 156.034ZM42.2196 120.051C41.809 120.1 41.4023 120.158 41.0033 120.238L40.9726 120.506L43.5394 120.204L43.4474 119.951C43.0138 119.967 42.6033 120.001 42.1927 120.051H42.2196ZM45.289 156.474C45.6957 156.455 46.1101 156.42 46.5207 156.371C46.9312 156.321 47.3417 156.264 47.7408 156.183L47.7676 155.919L45.2008 156.222L45.289 156.474ZM37.9147 121.091V121.363L40.3894 120.621L40.2551 120.387C39.4529 120.566 38.6643 120.801 37.8955 121.091H37.9147ZM42.0968 156.359C42.9125 156.461 43.7342 156.507 44.5562 156.497L44.6329 156.237L42.0508 156.092L42.0968 156.359ZM35.0294 122.468L35.0946 122.732L37.3967 121.584L37.2202 121.37C36.4593 121.686 35.7209 122.052 35.0102 122.468H35.0294ZM38.9698 155.69C39.7546 155.935 40.556 156.124 41.3678 156.256L41.4867 156.011L38.9698 155.422V155.69ZM32.428 124.327L32.5354 124.575L34.6073 123.046L34.4001 122.866C33.7046 123.308 33.0393 123.796 32.4088 124.327H32.428ZM36.0001 154.489C36.7297 154.865 37.4849 155.19 38.26 155.46L38.4211 155.239L36.0461 154.225L36.0001 154.489ZM30.1873 126.603L30.3369 126.828L32.1057 124.954L31.8717 124.816C31.2645 125.371 30.6977 125.968 30.1758 126.603H30.1873ZM33.2951 152.795C33.9493 153.291 34.6378 153.741 35.3555 154.141L35.5473 153.957L33.3872 152.542L33.2951 152.795ZM28.3802 129.234L28.5643 129.429L29.9801 127.276L29.7269 127.184C29.2269 127.835 28.7731 128.52 28.3687 129.234H28.3802ZM30.9201 150.653C31.4779 151.255 32.078 151.818 32.7158 152.336L32.9383 152.186L31.0583 150.423L30.9201 150.653ZM27.0526 132.129L27.2752 132.29L28.2958 129.922L28.0272 129.877C27.6475 130.606 27.318 131.36 27.0411 132.133L27.0526 132.129ZM28.971 148.14C29.4176 148.827 29.9098 149.484 30.4444 150.106L30.6938 149.999L29.159 147.933L28.971 148.14ZM26.2853 135.22L26.527 135.338L27.1179 132.829H26.8454C26.5901 133.612 26.3913 134.412 26.2507 135.224L26.2853 135.22ZM27.4824 145.325C27.8025 146.079 28.1729 146.811 28.5912 147.516L28.8521 147.448L27.701 145.153L27.4824 145.325ZM26.408 135.904L26.1433 135.95C26.0437 136.764 25.9963 137.583 26.0013 138.402L26.2622 138.478L26.408 135.904ZM26.6996 142.162L26.4694 142.292C26.6501 143.091 26.886 143.877 27.1754 144.644L27.444 144.625L26.6996 142.162ZM26.2814 139.045L26.032 139.133C26.032 139.538 26.0819 139.947 26.1318 140.356C26.1817 140.766 26.2431 141.175 26.3198 141.577L26.5845 141.603L26.2814 139.045Z" fill="#263238"/>
<path d="M62.3772 137.382L62.6305 137.29C62.6305 137.535 62.6535 137.779 62.6573 138.024L62.3926 137.948L62.2468 140.529L62.5192 140.487C62.4923 140.732 62.454 140.973 62.4156 141.214L62.1662 141.092L61.5753 143.589H61.8477C61.7748 143.822 61.7019 144.056 61.6175 144.289L61.395 144.125L60.3744 146.492L60.643 146.538C60.5317 146.756 60.4166 146.978 60.29 147.188L60.1058 146.993L58.6862 149.147L58.9433 149.238C58.7936 149.433 58.6402 149.621 58.4829 149.82L58.3332 149.59L56.5644 151.472L56.7985 151.606C56.622 151.77 56.4148 151.935 56.246 152.095L56.1386 151.851L54.0667 153.381L54.2777 153.556C54.0705 153.69 53.8595 153.824 53.6485 153.939L53.5832 153.675L51.2811 154.822L51.4576 155.033C51.2313 155.132 51.0049 155.22 50.7708 155.304V155.033L48.2999 155.775L48.4342 156.008C48.1925 156.066 47.9546 156.111 47.7129 156.157L47.7398 155.893L45.1729 156.196L45.2612 156.448C45.0195 156.448 44.7739 156.467 44.5283 156.471L44.6051 156.211L42.0229 156.066L42.0689 156.333C41.8234 156.306 41.5817 156.272 41.3399 156.23L41.4589 155.985L38.9419 155.396V155.664C38.7079 155.591 38.4738 155.519 38.2398 155.434L38.4009 155.213L36.026 154.199L35.9799 154.463C35.7612 154.356 35.5464 154.237 35.3353 154.115L35.5272 153.931L33.367 152.516L33.275 152.769C33.0793 152.619 32.8913 152.47 32.6956 152.313L32.9181 152.164L31.0381 150.401L30.9 150.631C30.7311 150.451 30.57 150.271 30.4089 150.084L30.6582 149.976L29.1235 147.911L28.9509 148.118C28.8166 147.911 28.69 147.705 28.5672 147.494L28.8281 147.425L27.677 145.131L27.466 145.306C27.3701 145.081 27.278 144.855 27.1936 144.622L27.4622 144.603L26.7178 142.14L26.4876 142.27C26.4301 142.032 26.384 141.795 26.338 141.554L26.6027 141.581L26.2996 139.022L26.0502 139.11C26.0502 138.869 26.0272 138.625 26.0195 138.38L26.2804 138.456L26.4262 135.882L26.1615 135.928C26.1883 135.683 26.2229 135.442 26.2689 135.201L26.5106 135.32L27.1015 132.811H26.8291C26.9007 132.576 26.9775 132.343 27.0593 132.111L27.2818 132.272L28.3024 129.904L28.0339 129.858C28.149 129.64 28.2641 129.422 28.3868 129.212L28.571 129.407L29.9868 127.254L29.7336 127.162C29.8832 126.967 30.0328 126.779 30.194 126.58L30.3436 126.806L32.1124 124.932L31.8784 124.794C32.0587 124.626 32.239 124.465 32.427 124.305L32.5344 124.553L34.6063 123.023L34.3991 122.844C34.6063 122.71 34.8174 122.58 35.0284 122.461L35.0936 122.725L37.3957 121.578L37.2192 121.363C37.4456 121.264 37.6758 121.176 37.9098 121.092V121.363L40.3846 120.621L40.2503 120.388C40.492 120.331 40.7299 120.281 40.9754 120.239L40.9448 120.507L43.5116 120.204L43.4195 119.952C43.6651 119.933 43.9106 119.929 44.1562 119.925L44.0794 120.185L46.6578 120.331L46.6156 120.063C46.8611 120.09 47.1029 120.124 47.3446 120.17L47.2218 120.415L49.7387 121.004V120.728C49.9728 120.801 50.2068 120.878 50.4409 120.962L50.2759 121.184L52.6509 122.201L52.7008 121.929C52.9195 122.044 53.1382 122.159 53.3492 122.281L53.1535 122.469L55.3136 123.88L55.4096 123.624C55.6052 123.777 55.7932 123.926 55.9928 124.083L55.7626 124.236L57.6464 125.999L57.7846 125.766C57.9534 125.942 58.1145 126.125 58.2718 126.313L58.0224 126.42L59.5572 128.485L59.7337 128.275C59.8679 128.481 60.0022 128.692 60.1173 128.906L59.8488 128.971L60.9998 131.266L61.2147 131.09C61.3144 131.315 61.4027 131.545 61.4871 131.778H61.2108L61.9552 134.245L62.1969 134.111C62.2506 134.352 62.3043 134.589 62.3427 134.834L62.0741 134.804L62.3772 137.382Z" fill="#263238"/>
<path d="M43.476 120.199L40.9092 120.501L40.9399 120.233L41.032 119.4L43.0962 119.155L43.3839 119.947L43.476 120.199Z" fill="#263238"/>
<path d="M40.3671 120.617L37.8923 121.359L37.877 121.088L37.8232 120.258L39.8184 119.657L40.2328 120.384L40.3671 120.617Z" fill="#263238"/>
<path d="M37.3607 121.573L35.0548 122.732L34.9896 122.464L34.79 121.653L36.6509 120.716L37.1842 121.359L37.3607 121.573Z" fill="#263238"/>
<path d="M34.5931 123.027L32.5251 124.572L32.4138 124.323L32.0762 123.555L33.749 122.315L34.3859 122.851L34.5931 123.027Z" fill="#263238"/>
<path d="M32.0564 124.947L30.2877 126.825L30.138 126.599L29.6699 125.903L31.0972 124.389L31.8224 124.813L32.0564 124.947Z" fill="#263238"/>
<path d="M29.938 127.277L28.5222 129.43L28.3381 129.235L27.7549 128.631L28.8983 126.895L29.6848 127.185L29.938 127.277Z" fill="#263238"/>
<path d="M28.2661 129.927L27.2455 132.295L27.0229 132.138L26.3477 131.641L27.1726 129.732L27.9975 129.881L28.2661 129.927Z" fill="#263238"/>
<path d="M27.0924 132.83L26.5015 135.339L26.2598 135.22L25.5039 134.849L25.9835 132.826L26.8199 132.83H27.0924Z" fill="#263238"/>
<path d="M26.4029 135.902L26.2571 138.476L25.9962 138.399L25.1904 138.166L25.3132 136.089L26.1381 135.948L26.4029 135.902Z" fill="#263238"/>
<path d="M26.2867 139.041L26.5898 141.6L26.3251 141.573L25.4848 141.477L25.2393 139.42L26.0373 139.129L26.2867 139.041Z" fill="#263238"/>
<path d="M27.4525 144.625L27.1839 144.644L26.3475 144.697L25.7451 142.709L26.478 142.292L26.7082 142.162L27.4525 144.625Z" fill="#263238"/>
<path d="M28.7858 147.452L28.5248 147.517L27.7076 147.716L26.7676 145.861L27.416 145.325L27.627 145.149L28.7858 147.452Z" fill="#263238"/>
<path d="M30.6671 149.999L30.4216 150.106L29.6504 150.446L28.4072 148.779L28.9482 148.14L29.1209 147.934L30.6671 149.999Z" fill="#263238"/>
<path d="M32.8991 152.187L32.6766 152.336L31.9745 152.802L30.4551 151.38L30.881 150.653L31.0191 150.423L32.8991 152.187Z" fill="#263238"/>
<path d="M35.5262 153.957L35.3344 154.141L34.7243 154.718L32.9824 153.582L33.274 152.794L33.3661 152.542L35.5262 153.957Z" fill="#263238"/>
<path d="M38.3783 155.235L38.2171 155.457L37.7222 156.134L35.8076 155.308L35.9573 154.486L36.0033 154.222L38.3783 155.235Z" fill="#263238"/>
<path d="M41.4612 156.009L41.3423 156.254L40.9701 157L38.9404 156.525L38.9443 155.688V155.42L41.4612 156.009Z" fill="#263238"/>
<path d="M44.6056 156.237L44.5289 156.497L44.2948 157.304L42.2114 157.186L42.0695 156.36L42.0234 156.092L44.6056 156.237Z" fill="#263238"/>
<path d="M47.7338 155.915L47.707 156.179L47.6111 157.017L45.5468 157.261L45.2552 156.47L45.167 156.217L47.7338 155.915Z" fill="#263238"/>
<path d="M50.7531 155.056L50.7723 155.328L50.8299 156.162L48.8309 156.762L48.4165 156.031L48.2822 155.798L50.7531 155.056Z" fill="#263238"/>
<path d="M53.8753 154.765L52.0144 155.698L51.4773 155.055L51.3008 154.845L53.6067 153.69L53.6758 153.954L53.8753 154.765Z" fill="#263238"/>
<path d="M56.5979 152.859L54.9289 154.102L54.2882 153.563L54.0771 153.387L56.149 151.85L56.2565 152.094L56.5979 152.859Z" fill="#263238"/>
<path d="M58.9578 150.518L57.5305 152.029L56.8053 151.608L56.5713 151.474L58.3401 149.592L58.4897 149.822L58.9578 150.518Z" fill="#263238"/>
<path d="M60.899 147.793L59.7594 149.529L58.9729 149.238L58.7158 149.147L60.1354 146.993L60.3196 147.188L60.899 147.793Z" fill="#263238"/>
<path d="M62.3383 144.786L61.5134 146.694L60.6885 146.541L60.4199 146.495L61.4405 144.128L61.6631 144.292L62.3383 144.786Z" fill="#263238"/>
<path d="M63.1998 141.573L62.7241 143.597L61.8877 143.593L61.6152 143.589L62.2061 141.08L62.4555 141.202L63.1998 141.573Z" fill="#263238"/>
<path d="M63.4878 138.254L63.3688 140.331L62.5439 140.473L62.2715 140.515L62.4173 137.944L62.682 138.021L63.4878 138.254Z" fill="#263238"/>
<path d="M63.2222 134.945L63.4678 137.006L62.6735 137.289L62.4203 137.381L62.1172 134.822L62.3858 134.853L63.2222 134.945Z" fill="#263238"/>
<path d="M62.9309 133.713L62.2058 134.126L61.9641 134.264L61.2197 131.793L61.496 131.778L62.3286 131.724L62.9309 133.713Z" fill="#263238"/>
<path d="M61.8884 130.56L61.2476 131.091L61.0327 131.267L59.874 128.968L60.1426 128.903L60.9522 128.705L61.8884 130.56Z" fill="#263238"/>
<path d="M60.252 127.639L59.7149 128.27L59.5384 128.481L57.9883 126.419L58.2377 126.308L59.005 125.972L60.252 127.639Z" fill="#263238"/>
<path d="M58.2155 125.044L57.7973 125.767L57.6592 126L55.7715 124.237L56.0055 124.084L56.7 123.621L58.2155 125.044Z" fill="#263238"/>
<path d="M55.6669 122.839L55.3791 123.62L55.2832 123.876L53.123 122.465L53.3187 122.277L53.9249 121.7L55.6669 122.839Z" fill="#263238"/>
<path d="M52.8343 121.11L52.6846 121.929L52.6348 122.2L50.2598 121.183L50.4247 120.961L50.9197 120.288L52.8343 121.11Z" fill="#263238"/>
<path d="M49.7571 119.895L49.7532 120.725L49.7494 121L47.2324 120.411L47.3552 120.163L47.7274 119.417L49.7571 119.895Z" fill="#263238"/>
<path d="M46.6457 120.327L44.0674 120.182L44.1441 119.921L44.3782 119.122L46.4616 119.241L46.6035 120.059L46.6457 120.327Z" fill="#263238"/>
<path d="M59.0343 136.474C59.3784 139.375 58.8518 142.312 57.5213 144.914C56.1907 147.517 54.1159 149.667 51.5592 151.094C49.0025 152.521 46.0788 153.16 43.1578 152.93C40.2369 152.7 37.4498 151.612 35.1492 149.804C32.8485 147.995 31.1376 145.547 30.2328 142.769C29.328 139.99 29.2699 137.007 30.066 134.196C30.862 131.385 32.4763 128.873 34.7049 126.976C36.9334 125.08 39.676 123.885 42.5858 123.543C44.5177 123.315 46.4756 123.469 48.3479 123.995C50.2201 124.522 51.9699 125.411 53.4974 126.612C55.0249 127.813 56.3 129.302 57.2501 130.994C58.2001 132.686 58.8064 134.548 59.0343 136.474Z" fill="#37474F"/>
<path d="M53.7926 137.085C54.0149 138.952 53.6767 140.842 52.8209 142.518C51.9651 144.193 50.63 145.578 48.9846 146.497C47.3393 147.416 45.4575 147.827 43.5773 147.68C41.6971 147.533 39.9029 146.833 38.4218 145.669C36.9407 144.505 35.8391 142.929 35.2565 141.141C34.6738 139.353 34.6362 137.433 35.1484 135.623C35.6606 133.814 36.6996 132.197 38.1341 130.976C39.5685 129.755 41.3338 128.986 43.2068 128.766C45.717 128.47 48.2422 129.181 50.2273 130.741C52.2123 132.301 53.4947 134.582 53.7926 137.085Z" fill="#455A64"/>
<path d="M48.5435 137.718C48.6401 138.544 48.4889 139.381 48.1089 140.121C47.729 140.862 47.1374 141.473 46.4088 141.879C45.6803 142.284 44.8475 142.465 44.0158 142.399C43.184 142.333 42.3906 142.023 41.7357 141.507C41.0809 140.992 40.594 140.294 40.3366 139.503C40.0793 138.712 40.063 137.862 40.2897 137.062C40.5165 136.261 40.9762 135.546 41.6108 135.006C42.2454 134.466 43.0263 134.125 43.8549 134.027C44.406 133.962 44.9645 134.006 45.4985 134.156C46.0325 134.307 46.5315 134.561 46.967 134.903C47.4025 135.246 47.7659 135.671 48.0364 136.154C48.3069 136.637 48.4793 137.169 48.5435 137.718Z" fill="#263238"/>
<path d="M44.9842 143.65C43.9043 143.777 42.811 143.581 41.8426 143.088C40.8742 142.595 40.0742 141.827 39.5436 140.881C39.0131 139.935 38.7759 138.853 38.862 137.773C38.9481 136.692 39.3537 135.662 40.0274 134.811C40.7012 133.96 41.6128 133.328 42.6471 132.993C43.6815 132.659 44.792 132.638 45.8383 132.933C46.8847 133.228 47.8198 133.825 48.5256 134.65C49.2313 135.474 49.6759 136.489 49.8032 137.565C49.9719 139.009 49.5593 140.46 48.6559 141.601C47.7525 142.742 46.432 143.479 44.9842 143.65ZM43.7487 133.259C42.771 133.378 41.8504 133.782 41.1032 134.422C40.356 135.062 39.8155 135.908 39.5499 136.853C39.2843 137.799 39.3055 138.802 39.6108 139.735C39.9162 140.669 40.492 141.491 41.2656 142.099C42.0392 142.707 42.976 143.073 43.958 143.151C44.9399 143.228 45.9229 143.015 46.7831 142.536C47.6433 142.058 48.3422 141.336 48.7916 140.463C49.241 139.589 49.4208 138.602 49.3083 137.626C49.2332 136.975 49.0295 136.344 48.7089 135.772C48.3883 135.199 47.9573 134.695 47.4405 134.289C46.9237 133.883 46.3315 133.583 45.6979 133.406C45.0643 133.229 44.4019 133.179 43.7487 133.259Z" fill="#263238"/>
<path d="M44.359 130.68C44.3828 130.855 44.3538 131.033 44.2757 131.192C44.1976 131.35 44.0739 131.482 43.9204 131.571C43.7668 131.659 43.5904 131.7 43.4134 131.689C43.2365 131.677 43.0671 131.613 42.9267 131.505C42.7863 131.397 42.6814 131.249 42.6252 131.082C42.569 130.914 42.5641 130.734 42.6111 130.563C42.6581 130.393 42.7549 130.24 42.8892 130.124C43.0235 130.009 43.1892 129.936 43.3652 129.915C43.5986 129.885 43.8342 129.949 44.0204 130.093C44.2066 130.236 44.3284 130.447 44.359 130.68Z" fill="#263238"/>
<path d="M40.5501 131.686C40.656 131.827 40.7177 131.997 40.7271 132.173C40.7366 132.349 40.6934 132.524 40.6032 132.675C40.5129 132.827 40.3796 132.948 40.22 133.024C40.0605 133.1 39.8819 133.127 39.7068 133.102C39.5318 133.077 39.3682 133.001 39.2367 132.883C39.1052 132.765 39.0117 132.611 38.9681 132.44C38.9244 132.269 38.9326 132.089 38.9916 131.923C39.0505 131.757 39.1576 131.612 39.2993 131.506C39.4891 131.365 39.7274 131.305 39.962 131.338C40.1965 131.372 40.408 131.497 40.5501 131.686Z" fill="#263238"/>
<path d="M37.7791 134.444C37.9415 134.514 38.0797 134.63 38.176 134.778C38.2723 134.926 38.3224 135.099 38.3201 135.275C38.3178 135.451 38.2631 135.623 38.1629 135.768C38.0627 135.913 37.9215 136.026 37.7573 136.091C37.593 136.156 37.413 136.172 37.2401 136.135C37.0671 136.098 36.909 136.011 36.7856 135.885C36.6623 135.759 36.5793 135.599 36.5471 135.425C36.515 135.252 36.5351 135.073 36.605 134.911C36.6987 134.694 36.875 134.523 37.0951 134.435C37.3153 134.348 37.5613 134.351 37.7791 134.444Z" fill="#263238"/>
<path d="M36.7842 138.199C36.96 138.175 37.1388 138.204 37.298 138.282C37.4572 138.36 37.5896 138.483 37.6783 138.636C37.7671 138.789 37.8081 138.965 37.7963 139.142C37.7845 139.318 37.7203 139.487 37.6119 139.627C37.5035 139.767 37.3558 139.871 37.1876 139.927C37.0194 139.983 36.8383 139.988 36.6673 139.941C36.4963 139.895 36.3432 139.798 36.2273 139.664C36.1115 139.53 36.0383 139.365 36.0169 139.19C35.9895 138.957 36.0545 138.724 36.1979 138.538C36.3414 138.353 36.5518 138.231 36.7842 138.199Z" fill="#263238"/>
<path d="M37.8093 141.965C37.9509 141.86 38.1207 141.799 38.297 141.79C38.4734 141.781 38.6485 141.824 38.8003 141.914C38.9521 142.004 39.0737 142.137 39.1499 142.296C39.226 142.455 39.2532 142.633 39.2281 142.807C39.203 142.981 39.1266 143.144 39.0087 143.275C38.8907 143.406 38.7365 143.5 38.5654 143.543C38.3944 143.587 38.2141 143.579 38.0475 143.521C37.8808 143.463 37.7352 143.357 37.6289 143.216C37.5581 143.122 37.5066 143.016 37.4773 142.902C37.448 142.788 37.4416 142.67 37.4583 142.553C37.4751 142.437 37.5147 142.325 37.5749 142.225C37.6352 142.124 37.7148 142.036 37.8093 141.965Z" fill="#263238"/>
<path d="M40.5394 144.733C40.6092 144.571 40.7256 144.433 40.8739 144.337C41.0222 144.241 41.1958 144.191 41.3726 144.193C41.5494 144.196 41.7215 144.25 41.8673 144.35C42.013 144.45 42.1257 144.591 42.1912 144.754C42.2567 144.918 42.272 145.098 42.2352 145.27C42.1984 145.442 42.1111 145.6 41.9844 145.723C41.8576 145.846 41.6972 145.929 41.5233 145.961C41.3494 145.993 41.1699 145.973 41.0075 145.903C40.7898 145.81 40.6181 145.634 40.5304 145.415C40.4426 145.195 40.4458 144.95 40.5394 144.733Z" fill="#263238"/>
<path d="M44.3196 145.737C44.2958 145.562 44.3248 145.384 44.4029 145.225C44.481 145.067 44.6047 144.935 44.7582 144.846C44.9118 144.758 45.0882 144.717 45.2652 144.729C45.4421 144.74 45.6115 144.804 45.7519 144.912C45.8923 145.02 45.9972 145.168 46.0534 145.335C46.1096 145.503 46.1145 145.684 46.0675 145.854C46.0205 146.024 45.9237 146.177 45.7894 146.293C45.6551 146.408 45.4894 146.481 45.3134 146.502C45.0803 146.53 44.8458 146.465 44.6601 146.322C44.4743 146.179 44.3521 145.969 44.3196 145.737Z" fill="#263238"/>
<path d="M48.1174 144.732C48.0119 144.59 47.9507 144.421 47.9416 144.245C47.9325 144.069 47.9758 143.895 48.0661 143.744C48.1565 143.592 48.2897 143.471 48.4491 143.395C48.6084 143.319 48.7868 143.292 48.9616 143.317C49.1364 143.342 49.2999 143.418 49.4314 143.536C49.5628 143.653 49.6564 143.807 49.7003 143.978C49.7442 144.148 49.7365 144.328 49.6781 144.494C49.6196 144.66 49.5131 144.805 49.372 144.911C49.1816 145.053 48.9426 145.114 48.7075 145.08C48.4723 145.046 48.2601 144.921 48.1174 144.732Z" fill="#263238"/>
<path d="M50.878 141.978C50.7156 141.908 50.5774 141.792 50.4811 141.645C50.3848 141.497 50.3347 141.324 50.337 141.147C50.3393 140.971 50.394 140.8 50.4942 140.654C50.5944 140.509 50.7356 140.397 50.8998 140.331C51.0641 140.266 51.2441 140.251 51.417 140.288C51.59 140.324 51.7481 140.411 51.8715 140.538C51.9948 140.664 52.0778 140.824 52.11 140.997C52.1421 141.171 52.122 141.349 52.0521 141.511C51.9576 141.728 51.7813 141.898 51.5614 141.986C51.3415 142.073 51.0959 142.07 50.878 141.978Z" fill="#263238"/>
<path d="M51.9012 138.231C51.7845 138.245 51.6663 138.236 51.5534 138.204C51.4404 138.172 51.3348 138.118 51.2428 138.045C51.1507 137.973 51.0738 137.883 51.0166 137.78C50.9594 137.678 50.9229 137.566 50.9093 137.449C50.8957 137.333 50.9052 137.215 50.9373 137.103C50.9694 136.99 51.0234 136.885 51.0962 136.793C51.1691 136.701 51.2594 136.625 51.3619 136.568C51.4645 136.51 51.5773 136.474 51.694 136.461C51.8106 136.447 51.9288 136.457 52.0418 136.488C52.1547 136.52 52.2603 136.574 52.3524 136.647C52.4445 136.72 52.5213 136.81 52.5785 136.912C52.6357 137.014 52.6722 137.126 52.6858 137.243C52.6994 137.359 52.6899 137.477 52.6578 137.589C52.6258 137.702 52.5717 137.807 52.4989 137.899C52.426 137.991 52.3357 138.068 52.2332 138.125C52.1306 138.182 52.0178 138.218 51.9012 138.231Z" fill="#263238"/>
<path d="M50.8682 134.453C50.7267 134.558 50.5568 134.62 50.3802 134.629C50.2037 134.639 50.0282 134.596 49.8762 134.506C49.7241 134.416 49.6022 134.283 49.5259 134.124C49.4496 133.965 49.4224 133.787 49.4476 133.612C49.4729 133.438 49.5494 133.275 49.6677 133.143C49.7859 133.012 49.9405 132.919 50.1119 132.876C50.2833 132.832 50.4637 132.84 50.6305 132.899C50.7972 132.958 50.9427 133.065 51.0486 133.206C51.1894 133.395 51.2495 133.633 51.2157 133.866C51.182 134.1 51.0571 134.311 50.8682 134.453Z" fill="#263238"/>
<path d="M48.1158 131.699C48.046 131.861 47.9296 131.999 47.7812 132.095C47.6329 132.191 47.4594 132.241 47.2826 132.238C47.1058 132.236 46.9336 132.181 46.7879 132.082C46.6422 131.982 46.5294 131.841 46.464 131.677C46.3985 131.514 46.3832 131.334 46.42 131.162C46.4568 130.989 46.5441 130.832 46.6708 130.709C46.7975 130.586 46.9579 130.503 47.1318 130.471C47.3057 130.439 47.4852 130.459 47.6477 130.529C47.8654 130.622 48.037 130.798 48.1248 131.017C48.2126 131.237 48.2093 131.482 48.1158 131.699Z" fill="#263238"/>
<path d="M67.1234 138.232H64.7407C64.6672 132.89 62.4869 127.792 58.6716 124.04C54.8563 120.289 49.7127 118.186 44.3537 118.186C38.9946 118.186 33.8511 120.289 30.0357 124.04C26.2204 127.792 24.0402 132.89 23.9667 138.232H21.584C21.6617 132.263 24.0949 126.565 28.3566 122.371C32.6183 118.178 38.3655 115.826 44.3537 115.826C50.3419 115.826 56.0891 118.178 60.3508 122.371C64.6125 126.565 67.0456 132.263 67.1234 138.232Z" fill="#FF9E35"/>
<path opacity="0.2" d="M67.1234 138.232H64.7407C64.6672 132.89 62.4869 127.792 58.6716 124.04C54.8563 120.289 49.7127 118.186 44.3537 118.186C38.9946 118.186 33.8511 120.289 30.0357 124.04C26.2204 127.792 24.0402 132.89 23.9667 138.232H21.584C21.6617 132.263 24.0949 126.565 28.3566 122.371C32.6183 118.178 38.3655 115.826 44.3537 115.826C50.3419 115.826 56.0891 118.178 60.3508 122.371C64.6125 126.565 67.0456 132.263 67.1234 138.232Z" fill="white"/>
<path d="M123.462 138.236H121.075C121.083 132.218 123.485 126.449 127.754 122.195C132.023 117.94 137.81 115.547 143.847 115.54V117.915C138.442 117.921 133.261 120.064 129.439 123.873C125.617 127.683 123.468 132.848 123.462 138.236Z" fill="#FF9E35"/>
<path opacity="0.2" d="M123.462 138.236H121.075C121.083 132.218 123.485 126.449 127.754 122.195C132.023 117.94 137.81 115.547 143.847 115.54V117.915C138.442 117.921 133.261 120.064 129.439 123.873C125.617 127.683 123.468 132.848 123.462 138.236Z" fill="white"/>
<path d="M49.9099 107.641H20.1554L17.2471 114.017H49.9099V107.641Z" fill="#FF9E35"/>
<path opacity="0.1" d="M49.9099 107.641H20.1554L17.2471 114.017H49.9099V107.641Z" fill="black"/>
<path d="M49.906 85.9839H20.1514V107.636H49.906V85.9839Z" fill="#FF9E35"/>
<g opacity="0.1">
<path d="M47.2455 88.2285H34.584V89.4945H47.2455V88.2285Z" fill="black"/>
<path d="M47.2455 90.9136H34.584V92.1796H47.2455V90.9136Z" fill="black"/>
<path d="M47.2455 93.6016H34.584V94.8676H47.2455V93.6016Z" fill="black"/>
<path d="M47.2455 96.2861H34.584V97.5521H47.2455V96.2861Z" fill="black"/>
<path d="M47.2455 98.9746H34.584V100.241H47.2455V98.9746Z" fill="black"/>
</g>
<path d="M128.609 47.0418H117.793V46.2348H128.271L129.998 44.5136V28.4496H121.722L113.058 34.1141L112.613 33.4409L121.48 27.6426H130.808V44.8502L128.609 47.0418Z" fill="#263238"/>
<path d="M128.691 29.5483H122.349V44.2966H128.691V29.5483Z" fill="#263238"/>
<path d="M130.393 41.4902H128.689V42.2973H130.393V41.4902Z" fill="#263238"/>
<path d="M130.393 32.3657H128.689V33.1727H130.393V32.3657Z" fill="#263238"/>
<path d="M114.413 57.4132L98.2676 73.5078L100.397 75.6309L116.543 59.5363L114.413 57.4132Z" fill="#263238"/>
<path d="M114.017 70.3121L111.17 73.1501L106.324 69.7652L110.529 65.5732L114.017 70.3121Z" fill="#37474F"/>
<path d="M113.231 71.063L111.942 72.3477L119.794 80.1745L121.083 78.8899L113.231 71.063Z" fill="#263238"/>
<path d="M131.811 114.014L123.539 74.4468L104.508 18.762H50.413L49.9373 85.9823H44.4736L47.5546 15.9087H106.419L128.27 72.9475L138.23 114.014H131.811Z" fill="#37474F"/>
<path d="M123.546 74.4443L116.409 83.6353V95.3314L108.958 114.012H131.818L123.546 74.4443Z" fill="#263238"/>
<path d="M90.6509 114.015H49.9268V85.7388H80.8747L90.6509 114.015Z" fill="#37474F"/>
<path d="M87.1469 79.5215H54.7871V85.7444H87.1469V79.5215Z" fill="#263238"/>
<path d="M50.3516 50.4152L54.7793 79.5103H63.6615L56.0838 48.9351L50.3516 50.4152Z" fill="#263238"/>
<path d="M76.5865 35.4973C75.4124 34.9886 72.0859 35.2449 70.7123 36.6715C69.3387 38.0982 68.909 40.7564 69.4001 41.1197C69.8912 41.4831 72.2701 41.7393 74.0427 41.1695C75.8153 40.5996 77.1658 35.7459 76.5865 35.4973Z" fill="#263238"/>
<path d="M76.5575 35.5018C76.5997 35.5018 76.6189 35.433 76.5575 35.4215C75.4909 35.1882 74.2554 35.322 73.1888 35.4215C72.3038 35.4481 71.4344 35.6606 70.6373 36.0449C70.2637 36.2459 69.9384 36.5255 69.684 36.8643C69.4296 37.2031 69.2521 37.593 69.164 38.007C68.905 39.0015 68.905 40.0455 69.164 41.0401C69.164 41.0668 69.2215 41.0668 69.2215 41.0401C69.0757 39.1621 69.068 36.9017 71.0862 36.0296C72.8089 35.2838 74.7542 35.5362 76.5575 35.5018Z" fill="#263238"/>
<path d="M69.6342 40.7035C68.5331 40.6346 65.3485 42.1263 64.4814 44.0693C63.6142 46.0122 64.6809 49.3398 65.1643 49.6611C65.6478 49.9823 68.3988 48.4907 69.4539 47.2094C70.156 46.3565 69.968 45.1593 69.9527 44.0042C69.9258 42.2869 69.8069 40.7035 69.6342 40.7035Z" fill="#263238"/>
<path d="M70.138 47.068C70.8631 45.06 70.0881 42.7766 69.7543 40.7686C69.7543 40.7636 69.7523 40.7587 69.7487 40.7551C69.7451 40.7515 69.7402 40.7495 69.7351 40.7495C69.73 40.7495 69.7251 40.7515 69.7215 40.7551C69.718 40.7587 69.7159 40.7636 69.7159 40.7686C69.7543 42.6389 70.5217 44.4634 70.184 46.349C70.1096 46.9056 69.9016 47.4361 69.5776 47.8955C69.2537 48.355 68.8233 48.7297 68.3232 48.9881C67.41 49.4241 66.3549 49.5006 65.365 49.6459C65.2997 49.6459 65.3228 49.753 65.365 49.7454C67.3409 49.5006 69.3898 49.1449 70.138 47.068Z" fill="#263238"/>
<path d="M69.3823 40.8446C69.4398 40.8446 69.4206 40.7337 69.3631 40.749C67.6941 41.1736 65.6529 41.8658 64.5325 43.2466C63.3239 44.7421 63.8649 46.6621 64.356 48.322C64.356 48.345 64.3982 48.322 64.3906 48.322C63.9148 46.643 63.4659 44.5852 64.7742 43.1548C65.9291 41.9194 67.8168 41.2654 69.3823 40.8446Z" fill="#263238"/>
<path d="M65.4136 49.4209C66.062 49.9181 66.8869 51.3333 66.8639 52.8173C66.8255 55.3493 67.8461 55.0357 70.4206 56.1754C72.5961 57.1431 72.6191 59.7707 71.188 60.8072C71.188 60.8072 72.1779 59.3691 70.8043 58.3211C69.1353 57.0704 64.5925 58.2332 62.9695 55.2613C60.8401 51.4366 65.4136 49.4209 65.4136 49.4209Z" fill="#263238"/>
<path d="M66.1982 50.7324C66.1752 50.6942 66.2404 50.6521 66.2673 50.6904C66.5224 51.0547 66.7071 51.4633 66.8121 51.8952C66.9502 52.4574 66.8581 53.0197 66.954 53.5857C67.1996 55.0238 68.8418 55.2724 70.0235 55.5746C71.5928 55.9571 72.7093 57.1734 72.4868 58.8562C72.4868 58.8613 72.4847 58.8662 72.4811 58.8698C72.4775 58.8734 72.4727 58.8754 72.4676 58.8754C72.4625 58.8754 72.4576 58.8734 72.454 58.8698C72.4504 58.8662 72.4484 58.8613 72.4484 58.8562C72.5071 58.3362 72.4219 57.81 72.2021 57.3347C71.9823 56.8594 71.6363 56.4531 71.2014 56.1598C70.342 55.6014 69.26 55.6167 68.3391 55.2112C67.7061 54.932 67.0998 54.5343 66.9118 53.8382C66.8401 53.4485 66.8105 53.0523 66.8236 52.6563C66.7838 51.9722 66.5685 51.3098 66.1982 50.7324Z" fill="#263238"/>
<path d="M64.964 49.6538C64.964 49.6538 64.9985 49.6538 64.964 49.6806C63.9012 50.4035 62.7846 51.1187 62.2782 52.3579C61.7449 53.7004 62.213 55.2265 63.1568 56.2668C64.2158 57.4143 65.6162 57.2192 67.0397 57.2001C68.068 57.2001 69.1039 57.2536 70.0171 57.77C70.0439 57.77 70.0171 57.8312 69.9902 57.8197C68.4862 57.1733 66.963 57.376 65.386 57.3454C64.7937 57.3481 64.2126 57.1841 63.7096 56.8722C63.2067 56.5602 62.8023 56.1131 62.5429 55.5822C61.1655 53.1152 62.7117 50.8548 64.964 49.6538Z" fill="#263238"/>
<path d="M75.8613 34.1971C75.8073 34.0956 75.7151 34.0196 75.605 33.9859C75.4949 33.9522 75.3758 33.9634 75.274 34.0172C75.1722 34.071 75.096 34.1629 75.0621 34.2727C75.0283 34.3825 75.0396 34.5012 75.0936 34.6027C75.1475 34.7042 75.2397 34.7802 75.3498 34.8139C75.46 34.8476 75.5791 34.8363 75.6809 34.7826C75.7827 34.7288 75.8589 34.6369 75.8927 34.5271C75.9266 34.4173 75.9153 34.2986 75.8613 34.1971Z" fill="#FF9E35"/>
<path d="M76.0457 34.9615C75.9851 34.8719 75.8934 34.8079 75.7882 34.7819C75.683 34.7559 75.5719 34.7697 75.4763 34.8206C75.3807 34.8716 75.3075 34.9561 75.2709 35.0578C75.2342 35.1594 75.2368 35.2711 75.2779 35.371C75.3385 35.4606 75.4302 35.5246 75.5354 35.5506C75.6406 35.5767 75.7517 35.5629 75.8473 35.5119C75.9428 35.4609 76.016 35.3764 76.0527 35.2748C76.0893 35.1731 76.0868 35.0615 76.0457 34.9615Z" fill="#FF9E35"/>
<path d="M76.3584 35.7238C76.2974 35.6363 76.2062 35.574 76.1023 35.5489C75.9983 35.5238 75.8887 35.5375 75.7942 35.5874C75.6997 35.6373 75.6268 35.7201 75.5893 35.8199C75.5518 35.9198 75.5523 36.0299 75.5907 36.1294C75.6518 36.217 75.7429 36.2792 75.8468 36.3043C75.9508 36.3295 76.0604 36.3158 76.1549 36.2658C76.2494 36.2159 76.3223 36.1332 76.3598 36.0333C76.3973 35.9334 76.3968 35.8233 76.3584 35.7238Z" fill="#FF9E35"/>
<path d="M76.7823 36.4177C76.7212 36.3301 76.6301 36.2679 76.5261 36.2428C76.4221 36.2176 76.3126 36.2313 76.218 36.2813C76.1235 36.3312 76.0506 36.4139 76.0131 36.5138C75.9756 36.6137 75.9761 36.7238 76.0145 36.8233C76.0756 36.9108 76.1667 36.9731 76.2707 36.9982C76.3746 37.0233 76.4842 37.0096 76.5787 36.9597C76.6733 36.9098 76.7461 36.827 76.7836 36.7272C76.8211 36.6273 76.8207 36.5172 76.7823 36.4177Z" fill="#FF9E35"/>
<path d="M77.3282 37.029C77.2671 36.9414 77.176 36.8792 77.072 36.8541C76.968 36.829 76.8585 36.8426 76.7639 36.8926C76.6694 36.9425 76.5965 37.0252 76.559 37.1251C76.5215 37.225 76.522 37.3351 76.5604 37.4346C76.6215 37.5222 76.7126 37.5844 76.8166 37.6095C76.9205 37.6346 77.0301 37.621 77.1246 37.571C77.2192 37.5211 77.292 37.4384 77.3295 37.3385C77.367 37.2386 77.3666 37.1285 77.3282 37.029Z" fill="#FF9E35"/>
<path d="M77.9121 37.5178C77.8511 37.4302 77.7599 37.368 77.656 37.3429C77.552 37.3177 77.4424 37.3314 77.3479 37.3814C77.2534 37.4313 77.1805 37.514 77.143 37.6139C77.1055 37.7138 77.106 37.8239 77.1444 37.9234C77.2055 38.0109 77.2966 38.0732 77.4006 38.0983C77.5045 38.1234 77.6141 38.1097 77.7086 38.0598C77.8031 38.0098 77.876 37.9271 77.9135 37.8273C77.951 37.7274 77.9505 37.6173 77.9121 37.5178Z" fill="#FF9E35"/>
<path d="M111.111 113.791C110.309 114.074 87.081 113.722 86.1947 113.176C86.0911 113.114 85.5654 108.678 85.5654 108.678L87.8292 91.5159L103.073 91.3438L100.491 106.012C100.491 106.012 103.882 107.469 106.687 108.746C107.912 109.263 109.105 109.853 110.259 110.513C111.169 111.217 111.909 113.512 111.111 113.791Z" fill="#D3766A"/>
<path d="M111.111 113.79C110.313 114.073 87.0771 113.721 86.1985 113.178C86.0911 113.113 85.5654 108.676 85.5654 108.676L86.2714 103.386L100.905 103.704L100.498 105.999C100.498 105.999 103.89 107.456 106.695 108.733C107.922 109.25 109.116 109.84 110.271 110.5C111.169 111.219 111.909 113.514 111.111 113.79Z" fill="#EBEBEB"/>
<path d="M111.08 113.826C110.263 114.102 86.9079 114.129 85.9986 113.566C85.6571 113.36 85.4538 109.963 85.3271 105.856V105.725L100.406 105.538V105.794C100.406 105.794 109.357 109.772 110.274 110.495C111.191 111.218 111.897 113.551 111.08 113.826Z" fill="#FF9E35"/>
<path d="M110.805 112.919C106.865 112.827 90.9612 112.831 87.0592 113.038C87.0285 113.038 87.0285 113.061 87.0592 113.065C90.965 113.241 106.865 113.11 110.805 112.984C110.894 112.992 110.894 112.923 110.805 112.919Z" fill="#263238"/>
<path d="M101.687 105.829C100.133 105.542 98.2336 105.783 97.0557 106.885C97.0097 106.927 97.0557 106.992 97.121 106.977C98.6021 106.499 100.13 106.18 101.679 106.024C101.702 106.021 101.723 106.009 101.738 105.992C101.754 105.975 101.763 105.953 101.764 105.93C101.764 105.907 101.757 105.884 101.743 105.866C101.729 105.847 101.709 105.835 101.687 105.829Z" fill="#263238"/>
<path d="M102.779 106.51C101.244 106.223 99.3255 106.46 98.1514 107.566C98.1054 107.608 98.1514 107.673 98.2167 107.657C99.6969 107.176 101.225 106.857 102.775 106.705C102.798 106.701 102.818 106.689 102.833 106.672C102.848 106.654 102.857 106.632 102.857 106.609C102.858 106.586 102.85 106.564 102.836 106.546C102.821 106.527 102.801 106.515 102.779 106.51Z" fill="#263238"/>
<path d="M103.889 107.172C102.354 106.885 100.436 107.126 99.2618 108.227C99.2157 108.269 99.2618 108.334 99.327 108.319C100.809 107.841 102.339 107.521 103.889 107.367C103.912 107.362 103.932 107.35 103.947 107.332C103.961 107.314 103.969 107.292 103.969 107.269C103.969 107.246 103.961 107.224 103.947 107.206C103.932 107.188 103.912 107.176 103.889 107.172Z" fill="#263238"/>
<path d="M101.593 104.236L85.2983 104.324C85.2983 104.324 90.2132 79.5934 89.6109 78.8055C88.9586 77.9525 69.3639 82.6723 64.1382 76.0516C60.5776 71.5346 62.8528 62.2021 62.8528 62.2021L82.1252 62.4508C82.1252 62.4508 82.1521 62.9021 82.1674 65.1281C82.1674 65.1281 90.7389 64.1069 97.4303 64.9675C102.89 65.6674 105.679 70.0506 105.66 72.9C105.576 85.4797 101.593 104.236 101.593 104.236Z" fill="#455A64"/>
<path d="M101.32 101.358C99.4404 101.224 97.5604 101.189 95.6726 101.159C93.7849 101.128 91.9087 101.124 90.0248 101.159C88.962 101.182 87.9031 101.258 86.8403 101.281C86.8321 101.281 86.8243 101.284 86.8186 101.29C86.8128 101.296 86.8096 101.304 86.8096 101.312C86.8096 101.32 86.8128 101.328 86.8186 101.333C86.8243 101.339 86.8321 101.342 86.8403 101.342C87.788 101.342 88.7318 101.423 89.6795 101.442C90.6272 101.461 91.5481 101.476 92.4842 101.484C94.3681 101.484 96.252 101.484 98.132 101.484C99.1948 101.484 100.254 101.457 101.317 101.415C101.363 101.434 101.363 101.361 101.32 101.358Z" fill="#263238"/>
<path d="M75.6626 63.8477C75.6396 63.9167 75.61 63.9832 75.5743 64.0466C75.57 64.052 75.5676 64.0588 75.5676 64.0657C75.5676 64.0727 75.57 64.0794 75.5743 64.0849C75.3518 64.6968 75.2482 65.3547 75.0372 65.9666C74.8339 66.6248 74.4082 67.1925 73.8324 67.573C72.6277 68.338 71.2004 68.6784 69.8191 68.9729C69.7731 68.9729 69.7884 69.0456 69.8191 69.0494C70.6118 69.0777 71.4041 68.9822 72.1672 68.7664C72.8823 68.5932 73.5606 68.294 74.1701 67.8828C74.7425 67.4802 75.1595 66.8944 75.3518 66.2229C75.4495 65.8655 75.5263 65.5029 75.582 65.1367C75.6748 64.7174 75.7351 64.2916 75.7624 63.863C75.758 63.8541 75.7516 63.8464 75.7436 63.8405C75.7356 63.8347 75.7263 63.8308 75.7165 63.8293C75.7067 63.8278 75.6967 63.8287 75.6873 63.8319C75.6779 63.8351 75.6694 63.8405 75.6626 63.8477Z" fill="#263238"/>
<path d="M88.0261 99.8395C89.2654 93.7773 92.4691 77.5565 91.9358 76.7418C91.6826 76.5888 89.7181 76.7762 87.4429 76.9904C81.3539 77.5641 71.1556 78.5203 67.2267 75.732C63.0906 72.7946 64.5793 63.7835 64.6445 63.401C64.6445 63.3169 64.8248 63.1562 64.8095 63.401C64.8095 63.4966 63.4244 72.6455 67.4032 75.4758C71.24 78.2028 81.3654 77.2466 87.416 76.6768C90.3474 76.4014 91.7708 76.2752 92.1162 76.4893C93.0485 77.0669 89.0851 96.1142 88.1642 99.9772C88.145 100.058 87.9494 100.218 88.0261 99.8395Z" fill="#263238"/>
<path d="M82.8316 54.5321L83.6987 65.3867C83.6987 65.3867 66.103 64.507 61.7598 63.9142C61.7598 63.9142 67.1659 46.4236 72.1883 41.6503C74.7014 39.2636 77.4447 39.6308 79.0945 41.5202C79.5089 41.9983 83.5913 47.8923 83.975 50.5964C84.0721 51.2956 84.0206 52.0075 83.8236 52.6855C83.6266 53.3636 83.2886 53.9928 82.8316 54.5321Z" fill="#EBEBEB"/>
<path d="M83.7025 65.3811L82.8316 54.5264C83.2889 53.9871 83.6276 53.3582 83.8259 52.6803C84.0241 52.0023 84.0775 51.2905 83.9826 50.5907C83.599 47.8828 79.5166 41.9926 79.1022 41.5145C78.9483 41.3356 78.7802 41.1693 78.5996 41.0173L81.2086 49.1832L74.1757 40.3174C73.424 40.606 72.7464 41.0581 72.1921 41.6408C67.1658 46.4102 61.7598 63.9047 61.7598 63.9047C66.103 64.5014 83.7025 65.3811 83.7025 65.3811Z" fill="#FF9E35"/>
<path d="M63.5977 58.1406L83.2614 59.5596L83.1271 57.8269L64.1578 56.4653C63.9813 57.0467 63.7511 57.6051 63.5977 58.1406Z" fill="#EBEBEB"/>
<path d="M62.6221 61.0979L83.4906 62.5972L83.3486 60.8646L63.1631 59.415C62.9866 60.027 62.764 60.5969 62.6221 61.0979Z" fill="#EBEBEB"/>
<path d="M75.2803 40.65C75.3071 41.0057 76.5886 43.4765 78.1617 43.6486C78.6759 43.706 79.1056 40.9292 79.1056 40.9292L79.1862 40.7303L80.2873 37.9612L77.2486 35.2609L76.8035 34.8784C76.8035 34.8784 76.5541 35.6434 76.251 36.6263L76.205 36.764C76.205 36.8214 76.1704 36.8711 76.1551 36.9208C76.109 37.0662 76.0592 37.2154 76.0169 37.3645C75.9747 37.5137 75.9479 37.5864 75.9172 37.7049C75.8865 37.8235 75.852 37.9421 75.8174 38.0606C75.5794 38.9105 75.3999 39.7757 75.2803 40.65Z" fill="#D3766A"/>
<path d="M76.249 36.6455C76.4113 37.498 76.758 38.305 77.2649 39.0104C77.7718 39.7159 78.4267 40.3028 79.1842 40.7303L80.2854 37.9612L77.2466 35.2609L76.8015 34.8784C76.8015 34.8784 76.5521 35.674 76.249 36.6455Z" fill="#263238"/>
<path d="M85.4303 34.0629C85.2192 39.2875 82.0577 39.7503 80.9297 39.7044C79.9014 39.6662 76.4137 39.3908 76.0799 34.1738C75.7461 28.9569 78.2477 27.4002 80.5997 27.3734C82.9517 27.3466 85.6374 28.8421 85.4303 34.0629Z" fill="#D3766A"/>
<path d="M84.3688 32.5186C84.2485 32.506 84.1293 32.4855 84.0118 32.4574C83.8828 32.4544 83.7585 32.4086 83.6586 32.3273C83.6324 32.2947 83.6182 32.2542 83.6182 32.2125C83.6182 32.1707 83.6324 32.1303 83.6586 32.0977C83.7168 32.0397 83.7893 31.9978 83.8687 31.9764C83.9482 31.9549 84.0319 31.9545 84.1116 31.9752C84.2786 31.9935 84.433 32.0725 84.5453 32.1972C84.5697 32.2278 84.5844 32.2649 84.5877 32.3039C84.591 32.3429 84.5827 32.3819 84.5639 32.4162C84.545 32.4505 84.5165 32.4785 84.4818 32.4967C84.4471 32.5149 84.4078 32.5225 84.3688 32.5186Z" fill="#263238"/>
<path d="M80.7446 32.4556C80.8674 32.4556 80.9787 32.4211 81.1016 32.402C81.2305 32.3993 81.3553 32.3565 81.4586 32.2795C81.4835 32.2464 81.497 32.2061 81.497 32.1647C81.497 32.1233 81.4835 32.083 81.4586 32.0499C81.4021 31.9902 81.3309 31.9464 81.252 31.9229C81.1732 31.8994 81.0895 31.897 81.0094 31.916C80.8409 31.9311 80.6838 32.0074 80.568 32.1303C80.5423 32.1608 80.5265 32.1984 80.5225 32.238C80.5185 32.2777 80.5265 32.3176 80.5455 32.3527C80.5646 32.3877 80.5937 32.4162 80.6292 32.4346C80.6647 32.4529 80.7049 32.4602 80.7446 32.4556Z" fill="#263238"/>
<path d="M81.482 33.8354C81.482 33.8354 81.4552 33.8354 81.4552 33.8661C81.4552 34.2219 81.3899 34.6314 81.0713 34.7347C81.459 34.7156 81.5396 34.1722 81.482 33.8354Z" fill="#263238"/>
<path d="M81.1709 33.4433C80.599 33.3821 80.5107 34.5262 81.0404 34.5913C81.5702 34.6563 81.6393 33.5007 81.1709 33.4433Z" fill="#263238"/>
<path d="M80.9308 33.5047C80.8233 33.5621 80.7158 33.6692 80.593 33.6692C80.4701 33.6692 80.3588 33.5468 80.2744 33.4243H80.2552C80.2321 33.6424 80.3012 33.8759 80.5354 33.9256C80.7695 33.9754 80.9193 33.7879 80.9884 33.5736C81.0037 33.5429 80.973 33.4817 80.9308 33.5047Z" fill="#263238"/>
<path d="M83.5642 33.9146C83.5642 33.9146 83.5911 33.9145 83.5872 33.949C83.545 34.301 83.5603 34.7143 83.8713 34.8597C83.4644 34.7909 83.4529 34.2436 83.5642 33.9146Z" fill="#263238"/>
<path d="M83.9027 33.5571C84.4785 33.5571 84.4248 34.7051 83.9027 34.7051C83.3806 34.7051 83.419 33.5533 83.9027 33.5571Z" fill="#263238"/>
<path d="M84.1449 33.66C84.2332 33.7251 84.3215 33.8399 84.429 33.8513C84.5365 33.8628 84.6516 33.7442 84.7399 33.6294C84.7399 33.8513 84.6555 34.0771 84.4405 34.1077C84.2255 34.1383 84.1104 33.9432 84.0566 33.7251C84.0758 33.6944 84.1104 33.6332 84.1449 33.66Z" fill="#263238"/>
<path d="M82.9285 35.5062C82.9502 35.7682 82.9579 36.0312 82.9515 36.2941C82.9515 36.317 82.8901 36.3247 82.8057 36.3247C82.5874 36.3491 82.3665 36.3135 82.167 36.2218C81.9675 36.1301 81.797 35.9858 81.6738 35.8045C81.6738 35.7777 81.693 35.7548 81.716 35.7701C82.0216 36.0103 82.3974 36.1446 82.7865 36.1526C82.8057 36.0837 82.6867 35.2384 82.7251 35.2384C82.9197 35.2679 83.1094 35.3232 83.2891 35.4029C83.2393 34.2861 83.0129 33.1845 82.9783 32.0715C82.9783 32.0624 82.982 32.0536 82.9885 32.0472C82.9949 32.0407 83.0037 32.0371 83.0129 32.0371C83.022 32.0371 83.0308 32.0407 83.0373 32.0472C83.0438 32.0536 83.0474 32.0624 83.0474 32.0715C83.326 33.2436 83.4879 34.4401 83.5309 35.6439C83.5385 35.7777 83.0282 35.5559 82.9285 35.5062Z" fill="#263238"/>
<path d="M76.911 34.6125C76.911 34.6125 75.9825 32.8493 75.1921 33.1591C74.4017 33.4689 74.958 35.9244 75.7829 36.3566C75.8852 36.4185 75.9988 36.4593 76.1172 36.4765C76.2356 36.4936 76.3562 36.4868 76.4719 36.4565C76.5875 36.4261 76.6959 36.3729 76.7905 36.2998C76.885 36.2268 76.9638 36.1355 77.0222 36.0315L76.911 34.6125Z" fill="#D3766A"/>
<path d="M75.3259 33.8599C75.3259 33.8599 75.3067 33.8599 75.3259 33.8828C75.5866 34.0558 75.808 34.2813 75.9758 34.5448C76.1437 34.8083 76.2543 35.104 76.3005 35.4127C76.2728 35.3478 76.2315 35.2896 76.1792 35.2421C76.1269 35.1945 76.0649 35.1588 75.9975 35.1374C75.9301 35.116 75.8589 35.1093 75.7887 35.1179C75.7184 35.1265 75.6509 35.1501 75.5907 35.1871V35.2215C75.7017 35.1999 75.8167 35.2137 75.9194 35.2611C76.022 35.3085 76.1071 35.387 76.1623 35.4854C76.2559 35.6485 76.3306 35.8218 76.3849 36.0017C76.4079 36.0591 76.5115 36.0438 76.4961 35.9788C76.6112 35.1985 76.147 34.0435 75.3259 33.8599Z" fill="#263238"/>
<path d="M76.3297 34.0406C76.8976 34.0406 78.5014 32.6254 78.7738 29.906C78.7738 29.906 78.3594 32.3309 78.1446 32.6752C77.9297 33.0194 79.0424 31.872 79.2956 29.6804C79.9483 30.2335 80.677 30.6907 81.4596 31.0382C82.4725 31.4206 83.1133 31.4551 83.1938 31.3862C83.2744 31.3174 81.7819 30.7131 81.4097 30.2005C81.4097 30.2005 84.0686 31.7304 85.3348 31.9179C85.4806 31.9408 85.9103 28.9307 84.0456 27.485C82.1809 26.0392 78.9426 27.1637 78.0371 27.9019C78.0371 27.9019 77.0396 27.9592 75.8463 29.3247C74.653 30.6901 75.7197 34.0253 76.3297 34.0406Z" fill="#263238"/>
<path d="M85.8685 30.7919C85.8685 30.7919 85.2661 24.9056 79.9943 25.399C74.7225 25.8924 75.229 31.7825 75.229 31.7825L85.8685 30.7919Z" fill="#FF9E35"/>
<path d="M74.8808 32.2283L86.3037 31.1699L86.2259 30.3359L74.803 31.3942L74.8808 32.2283Z" fill="#FF9E35"/>
<path d="M80.5651 30.8578L82.9439 30.6359L81.8466 24.9141L79.4678 25.1359L80.5651 30.8578Z" fill="#FF9E35"/>
<path opacity="0.1" d="M80.5651 30.8578L82.9439 30.6359L81.8466 24.9141L79.4678 25.1359L80.5651 30.8578Z" fill="black"/>
<path d="M72.3428 46.2135C73.2444 52.2796 76.7129 62.2775 78.4395 63.2031C81.6663 64.9702 91.3965 66.0755 94.7153 65.9875C96.1465 65.9493 97.1479 57.095 96.3268 55.806C95.8434 55.0411 83.1435 55.4541 82.8749 55.2361C82.4605 54.9034 78.5086 48.0532 76.0607 45.0508C72.4425 40.6255 71.844 42.8362 72.3428 46.2135Z" fill="#D3766A"/>
<path d="M94.5359 55.6228C94.5359 55.6228 99.0212 55.29 101.788 55.2403C103.322 55.2135 105.981 55.4009 107.125 55.8943C108.836 56.6363 115.516 60.8321 114.53 62.4691C113.636 63.9493 108.36 59.6196 108.36 59.6196C108.36 59.6196 114.073 63.5171 112.669 65.1044C111.264 66.6916 105.954 61.008 105.954 61.008C105.954 61.008 111.736 65.1464 110.029 66.5539C108.74 67.6172 103.641 62.7292 103.641 62.7292C103.641 62.7292 108.583 66.3206 107.305 67.4719C105.893 68.7455 100.897 64.5383 100.897 64.5383C97.1565 66.9173 94.394 66.5233 92.4564 66.0108C91.9998 65.8961 94.5359 55.6228 94.5359 55.6228Z" fill="#D3766A"/>
<path d="M106.438 58.1313C107.125 58.5674 107.827 58.9996 108.472 59.493C109.116 59.9864 109.749 60.5027 110.348 61.0535C111.143 61.7599 111.855 62.5542 112.469 63.421C111.265 61.9599 108.978 60.1585 108.33 59.6651C107.681 59.1717 107.063 58.6515 106.411 58.1581L106.438 58.1313Z" fill="#263238"/>
<path d="M104.634 60.4235C105.489 61.0126 106.36 61.571 107.189 62.1982C108.018 62.8255 108.724 63.491 109.518 64.1756C109.576 64.2254 109.518 64.2407 109.468 64.1756C108.662 63.5254 107.868 62.9861 107.055 62.3474C106.241 61.7087 105.451 61.0355 104.618 60.435C104.607 60.4312 104.622 60.4121 104.634 60.4235Z" fill="#263238"/>
<path d="M102.701 62.1162C104.032 62.9932 105.269 64.0044 106.392 65.134C106.45 65.1875 106.392 65.199 106.323 65.134C105.115 64.1051 104.175 63.2942 102.67 62.1468C102.647 62.1468 102.67 62.1162 102.701 62.1162Z" fill="#263238"/>
<path d="M80.1281 49.9409L73.3485 53.8651C73.3485 53.8651 71.5912 47.7837 71.9097 44.3032C72.2281 40.8226 73.8281 41.4652 75.4818 43.4158C77.1354 45.3665 80.1281 49.9409 80.1281 49.9409Z" fill="#EBEBEB"/>
<path d="M78.9341 49.1136C78.9763 49.0869 79.0108 49.1136 78.9686 49.1404C77.1381 50.3464 75.2339 51.4373 73.2671 52.4068C73.2671 52.4068 73.244 52.4068 73.2671 52.3838C74.1188 51.7221 78.4506 49.3967 78.9341 49.1136Z" fill="#263238"/>
<path d="M76.7375 44.9657C77.9192 46.595 79.1125 48.3468 80.2175 49.9723C80.2366 50.0029 79.9182 50.1215 79.7954 50.1788C79.7455 50.2018 79.7379 50.1444 79.7954 50.1177C79.8803 50.0699 79.96 50.0135 80.0333 49.9494C78.9129 48.3047 77.8003 46.6562 76.7336 44.9772C76.7106 44.9657 76.7298 44.9542 76.7375 44.9657Z" fill="#263238"/>
<path d="M522.716 22.7437H532.772V18.5072H522.716V22.7437Z" fill="#EBEBEB"/>
<path d="M528.321 13.1826L533.303 13.0766L535.836 13.0349C536.68 13.0349 537.53 13.0349 538.377 13.0122H538.544V13.1826V17.419V17.6083H538.354L533.326 17.5818C531.651 17.5818 529.973 17.5402 528.298 17.5212H528.191V17.419C528.191 16.6997 528.222 15.9842 528.241 15.2762L528.321 13.1826ZM528.321 13.1826L528.374 15.3216C528.374 16.0258 528.415 16.7262 528.423 17.419L528.321 17.313C529.995 17.2941 531.674 17.2562 533.349 17.2524L538.377 17.2297L538.187 17.419L538.206 13.1826L538.377 13.3492C537.549 13.3492 536.721 13.3492 535.89 13.3492L533.394 13.3075L528.321 13.1826Z" fill="#EBEBEB"/>
<path d="M517.106 13.1817L522.097 13.0644L524.626 13.0227C525.473 13.0227 526.324 13.0227 527.171 13H527.338V13.1817L527.361 17.4182V17.6075H527.171L522.135 17.5696C520.456 17.5696 518.781 17.528 517.106 17.509H517V17.4068C517 16.6875 517.034 15.9719 517.049 15.264L517.106 13.1817ZM517.106 13.1817L517.16 15.3094C517.16 16.0136 517.201 16.714 517.209 17.4068L517.106 17.3008C518.781 17.2819 520.456 17.244 522.135 17.2402L527.163 17.2175L526.973 17.4068V13.1704L527.144 13.3369C526.312 13.3369 525.488 13.3369 524.656 13.3369L522.157 13.2953L517.106 13.1817Z" fill="#EBEBEB"/>
<path d="M731.869 48.9156L736.852 48.8096L739.381 48.768C740.228 48.749 741.079 48.768 741.926 48.749H742.093V48.9194L742.116 53.1558V53.3451H741.926L736.897 53.3111C735.223 53.3111 733.544 53.2656 731.869 53.2467H731.763V53.1445C731.763 52.4252 731.793 51.7096 731.812 51.0054L731.869 48.9156ZM731.869 48.9156L731.922 51.0546C731.922 51.7626 731.964 52.4592 731.972 53.152L731.869 53.0498C733.544 53.0309 735.223 52.9893 736.897 52.9855L741.926 52.9628L741.736 53.152V48.9156L741.907 49.086C741.079 49.086 740.251 49.086 739.419 49.0633L736.92 49.0216L731.869 48.9156Z" fill="#EBEBEB"/>
<path d="M737.478 47.8105H747.535V43.5741H737.478V47.8105Z" fill="#EBEBEB"/>
<path d="M641.002 90.061L645.988 89.955L648.518 89.9133C649.361 89.9133 650.212 89.9133 651.059 89.8906H651.229V90.061L651.248 94.2974V94.4867H651.055L646.026 94.4602C644.352 94.4602 642.677 94.4186 640.998 94.3997H640.896V94.2974C640.896 93.5781 640.93 92.8626 640.945 92.1546L641.002 90.061ZM641.002 90.061L641.055 92.2C641.074 92.9042 641.101 93.6046 641.108 94.2974L641.002 94.1914C642.68 94.1725 644.355 94.1346 646.03 94.1309L651.059 94.1081L650.869 94.2974L650.891 90.061L651.059 90.2276C650.231 90.2276 649.406 90.2276 648.575 90.2086L646.076 90.167L641.002 90.061Z" fill="#EBEBEB"/>
<path d="M646.613 88.9556H656.67V84.7191H646.613V88.9556Z" fill="#EBEBEB"/>
<path d="M726.262 43.5729L731.244 43.4669L733.774 43.4253C734.621 43.4253 735.471 43.4253 736.318 43.4253H736.485V43.5957L736.508 47.8321V48.0214H736.318L731.29 47.9987C729.611 47.9987 727.936 47.957 726.262 47.9343H726.155V47.8321C726.155 47.1128 726.189 46.3972 726.205 45.6931L726.262 43.5729ZM726.262 43.5729L726.315 45.7158C726.315 46.42 726.357 47.1166 726.364 47.8094L726.262 47.7072C727.936 47.7072 729.611 47.6466 731.29 47.6428L736.318 47.6201L736.128 47.8094V43.5729L736.299 43.7433C735.471 43.7433 734.643 43.7433 733.812 43.7206L731.313 43.6789L726.262 43.5729Z" fill="#EBEBEB"/>
<path d="M743.371 13.1826L748.358 13.0766L750.887 13.0349C751.73 13.0349 752.581 13.0349 753.428 13.0122H753.599V13.1826L753.618 17.419V17.6083H753.428L748.399 17.5818C746.725 17.5818 745.046 17.5402 743.371 17.5212H743.269V17.419C743.269 16.6997 743.299 15.9842 743.318 15.2762L743.371 13.1826ZM743.371 13.1826L743.424 15.3216C743.424 16.0258 743.47 16.7262 743.474 17.419L743.371 17.313C745.046 17.2941 746.725 17.2562 748.399 17.2524L753.428 17.2297L753.238 17.419L753.261 13.1826L753.428 13.3492C752.6 13.3492 751.772 13.3492 750.944 13.3492L748.453 13.2772L743.371 13.1826Z" fill="#EBEBEB"/>
<path d="M604.22 44.1296L609.203 44.0236L611.732 43.9819C612.579 43.9819 613.43 43.9819 614.277 43.9819H614.444V44.1523L614.467 48.3887V48.578H614.277L609.249 48.5553C607.57 48.5553 605.895 48.5137 604.22 48.491H604.133V48.3887C604.133 47.6694 604.167 46.9539 604.182 46.2497L604.22 44.1296ZM604.22 44.1296L604.273 46.2724C604.273 46.9766 604.315 47.6732 604.323 48.366L604.22 48.2638C605.895 48.2638 607.57 48.2032 609.249 48.1994L614.277 48.1767L614.087 48.366L614.106 44.1296L614.277 44.2999C613.445 44.2999 612.621 44.3 611.789 44.2772L609.29 44.2356L604.22 44.1296Z" fill="#EBEBEB"/>
<path d="M523.299 143.655L528.282 143.549L530.815 143.508C531.658 143.489 532.509 143.508 533.356 143.485H533.523V143.655V147.892V148.081H533.333L528.305 148.058C526.63 148.058 524.951 148.013 523.276 147.994H523.17V147.892C523.17 147.172 523.2 146.457 523.219 145.753L523.299 143.655ZM523.299 143.655L523.352 145.794C523.352 146.502 523.394 147.199 523.402 147.892L523.299 147.789C524.974 147.771 526.653 147.729 528.327 147.725L533.356 147.702L533.166 147.892V143.655L533.337 143.826C532.509 143.826 531.681 143.826 530.849 143.803L528.354 143.761L523.299 143.655Z" fill="#EBEBEB"/>
<path d="M517.683 142.55H527.739V138.314H517.683V142.55Z" fill="#EBEBEB"/>
<path d="M747.943 147.89H758V143.654H747.943V147.89Z" fill="#EBEBEB"/>
<path d="M557.849 83.9282H525.867V116.801H557.849V83.9282Z" fill="#EBEBEB"/>
<path d="M574.362 83.9282H557.849V116.801H574.362V83.9282Z" fill="#DBDBDB"/>
<path d="M573.236 114.708C572.013 112.37 570.8 110.026 569.598 107.673L566.016 100.601L562.481 93.5027C561.308 91.1327 560.148 88.7539 558.998 86.3662C560.221 88.7009 561.432 91.0456 562.633 93.4005L566.214 100.469L569.75 107.571C570.925 109.941 572.087 112.32 573.236 114.708Z" fill="#EBEBEB"/>
<path d="M573.236 86.3662C572.087 88.7513 570.925 91.1302 569.75 93.5027L566.214 100.601L562.633 107.673C561.432 110.028 560.221 112.373 558.998 114.708C560.145 112.322 561.306 109.944 562.481 107.571L566.016 100.469L569.598 93.4005C570.798 91.0456 572.011 88.7009 573.236 86.3662Z" fill="#EBEBEB"/>
<path d="M555.743 111.221H552.192V114.761H555.743V111.221Z" fill="white"/>
<path d="M555.75 63.4814H523.769V83.9292H555.75V63.4814Z" fill="#DBDBDB"/>
<path d="M572.263 63.4814H555.75V83.9292H572.263V63.4814Z" fill="#C7C7C7"/>
<path d="M542.477 71.1139H541.801H541.292L541.004 70.5233L540.597 71.1139L540.043 69.9024L539.519 71.1139H538.023H537.339L537.092 70.3037L536.86 71.1139H536.416V63.4814H542.477V71.1139Z" fill="white"/>
<path d="M571.131 82.7156C569.908 81.2264 568.696 79.736 567.496 78.2444L563.911 73.7581L560.375 69.2453C559.2 67.7309 558.04 66.2165 556.893 64.7021C558.115 66.1862 559.327 67.6766 560.527 69.1733L564.108 73.6672L567.648 78.18C568.818 79.6868 569.979 81.1987 571.131 82.7156Z" fill="#DBDBDB"/>
<path d="M571.131 64.7021C569.979 66.2165 568.818 67.7309 567.648 69.2453L564.108 73.7581L560.527 78.252C559.327 79.7487 558.115 81.239 556.893 82.7231C558.045 81.2088 559.205 79.6944 560.375 78.18L563.911 73.6672L567.496 69.1733C568.694 67.6867 569.905 66.1963 571.131 64.7021Z" fill="#DBDBDB"/>
<path d="M559.721 116.803H521.617V153.598H559.721V116.803Z" fill="#DBDBDB"/>
<path d="M579.396 116.803H559.72V153.602H579.396V116.803Z" fill="#C7C7C7"/>
<path d="M543.903 125.893H543.098H542.49L542.145 125.196L541.659 125.893L541.002 124.454L540.379 125.893H538.594H537.781L537.485 124.935L537.211 125.893H536.68V116.803H543.903V125.893Z" fill="white"/>
<path d="M578.05 151.412C576.597 148.739 575.153 146.056 573.72 143.363L569.452 135.276L565.236 127.156C563.838 124.445 562.455 121.724 561.085 118.993C562.543 121.666 563.988 124.348 565.418 127.038L569.687 135.125L573.899 143.25C575.297 145.96 576.68 148.681 578.05 151.412Z" fill="#DBDBDB"/>
<path d="M578.05 118.993C576.68 121.722 575.297 124.442 573.899 127.156L569.687 135.276L565.418 143.367C563.99 146.055 562.546 148.737 561.085 151.412C562.455 148.684 563.838 145.963 565.236 143.25L569.452 135.125L573.72 127.038C575.148 124.348 576.592 121.666 578.05 118.993Z" fill="#DBDBDB"/>
<path d="M527.341 151.477H527.523V148.932H527.341V151.477Z" fill="white"/>
<path d="M526.908 151.477H527.09V148.932H526.908V151.477Z" fill="white"/>
<path d="M526.476 151.477H526.658V148.932H526.476V151.477Z" fill="white"/>
<path d="M526.046 151.477H526.229V148.932H526.046V151.477Z" fill="white"/>
<path d="M525.61 151.477H525.792V148.932H525.61V151.477Z" fill="white"/>
<path d="M525.173 151.477H525.355V148.932H525.173V151.477Z" fill="white"/>
<path d="M524.736 151.477H524.918V148.932H524.736V151.477Z" fill="white"/>
<path d="M524.304 151.477H524.486V148.932H524.304V151.477Z" fill="white"/>
<path d="M523.87 151.477H524.053V148.932H523.87V151.477Z" fill="white"/>
<path d="M529.318 151.285L528.623 151.478H530.256L529.557 151.281V150.346C530.059 150.282 530.256 149.794 530.256 148.938H528.623C528.623 149.79 528.821 150.282 529.318 150.346V151.285Z" fill="white"/>
<path d="M530.617 150.233H531.043V151.478H532.136V150.233H532.562L531.589 148.938L530.617 150.233Z" fill="white"/>
<path d="M552.683 36.666H528.392V63.4817H552.683V36.666Z" fill="#EBEBEB"/>
<path d="M565.216 36.666H552.672V63.4855H565.216V36.666Z" fill="#DBDBDB"/>
<path d="M564.358 61.6411C563.431 59.7381 562.511 57.8262 561.597 55.9055L558.878 50.1357L556.189 44.3433C555.3 42.4099 554.414 40.469 553.53 38.5205C554.457 40.4261 555.377 42.3392 556.291 44.26L559.011 50.0259L561.699 55.8222C562.598 57.7479 563.484 59.6876 564.358 61.6411Z" fill="#EBEBEB"/>
<path d="M564.358 38.5122C563.484 40.4582 562.598 42.3991 561.699 44.3349L559.011 50.1274L556.291 55.8972C555.38 57.8154 554.459 59.7272 553.53 61.6328C554.404 59.6869 555.29 57.7459 556.189 55.8101L558.878 50.0176L561.597 44.2517C562.508 42.3335 563.429 40.4203 564.358 38.5122Z" fill="#EBEBEB"/>
<path d="M528.334 154.763H523.488V159.056H528.334V154.763Z" fill="#DBDBDB"/>
<path d="M528.334 155.709L523.488 156.292V154.763H528.334V155.709Z" fill="#C7C7C7"/>
<path d="M553.687 154.763H548.841V159.056H553.687V154.763Z" fill="#DBDBDB"/>
<path d="M553.687 155.709L548.841 156.292V154.763H553.687V155.709Z" fill="#C7C7C7"/>
<path d="M579.026 154.763H574.18V159.056H579.026V154.763Z" fill="#DBDBDB"/>
<path d="M579.026 155.709L574.18 156.292V154.763H579.026V155.709Z" fill="#C7C7C7"/>
<path d="M581.7 153.601H520.828V154.763H581.7V153.601Z" fill="#DBDBDB"/>
<path d="M581.7 159.058H520.828V160.22H581.7V159.058Z" fill="#DBDBDB"/>
<path d="M626.456 118.297H594.475V153.601H626.456V118.297Z" fill="#EBEBEB"/>
<path d="M642.968 118.297H626.455V153.601H642.968V118.297Z" fill="#DBDBDB"/>
<path d="M641.826 151.173C640.603 148.664 639.392 146.14 638.191 143.601L634.61 136.006L631.071 128.381C629.898 125.832 628.737 123.277 627.588 120.715C628.811 123.224 630.024 125.748 631.226 128.287L634.808 135.881L638.343 143.506C639.518 146.053 640.679 148.608 641.826 151.173Z" fill="#EBEBEB"/>
<path d="M641.826 120.731C640.677 123.293 639.516 125.848 638.343 128.397L634.808 136.022L631.226 143.617C630.026 146.141 628.813 148.665 627.588 151.189C628.74 148.624 629.901 146.069 631.071 143.522L634.61 135.897L638.191 128.276C639.392 125.752 640.603 123.237 641.826 120.731Z" fill="#EBEBEB"/>
<path d="M628.218 73.5449H604.572V97.8505H628.218V73.5449Z" fill="#EBEBEB"/>
<path d="M640.421 73.5449H628.211V97.8505H640.421V73.5449Z" fill="#DBDBDB"/>
<path d="M618.4 79.1859H617.899H617.523L617.307 78.7506L617.006 79.1859L616.6 78.2925L616.213 79.1859H615.104H614.599L614.416 78.5916L614.245 79.1859H613.915V73.5449H618.4V79.1859Z" fill="#DBDBDB"/>
<path d="M639.588 96.2997C638.684 94.5708 637.788 92.8368 636.899 91.0978L634.24 85.8695L631.624 80.6184C630.758 78.8668 629.9 77.1076 629.049 75.3408C629.953 77.0697 630.849 78.8037 631.738 80.5427L634.396 85.771L637.013 91.0221C637.879 92.7762 638.737 94.5354 639.588 96.2997Z" fill="#EBEBEB"/>
<path d="M639.588 75.3408C638.737 77.1076 637.879 78.8668 637.013 80.6184L634.396 85.8695L631.738 91.0978C630.849 92.8343 629.953 94.5682 629.049 96.2997C629.9 94.5329 630.758 92.7737 631.624 91.0221L634.24 85.771L636.899 80.5427C637.788 78.7936 638.684 77.0596 639.588 75.3408Z" fill="#EBEBEB"/>
<path d="M626.656 93.7231H624.031V96.3392H626.656V93.7231Z" fill="white"/>
<path d="M608.622 96.5127H608.755V94.6311H608.622V96.5127Z" fill="white"/>
<path d="M608.301 96.5127H608.434V94.6311H608.301V96.5127Z" fill="white"/>
<path d="M607.983 96.5127H608.116V94.6311H607.983V96.5127Z" fill="white"/>
<path d="M607.655 96.5127H607.788V94.6311H607.655V96.5127Z" fill="white"/>
<path d="M607.345 96.5127H607.478V94.6311H607.345V96.5127Z" fill="white"/>
<path d="M607.018 96.5127H607.151V94.6311H607.018V96.5127Z" fill="white"/>
<path d="M606.693 96.5127H606.826V94.6311H606.693V96.5127Z" fill="white"/>
<path d="M606.379 96.5127H606.512V94.6311H606.379V96.5127Z" fill="white"/>
<path d="M606.056 96.5127H606.188V94.6311H606.056V96.5127Z" fill="white"/>
<path d="M610.069 96.3687L609.553 96.5126H610.76L610.248 96.3687V95.6797C610.628 95.6305 610.76 95.267 610.76 94.6348H609.553C609.553 95.267 609.701 95.6305 610.069 95.6797V96.3687Z" fill="white"/>
<path d="M611.032 95.5926H611.347V96.5126H612.156V95.5926H612.475L611.754 94.6348L611.032 95.5926Z" fill="white"/>
<path d="M628.587 97.8501H596.605V118.294H628.587V97.8501Z" fill="#DBDBDB"/>
<path d="M645.1 97.8501H628.587V118.298H645.1V97.8501Z" fill="#C7C7C7"/>
<path d="M615.307 105.479H614.631H614.123L613.83 104.892L613.424 105.479L612.873 104.271L612.349 105.479H610.853H610.169L609.922 104.672L609.69 105.479H609.246V97.8501H615.307V105.479Z" fill="white"/>
<path d="M643.958 117.084C642.735 115.595 641.523 114.105 640.323 112.613L636.742 108.119L633.202 103.607C632.033 102.092 630.872 100.578 629.72 99.0635C630.943 100.548 632.155 102.037 633.358 103.531L636.939 108.025L640.475 112.538C641.65 114.049 642.811 115.565 643.958 117.084Z" fill="#DBDBDB"/>
<path d="M643.958 99.0713C642.811 100.586 641.65 102.1 640.476 103.614L636.94 108.127L633.374 112.614C632.174 114.108 630.961 115.598 629.735 117.085C630.887 115.57 632.048 114.056 633.218 112.542L636.758 108.029L640.339 103.535C641.519 102.041 642.725 100.553 643.958 99.0713Z" fill="#DBDBDB"/>
<path d="M598.539 154.763H593.693V159.056H598.539V154.763Z" fill="#DBDBDB"/>
<path d="M598.543 155.709L593.693 156.292V154.763H598.543V155.709Z" fill="#C7C7C7"/>
<path d="M623.877 154.763H619.031V159.056H623.877V154.763Z" fill="#DBDBDB"/>
<path d="M623.881 155.709L619.031 156.292V154.763H623.881V155.709Z" fill="#C7C7C7"/>
<path d="M649.23 154.763H644.384V159.056H649.23V154.763Z" fill="#DBDBDB"/>
<path d="M649.234 155.709L644.384 156.292V154.763H649.234V155.709Z" fill="#C7C7C7"/>
<path d="M651.89 153.601H591.018V154.763H651.89V153.601Z" fill="#DBDBDB"/>
<path d="M651.89 159.058H591.018V160.22H651.89V159.058Z" fill="#DBDBDB"/>
<path d="M673.179 26.5186H660.684V160.222H673.179V26.5186Z" fill="#C7C7C7"/>
<path d="M754.614 26.5186H742.119V160.222H754.614V26.5186Z" fill="#EBEBEB"/>
<path d="M742.129 39.6357H665.819V44.1258H742.129V39.6357Z" fill="#DBDBDB"/>
<path d="M742.129 68.6567H665.819V73.1468H742.129V68.6567Z" fill="#DBDBDB"/>
<path d="M742.129 97.6821H665.819V102.172H742.129V97.6821Z" fill="#DBDBDB"/>
<path d="M742.129 126.707H665.819V131.197H742.129V126.707Z" fill="#DBDBDB"/>
<path d="M742.129 155.732H665.819V160.223H742.129V155.732Z" fill="#DBDBDB"/>
<path d="M698.295 44.3496H674.646V68.659H698.295V44.3496Z" fill="#EBEBEB"/>
<path d="M710.513 44.3496H698.303V68.659H710.513V44.3496Z" fill="#DBDBDB"/>
<path d="M688.476 49.9906H687.974H687.598L687.386 49.559L687.086 49.9906L686.675 49.0972L686.288 49.9906H685.183H684.678L684.492 49.3962L684.321 49.9906H683.994V44.3496H688.476V49.9906Z" fill="#DBDBDB"/>
<path d="M709.669 67.1023C708.765 65.3759 707.869 63.642 706.98 61.9004L704.321 56.6721L701.735 51.4172C700.864 49.6656 700.006 47.9064 699.16 46.1396C700.064 47.8686 700.96 49.6025 701.849 51.3415L704.508 56.5699L707.124 61.8209C707.97 63.5776 708.818 65.338 709.669 67.1023Z" fill="#EBEBEB"/>
<path d="M709.668 46.1436C708.817 47.9103 707.959 49.6695 707.093 51.4211L704.476 56.6722L701.818 61.9006C700.929 63.6421 700.033 65.376 699.129 67.1024C699.98 65.3356 700.838 63.5765 701.704 61.8248L704.321 56.5738L706.979 51.3454C707.868 49.6089 708.764 47.875 709.668 46.1436Z" fill="#EBEBEB"/>
<path d="M696.735 64.5293H694.11V67.1454H696.735V64.5293Z" fill="white"/>
<path d="M713.194 82.5635H689.545V97.6845H713.194V82.5635Z" fill="#DBDBDB"/>
<path d="M725.399 82.5635H713.188V97.6845H725.399V82.5635Z" fill="#C7C7C7"/>
<path d="M703.37 88.2045H702.873H702.497L702.28 87.7691L701.98 88.2045L701.57 87.311L701.183 88.2045H700.077H699.572L699.39 87.6101L699.219 88.2045H698.889V82.5635H703.37V88.2045Z" fill="white"/>
<path d="M724.561 96.7808C723.658 95.6829 722.761 94.5812 721.873 93.4757L719.214 90.1516L716.597 86.8162C715.732 85.7007 714.873 84.5825 714.022 83.4619C714.926 84.5598 715.823 85.6615 716.711 86.767L719.37 90.0911L721.987 93.4265C722.856 94.5395 723.711 95.6602 724.561 96.7808Z" fill="#DBDBDB"/>
<path d="M724.561 83.4619C723.711 84.5977 722.856 85.6994 721.987 86.8125L719.37 90.1516L716.711 93.4757C715.823 94.5812 714.926 95.6829 714.022 96.7808C714.873 95.6602 715.732 94.542 716.597 93.4265L719.214 90.0911L721.873 86.767C722.761 85.6641 723.658 84.5624 724.561 83.4619Z" fill="#DBDBDB"/>
<path d="M744.656 94.1025H680.119V121.244H744.656V94.1025Z" fill="#FF9E35"/>
<path opacity="0.1" d="M744.656 94.1025H680.119V121.244H744.656V94.1025Z" fill="#263238"/>
<path opacity="0.2" d="M744.649 94.1025H716.07V121.244H744.649V94.1025Z" fill="black"/>
<path d="M743.249 119.373C741.043 117.443 738.857 115.507 736.69 113.566L730.233 107.728L723.853 101.864C721.736 99.9075 719.642 97.9439 717.571 95.9727C719.777 97.8984 721.968 99.8318 724.145 101.773L730.602 107.611L736.982 113.471C739.089 115.432 741.177 117.4 743.249 119.373Z" fill="#FF9E35"/>
<path d="M743.25 95.9727C741.176 97.9413 739.082 99.905 736.968 101.864L730.603 107.728L724.147 113.566C721.982 115.507 719.796 117.443 717.588 119.373C719.662 117.4 721.755 115.435 723.87 113.479L730.223 107.618L736.68 101.773C738.852 99.8368 741.042 97.9035 743.25 95.9727Z" fill="#FF9E35"/>
<path opacity="0.7" d="M695.325 98.2141H695.834L696.244 97.8733L696.624 98.2141H696.856H697.103H697.456L697.589 98.0929L697.76 98.2141H698.185H698.291H698.432L698.493 98.127L698.618 98.2141L698.8 98.0626L699.002 98.2141H699.29V94.1025H695.325V98.2141Z" fill="white"/>
<path d="M685.692 119.471H685.882V116.786H685.692V119.471Z" fill="white"/>
<path d="M685.233 119.471H685.423V116.786H685.233V119.471Z" fill="white"/>
<path d="M684.774 119.471H684.964V116.786H684.774V119.471Z" fill="white"/>
<path d="M684.316 119.471H684.506V116.786H684.316V119.471Z" fill="white"/>
<path d="M683.86 119.471H684.05V116.786H683.86V119.471Z" fill="white"/>
<path d="M683.404 119.471H683.594V116.786H683.404V119.471Z" fill="white"/>
<path d="M682.946 119.471H683.136V116.786H682.946V119.471Z" fill="white"/>
<path d="M682.491 119.471H682.681V116.786H682.491V119.471Z" fill="white"/>
<path d="M682.032 119.471H682.222V116.786H682.032V119.471Z" fill="white"/>
<path d="M687.762 119.267L687.025 119.468H688.75L688.017 119.263V118.279C688.541 118.207 688.75 117.692 688.75 116.787H687.025C687.025 117.688 687.234 118.207 687.762 118.279V119.267Z" fill="white"/>
<path d="M689.153 118.154H689.601V119.468H690.756V118.154H691.208L690.179 116.787L689.153 118.154Z" fill="white"/>
<path opacity="0.1" d="M680.119 121.243V120.206L716.073 117.843V121.239L680.119 121.243Z" fill="black"/>
<path d="M719.3 66.9585H680.953V94.0998H719.3V66.9585Z" fill="#FF9E35"/>
<path opacity="0.1" d="M719.3 66.9585H680.953V94.0998H719.3V66.9585Z" fill="#263238"/>
<path opacity="0.2" d="M719.301 66.9585H706.244V94.0998H719.301V66.9585Z" fill="black"/>
<path d="M718.399 92.2333C717.435 90.3025 716.476 88.3666 715.524 86.4257L712.691 80.5727L709.896 74.7083C708.969 72.7497 708.052 70.7861 707.143 68.8174C708.11 70.7432 709.068 72.679 710.018 74.625L712.851 80.4629L715.646 86.3273C716.573 88.2959 717.49 90.2646 718.399 92.2333Z" fill="#FF9E35"/>
<path d="M718.399 68.8369C717.493 70.8056 716.575 72.7692 715.646 74.7278L712.851 80.5733L710.018 86.4112C709.068 88.3521 708.11 90.2879 707.143 92.2188C708.052 90.2501 708.969 88.2852 709.896 86.3241L712.691 80.4635L715.524 74.6256C716.474 72.6948 717.432 70.7652 718.399 68.8369Z" fill="#FF9E35"/>
<path opacity="0.7" d="M691.043 72.5238H691.552L691.962 72.0581L692.342 72.5238H692.577H692.82H693.174L693.306 72.3572L693.477 72.5238H693.907H694.009H694.15L694.21 72.4064L694.339 72.5238L694.518 72.3156L694.719 72.5238H695.008V66.9585H691.043V72.5238Z" fill="white"/>
<path d="M686.534 92.3306H686.724V89.6463H686.534V92.3306Z" fill="white"/>
<path d="M686.079 92.3306H686.269V89.6463H686.079V92.3306Z" fill="white"/>
<path d="M685.621 92.3306H685.811V89.6463H685.621V92.3306Z" fill="white"/>
<path d="M685.162 92.3306H685.352V89.6463H685.162V92.3306Z" fill="white"/>
<path d="M684.707 92.3306H684.896V89.6463H684.707V92.3306Z" fill="white"/>
<path d="M684.247 92.3306H684.437V89.6463H684.247V92.3306Z" fill="white"/>
<path d="M683.793 92.3306H683.982V89.6463H683.793V92.3306Z" fill="white"/>
<path d="M683.322 92.3306H683.512V89.6463H683.322V92.3306Z" fill="white"/>
<path d="M682.867 92.3306H683.057V89.6463H682.867V92.3306Z" fill="white"/>
<path d="M688.594 92.1272L687.861 92.3279H689.582L688.845 92.1235V91.1391C689.373 91.0672 689.582 90.5523 689.582 89.6475H687.857C687.857 90.5485 688.066 91.0672 688.59 91.1391L688.594 92.1272Z" fill="white"/>
<path d="M689.985 91.018H690.437V92.3317H691.588V91.018H692.04L691.011 89.6475L689.985 91.018Z" fill="white"/>
<path opacity="0.1" d="M680.953 94.1039V93.0665L706.239 90.7041V94.1001L680.953 94.1039Z" fill="black"/>
<path d="M746.57 66.9585H708.223V94.0998H746.57V66.9585Z" fill="#FF9E35"/>
<path opacity="0.1" d="M746.57 66.9585H708.223V94.0998H746.57V66.9585Z" fill="#263238"/>
<path opacity="0.2" d="M746.561 66.9585H733.504V94.0998H746.561V66.9585Z" fill="black"/>
<path d="M745.657 92.2339C744.692 90.3031 743.735 88.3672 742.786 86.4263L739.953 80.5733L737.154 74.7089C736.227 72.7629 735.307 70.8056 734.393 68.8369C735.362 70.7627 736.321 72.6986 737.268 74.6445L740.101 80.4824L742.896 86.3468C743.828 88.3029 744.748 90.2652 745.657 92.2339Z" fill="#FF9E35"/>
<path d="M745.658 68.8369C744.752 70.8056 743.834 72.7692 742.905 74.7278L740.11 80.5733L737.276 86.4112C736.327 88.3521 735.369 90.2879 734.401 92.2188C735.313 90.2501 736.231 88.2852 737.155 86.3241L739.954 80.4635L742.787 74.6256C743.734 72.6948 744.691 70.7652 745.658 68.8369Z" fill="#FF9E35"/>
<path opacity="0.7" d="M718.306 72.5238H718.815L719.225 72.0581L719.608 72.5238H719.84H720.087H720.436L720.573 72.3572L720.744 72.5238H721.169H721.272H721.416L721.477 72.4064L721.602 72.5238L721.781 72.3156L721.986 72.5238H722.271V66.9585H718.306V72.5238Z" fill="white"/>
<path d="M713.794 92.3306H713.983V89.6463H713.794V92.3306Z" fill="white"/>
<path d="M713.338 92.3306H713.528V89.6463H713.338V92.3306Z" fill="white"/>
<path d="M712.879 92.3306H713.069V89.6463H712.879V92.3306Z" fill="white"/>
<path d="M712.424 92.3306H712.614V89.6463H712.424V92.3306Z" fill="white"/>
<path d="M711.966 92.3306H712.156V89.6463H711.966V92.3306Z" fill="white"/>
<path d="M711.509 92.3306H711.699V89.6463H711.509V92.3306Z" fill="white"/>
<path d="M711.047 92.3306H711.237V89.6463H711.047V92.3306Z" fill="white"/>
<path d="M710.592 92.3306H710.782V89.6463H710.592V92.3306Z" fill="white"/>
<path d="M710.135 92.3306H710.325V89.6463H710.135V92.3306Z" fill="white"/>
<path d="M715.854 92.1272L715.121 92.3279H716.845L716.109 92.1235V91.1391C716.636 91.0672 716.845 90.5523 716.845 89.6475H715.121C715.121 90.5485 715.33 91.0672 715.854 91.1391V92.1272Z" fill="white"/>
<path d="M717.248 91.018H717.696V92.3317H718.847V91.018H719.299L718.273 89.6475L717.248 91.018Z" fill="white"/>
<path opacity="0.1" d="M708.223 94.1039V93.0665L733.509 90.7041V94.1001L708.223 94.1039Z" fill="black"/>
<path d="M732.896 39.8193H686.536V66.9606H732.896V39.8193Z" fill="#FF9E35"/>
<path opacity="0.1" d="M732.896 39.8193H686.536V66.9606H732.896V39.8193Z" fill="#263238"/>
<path opacity="0.2" d="M732.891 39.8193H719.834V66.9606H732.891V39.8193Z" fill="black"/>
<path d="M731.989 65.0892C731.022 63.1584 730.064 61.2226 729.114 59.2816L726.281 53.4438L723.486 47.5794C722.557 45.6208 721.639 43.6572 720.732 41.6885C721.697 43.6193 722.654 45.5552 723.604 47.4961L726.437 53.334L729.236 59.1984C730.162 61.1569 731.08 63.1206 731.989 65.0892Z" fill="#FF9E35"/>
<path d="M731.989 41.6885C731.078 43.6572 730.16 45.6208 729.236 47.5794L726.437 53.4438L723.604 59.2816C722.657 61.2226 721.7 63.1584 720.732 65.0892C721.641 63.1206 722.559 61.1569 723.486 59.1984L726.281 53.334L729.114 47.4961C730.064 45.5552 731.022 43.6193 731.989 41.6885Z" fill="#FF9E35"/>
<path opacity="0.7" d="M701.195 45.3846H701.708L702.118 44.9228L702.498 45.3846H702.73H702.977H703.326L703.463 45.2181L703.634 45.3846H704.059H704.165H704.306L704.367 45.2673L704.492 45.3846L704.674 45.1764L704.875 45.3846H705.16V39.8193H701.195V45.3846Z" fill="white"/>
<path d="M692.106 65.1895H692.296V62.5052H692.106V65.1895Z" fill="white"/>
<path d="M691.65 65.1895H691.84V62.5052H691.65V65.1895Z" fill="white"/>
<path d="M691.191 65.1895H691.381V62.5052H691.191V65.1895Z" fill="white"/>
<path d="M690.737 65.1895H690.927V62.5052H690.737V65.1895Z" fill="white"/>
<path d="M690.274 65.1895H690.464V62.5052H690.274V65.1895Z" fill="white"/>
<path d="M689.819 65.1895H690.009V62.5052H689.819V65.1895Z" fill="white"/>
<path d="M689.364 65.1895H689.554V62.5052H689.364V65.1895Z" fill="white"/>
<path d="M688.906 65.1895H689.096V62.5052H688.906V65.1895Z" fill="white"/>
<path d="M688.451 65.1895H688.641V62.5052H688.451V65.1895Z" fill="white"/>
<path d="M694.167 64.9822L693.434 65.1867H695.158L694.421 64.9784V63.9941C694.949 63.9259 695.158 63.4073 695.158 62.5024H693.434C693.434 63.4035 693.642 63.9259 694.167 63.9941V64.9822Z" fill="white"/>
<path d="M695.557 63.8729H696.009V65.1867H697.159V63.8729H697.611L696.586 62.5024L695.557 63.8729Z" fill="white"/>
<path opacity="0.1" d="M686.536 66.9593V65.9258L719.839 63.5596V66.9555L686.536 66.9593Z" fill="black"/>
<path d="M688.212 122.471H683.097V127.003H688.212V122.471Z" fill="#FF9E35"/>
<path opacity="0.3" d="M688.212 122.471H683.097V127.003H688.212V122.471Z" fill="black"/>
<path opacity="0.3" d="M688.209 123.471L683.097 124.088V122.471H688.209V123.471Z" fill="black"/>
<path d="M714.96 122.471H709.845V127.003H714.96V122.471Z" fill="#FF9E35"/>
<path opacity="0.3" d="M714.96 122.471H709.845V127.003H714.96V122.471Z" fill="black"/>
<path opacity="0.3" d="M714.96 123.471L709.845 124.088V122.471H714.96V123.471Z" fill="black"/>
<path d="M741.701 122.471H736.585V127.003H741.701V122.471Z" fill="#FF9E35"/>
<path opacity="0.3" d="M741.701 122.471H736.585V127.003H741.701V122.471Z" fill="black"/>
<path opacity="0.3" d="M741.701 123.471L736.585 124.088V122.471H741.701V123.471Z" fill="black"/>
<path d="M744.514 121.243H680.277V122.47H744.514V121.243Z" fill="#FF9E35"/>
<path opacity="0.3" d="M744.514 121.243H680.277V122.47H744.514V121.243Z" fill="black"/>
<path d="M744.514 127H680.277V128.227H744.514V127Z" fill="#FF9E35"/>
<path opacity="0.3" d="M744.514 127H680.277V128.227H744.514V127Z" fill="black"/>
</svg>
