<svg width="48" height="62" viewBox="0 0 48 62" fill="none" xmlns="http://www.w3.org/2000/svg">
<path d="M37.5435 1.5V37C37.5435 38.3784 38.6651 39.4999 40.0435 39.5H45.3159L24.0435 59.9229L2.771 39.5H8.04346C9.42189 39.5 10.5435 38.3784 10.5435 37V1.5H37.5435ZM24.0435 9.5C22.718 9.50008 21.6328 10.5374 21.5513 11.8428C18.5725 12.8598 16.4038 15.6502 16.4038 18.96C16.4038 22.2668 18.5687 25.055 21.5435 26.0742V29.8467C21.4531 29.5914 21.4038 29.32 21.4038 29.04C21.4038 27.7477 20.4178 26.6809 19.1587 26.5527L18.9038 26.54C17.5254 26.54 16.4038 27.6616 16.4038 29.04C16.4038 32.3497 18.5726 35.1392 21.5513 36.1562C21.6323 37.4621 22.7176 38.4999 24.0435 38.5C25.3693 38.5 26.4536 37.4621 26.5347 36.1562C29.5139 35.1395 31.6841 32.3501 31.6841 29.04C31.6841 25.733 29.5185 22.9439 26.5435 21.9248V18.1523C26.634 18.4079 26.6841 18.6797 26.6841 18.96C26.6841 20.3384 27.8057 21.46 29.1841 21.46C30.5623 21.4597 31.6841 20.3382 31.6841 18.96C31.6841 15.6498 29.514 12.8594 26.5347 11.8428C26.4584 10.6224 25.5066 9.63591 24.2993 9.5127L24.0435 9.5Z" stroke="black" stroke-width="3"/>
</svg>
