<svg width="64" height="64" viewBox="0 0 64 64" fill="none" xmlns="http://www.w3.org/2000/svg">
<path d="M33.5436 26.8281C34.8099 27.3869 35.6833 28.619 35.6833 30.041C35.6832 31.4629 34.8097 32.6941 33.5436 33.2529V26.8281Z" fill="white" stroke="black"/>
<path d="M30.5433 23.1719C29.2775 22.6129 28.4037 21.3825 28.4036 19.9609C28.4036 18.539 29.2772 17.3069 30.5433 16.748V23.1719Z" fill="white" stroke="black"/>
<path d="M46.0435 2V38C46.0435 39.1022 46.9412 39.9999 48.0435 40H54.5591L32.0435 61.6152L9.52686 40H16.0435C17.1457 40 18.0435 39.1023 18.0435 38V2H46.0435ZM32.0435 11C30.9412 11.0001 30.0435 11.8978 30.0435 13V13.2119C27.0879 14.0633 24.9038 16.7547 24.9038 19.96C24.9038 23.1651 27.088 25.8556 30.0435 26.707V32.3682C29.3437 31.808 28.9038 30.9681 28.9038 30.04C28.9038 28.9378 28.006 28.0401 26.9038 28.04C25.8015 28.04 24.9038 28.9378 24.9038 30.04C24.9038 33.2452 27.088 35.9357 30.0435 36.7871V37C30.0435 38.1022 30.9412 38.9999 32.0435 39C33.1457 39 34.0435 38.1023 34.0435 37V36.7871C36.999 35.9358 39.1841 33.2453 39.1841 30.04C39.1841 26.8347 36.9992 24.1433 34.0435 23.292V17.6299C34.7438 18.19 35.1841 19.0314 35.1841 19.96C35.1841 21.0622 36.0818 21.96 37.1841 21.96C38.2861 21.9597 39.1841 21.0621 39.1841 19.96C39.1841 16.7546 36.9992 14.0632 34.0435 13.2119V13C34.0435 11.8977 33.1457 11 32.0435 11Z" stroke="black" stroke-width="2"/>
</svg>
