<svg width="64" height="64" viewBox="0 0 64 64" fill="none" xmlns="http://www.w3.org/2000/svg">
<mask id="mask0_645_8006" style="mask-type:luminance" maskUnits="userSpaceOnUse" x="0" y="0" width="64" height="64">
<path d="M64 0H0V64H64V0Z" fill="white"/>
</mask>
<g mask="url(#mask0_645_8006)">
<path d="M41.3328 54.3333C28.834 54.3333 18.666 44.1654 18.666 31.6666C18.666 19.1679 28.834 9 41.3328 9C53.8315 9 63.9994 19.1679 63.9994 31.6666C63.9994 44.1654 53.8314 54.3333 41.3328 54.3333ZM41.3328 14.3333C31.7754 14.3333 23.9994 22.1086 23.9994 31.6666C23.9994 41.2246 31.7754 49 41.3328 49C50.8901 49 58.666 41.2246 58.666 31.6666C58.666 22.1086 50.89 14.3333 41.3328 14.3333Z" fill="black"/>
<path d="M49.3328 34.3327H41.3328C40.6255 34.3327 39.9473 34.0517 39.4471 33.5517C38.947 33.0516 38.666 32.3733 38.666 31.6661V19.6661C38.6709 18.962 38.9539 18.2883 39.4535 17.7922C39.953 17.2961 40.6286 17.0176 41.3328 17.0176C42.0368 17.0176 42.7124 17.2961 43.2119 17.7922C43.7115 18.2883 43.9945 18.962 43.9994 19.6661V28.9995H49.3328C49.6829 28.9995 50.0298 29.0685 50.3533 29.2025C50.6768 29.3365 50.9708 29.5328 51.2184 29.7805C51.466 30.0281 51.6624 30.3221 51.7964 30.6456C51.9304 30.9691 51.9994 31.3158 51.9994 31.6661C51.9994 32.0162 51.9304 32.3631 51.7964 32.6866C51.6624 33.0101 51.466 33.3041 51.2184 33.5517C50.9708 33.7993 50.6768 33.9957 50.3533 34.1297C50.0298 34.2637 49.6829 34.3327 49.3328 34.3327Z" fill="black"/>
<path d="M14.6667 23.6674H5.33345C4.98171 23.6698 4.63299 23.6027 4.30734 23.4697C3.98167 23.3368 3.68555 23.1407 3.43598 22.8928C3.18641 22.645 2.98835 22.3502 2.85319 22.0254C2.71803 21.7008 2.64844 21.3524 2.64844 21.0008C2.64844 20.649 2.71803 20.3008 2.85319 19.976C2.98835 19.6513 3.18641 19.3564 3.43598 19.1087C3.68555 18.8608 3.98167 18.6647 4.30734 18.5318C4.63299 18.3988 4.98171 18.3317 5.33345 18.334H14.6667C15.0184 18.3317 15.3672 18.3988 15.6928 18.5318C16.0184 18.6647 16.3146 18.8608 16.5642 19.1087C16.8137 19.3564 17.0118 19.6513 17.1469 19.976C17.2821 20.3008 17.3517 20.649 17.3517 21.0008C17.3517 21.3524 17.2821 21.7008 17.1469 22.0254C17.0118 22.3502 16.8137 22.645 16.5642 22.8928C16.3146 23.1407 16.0184 23.3368 15.6928 23.4697C15.3672 23.6027 15.0184 23.6698 14.6667 23.6674Z" fill="black"/>
<path d="M13.3334 34.3333H2.66663C1.95939 34.3333 1.28113 34.0522 0.781036 33.5522C0.280948 33.0521 0 32.3739 0 31.6666C0 30.9594 0.280948 30.2811 0.781036 29.781C1.28113 29.281 1.95939 29 2.66663 29H13.3334C14.0406 29 14.7189 29.281 15.219 29.781C15.719 30.2811 16 30.9594 16 31.6666C16 32.3739 15.719 33.0521 15.219 33.5522C14.7189 34.0522 14.0406 34.3333 13.3334 34.3333Z" fill="black"/>
<path d="M14.6667 44.9995H9.33345C8.98171 45.0018 8.63299 44.9347 8.30734 44.8017C7.98167 44.6688 7.68555 44.4727 7.43598 44.2248C7.18641 43.9771 6.98835 43.6822 6.85319 43.3575C6.71803 43.0328 6.64844 42.6845 6.64844 42.3328C6.64844 41.9811 6.71803 41.6327 6.85319 41.3081C6.98835 40.9833 7.18641 40.6885 7.43598 40.4407C7.68555 40.1928 7.98167 39.9967 8.30734 39.8638C8.63299 39.7308 8.98171 39.6637 9.33345 39.6661H14.6667C15.0184 39.6637 15.3672 39.7308 15.6928 39.8638C16.0184 39.9967 16.3146 40.1928 16.5642 40.4407C16.8137 40.6885 17.0118 40.9833 17.1469 41.3081C17.2821 41.6327 17.3517 41.9811 17.3517 42.3328C17.3517 42.6845 17.2821 43.0328 17.1469 43.3575C17.0118 43.6822 16.8137 43.9771 16.5642 44.2248C16.3146 44.4727 16.0184 44.6688 15.6928 44.8017C15.3672 44.9347 15.0184 45.0018 14.6667 44.9995Z" fill="black"/>
</g>
</svg>
