<svg width="24" height="25" viewBox="0 0 24 25" fill="none" xmlns="http://www.w3.org/2000/svg">
<g clip-path="url(#clip0_1362_10092)">
<path d="M4.31804 6.33562C3.90017 6.75348 3.5687 7.24956 3.34255 7.79553C3.1164 8.3415 3 8.92666 3 9.51762C3 10.1086 3.1164 10.6937 3.34255 11.2397C3.5687 11.7857 3.90017 12.2818 4.31804 12.6996L12 20.3816L19.682 12.6996C20.526 11.8557 21.0001 10.7111 21.0001 9.51762C21.0001 8.32414 20.526 7.17954 19.682 6.33562C18.8381 5.4917 17.6935 5.01759 16.5 5.01759C15.3066 5.01759 14.162 5.4917 13.318 6.33562L12 7.65362L10.682 6.33562C10.2642 5.91775 9.7681 5.58628 9.22213 5.36013C8.67616 5.13398 8.09099 5.01758 7.50004 5.01758C6.90909 5.01758 6.32392 5.13398 5.77795 5.36013C5.23198 5.58628 4.7359 5.91775 4.31804 6.33562Z" stroke="black" stroke-width="2" stroke-linecap="round" stroke-linejoin="round"/>
</g>
<defs>
<clipPath id="clip0_1362_10092">
<rect width="24" height="24" fill="white" transform="translate(0 0.699219)"/>
</clipPath>
</defs>
</svg>
