<svg width="19" height="19" viewBox="0 0 19 19" fill="none" xmlns="http://www.w3.org/2000/svg">
<path d="M12.375 9.52344C12.375 10.1168 12.1991 10.6968 11.8694 11.1901C11.5398 11.6835 11.0712 12.068 10.5231 12.2951C9.97487 12.5221 9.37167 12.5815 8.78973 12.4658C8.20779 12.35 7.67324 12.0643 7.25368 11.6448C6.83412 11.2252 6.5484 10.6907 6.43264 10.1087C6.31689 9.52677 6.3763 8.92357 6.60336 8.37539C6.83042 7.82721 7.21494 7.35867 7.70829 7.02903C8.20164 6.69938 8.78166 6.52344 9.375 6.52344C10.1699 6.52591 10.9315 6.84277 11.4936 7.40485C12.0557 7.96692 12.3725 8.72855 12.375 9.52344ZM18.75 5.39844V13.6484C18.75 15.0408 18.1969 16.3762 17.2123 17.3607C16.2277 18.3453 14.8924 18.8984 13.5 18.8984H5.25C3.85761 18.8984 2.52226 18.3453 1.53769 17.3607C0.553123 16.3762 0 15.0408 0 13.6484V5.39844C0 4.00605 0.553123 2.67069 1.53769 1.68613C2.52226 0.701561 3.85761 0.148438 5.25 0.148438H13.5C14.8924 0.148438 16.2277 0.701561 17.2123 1.68613C18.1969 2.67069 18.75 4.00605 18.75 5.39844ZM13.875 9.52344C13.875 8.63342 13.6111 7.76339 13.1166 7.02337C12.6221 6.28335 11.9193 5.70657 11.0971 5.36598C10.2748 5.02539 9.37001 4.93627 8.49709 5.1099C7.62418 5.28354 6.82236 5.71212 6.19302 6.34146C5.56368 6.97079 5.1351 7.77262 4.96147 8.64553C4.78783 9.51845 4.87695 10.4232 5.21754 11.2455C5.55814 12.0678 6.13491 12.7706 6.87493 13.2651C7.61495 13.7595 8.48498 14.0234 9.375 14.0234C10.5685 14.0234 11.7131 13.5493 12.557 12.7054C13.4009 11.8615 13.875 10.7169 13.875 9.52344ZM15.375 4.64844C15.375 4.42593 15.309 4.20843 15.1854 4.02342C15.0618 3.83842 14.8861 3.69422 14.6805 3.60907C14.475 3.52392 14.2488 3.50165 14.0305 3.54505C13.8123 3.58846 13.6118 3.69561 13.4545 3.85294C13.2972 4.01028 13.19 4.21073 13.1466 4.42896C13.1032 4.64719 13.1255 4.87339 13.2106 5.07896C13.2958 5.28452 13.44 5.46022 13.625 5.58384C13.81 5.70746 14.0275 5.77344 14.25 5.77344C14.5484 5.77344 14.8345 5.65491 15.0455 5.44393C15.2565 5.23295 15.375 4.94681 15.375 4.64844Z" fill="white"/>
</svg>
