<svg width="24" height="24" viewBox="0 0 24 24" fill="none" xmlns="http://www.w3.org/2000/svg">
<path fill-rule="evenodd" clip-rule="evenodd" d="M6.06022 4.86082C7.6356 3.28543 9.77228 2.40039 12.0002 2.40039C14.2281 2.40039 16.3648 3.28543 17.9402 4.86082C19.5156 6.43621 20.4006 8.57289 20.4006 10.8008C20.4006 13.0288 19.5156 15.1654 17.9402 16.7408L12.0002 22.6808L6.06022 16.7408C5.28011 15.9608 4.6613 15.0347 4.2391 14.0156C3.81691 12.9964 3.59961 11.904 3.59961 10.8008C3.59961 9.69764 3.81691 8.60527 4.2391 7.58608C4.6613 6.56689 5.28011 5.64084 6.06022 4.86082ZM12.0002 13.2008C12.6367 13.2008 13.2472 12.948 13.6973 12.4979C14.1474 12.0478 14.4002 11.4373 14.4002 10.8008C14.4002 10.1643 14.1474 9.55385 13.6973 9.10376C13.2472 8.65368 12.6367 8.40082 12.0002 8.40082C11.3637 8.40082 10.7532 8.65368 10.3032 9.10376C9.85307 9.55385 9.60022 10.1643 9.60022 10.8008C9.60022 11.4373 9.85307 12.0478 10.3032 12.4979C10.7532 12.948 11.3637 13.2008 12.0002 13.2008Z" fill="white"/>
</svg>
