<svg width="20" height="25" viewBox="0 0 20 25" fill="none" xmlns="http://www.w3.org/2000/svg">
<path d="M10 12.9492C10.6875 12.9492 11.2763 12.714 11.7663 12.2436C12.2563 11.7732 12.5008 11.2084 12.5 10.5492C12.5 9.88922 12.255 9.32402 11.765 8.85362C11.275 8.38322 10.6867 8.14842 10 8.14922C9.3125 8.14922 8.72375 8.38442 8.23375 8.85482C7.74375 9.32522 7.49917 9.89002 7.5 10.5492C7.5 11.2092 7.745 11.7744 8.235 12.2448C8.725 12.7152 9.31333 12.95 10 12.9492ZM10 24.9492C6.64583 22.2092 4.14083 19.6644 2.485 17.3148C0.829167 14.9652 0.000833333 12.79 0 10.7892C0 7.78922 1.00542 5.39922 3.01625 3.61922C5.02708 1.83922 7.355 0.949219 10 0.949219C12.6458 0.949219 14.9742 1.83922 16.985 3.61922C18.9958 5.39922 20.0008 7.78922 20 10.7892C20 12.7892 19.1717 14.9644 17.515 17.3148C15.8583 19.6652 13.3533 22.21 10 24.9492Z" fill="white"/>
</svg>
