<svg width="784" height="174" viewBox="0 0 784 174" fill="none" xmlns="http://www.w3.org/2000/svg">
<path d="M89.8125 150.717L96.125 150.123C97.9792 150.123 98.9062 150.623 98.9062 151.623C98.9062 152.602 98.3021 153.456 97.0938 154.186C94.1354 155.956 90.9688 157.154 87.5938 157.779C84.2188 158.404 80.9271 158.717 77.7188 158.717C74.5312 158.717 72.25 158.654 70.875 158.529C69.5208 158.425 68.1667 158.196 66.8125 157.842C65.4792 157.488 64.3854 157.008 63.5312 156.404C61.6771 155.071 60.75 153.019 60.75 150.248C60.75 145.436 63.6562 139.383 69.4688 132.092C73.8646 126.592 77.5938 123.383 80.6562 122.467C82.2604 121.988 84.125 121.748 86.25 121.748C88.3958 121.748 89.4688 122.561 89.4688 124.186C89.4688 124.727 89.3125 125.373 89 126.123C87.8125 128.561 86.7708 131.446 85.875 134.779C84.9792 138.092 84.5312 141.071 84.5312 143.717C84.5312 148.383 86.2917 150.717 89.8125 150.717ZM58.0938 124.998C57.0312 124.998 56.5 124.383 56.5 123.154C56.5 121.8 56.9062 119.946 57.7188 117.592C59.3021 113.113 61 110.623 62.8125 110.123C63.3125 109.936 64.8229 109.842 67.3438 109.842L88.4688 110.342C89.5104 110.342 92.5417 110.029 97.5625 109.404C102.604 108.779 105.25 108.467 105.5 108.467C108.188 108.467 109.531 109.383 109.531 111.217C109.531 112.029 109.24 113.321 108.656 115.092C108.094 116.842 107.344 118.498 106.406 120.061C105.469 121.623 104.604 122.404 103.812 122.404C103.333 122.404 102.25 122.019 100.562 121.248C95.4583 118.915 91.3438 117.748 88.2188 117.748C85.0938 117.748 81.4792 118.05 77.375 118.654C73.2708 119.258 70.2188 119.977 68.2188 120.811C66.2188 121.623 64.4688 122.373 62.9688 123.061C60.1771 124.352 58.5521 124.998 58.0938 124.998ZM122.125 125.311L136.25 124.967C136.792 124.967 137.198 125.133 137.469 125.467C137.74 125.779 137.875 126.258 137.875 126.904C137.875 127.529 137.292 129.175 136.125 131.842C134.979 134.488 133.823 137.311 132.656 140.311C131.49 143.29 130.906 145.467 130.906 146.842C130.906 149.425 132.281 150.717 135.031 150.717C136.344 150.717 137.781 150.55 139.344 150.217C139.844 148.446 140.677 146.102 141.844 143.186C144.802 135.873 146.583 130.311 147.188 126.498C147.292 125.727 147.844 125.342 148.844 125.342C151.865 125.342 155.042 125.279 158.375 125.154C161.708 125.029 163.625 124.967 164.125 124.967C164.646 124.967 165.042 125.113 165.312 125.404C165.604 125.675 165.75 125.936 165.75 126.186C165.75 127.186 165.104 129.3 163.812 132.529C162.521 135.758 161.229 139.102 159.938 142.561C158.646 145.998 158 148.508 158 150.092C158 151.675 158.698 152.467 160.094 152.467C161.51 152.467 163.458 152.092 165.938 151.342C168.438 150.571 170.177 149.915 171.156 149.373C172.156 148.831 172.802 148.561 173.094 148.561C173.885 148.561 174.281 148.936 174.281 149.686C174.281 150.436 173.719 151.154 172.594 151.842C171.49 152.508 170.146 153.196 168.562 153.904C167 154.592 165.115 155.321 162.906 156.092C157.823 157.842 152.646 158.717 147.375 158.717C142.104 158.717 139.135 157.3 138.469 154.467C136.448 155.3 134.792 155.956 133.5 156.436C132.208 156.894 130.417 157.383 128.125 157.904C125.833 158.446 123.729 158.717 121.812 158.717C115.688 158.717 112.625 156.217 112.625 151.217C112.625 149.488 112.958 147.394 113.625 144.936C114.292 142.456 115.031 140.217 115.844 138.217C117.99 132.904 119.062 129.613 119.062 128.342C119.062 127.05 119.25 126.227 119.625 125.873C120 125.498 120.833 125.311 122.125 125.311ZM185.219 125.311L200.031 124.967C200.573 124.967 200.979 125.133 201.25 125.467C201.521 125.779 201.656 126.071 201.656 126.342C201.656 126.613 201.583 127.061 201.438 127.686C201.292 128.311 201.104 129.071 200.875 129.967C200.646 130.842 200.5 131.404 200.438 131.654C202.062 129.717 204.094 128.008 206.531 126.529C208.969 125.05 211.115 124.311 212.969 124.311C216.906 124.311 218.875 125.165 218.875 126.873C218.875 128.561 218.344 130.592 217.281 132.967C216.219 135.321 215.219 136.873 214.281 137.623C213.823 137.956 213.26 138.123 212.594 138.123C211.948 138.123 211.344 137.915 210.781 137.498C208.26 135.623 205.51 134.686 202.531 134.686C201.385 134.686 200.385 134.769 199.531 134.936C198.719 137.727 197.427 141.831 195.656 147.248C193.885 152.644 192.906 155.654 192.719 156.279C192.406 157.258 191.823 157.748 190.969 157.748C187.948 157.748 184.708 157.904 181.25 158.217C177.792 158.55 175.802 158.717 175.281 158.717C174.781 158.717 174.385 158.571 174.094 158.279C173.823 158.008 173.688 157.686 173.688 157.311C173.688 156.915 174.125 155.519 175 153.123C175.896 150.706 176.875 148.113 177.938 145.342C179.021 142.571 180 139.529 180.875 136.217C181.771 132.904 182.219 130.186 182.219 128.061L182.188 126.873C182.188 125.831 183.198 125.311 185.219 125.311ZM257.875 158.717C250.938 158.717 247.469 156.415 247.469 151.811C247.469 149.186 249.125 143.946 252.438 136.092C255.75 128.217 257.406 122.758 257.406 119.717C257.406 118.008 256.771 116.8 255.5 116.092C254.25 115.363 252.427 114.998 250.031 114.998C247.656 114.998 245.24 115.206 242.781 115.623C240.323 116.04 238.74 116.248 238.031 116.248C237.344 116.248 237 115.936 237 115.311C237 114.498 238.469 113.425 241.406 112.092C247.052 109.508 253.271 108.217 260.062 108.217C265.438 108.217 269.458 109.186 272.125 111.123C274.812 113.061 276.156 116.206 276.156 120.561C276.156 123.144 275.698 126.383 274.781 130.279C273.865 134.154 272.948 137.8 272.031 141.217C271.135 144.633 270.688 146.977 270.688 148.248C270.688 149.519 270.927 150.404 271.406 150.904C272.01 151.529 273.177 151.842 274.906 151.842C275.969 151.842 276.562 151.956 276.688 152.186C276.833 152.415 276.906 152.654 276.906 152.904C276.906 153.863 276.469 154.644 275.594 155.248C272.281 157.561 266.375 158.717 257.875 158.717ZM239.688 136.092L247.688 135.904C249.146 135.904 249.875 136.331 249.875 137.186C249.875 137.79 249.531 138.269 248.844 138.623C246.427 139.852 242.26 140.633 236.344 140.967C234.656 144.3 233.812 147.227 233.812 149.748C233.812 150.873 233.958 151.915 234.25 152.873C234.542 153.811 234.688 154.488 234.688 154.904C234.688 156.008 233.99 156.758 232.594 157.154C231.198 157.529 229.146 157.717 226.438 157.717C223.75 157.717 221.979 157.477 221.125 156.998C220.271 156.498 219.844 155.623 219.844 154.373C219.844 152.04 220.521 149.467 221.875 146.654C223.25 143.842 225 141.154 227.125 138.592C229.25 136.008 231.604 133.477 234.188 130.998C236.771 128.519 239.281 126.383 241.719 124.592C247.135 120.571 250.823 118.561 252.781 118.561C253.677 118.561 254.125 118.831 254.125 119.373C254.125 119.915 253.688 120.519 252.812 121.186C250.958 122.54 248.74 124.602 246.156 127.373C243.573 130.144 241.271 133.05 239.25 136.092H239.688ZM301.281 111.436L316.594 111.092C317.135 111.092 317.542 111.258 317.812 111.592C318.083 111.904 318.219 112.258 318.219 112.654C318.219 114.842 316.219 121.154 312.219 131.592C308.24 142.029 306.25 148.175 306.25 150.029C306.25 150.8 306.406 151.383 306.719 151.779C307.031 152.154 307.583 152.342 308.375 152.342C310.854 152.342 314.698 151.196 319.906 148.904C320.427 148.675 320.927 148.561 321.406 148.561C322.26 148.561 322.688 148.894 322.688 149.561C322.688 150.123 322.26 150.706 321.406 151.311C320.552 151.915 319.375 152.581 317.875 153.311C316.375 154.04 314.552 154.831 312.406 155.686C310.26 156.54 307.823 157.258 305.094 157.842C302.385 158.425 299.542 158.717 296.562 158.717C293.583 158.717 291.198 158.311 289.406 157.498C287.615 156.706 286.719 155.238 286.719 153.092C286.719 151.592 288.646 145.706 292.5 135.436C293.938 131.602 295.26 127.623 296.469 123.498C297.677 119.352 298.281 116.248 298.281 114.186L298.25 112.998C298.25 111.956 299.26 111.436 301.281 111.436ZM394.094 128.748C394.885 128.748 395.281 129.363 395.281 130.592C395.281 131.8 394.885 132.842 394.094 133.717C393.302 134.592 392.438 135.061 391.5 135.123C390.583 135.186 389.625 135.29 388.625 135.436C387.646 135.581 386.521 135.79 385.25 136.061C384 136.311 382.854 136.654 381.812 137.092C380.771 137.529 379.802 138.04 378.906 138.623C376.948 139.873 375.969 141.581 375.969 143.748C375.969 145.186 376.323 146.446 377.031 147.529C377.76 148.592 378.708 149.415 379.875 149.998C382.125 151.123 384.615 151.686 387.344 151.686C391.531 151.686 396.885 150.79 403.406 148.998C403.781 148.894 404.104 148.842 404.375 148.842C405.167 148.842 405.562 149.238 405.562 150.029C405.562 151.488 404.073 152.904 401.094 154.279C398.135 155.654 394.521 156.738 390.25 157.529C385.979 158.321 381.938 158.717 378.125 158.717C374.333 158.717 370.938 158.477 367.938 157.998C364.938 157.519 362.281 156.8 359.969 155.842C357.656 154.863 355.854 153.571 354.562 151.967C353.292 150.342 352.656 148.477 352.656 146.373C352.656 144.269 353.281 142.383 354.531 140.717C355.802 139.029 357.469 137.644 359.531 136.561C361.594 135.456 363.99 134.529 366.719 133.779C371.865 132.404 377.542 131.717 383.75 131.717C379.333 131.488 376.031 131.113 373.844 130.592C371.677 130.071 369.958 129.571 368.688 129.092C367.438 128.592 366.385 128.029 365.531 127.404C363.573 125.988 362.594 124.217 362.594 122.092C362.594 119.967 363.385 118.008 364.969 116.217C366.573 114.404 368.688 112.925 371.312 111.779C376.75 109.404 383.062 108.217 390.25 108.217C400.021 108.217 406.729 109.311 410.375 111.498C411.167 111.977 411.562 112.686 411.562 113.623C411.562 114.54 410.875 116.061 409.5 118.186C408.146 120.311 407.042 121.779 406.188 122.592C405.354 123.404 404.573 123.811 403.844 123.811C403.135 123.811 402.49 123.55 401.906 123.029C401.323 122.508 400.865 121.863 400.531 121.092C398.26 115.988 394.76 113.436 390.031 113.436C387.281 113.436 384.958 114.186 383.062 115.686C381.188 117.165 380.25 118.977 380.25 121.123C380.25 123.248 381.333 125.081 383.5 126.623C385.688 128.165 388.344 128.936 391.469 128.936L394.094 128.748ZM447.281 129.842C448.177 131.654 448.865 133.29 449.344 134.748C452.719 131.436 455.646 128.821 458.125 126.904C460.625 124.967 462.635 123.998 464.156 123.998C465.24 123.998 466.198 124.873 467.031 126.623C467.885 128.352 468.312 130.342 468.312 132.592C468.312 133.008 468.146 133.477 467.812 133.998C467.5 134.498 467.031 134.821 466.406 134.967C465.781 135.092 464.469 135.154 462.469 135.154C460.469 135.154 458.604 135.436 456.875 135.998C455.167 136.54 453.229 137.633 451.062 139.279C453.292 145.196 455.208 149.144 456.812 151.123C457.625 152.165 458.698 152.686 460.031 152.686C461.365 152.686 463.104 152.331 465.25 151.623C467.396 150.915 469.031 150.227 470.156 149.561C471.281 148.894 472.062 148.561 472.5 148.561C473.375 148.561 473.812 148.946 473.812 149.717C473.812 150.238 473.365 150.894 472.469 151.686C469.448 154.331 466.104 156.227 462.438 157.373C458.771 158.519 454.677 159.092 450.156 159.092C443.531 159.092 439.115 157.696 436.906 154.904C435.656 153.363 434.469 151.269 433.344 148.623C430.052 151.748 427.125 154.217 424.562 156.029C422 157.842 419.812 158.748 418 158.748C416.667 158.748 415.542 157.894 414.625 156.186C413.729 154.456 413.281 152.675 413.281 150.842C413.281 149.008 413.75 148.05 414.688 147.967C415.229 147.904 416.208 147.852 417.625 147.811C419.062 147.769 420.531 147.696 422.031 147.592C425.677 147.342 428.875 146.175 431.625 144.092C431.417 143.467 431.073 142.425 430.594 140.967C430.135 139.508 429.781 138.425 429.531 137.717C428.219 134.008 427 131.863 425.875 131.279C425.333 130.988 424.552 130.842 423.531 130.842C422.51 130.842 421.51 130.936 420.531 131.123C419.552 131.311 418.948 131.404 418.719 131.404C417.927 131.404 417.531 131.029 417.531 130.279C417.531 129.529 418.365 128.696 420.031 127.779C421.698 126.842 423.958 126.029 426.812 125.342C429.688 124.654 432.156 124.311 434.219 124.311C436.281 124.311 437.802 124.363 438.781 124.467C439.76 124.55 440.635 124.717 441.406 124.967C442.177 125.196 442.854 125.446 443.438 125.717C444.021 125.967 444.552 126.331 445.031 126.811C445.51 127.269 445.917 127.717 446.25 128.154C446.583 128.571 446.927 129.133 447.281 129.842ZM484.094 125.311L498.281 124.967C498.823 124.967 499.229 125.133 499.5 125.467C499.771 125.779 499.906 126.144 499.906 126.561C499.906 126.956 499.833 127.654 499.688 128.654C499.542 129.633 499.469 130.352 499.469 130.811C503.302 126.477 508.417 124.311 514.812 124.311C518.708 124.311 521.771 125.311 524 127.311C526.25 129.29 527.375 132.102 527.375 135.748C527.375 142.831 524.594 148.623 519.031 153.123C525.49 152.665 530.448 151.467 533.906 149.529C535.052 148.883 535.896 148.561 536.438 148.561C537.146 148.561 537.5 148.946 537.5 149.717C537.5 150.258 537.115 150.811 536.344 151.373C532.802 153.852 528.24 155.686 522.656 156.873C517.094 158.061 511.104 158.654 504.688 158.654C503.896 158.696 503.302 158.717 502.906 158.717C500.698 158.717 498.49 158.383 496.281 157.717C494.073 157.05 492.24 156.113 490.781 154.904C489.344 159.3 488.625 164.373 488.625 170.123L488.656 171.029C488.656 172.071 487.646 172.592 485.625 172.592L471.094 172.967C470.594 172.967 470.198 172.811 469.906 172.498C469.615 172.206 469.469 171.873 469.469 171.498C469.469 167.936 471.417 161.029 475.312 150.779C479.208 140.508 481.156 133.633 481.156 130.154L481.031 127.561C481.031 126.79 481.219 126.227 481.594 125.873C481.99 125.498 482.823 125.311 484.094 125.311ZM505.594 132.248C501.677 132.248 498.406 135.248 495.781 141.248C494.573 143.998 493.969 146.227 493.969 147.936C493.969 149.644 494.25 150.821 494.812 151.467C495.396 152.113 496.521 152.436 498.188 152.436C499.875 152.436 501.688 151.665 503.625 150.123C505.583 148.561 507.156 146.602 508.344 144.248C509.531 141.894 510.125 139.779 510.125 137.904C510.125 136.008 509.708 134.592 508.875 133.654C508.042 132.717 506.948 132.248 505.594 132.248ZM544.312 155.373C540.396 153.019 538.438 149.446 538.438 144.654C538.438 142.154 538.948 139.811 539.969 137.623C541.01 135.415 542.427 133.508 544.219 131.904C546.031 130.3 548.135 128.925 550.531 127.779C555.323 125.467 560.812 124.311 567 124.311C579.167 124.311 585.74 128.165 586.719 135.873C588.177 136.352 589.677 136.592 591.219 136.592C592.781 136.592 594.083 136.477 595.125 136.248C596.167 136.019 597.146 135.675 598.062 135.217C599 134.758 599.667 134.529 600.062 134.529C600.854 134.529 601.25 134.915 601.25 135.686C601.25 136.456 600.635 137.258 599.406 138.092C597.094 139.675 594.031 140.467 590.219 140.467C588.781 140.467 587.615 140.394 586.719 140.248C586.052 145.498 583.344 149.863 578.594 153.342C576.323 155.008 573.531 156.321 570.219 157.279C566.927 158.238 563.51 158.717 559.969 158.717C556.448 158.717 553.427 158.436 550.906 157.873C548.385 157.331 546.188 156.498 544.312 155.373ZM555.656 147.404C555.656 151.258 557.062 153.186 559.875 153.186C561.667 153.186 563.333 152.206 564.875 150.248C566.438 148.29 567.646 145.863 568.5 142.967C569.375 140.071 569.812 137.123 569.812 134.123C569.812 131.102 568.76 129.592 566.656 129.592C564.823 129.592 563.042 130.456 561.312 132.186C559.604 133.915 558.229 136.165 557.188 138.936C556.167 141.686 555.656 144.508 555.656 147.404ZM606.844 125.311L621.656 124.967C622.198 124.967 622.604 125.133 622.875 125.467C623.146 125.779 623.281 126.071 623.281 126.342C623.281 126.613 623.208 127.061 623.062 127.686C622.917 128.311 622.729 129.071 622.5 129.967C622.271 130.842 622.125 131.404 622.062 131.654C623.688 129.717 625.719 128.008 628.156 126.529C630.594 125.05 632.74 124.311 634.594 124.311C638.531 124.311 640.5 125.165 640.5 126.873C640.5 128.561 639.969 130.592 638.906 132.967C637.844 135.321 636.844 136.873 635.906 137.623C635.448 137.956 634.885 138.123 634.219 138.123C633.573 138.123 632.969 137.915 632.406 137.498C629.885 135.623 627.135 134.686 624.156 134.686C623.01 134.686 622.01 134.769 621.156 134.936C620.344 137.727 619.052 141.831 617.281 147.248C615.51 152.644 614.531 155.654 614.344 156.279C614.031 157.258 613.448 157.748 612.594 157.748C609.573 157.748 606.333 157.904 602.875 158.217C599.417 158.55 597.427 158.717 596.906 158.717C596.406 158.717 596.01 158.571 595.719 158.279C595.448 158.008 595.312 157.686 595.312 157.311C595.312 156.915 595.75 155.519 596.625 153.123C597.521 150.706 598.5 148.113 599.562 145.342C600.646 142.571 601.625 139.529 602.5 136.217C603.396 132.904 603.844 130.186 603.844 128.061L603.812 126.873C603.812 125.831 604.823 125.311 606.844 125.311ZM673.594 125.654L681.812 124.592C683.354 124.592 684.125 125.196 684.125 126.404C684.125 127.613 683.396 128.373 681.938 128.686C680.479 128.977 677.188 129.373 672.062 129.873C671.354 131.727 670.292 134.3 668.875 137.592C665.979 144.342 664.531 148.394 664.531 149.748C664.531 151.227 665.448 151.967 667.281 151.967C673.198 151.967 678.51 150.977 683.219 148.998C683.906 148.706 684.448 148.561 684.844 148.561C685.615 148.561 686 148.904 686 149.592C686 150.279 685.5 150.956 684.5 151.623C681.438 153.644 676.823 155.331 670.656 156.686C664.49 158.04 658.802 158.717 653.594 158.717C650.635 158.717 648.375 158.258 646.812 157.342C645.25 156.404 644.469 155.123 644.469 153.498C644.469 151.852 645.552 148.779 647.719 144.279C650.156 139.238 651.906 134.811 652.969 130.998C651.677 131.061 650.781 131.092 650.281 131.092C649.052 131.092 648.438 130.592 648.438 129.592C648.438 128.863 648.635 128.373 649.031 128.123C649.427 127.873 649.833 127.696 650.25 127.592C650.688 127.488 651.052 127.425 651.344 127.404C651.656 127.363 652.083 127.321 652.625 127.279C653.167 127.238 653.562 127.206 653.812 127.186C654.083 125.602 654.219 124.113 654.219 122.717L654.188 121.529C654.188 120.592 655.375 119.956 657.75 119.623C658.542 119.519 661.031 118.998 665.219 118.061C669.406 117.123 671.969 116.654 672.906 116.654C674.406 116.654 675.156 117.175 675.156 118.217C675.156 120.008 674.635 122.488 673.594 125.654ZM707.656 158.686C707.135 158.706 706.365 158.717 705.344 158.717C700.552 158.717 696.031 158.269 691.781 157.373C687.552 156.477 685.052 155.436 684.281 154.248C684.031 153.873 683.906 153.404 683.906 152.842C683.906 152.279 684.573 151.383 685.906 150.154C687.24 148.904 688.156 148.279 688.656 148.279C689.156 148.279 689.667 148.467 690.188 148.842C690.729 149.196 691.323 149.633 691.969 150.154C692.615 150.675 693.333 151.196 694.125 151.717C696.021 152.967 698.302 153.592 700.969 153.592C702.031 153.592 702.885 153.321 703.531 152.779C704.198 152.238 704.531 151.561 704.531 150.748C704.531 149.915 704.25 149.196 703.688 148.592C703.146 147.988 702.427 147.467 701.531 147.029C700.656 146.571 699.688 146.123 698.625 145.686C697.562 145.227 696.49 144.738 695.406 144.217C694.344 143.675 693.365 143.092 692.469 142.467C690.49 141.071 689.5 139.342 689.5 137.279C689.5 135.196 690.125 133.394 691.375 131.873C692.646 130.352 694.24 129.133 696.156 128.217C698.073 127.3 700.24 126.529 702.656 125.904C706.906 124.842 710.917 124.311 714.688 124.311C718.479 124.311 722 124.508 725.25 124.904C728.521 125.279 730.771 125.842 732 126.592C732.333 126.779 732.5 127.279 732.5 128.092C732.5 128.883 732.219 130.029 731.656 131.529C731.094 133.008 730.375 134.383 729.5 135.654C728.646 136.904 727.875 137.529 727.188 137.529C726.917 137.529 726.688 137.415 726.5 137.186C724.521 134.811 722.594 132.988 720.719 131.717C718.865 130.425 716.844 129.779 714.656 129.779C712.99 129.779 711.792 130.123 711.062 130.811C710.354 131.477 710 132.175 710 132.904C710 133.633 710.396 134.331 711.188 134.998C712 135.665 713 136.269 714.188 136.811C715.396 137.352 716.698 137.988 718.094 138.717C719.51 139.425 720.812 140.154 722 140.904C723.208 141.633 724.208 142.561 725 143.686C725.812 144.79 726.219 146.186 726.219 147.873C726.219 149.561 725.604 151.206 724.375 152.811C729.542 151.769 733.583 150.488 736.5 148.967C737 148.696 737.427 148.561 737.781 148.561C738.573 148.561 738.969 148.956 738.969 149.748C738.969 150.415 738.562 151.029 737.75 151.592C736.938 152.133 735.594 152.8 733.719 153.592C731.844 154.363 729.615 155.144 727.031 155.936C721.01 157.769 714.552 158.686 707.656 158.686Z" fill="#25292E"/>
<path d="M458.421 53.3665H416.834L396.041 81.4665H375.247L385.644 53.3665H364.851H323.264L312.867 43.9999V21.5199L323.264 34.6332H364.851H385.644H390.842L380.446 6.5332H396.041L416.834 34.6332H458.421" stroke="#FF691F" stroke-width="9"/>
<path d="M458.423 34.6328C460.836 34.6328 463.15 35.6197 464.856 37.3762C466.562 39.1328 467.52 41.5153 467.52 43.9995C467.52 46.4837 466.562 48.8661 464.856 50.6227C463.15 52.3793 460.836 53.3661 458.423 53.3661" stroke="#FF691F" stroke-width="9"/>
</svg>
