<svg width="132" height="47" viewBox="0 0 132 47" fill="none" xmlns="http://www.w3.org/2000/svg">
<path d="M2.05859 38L9.85405 34.7514C45 20.1053 84.3254 18.997 120.24 31.6405V31.6405C120.795 31.8359 121.401 31.5259 121.567 30.9613L124.276 21.7347C124.88 19.6771 127.86 19.8842 128.174 22.0055L130.151 35.3685C130.291 36.3159 129.74 37.2297 128.836 37.5477L116.189 42" stroke="#DE6E4B" stroke-width="3" stroke-linecap="round"/>
<rect x="46.6973" width="34.4928" height="47" fill="#1D1D1D"/>
<path d="M57.5466 32.252C56.0532 32.252 54.7092 31.9253 53.5146 31.272C52.3199 30.6 51.3772 29.6573 50.6866 28.444C50.0146 27.2307 49.6786 25.8307 49.6786 24.244C49.6786 22.6573 50.0239 21.2573 50.7146 20.044C51.4239 18.8307 52.3852 17.8973 53.5986 17.244C54.8119 16.572 56.1652 16.236 57.6586 16.236C59.1519 16.236 60.5052 16.572 61.7186 17.244C62.9319 17.8973 63.8839 18.8307 64.5746 20.044C65.2839 21.2573 65.6386 22.6573 65.6386 24.244C65.6386 25.8307 65.2746 27.2307 64.5466 28.444C63.8372 29.6573 62.8666 30.6 61.6346 31.272C60.4212 31.9253 59.0586 32.252 57.5466 32.252ZM57.5466 28.836C58.2559 28.836 58.9186 28.668 59.5346 28.332C60.1692 27.9773 60.6732 27.4547 61.0466 26.764C61.4199 26.0733 61.6066 25.2333 61.6066 24.244C61.6066 22.7693 61.2146 21.64 60.4306 20.856C59.6652 20.0533 58.7226 19.652 57.6026 19.652C56.4826 19.652 55.5399 20.0533 54.7746 20.856C54.0279 21.64 53.6546 22.7693 53.6546 24.244C53.6546 25.7187 54.0186 26.8573 54.7466 27.66C55.4932 28.444 56.4266 28.836 57.5466 28.836ZM72.434 18.896C72.938 18.0747 73.5914 17.4307 74.394 16.964C75.2154 16.4973 76.1487 16.264 77.194 16.264V20.38H76.158C74.926 20.38 73.9927 20.6693 73.358 21.248C72.742 21.8267 72.434 22.8347 72.434 24.272V32H68.514V16.488H72.434V18.896Z" fill="#DE6E4B"/>
</svg>
