<svg width="60" height="40" viewBox="0 0 60 40" fill="none" xmlns="http://www.w3.org/2000/svg">
<path d="M47.6311 0.293001C47.4436 0.105451 47.1892 5.69465e-05 46.9241 3.09046e-07C46.7919 0.000681608 46.6612 0.0275452 46.5395 0.079038C46.4178 0.130531 46.3075 0.205632 46.2151 0.3L38.2911 8.3C38.1045 8.4874 37.9998 8.74107 37.9998 9.0055C37.9998 9.26993 38.1045 9.5236 38.2911 9.711L38.9051 10.325L37.2701 11.959H34.6151C32.9811 11.9229 31.3609 12.2652 29.8811 12.959C28.4725 12.2998 26.9362 11.9584 25.3811 11.959H22.7281L21.0931 10.325L21.7071 9.711C21.8942 9.52351 21.9993 9.26942 21.9993 9.0045C21.9993 8.73958 21.8942 8.48549 21.7071 8.298L13.7281 0.298001C13.6356 0.204232 13.5256 0.129638 13.4043 0.0784991C13.2829 0.0273605 13.1527 0.000683667 13.0211 3.09046e-07C12.8896 -0.000103053 12.7594 0.0257221 12.6379 0.0759986C12.5164 0.126275 12.406 0.200016 12.3131 0.293001L0.293055 12.313C0.199929 12.4059 0.126043 12.5162 0.0756301 12.6377C0.0252172 12.7592 -0.000732422 12.8895 -0.000732422 13.021C-0.000732422 13.1525 0.0252172 13.2828 0.0756301 13.4043C0.126043 13.5258 0.199929 13.6361 0.293055 13.729L8.29306 21.708C8.48054 21.8952 8.73464 22.0003 8.99956 22.0003C9.26447 22.0003 9.51857 21.8952 9.70606 21.708L10.4861 20.928L11.4861 21.928C11.9082 24.1925 13.0064 26.276 14.6361 27.904L17.2771 30.692C17.3699 30.7891 17.4815 30.8663 17.6051 30.919C17.5811 31.0622 17.5678 31.2069 17.5651 31.352C17.5713 32.117 17.8687 32.8508 18.3969 33.4042C18.925 33.9577 19.6442 34.2891 20.4081 34.331C20.4501 35.0678 20.7618 35.7633 21.2837 36.285C21.8056 36.8068 22.5013 37.1182 23.2381 37.16C23.2809 37.9229 23.6124 38.6409 24.1653 39.1683C24.7182 39.6957 25.451 39.9931 26.2151 40H26.2271C26.6181 40.0013 27.0055 39.9249 27.3668 39.7754C27.7282 39.6259 28.0562 39.4062 28.3321 39.129L29.2761 38.185C29.5089 38.7209 29.8924 39.1776 30.3798 39.4998C30.8673 39.822 31.4378 39.9958 32.0221 40H32.0341C32.4252 40.0013 32.8128 39.925 33.1743 39.7755C33.5358 39.626 33.8641 39.4062 34.1401 39.129L45.3491 27.92C46.9881 26.2868 48.0928 24.1946 48.5171 21.92L49.5171 20.92L50.2971 21.7C50.4824 21.8891 50.7352 21.997 51.0001 22C51.132 21.9992 51.2625 21.9723 51.384 21.9208C51.5056 21.8693 51.6157 21.7943 51.7081 21.7L59.6521 13.721C59.8392 13.5335 59.9443 13.2794 59.9443 13.0145C59.9443 12.7496 59.8392 12.4955 59.6521 12.308L47.6311 0.293001ZM9.00006 19.587L2.41506 13.02L13.0201 2.42L19.5871 9L9.00006 19.587ZM16.0661 26.506C14.6464 25.0915 13.7128 23.2625 13.4001 21.283C13.367 21.0747 13.269 20.8822 13.1201 20.733L11.9001 19.513L19.6781 11.735L21.6051 13.662C21.7925 13.8496 22.0469 13.9549 22.3121 13.955H25.3841C26.5294 13.9535 27.6636 14.1799 28.7206 14.6209C29.7777 15.062 30.7364 15.7089 31.5411 16.524L35.7151 20.3C35.8063 20.391 35.8784 20.4992 35.9274 20.6183C35.9763 20.7375 36.001 20.8652 36.0001 20.994C35.9988 21.2594 35.8932 21.5136 35.7061 21.7018C35.519 21.89 35.2654 21.9971 35.0001 22C34.8678 22 34.7369 21.9734 34.6151 21.9219C34.4933 21.8704 34.3831 21.7949 34.2911 21.7L30.7141 18.294L30.6991 18.279C30.6538 18.2448 30.6056 18.2147 30.5551 18.189C30.4981 18.1446 30.4368 18.1061 30.3721 18.074C30.319 18.0592 30.2648 18.0488 30.2101 18.043C30.1372 18.0206 30.0621 18.0062 29.9861 18C29.9306 18.0062 29.8758 18.0169 29.8221 18.032C29.7506 18.0397 29.6802 18.0552 29.6121 18.078C29.5594 18.1072 29.5093 18.1407 29.4621 18.178C29.4008 18.2101 29.3431 18.2487 29.2901 18.293L18.5421 29.119L16.0661 26.506ZM46.8801 20.733C46.7311 20.8822 46.6331 21.0747 46.6001 21.283C46.2879 23.2623 45.355 25.0912 43.9361 26.506L32.7261 37.715C32.5423 37.898 32.2934 38.0005 32.0341 38C31.7697 37.9971 31.517 37.8909 31.3301 37.7039C31.1432 37.517 31.0369 37.2643 31.0341 37C31.0327 36.8711 31.0572 36.7433 31.1062 36.6241C31.1551 36.5049 31.2275 36.3967 31.3191 36.306L31.9711 35.654C32.076 35.546 32.1547 35.4153 32.2011 35.272L34.7151 32.758C34.8106 32.6658 34.8867 32.5554 34.9392 32.4334C34.9916 32.3114 35.0192 32.1802 35.0203 32.0474C35.0215 31.9146 34.9962 31.7829 34.9459 31.66C34.8956 31.5371 34.8213 31.4255 34.7274 31.3316C34.6336 31.2377 34.5219 31.1635 34.399 31.1132C34.2761 31.0629 34.1444 31.0376 34.0117 31.0387C33.8789 31.0399 33.7477 31.0675 33.6256 31.1199C33.5036 31.1723 33.3933 31.2485 33.3011 31.344L26.9261 37.719C26.7426 37.9018 26.4941 38.0043 26.2351 38.004C25.9706 38.0014 25.7178 37.8952 25.5308 37.7082C25.3439 37.5213 25.2377 37.2684 25.2351 37.004C25.2329 36.8742 25.257 36.7454 25.3058 36.6251C25.3546 36.5048 25.4271 36.3956 25.5191 36.304L31.8951 29.929C32.0772 29.7404 32.178 29.4878 32.1757 29.2256C32.1735 28.9634 32.0683 28.7126 31.8829 28.5272C31.6975 28.3418 31.4467 28.2366 31.1845 28.2343C30.9223 28.232 30.6697 28.3328 30.4811 28.515L24.1051 34.89C23.9213 35.073 23.6724 35.1755 23.4131 35.175C23.1487 35.1721 22.896 35.0659 22.7091 34.8789C22.5222 34.692 22.4159 34.4393 22.4131 34.175C22.4111 34.0452 22.4354 33.9163 22.4843 33.796C22.5333 33.6757 22.606 33.5666 22.6981 33.475L29.0501 27.1C29.2322 26.9114 29.333 26.6588 29.3307 26.3966C29.3284 26.1344 29.2233 25.8836 29.0379 25.6982C28.8525 25.5128 28.6017 25.4076 28.3395 25.4053C28.0773 25.403 27.8247 25.5038 27.6361 25.686L21.2611 32.062C21.1703 32.1526 21.0626 32.2244 20.944 32.2731C20.8254 32.3219 20.6983 32.3466 20.5701 32.346C20.3056 32.3434 20.0528 32.2372 19.8658 32.0502C19.6789 31.8633 19.5727 31.6104 19.5701 31.346C19.5685 31.2159 19.5931 31.0869 19.6426 30.9666C19.6921 30.8463 19.7654 30.7373 19.8581 30.646L30.0201 20.4L32.8871 23.129C33.163 23.4064 33.4912 23.6262 33.8527 23.7757C34.2142 23.9252 34.6018 24.0015 34.9931 24H35.0051C35.7983 23.9937 36.5572 23.6755 37.1176 23.1141C37.6781 22.5527 37.9951 21.7933 38.0001 21C38.0014 20.5989 37.9217 20.2016 37.7659 19.832C37.61 19.4624 37.3812 19.1281 37.0931 18.849L32.9201 15.076C32.635 14.7949 32.3345 14.5298 32.0201 14.282C32.8654 14.0587 33.7367 13.9487 34.6111 13.955H37.6831C37.9482 13.9549 38.2026 13.8496 38.3901 13.662L40.3171 11.735L48.1001 19.513L46.8801 20.733ZM51.0001 19.584L40.4111 9L46.9271 2.421L57.5271 13.021L51.0001 19.584Z" fill="black"/>
</svg>
