<svg width="24" height="24" viewBox="0 0 24 24" fill="none" xmlns="http://www.w3.org/2000/svg">
<path d="M19.9876 21C17.6478 21 15.4466 20.5575 13.384 19.6725C11.3214 18.7875 9.52152 17.5761 7.98446 16.0383C6.4474 14.5011 5.23251 12.7011 4.33979 10.6383C3.44707 8.5755 3.00101 6.3672 3.00161 4.0134C2.98661 3.7434 3.0766 3.507 3.27158 3.3042C3.46657 3.1014 3.70654 3 3.99152 3H7.5012C7.77118 3 8.00366 3.1014 8.19864 3.3042C8.39363 3.507 8.49112 3.7506 8.49112 4.035C8.49112 4.695 8.53611 5.3175 8.6261 5.9025C8.7161 6.4875 8.85858 7.0425 9.05357 7.5675C9.12856 7.7325 9.14356 7.9011 9.09856 8.0733C9.05357 8.2455 8.96357 8.4069 8.82859 8.5575L6.57879 10.8075C7.22373 12.1275 8.13865 13.38 9.32354 14.565C10.5084 15.75 11.7833 16.695 13.1482 17.4L15.398 15.15C15.533 15.015 15.6905 14.925 15.8705 14.88C16.0504 14.835 16.2304 14.85 16.4104 14.925C16.9654 15.105 17.5392 15.2439 18.132 15.3417C18.7247 15.4395 19.3357 15.4881 19.9651 15.4875C20.2501 15.4875 20.4939 15.5925 20.6967 15.8025C20.8995 16.0125 21.0006 16.2675 21 16.5675V20.01C21 20.28 20.9025 20.5125 20.7075 20.7075C20.5125 20.9025 20.2726 21 19.9876 21ZM14.8131 18.3C15.488 18.555 16.1929 18.7575 16.9279 18.9075C17.6628 19.0575 18.4202 19.155 19.2002 19.2V17.265C18.7352 17.235 18.2588 17.1825 17.7711 17.1075C17.2833 17.0325 16.7998 16.92 16.3204 16.77L14.8131 18.3ZM19.2002 12C19.2002 9.99 18.5027 8.2875 17.1078 6.8925C15.713 5.4975 14.0106 4.8 12.0008 4.8V3C13.2457 3 14.4156 3.2364 15.5105 3.7092C16.6054 4.182 17.5578 4.8231 18.3677 5.6325C19.1777 6.4425 19.819 7.395 20.2918 8.49C20.7645 9.585 21.0006 10.755 21 12H19.2002ZM15.6005 12C15.6005 11.01 15.248 10.1625 14.5431 9.4575C13.8381 8.7525 12.9907 8.4 12.0008 8.4V6.6C13.5007 6.6 14.7756 7.125 15.8255 8.175C16.8754 9.225 17.4003 10.5 17.4003 12H15.6005ZM5.70137 9.1425L7.18623 7.635C7.06624 7.2 6.96485 6.7425 6.88206 6.2625C6.79927 5.7825 6.74317 5.295 6.71378 4.8H4.82394C4.85394 5.52 4.94393 6.24 5.09392 6.96C5.24391 7.68 5.44639 8.4075 5.70137 9.1425Z" fill="white"/>
</svg>
