<svg width="42" height="43" viewBox="0 0 42 43" fill="none" xmlns="http://www.w3.org/2000/svg">
<path d="M30.7626 32.9492C27.9029 32.9492 25.2125 32.4084 22.6915 31.3267C20.1706 30.2451 17.9708 28.7645 16.0921 26.8849C14.2135 25.0061 12.7286 22.8061 11.6375 20.2849C10.5464 17.7637 10.0012 15.0647 10.002 12.1878C9.98363 11.8578 10.0936 11.5689 10.3319 11.321C10.5702 11.0732 10.8636 10.9492 11.2119 10.9492H15.5015C15.8314 10.9492 16.1156 11.0732 16.3539 11.321C16.5922 11.5689 16.7114 11.8666 16.7114 12.2142C16.7114 13.0209 16.7664 13.7817 16.8763 14.4967C16.9863 15.2117 17.1605 15.8901 17.3988 16.5317C17.4905 16.7334 17.5088 16.9395 17.4538 17.1499C17.3988 17.3604 17.2888 17.5577 17.1238 17.7417L14.3741 20.4917C15.1623 22.1051 16.2806 23.6359 17.7288 25.0842C19.177 26.5326 20.7352 27.6876 22.4034 28.5492L25.1531 25.7992C25.3181 25.6342 25.5106 25.5242 25.7306 25.4692C25.9505 25.4142 26.1705 25.4326 26.3905 25.5242C27.0688 25.7442 27.7701 25.914 28.4946 26.0335C29.2191 26.1531 29.9659 26.2125 30.7351 26.2117C31.0834 26.2117 31.3815 26.3401 31.6293 26.5967C31.8772 26.8534 32.0007 27.1651 32 27.5317V31.7392C32 32.0692 31.8808 32.3534 31.6425 32.5917C31.4042 32.8301 31.1109 32.9492 30.7626 32.9492ZM24.4382 29.6492C25.2631 29.9609 26.1247 30.2084 27.0229 30.3917C27.9212 30.5751 28.8469 30.6942 29.8002 30.7492V28.3842C29.2319 28.3476 28.6497 28.2834 28.0535 28.1917C27.4574 28.1001 26.8664 27.9626 26.2805 27.7792L24.4382 29.6492ZM29.8002 21.9492C29.8002 19.4926 28.9478 17.4117 27.2429 15.7067C25.5381 14.0017 23.4574 13.1492 21.001 13.1492V10.9492C22.5225 10.9492 23.9524 11.2382 25.2906 11.816C26.6288 12.3939 27.7929 13.1775 28.7828 14.1667C29.7727 15.1567 30.5566 16.3209 31.1344 17.6592C31.7122 18.9976 32.0007 20.4276 32 21.9492H29.8002ZM25.4006 21.9492C25.4006 20.7392 24.9698 19.7034 24.1082 18.8417C23.2466 17.9801 22.2109 17.5492 21.001 17.5492V15.3492C22.8341 15.3492 24.3923 15.9909 25.6756 17.2742C26.9588 18.5576 27.6004 20.1159 27.6004 21.9492H25.4006ZM13.3017 18.4567L15.1165 16.6142C14.9699 16.0826 14.8459 15.5234 14.7447 14.9367C14.6435 14.3501 14.575 13.7542 14.5391 13.1492H12.2293C12.2659 14.0292 12.3759 14.9092 12.5592 15.7892C12.7426 16.6692 12.99 17.5584 13.3017 18.4567Z" fill="white"/>
</svg>
