<svg width="85" height="85" viewBox="0 0 85 85" fill="none" xmlns="http://www.w3.org/2000/svg">
<path d="M61.0244 53.4512H73.3086V43.9754H61.0244V53.4512Z" fill="#EBEBEB"/>
<path d="M61.9021 52.623H63.3828V50.9502H61.9021V52.623Z" fill="#425252"/>
<path d="M69.5617 44H68.166V46.0213H69.5617V44Z" fill="#FAFAFA"/>
<path d="M69.5617 51.4023H68.166V53.4236H69.5617V51.4023Z" fill="#FAFAFA"/>
<path d="M64.0899 53.5162C64.0678 53.5162 64.0508 51.432 64.0508 48.8616C64.0508 46.2912 64.0678 44.207 64.0899 44.207C64.112 44.207 64.129 46.2912 64.129 48.8616C64.129 51.432 64.112 53.5162 64.0899 53.5162Z" fill="#E0E0E0"/>
<path d="M56.0153 69.7676H77.2109V53.4187H56.0153V69.7676Z" fill="#EBEBEB"/>
<path d="M57.5306 68.3418H60.084V65.4552H57.5306V68.3418Z" fill="#425252"/>
<path d="M70.7431 53.4629H68.3359V56.9513H70.7431V53.4629Z" fill="#FAFAFA"/>
<path d="M70.7431 66.2305H68.3359V69.7189H70.7431V66.2305Z" fill="#FAFAFA"/>
<path d="M61.3063 69.88C61.2689 69.88 61.2383 66.2845 61.2383 61.8492C61.2383 57.4139 61.2689 53.8184 61.3063 53.8184C61.3437 53.8184 61.3726 57.4139 61.3726 61.8492C61.3726 66.2845 61.3437 69.88 61.3063 69.88Z" fill="#E0E0E0"/>
<path d="M76.537 19.416L77.6726 21.7161L80.2107 22.085L78.3747 23.8768L78.8082 26.4047L76.537 25.2113L74.2658 26.4047L74.6993 23.8768L72.8633 22.085L75.4014 21.7161L76.537 19.416Z" fill="#EBEBEB"/>
<path d="M8.92673 49.125L9.64243 50.5751L11.2421 50.8063L10.0844 51.9351L10.3581 53.5297L8.92673 52.7766L7.49533 53.5297L7.76903 51.9351L6.61133 50.8063L8.21103 50.5751L8.92673 49.125Z" fill="#EBEBEB"/>
<path d="M9.81438 36.4922L11.4039 39.712L14.9569 40.2288L12.3865 42.7346L12.9934 46.274L9.81438 44.6029L6.63708 46.274L7.24398 42.7346L4.67188 40.2288L8.22488 39.712L9.81438 36.4922Z" fill="#EBEBEB"/>
<path d="M75.5254 29.8047L76.2105 31.1936L77.7422 31.4163L76.6338 32.4958L76.8956 34.0207L75.5254 33.3016L74.1552 34.0207L74.417 32.4958L73.3086 31.4163L74.8403 31.1936L75.5254 29.8047Z" fill="#EBEBEB"/>
<path d="M53.0488 7.32227L53.7339 8.70947L55.2656 8.93217L54.1572 10.0134L54.419 11.5383L53.0488 10.8175L51.6786 11.5383L51.9404 10.0134L50.832 8.93217L52.3637 8.70947L53.0488 7.32227Z" fill="#EBEBEB"/>
<path d="M68.7177 22.1699L69.1665 23.0777L70.1695 23.2239L69.4436 23.9311L69.6153 24.929L68.7177 24.4581L67.8218 24.929L67.9935 23.9311L67.2676 23.2239L68.2706 23.0777L68.7177 22.1699Z" fill="#EBEBEB"/>
<path d="M27.3567 68.0195L28.2305 69.7875L30.1821 70.0714L28.7694 71.4484L29.1043 73.3932L27.3567 72.4752L25.6107 73.3932L25.944 71.4484L24.5312 70.0714L26.4845 69.7875L27.3567 68.0195Z" fill="#EBEBEB"/>
<path d="M29.662 66.2598L30.0224 66.9908L30.8299 67.1081L30.2451 67.6776L30.3828 68.4817L29.662 68.1009L28.9412 68.4817L29.0789 67.6776L28.4941 67.1081L29.3016 66.9908L29.662 66.2598Z" fill="#EBEBEB"/>
<path d="M61.9017 59.4863L62.6701 61.0418L64.3871 61.2917L63.1444 62.5021L63.4385 64.2123L61.9017 63.4048L60.3666 64.2123L60.6607 62.5021L59.418 61.2917L61.135 61.0418L61.9017 59.4863Z" fill="#FF725E"/>
<path d="M65.5658 58.1074L65.9279 58.8401L66.7354 58.9574L66.1506 59.5286L66.2883 60.3344L65.5658 59.9536L64.8416 60.3344L64.981 59.5286L64.3945 58.9574L65.2037 58.8401L65.5658 58.1074Z" fill="#FF725E"/>
<path d="M60.766 17.6216L61.3712 15.7414C60.7944 14.5799 60.6193 13.2598 60.8732 11.9881C61.1271 10.7163 61.7957 9.56471 62.7742 8.71367C63.7527 7.86263 64.986 7.36024 66.2806 7.28521C67.5753 7.21018 68.8583 7.56674 69.9286 8.29903C70.9989 9.03133 71.7961 10.098 72.1952 11.3319C72.5943 12.5658 72.5728 13.8972 72.1341 15.1176C71.6954 16.338 70.8642 17.3784 69.7709 18.0758C68.6775 18.7732 67.3837 19.0882 66.0921 18.9714C64.8318 18.8856 63.6393 18.3694 62.7142 17.5094L60.766 17.6216Z" fill="#FAFAFA"/>
<path d="M60.7658 17.622L60.895 17.6118L61.2707 17.5846L62.714 17.486C63.4294 18.1477 64.3106 18.6035 65.264 18.8052C65.5583 18.8707 65.8573 18.9133 66.1582 18.9327L66.6342 18.9514C66.794 18.9514 66.9589 18.9327 67.1238 18.9242C68.6151 18.7889 69.997 18.0846 70.9828 16.9573C71.5383 16.3312 71.9508 15.5916 72.1915 14.7898C72.4381 13.9332 72.4881 13.0318 72.3377 12.1531C72.3003 11.9272 72.2481 11.7041 72.1813 11.485C72.1511 11.3741 72.1142 11.2651 72.0708 11.1586C72.0283 11.0498 71.9909 10.941 71.945 10.8339C71.7556 10.4016 71.516 9.99303 71.231 9.61675C71.089 9.42917 70.9351 9.25088 70.7703 9.08295C70.6903 8.99732 70.6052 8.9167 70.5153 8.84155C70.4286 8.76505 70.3453 8.68175 70.2535 8.61205L69.9747 8.40465L69.8353 8.30265L69.6857 8.21425L69.3916 8.04425C69.2913 7.98815 69.1859 7.94565 69.0839 7.89465C68.3026 7.52489 67.4483 7.33509 66.5839 7.33921C65.7195 7.34332 64.867 7.54126 64.0893 7.91845C62.7416 8.56569 61.695 9.70723 61.167 11.1059C61.1381 11.1841 61.1109 11.2623 61.0837 11.3388C61.0529 11.4143 61.0285 11.4922 61.0106 11.5717C60.9715 11.7281 60.9341 11.8828 60.8967 12.0341C60.8451 12.3306 60.8099 12.6297 60.7913 12.93C60.7532 13.9016 60.9577 14.8674 61.3863 15.7401L60.9307 17.1307L60.81 17.4911C60.7828 17.5727 60.7675 17.6152 60.7675 17.6152C60.7675 17.6152 60.7777 17.5761 60.8032 17.4962L60.912 17.1392L61.3489 15.7299V15.7435C60.9089 14.8692 60.6961 13.8981 60.7301 12.9198C60.746 12.6161 60.7795 12.3136 60.8304 12.0137C60.8678 11.8607 60.9069 11.7043 60.9443 11.5462C60.9624 11.4659 60.9862 11.3869 61.0157 11.3099C61.0446 11.2317 61.0718 11.1535 61.1007 11.0736C61.3846 10.311 61.8237 9.61568 62.3903 9.03159C62.9569 8.44751 63.6386 7.98741 64.3922 7.68043C65.1458 7.37346 65.955 7.22628 66.7684 7.24823C67.5819 7.27018 68.3819 7.46078 69.1179 7.80795C69.2216 7.85725 69.3287 7.90145 69.4307 7.95925L69.7299 8.13775L69.8795 8.22785L70.0223 8.33155L70.3045 8.54065C70.398 8.61375 70.483 8.69705 70.5714 8.77355C70.662 8.8503 70.7483 8.93202 70.8298 9.01835C70.9969 9.18971 71.153 9.3714 71.2973 9.56235C71.5878 9.94078 71.8326 10.3522 72.0266 10.788C72.0725 10.8968 72.1099 11.009 72.1524 11.1178C72.1975 11.2287 72.2355 11.3422 72.2663 11.4578C72.3335 11.6808 72.3858 11.9079 72.4227 12.1378C72.5762 13.0296 72.5251 13.9446 72.2731 14.8136C72.0316 15.6306 71.6145 16.3849 71.0508 17.0236C70.05 18.1615 68.6502 18.8712 67.1408 19.0058C66.9708 19.0058 66.8008 19.0296 66.6444 19.0296L66.1633 19.0092C65.8595 18.988 65.5577 18.9437 65.2606 18.8766C64.3036 18.6671 63.4219 18.2004 62.7106 17.5268H62.7242L61.2673 17.6033L60.8967 17.6203C60.8066 17.622 60.7658 17.622 60.7658 17.622Z" fill="#263238"/>
<path d="M63.293 12.9203L64.2569 12.0839L65.8804 13.7516L69.5218 10.7188L70.2919 11.6792L65.6271 15.4771L63.293 12.9203Z" fill="#FF725E"/>
<path d="M50.6774 59.4135L18.0781 66.6793C17.8895 66.7224 17.6941 66.7278 17.5033 66.6951C17.3126 66.6624 17.1302 66.5923 16.9666 66.4888C16.8031 66.3853 16.6616 66.2504 16.5504 66.092C16.4392 65.9336 16.3604 65.7547 16.3186 65.5658L5.74635 18.0933C5.70423 17.9052 5.69964 17.7106 5.73283 17.5207C5.76602 17.3308 5.83635 17.1494 5.93979 16.9867C6.04322 16.8241 6.17773 16.6834 6.33561 16.5728C6.49349 16.4622 6.67164 16.3839 6.85985 16.3423L39.4591 9.07645C39.6473 9.03432 39.8419 9.02971 40.0319 9.06288C40.2219 9.09606 40.4035 9.16636 40.5663 9.26979C40.7291 9.37321 40.8699 9.50771 40.9806 9.66561C41.0914 9.8235 41.1699 10.0017 41.2118 10.19L51.7909 57.6625C51.833 57.8506 51.8376 58.0451 51.8044 58.235C51.7712 58.4249 51.7008 58.6063 51.5974 58.769C51.494 58.9316 51.3595 59.0723 51.2016 59.1829C51.0437 59.2935 50.8656 59.3718 50.6774 59.4135Z" fill="#E0E0E0"/>
<path d="M50.678 59.4131L50.7868 59.3825C50.8925 59.348 50.9945 59.303 51.0911 59.2482C51.2497 59.1549 51.3897 59.0334 51.5042 58.8895C51.6603 58.6922 51.7628 58.458 51.8017 58.2095C51.8264 58.0592 51.8264 57.9059 51.8017 57.7556C51.7745 57.5975 51.732 57.4309 51.6946 57.2575C51.6164 56.9175 51.5246 56.5299 51.4396 56.1185C51.2549 55.2945 51.0424 54.3465 50.8021 53.2744C49.845 48.9955 48.4612 42.8041 46.751 35.1524C45.901 31.3274 44.9626 27.1369 43.9579 22.637C43.457 20.3884 42.9385 18.0651 42.4024 15.667C42.1361 14.4679 41.8652 13.2524 41.5898 12.0205C41.4504 11.4051 41.3127 10.7846 41.1716 10.1607C41.095 9.84969 40.9161 9.57351 40.6635 9.37649C40.411 9.17948 40.0996 9.07307 39.7793 9.07437C39.6196 9.07791 39.461 9.10074 39.3067 9.14237L38.8307 9.24777L37.8736 9.46197L35.9424 9.89207L32.012 10.7693L23.9132 12.5798L6.87245 16.3742C6.51224 16.454 6.19663 16.6695 5.99117 16.976C5.78572 17.2824 5.7062 17.6562 5.76915 18.0198C5.92385 18.7423 6.09045 19.4665 6.24855 20.1873C6.57041 21.6266 6.88945 23.0574 7.20565 24.4798L9.07565 32.8795C10.303 38.3858 11.4862 43.6898 12.6133 48.7558C13.7404 53.8218 14.8097 58.6158 15.8127 63.1225C15.9374 63.6891 16.0615 64.2467 16.185 64.7953C16.2479 65.0707 16.304 65.3495 16.3703 65.6198C16.4418 65.886 16.5881 66.1261 16.7919 66.3117C16.9945 66.4945 17.2442 66.617 17.5127 66.6653C17.6459 66.687 17.7814 66.691 17.9156 66.6772C18.0482 66.6602 18.1825 66.6279 18.3151 66.5973L19.8978 66.2454L25.9039 64.9092L44.0293 60.8819L48.9593 59.7905L50.2411 59.5083L50.678 59.4131L50.2428 59.5151L48.961 59.8041L44.031 60.9074L25.909 64.9585L19.9097 66.2998L18.327 66.6534C18.1944 66.6823 18.0618 66.7163 17.9224 66.735C17.7831 66.7492 17.6424 66.7446 17.5042 66.7214C17.223 66.6725 16.9615 66.5443 16.7507 66.3519C16.5399 66.1594 16.3885 65.9107 16.3142 65.6351C16.2462 65.3614 16.1901 65.086 16.1272 64.8106C16.0037 64.2586 15.879 63.701 15.7532 63.1378C14.7502 58.6379 13.6775 53.8303 12.5487 48.7711C11.4199 43.7119 10.2367 38.4011 9.00765 32.8948L7.13765 24.4968C6.82145 23.0756 6.50241 21.6436 6.18055 20.2009C6.02075 19.4801 5.85585 18.7593 5.69945 18.03C5.63401 17.6491 5.71778 17.2577 5.93336 16.937C6.14895 16.6163 6.47978 16.391 6.85715 16.3079L23.8996 12.5084L32.0035 10.7098L35.9322 9.83427L37.8634 9.40417L38.8222 9.17977L39.2982 9.07437C39.4554 9.03362 39.617 9.01193 39.7793 9.00977C40.1112 9.01054 40.4333 9.12173 40.6949 9.3258C40.9565 9.52988 41.1428 9.81523 41.2243 10.1369C41.3637 10.7625 41.5031 11.3813 41.6408 11.9984C41.9185 13.2314 42.1916 14.4452 42.4602 15.6398C42.9918 18.0368 43.5091 20.3601 44.0123 22.6098C45.0136 27.1097 45.9452 31.3002 46.7969 35.1269C48.4969 42.7769 49.8739 48.9734 50.8259 53.254C51.0622 54.3233 51.273 55.2753 51.4566 56.0981C51.5467 56.5112 51.6266 56.8903 51.7082 57.2388C51.7456 57.4088 51.7881 57.5788 51.8136 57.7369C51.8391 57.8888 51.8391 58.0439 51.8136 58.1959C51.7749 58.4489 51.6706 58.6875 51.511 58.8878C51.395 59.0315 51.2539 59.153 51.0945 59.2465C50.9966 59.3015 50.8928 59.3454 50.7851 59.3774L50.678 59.4131Z" fill="#263238"/>
<g opacity="0.3">
<path d="M19.731 64.9979L49.4334 58.2081L48.495 52.3873L46.8103 49.125L18.3965 60.2855L19.731 64.9979Z" fill="black"/>
</g>
<g opacity="0.3">
<path d="M32.1328 10.8164L33.2565 12.6711L33.4741 13.6554L32.7125 13.8254L32.1328 10.8164Z" fill="black"/>
</g>
<path d="M7.43945 18.3675L17.7448 64.6075L50.0465 57.4097L48.2037 49.1409L39.7411 11.168L7.43945 18.3675Z" fill="#425252"/>
<path d="M7.4392 18.3673L39.7392 11.1406H39.7664V11.1695C42.6326 24.0198 46.2077 40.0559 50.0769 57.4095V57.4452H50.0429L17.7429 64.6413H17.7123V64.609C11.645 37.3036 7.5004 18.6444 7.4375 18.369C7.5004 18.6512 11.6722 37.3053 17.7752 64.609L17.7361 64.5852L50.0361 57.3823L50.0089 57.4248C46.1448 40.0746 42.5731 24.0385 39.712 11.1848L39.746 11.2069L7.4392 18.3673Z" fill="#263238"/>
<path d="M16.5341 12.8668L30.7794 9.69307C31.0579 9.63101 31.3498 9.68215 31.5906 9.83524C31.8315 9.98833 32.0017 10.2308 32.0637 10.5094L32.8867 14.203L16.5374 17.8456L15.7152 14.1552C15.6839 14.0168 15.6803 13.8736 15.7046 13.7338C15.7289 13.594 15.7805 13.4604 15.8566 13.3407C15.9328 13.2209 16.0318 13.1174 16.1481 13.0361C16.2643 12.9548 16.3956 12.8972 16.5341 12.8668Z" fill="#263238"/>
<path d="M25.3415 9.03516L21.1816 9.96166L22.4617 13.4195L25.5948 12.7208L25.3415 9.03516Z" fill="#263238"/>
<path d="M30.7795 9.68965C30.7795 9.70835 27.5988 10.4343 23.6667 11.3115C19.7346 12.1887 16.5403 12.8873 16.5352 12.8686C16.5301 12.8499 19.7159 12.1241 23.6514 11.2469C27.5869 10.3697 30.7693 9.67605 30.7795 9.68965Z" fill="#455A64"/>
<path d="M16.7368 16.9993C16.7181 16.9993 16.5532 16.3363 16.3696 15.5101C16.186 14.6839 16.05 14.009 16.0704 14.0039C16.0908 13.9988 16.254 14.6669 16.4376 15.4948C16.6212 16.3227 16.7555 16.9993 16.7368 16.9993Z" fill="#455A64"/>
<path d="M32.1066 13.1985C31.9701 12.7513 31.8566 12.2974 31.7666 11.8385C31.6541 11.39 31.5645 10.9361 31.498 10.4785C31.6343 10.9229 31.7478 11.374 31.838 11.83C31.9508 12.2813 32.0405 12.7381 32.1066 13.1985Z" fill="#455A64"/>
<path d="M31.4599 14.0062C31.4599 14.0249 28.1942 14.7695 24.1584 15.6688C20.1226 16.5681 16.8484 17.2838 16.8399 17.2634C16.8314 17.243 20.1039 16.5001 24.1499 15.6008C28.1959 14.7015 31.4497 13.9875 31.4599 14.0062Z" fill="#455A64"/>
<path d="M22.8563 27.4556C22.8563 27.476 20.6548 27.9826 17.9263 28.5912C15.1978 29.1998 12.9963 29.6741 12.9844 29.6554C12.9725 29.6367 15.1944 29.1284 17.9144 28.5215C20.6344 27.9146 22.8512 27.4369 22.8563 27.4556Z" fill="#263238"/>
<path d="M39.296 25.6057C39.296 25.6261 33.5381 26.9266 26.427 28.511C19.3159 30.0954 13.5444 31.3653 13.541 31.3466C13.5376 31.3279 19.2972 30.0257 26.4117 28.4413C33.5262 26.8569 39.2926 25.587 39.296 25.6057Z" fill="#263238"/>
<path d="M39.6512 27.1995C39.6512 27.2182 33.8916 28.5187 26.7805 30.1048C19.6694 31.6909 13.8996 32.9591 13.8945 32.9387C13.8894 32.9183 19.6524 31.6195 26.7652 30.0351C33.878 28.4507 39.6461 27.1757 39.6512 27.1995Z" fill="#263238"/>
<path d="M40.0048 28.7834C40.0048 28.8021 34.2469 30.1026 27.1358 31.687C20.0247 33.2714 14.2532 34.543 14.2481 34.5226C14.243 34.5022 20.006 33.2034 27.1205 31.6173C34.235 30.0312 39.9997 28.7647 40.0048 28.7834Z" fill="#263238"/>
<path d="M40.3585 30.3733C40.3585 30.392 34.6006 31.6925 27.4895 33.2769C20.3784 34.8613 14.6069 36.1312 14.6035 36.1125C14.6001 36.0938 20.3597 34.7933 27.4742 33.2072C34.5887 31.6211 40.3551 30.3529 40.3585 30.3733Z" fill="#263238"/>
<path d="M40.714 31.9592C40.714 31.9796 34.9544 33.2801 27.8433 34.8645C20.7322 36.4489 14.959 37.7205 14.959 37.7018C14.959 37.6831 20.7169 36.3826 27.8297 34.7965C34.9425 33.2104 40.7089 31.9422 40.714 31.9592Z" fill="#263238"/>
<path d="M19.9531 43.1482C19.9462 43.1312 19.941 43.1135 19.9378 43.0955L19.9004 42.9442C19.8681 42.8065 19.8222 42.6144 19.7661 42.3747C19.6522 41.8834 19.4924 41.1932 19.302 40.367L19.3394 40.3908L16.5514 41.0164C16.5514 41.0164 16.6024 40.9365 16.5786 40.9739V40.9858V41.0096L16.5888 41.0572L16.6109 41.1524L16.6517 41.3411C16.6806 41.4669 16.7078 41.591 16.735 41.7151C16.7894 41.9599 16.8438 42.2013 16.8948 42.4359C16.9985 42.9034 17.0954 43.3454 17.1855 43.7517L17.1481 43.7279L19.1626 43.2944L19.7355 43.1754L19.8885 43.1465L19.9429 43.1363C19.9429 43.1363 19.9293 43.1363 19.8953 43.1516L19.7508 43.1873L19.1898 43.3199L17.1702 43.801H17.1396V43.7704L16.8438 42.4563C16.7911 42.2217 16.7367 41.9803 16.6738 41.7355C16.6466 41.6114 16.6177 41.4873 16.5905 41.3615C16.5752 41.3003 16.5616 41.2357 16.548 41.1728L16.5259 41.0776L16.5157 41.03V41.0062V40.9943V40.9858C16.4919 41.0249 16.548 40.9348 16.5429 40.9433L19.3326 40.3262H19.3632V40.3568L19.8018 42.3968C19.8511 42.6348 19.8902 42.8252 19.9191 42.9612C19.931 43.0224 19.9395 43.07 19.948 43.1091C19.9514 43.1218 19.9531 43.135 19.9531 43.1482Z" fill="#263238"/>
<path d="M40.6751 36.274L21.2246 40.6074L21.5862 42.2302L41.0367 37.8968L40.6751 36.274Z" fill="#E0E0E0"/>
<path d="M21.0299 47.9866C21.0235 47.9688 21.0184 47.9506 21.0146 47.9322C21.0044 47.8931 20.9925 47.8421 20.9772 47.7809C20.9449 47.6432 20.899 47.4528 20.8429 47.2131C20.729 46.7201 20.5692 46.0231 20.3788 45.2037L20.4162 45.2275L17.6282 45.8531C17.6282 45.8633 17.6792 45.7732 17.6554 45.8123V45.8208V45.8327V45.8565L17.6656 45.9041L17.6877 45.9993C17.7013 46.0639 17.7149 46.1268 17.7302 46.1897L17.8118 46.562C17.8662 46.8085 17.9206 47.0482 17.9716 47.2828C18.0753 47.7503 18.1722 48.1923 18.2623 48.5986L18.2249 48.5748L20.2411 48.143L20.8123 48.024L20.9653 47.9934C20.983 47.9884 21.0013 47.9856 21.0197 47.9849L20.9738 47.9985L20.8276 48.0342L20.2666 48.1685L18.2385 48.636H18.2079V48.6054L17.9121 47.2913C17.8594 47.0567 17.805 46.8153 17.7421 46.5705C17.7149 46.4481 17.686 46.3223 17.6588 46.1982C17.6452 46.1353 17.6299 46.0724 17.6163 46.0078L17.5942 45.9126L17.584 45.865V45.8412V45.8208L17.6112 45.7766L20.3992 45.168H20.4298V45.1969C20.61 46.035 20.7698 46.7269 20.8684 47.2369C20.9177 47.4749 20.9568 47.6653 20.9857 47.8013C20.9976 47.8625 21.0061 47.9101 21.0146 47.9492C21.0213 47.9609 21.0264 47.9735 21.0299 47.9866Z" fill="#263238"/>
<path d="M41.7532 41.1119L22.3027 45.4453L22.6643 47.0681L42.1148 42.7347L41.7532 41.1119Z" fill="#E0E0E0"/>
<path d="M22.107 52.822C22.107 52.822 22.107 52.8016 22.0917 52.7676C22.0764 52.7336 22.0696 52.6775 22.0543 52.6163C22.022 52.4786 21.9761 52.2882 21.92 52.0485C21.8061 51.5572 21.6463 50.8585 21.4559 50.0391L21.4933 50.0629L18.6985 50.6885C18.6985 50.6987 18.7495 50.6086 18.7257 50.6477V50.6596V50.6715V50.6953L18.7359 50.7429L18.758 50.8381C18.7716 50.9027 18.7852 50.9656 18.8005 51.0285L18.8821 51.4008C18.9365 51.6473 18.9909 51.887 19.0419 52.1216L19.3326 53.4374L19.2952 53.4153L21.3114 52.9818L21.8826 52.8628L22.0356 52.8322C22.0537 52.8302 22.072 52.8302 22.09 52.8322L22.0441 52.8458L21.8979 52.8815L21.3369 53.0158L19.3088 53.4833H19.2782V53.4527C19.1881 53.0481 19.0878 52.6027 18.9824 52.1386C18.9297 51.904 18.8753 51.6643 18.8124 51.4178C18.7852 51.2954 18.7563 51.1713 18.7291 51.0455C18.7155 50.9826 18.7002 50.9197 18.6866 50.8568L18.6662 50.7616L18.6543 50.714V50.6885V50.6596C18.6305 50.697 18.6866 50.6069 18.6815 50.6171L21.4712 50H21.5018V50.0306L21.9404 52.0706C21.9897 52.3086 22.0288 52.499 22.0577 52.6367C22.0696 52.6962 22.0798 52.7438 22.0866 52.7829C22.0952 52.7949 22.1021 52.8081 22.107 52.822Z" fill="#263238"/>
<path d="M42.8314 45.9517L23.3809 50.2852L23.7424 51.908L43.1929 47.5745L42.8314 45.9517Z" fill="#E0E0E0"/>
<path d="M17.2734 42.1487L17.5658 41.688L18.4345 42.1708L19.5531 40.4844L19.9849 40.7836L18.5433 42.9086L17.2734 42.1487Z" fill="#FF725E"/>
<path d="M18.3145 46.8245L18.6069 46.3638L19.4756 46.8466L20.5925 45.1602L21.026 45.4594L19.5827 47.5827L18.3145 46.8245Z" fill="#FF725E"/>
<path d="M19.3848 51.6177L19.6772 51.1587L20.5442 51.6415L21.6628 49.9551L22.0946 50.2526L20.653 52.3776L19.3848 51.6177Z" fill="#FF725E"/>
<path d="M28.2883 57.6295C28.2883 57.6499 26.6495 58.0324 24.6197 58.4795C22.5899 58.9266 20.9409 59.2819 20.9375 59.2632C20.9341 59.2445 22.5746 58.862 24.6044 58.4132C26.6342 57.9644 28.2832 57.6125 28.2883 57.6295Z" fill="#263238"/>
<path d="M31.95 56.7558C31.5063 56.8925 31.0558 57.006 30.6002 57.0958C30.1516 57.2074 29.6977 57.2965 29.2402 57.3627C29.6835 57.2264 30.1334 57.1129 30.5883 57.0227C31.3346 56.8578 31.9466 56.7371 31.95 56.7558Z" fill="#263238"/>
<path d="M44.0776 52.9402C44.0776 52.9589 42.6037 53.3058 40.7779 53.7121C38.9521 54.1184 37.4663 54.4328 37.4629 54.4141C37.4595 54.3954 38.9351 54.0504 40.7626 53.6424C42.5901 53.2344 44.0742 52.9215 44.0776 52.9402Z" fill="#263238"/>
<path d="M42.4999 57.413C42.4999 57.413 42.5152 57.3671 42.5322 57.2787C42.5547 57.1479 42.5477 57.0138 42.5118 56.886C42.4513 56.6839 42.3728 56.4876 42.2772 56.2995C42.1417 56.0499 42.0622 55.7738 42.0443 55.4903C42.0483 55.3159 42.0888 55.1442 42.1632 54.9864C42.2376 54.8286 42.3441 54.6881 42.4761 54.574C42.6307 54.4456 42.8157 54.359 43.0133 54.3224C43.2109 54.2858 43.4146 54.3004 43.6049 54.3649C43.8139 54.4285 44.0003 54.5506 44.1421 54.7168C44.2176 54.8063 44.2623 54.9178 44.2696 55.0347C44.2715 55.0976 44.2532 55.1594 44.2174 55.2111C44.1816 55.2628 44.1302 55.3017 44.0707 55.322C43.9595 55.358 43.8459 55.3858 43.7307 55.4053L43.3907 55.475C43.1629 55.5209 42.9317 55.5617 42.6937 55.5923C42.2327 55.6588 41.7648 55.6617 41.3031 55.6008C41.0945 55.5559 40.8766 55.5911 40.6928 55.6994C40.5467 55.8466 40.423 56.0144 40.3256 56.1975C40.2664 56.2877 40.1843 56.3604 40.0876 56.4083C39.9893 56.4517 39.8782 56.4566 39.7765 56.4219C39.6016 56.3441 39.4353 56.2484 39.2801 56.1363C39.2081 56.0884 39.1261 56.0576 39.0404 56.0462C38.9602 56.0373 38.8795 56.0572 38.8126 56.1023C38.695 56.2099 38.5977 56.3377 38.5253 56.4797C38.448 56.6015 38.3423 56.7028 38.2174 56.775C38.0925 56.8473 37.952 56.8882 37.8079 56.8945C37.5899 56.9032 37.3768 56.8277 37.2129 56.6837C37.1099 56.5947 37.029 56.4829 36.9766 56.3573C36.9583 56.3143 36.9451 56.2692 36.9375 56.223C36.9375 56.223 36.9528 56.2689 36.9902 56.3522C37.0453 56.4724 37.1273 56.5782 37.2299 56.6616C37.3898 56.797 37.5953 56.8663 37.8045 56.8554C37.942 56.8483 38.0757 56.808 38.1942 56.7378C38.3126 56.6676 38.4123 56.5697 38.4845 56.4525C38.5593 56.3038 38.6607 56.1702 38.7837 56.0581C38.8611 56.0043 38.955 55.9796 39.0489 55.9884C39.1419 56.0023 39.2311 56.0352 39.3107 56.0853C39.4633 56.1933 39.6262 56.2861 39.7969 56.3624C39.8843 56.3918 39.9794 56.3875 40.0638 56.3505C40.1503 56.3076 40.2228 56.2409 40.2729 56.1584C40.3739 55.9705 40.5023 55.7987 40.6537 55.6484C40.7478 55.5812 40.8581 55.5401 40.9733 55.5294C41.0863 55.5174 41.2003 55.5174 41.3133 55.5294C41.77 55.5886 42.2326 55.5857 42.6886 55.5209C42.9232 55.4903 43.1527 55.4478 43.3805 55.4036L43.7205 55.3356C43.8297 55.3154 43.9375 55.2887 44.0435 55.2557C44.0901 55.2409 44.1306 55.2113 44.1588 55.1714C44.187 55.1316 44.2015 55.0835 44.1999 55.0347C44.1922 54.9329 44.153 54.8361 44.0877 54.7576C43.9535 54.598 43.7766 54.4801 43.5777 54.4176C43.3974 54.3564 43.2045 54.342 43.0171 54.3759C42.8298 54.4098 42.6541 54.4909 42.5067 54.6114C42.38 54.7192 42.2774 54.8524 42.2053 55.0023C42.1333 55.1522 42.0935 55.3156 42.0885 55.4818C42.1038 55.7589 42.178 56.0295 42.3061 56.2757C42.4002 56.4664 42.4759 56.6657 42.5322 56.8707C42.5655 57.0021 42.5684 57.1393 42.5407 57.2719C42.5327 57.3204 42.519 57.3677 42.4999 57.413Z" fill="#263238"/>
<path d="M46.0135 55.2384C45.9849 55.2499 45.9553 55.259 45.9251 55.2656L45.6667 55.3268L44.7181 55.546C43.9191 55.733 42.8141 55.9949 41.5986 56.3026C40.3831 56.6103 39.2866 56.9078 38.4961 57.1254L37.5577 57.3837L37.301 57.4518C37.2716 57.461 37.2415 57.4678 37.2109 57.4722C37.2383 57.4572 37.2674 57.4458 37.2976 57.4382L37.5492 57.3583C37.7685 57.2886 38.0864 57.1883 38.4808 57.0778C39.2713 56.8466 40.3644 56.5423 41.5816 56.2278C42.7988 55.9133 43.9038 55.6651 44.7079 55.4934C45.1091 55.4067 45.4355 55.3387 45.6616 55.2945L45.9217 55.2452C45.9521 55.2401 45.9828 55.2378 46.0135 55.2384Z" fill="#263238"/>
<path d="M32.0704 17.9354L18.8672 20.877L19.4199 23.3576L32.623 20.416L32.0704 17.9354Z" fill="#E0E0E0"/>
<path d="M44.5605 58.1926L48.8258 80.7278L52.7239 73.5249L60.1121 77.8616L52.27 55.918L44.5605 58.1926Z" fill="#FF725E"/>
<g opacity="0.3">
<path d="M45.9963 65.7702C46.4023 65.8468 46.8209 65.8235 47.2159 65.7023C47.611 65.5812 47.9707 65.3659 48.2641 65.0749C48.6534 64.6737 48.9118 64.1263 49.4014 63.8577C49.8417 63.6163 50.384 63.6503 50.8685 63.7846C51.353 63.9189 51.8086 64.1416 52.2931 64.2674C52.7711 64.3893 53.2686 64.4147 53.7566 64.3423C54.2446 64.27 54.7133 64.1012 55.1355 63.8458L53.9047 60.4288L48.1927 59.7148L45.4727 62.9873L45.9963 65.7702Z" fill="black"/>
</g>
<path d="M52.4465 72.6314C52.4227 72.6314 51.7869 70.2956 51.027 67.4039C50.2671 64.5122 49.667 62.1594 49.6942 62.1543C49.7214 62.1492 50.3521 64.4867 51.112 67.3818C51.8719 70.2769 52.4703 72.6246 52.4465 72.6314Z" fill="#263238"/>
<path d="M45.1844 59.3644L40.9191 81.8996L37.021 74.6984L29.6328 79.0334L37.4749 57.0898L45.1844 59.3644Z" fill="#FF725E"/>
<g opacity="0.3">
<path d="M35.1289 63.6536C35.1289 63.6536 36.3427 64.6515 37.7894 64.1925C39.2361 63.7335 40.1354 63.6349 40.9191 64.1925C41.7028 64.7501 43.8227 66.564 43.8227 66.564L44.314 63.9647L41.4665 60.0547L38.4949 60.6548L36.3801 60.8605L35.593 62.3514L35.1289 63.6536Z" fill="black"/>
</g>
<path d="M70.1926 39.021C70.1926 40.6377 68.1271 42.03 67.8245 43.5583C67.5134 45.1325 68.8836 47.2082 68.2835 48.6583C67.6834 50.1084 65.2235 50.6286 64.3514 51.9393C63.4793 53.25 63.9383 55.7048 62.8214 56.8234C61.7045 57.942 59.2514 57.4711 57.9373 58.3534C56.6232 59.2357 56.1302 61.6735 54.6563 62.2855C53.2079 62.8856 51.1322 61.5154 49.5563 61.8265C48.0263 62.1291 46.6357 64.1946 45.019 64.1946C43.4023 64.1946 42.0083 62.1291 40.48 61.8265C38.9058 61.5154 36.8301 62.8856 35.38 62.2855C33.9299 61.6854 33.4114 59.2255 32.1007 58.3534C30.79 57.4813 28.3352 57.9403 27.2149 56.8234C26.0946 55.7065 26.5672 53.2534 25.6849 51.9393C24.8026 50.6252 22.3648 50.1322 21.7545 48.6583C21.1442 47.1844 22.5246 45.1342 22.2135 43.5583C21.9109 42.0283 19.8438 40.6377 19.8438 39.021C19.8438 37.4043 21.9109 36.0103 22.2135 34.482C22.5246 32.9078 21.1527 30.8321 21.7545 29.382C22.3563 27.9319 24.8145 27.4117 25.6849 26.1027C26.5553 24.7937 26.098 22.3372 27.2149 21.2169C28.3318 20.0966 30.7849 20.5692 32.1007 19.6869C33.4165 18.8046 33.9061 16.3668 35.38 15.7565C36.8539 15.1462 38.9041 16.5266 40.48 16.2155C42.01 15.9129 43.4023 13.8457 45.019 13.8457C46.6357 13.8457 48.028 15.9129 49.5563 16.2155C51.1305 16.5266 53.2062 15.1547 54.6563 15.7565C56.1302 16.3668 56.6266 18.8165 57.9373 19.6869C59.248 20.5573 61.7028 20.1 62.8214 21.2169C63.94 22.3338 63.4691 24.7869 64.3514 26.1027C65.2337 27.4185 67.6715 27.9081 68.2835 29.382C68.8955 30.8559 67.5134 32.9061 67.8245 34.482C68.1271 36.0103 70.1926 37.3992 70.1926 39.021Z" fill="#FF725E"/>
<path d="M39.1287 24.9099C39.1287 24.9099 39.11 24.8878 39.0828 24.8402C39.0556 24.7926 39.0131 24.7161 38.9672 24.6328C38.8669 24.4526 38.7292 24.1874 38.566 23.8576C38.2379 23.198 37.8129 22.2698 37.4032 21.2226C36.9935 20.1754 36.679 19.203 36.4733 18.5026C36.3713 18.1473 36.2931 17.86 36.2438 17.6526C36.2217 17.5608 36.203 17.4826 36.1894 17.4214C36.1806 17.3951 36.176 17.3676 36.1758 17.3398C36.189 17.3646 36.1992 17.3909 36.2064 17.418L36.2761 17.6441C36.3424 17.8532 36.4291 18.1354 36.5328 18.4771C36.7538 19.1792 37.0785 20.1431 37.4848 21.1971C37.8911 22.2511 38.3093 23.1708 38.6221 23.8372L38.9978 24.6243L39.0981 24.8385C39.1104 24.8614 39.1207 24.8853 39.1287 24.9099Z" fill="#263238"/>
<path d="M41.3695 24.0591C41.3397 23.9997 41.3175 23.9369 41.3032 23.8721C41.2675 23.7497 41.2199 23.5712 41.1638 23.3502C41.0516 22.9099 40.9122 22.2945 40.7864 21.6111C40.6606 20.9277 40.5722 20.3038 40.5212 19.8516C40.494 19.6255 40.477 19.4419 40.4668 19.3144C40.459 19.2489 40.459 19.1827 40.4668 19.1172C40.4863 19.1803 40.4994 19.2452 40.5059 19.311L40.5875 19.8431C40.6555 20.2936 40.7575 20.9141 40.8782 21.5958C40.9989 22.2775 41.1332 22.8929 41.2284 23.3366C41.2743 23.544 41.3117 23.7208 41.3423 23.8636C41.3578 23.9277 41.367 23.9932 41.3695 24.0591Z" fill="#263238"/>
<path d="M45.3222 23.6649C45.2967 23.6649 45.2338 21.7575 45.1811 19.4064C45.1284 17.0553 45.1046 15.1462 45.1284 15.1445C45.1522 15.1428 45.2168 17.0502 45.2695 19.4047C45.3222 21.7592 45.346 23.6649 45.3222 23.6649Z" fill="#263238"/>
<path d="M49.2997 19.7461C49.3235 19.7461 49.0481 20.7066 48.686 21.8762C48.3239 23.0458 48.006 23.9859 47.989 23.9791C47.972 23.9723 48.2406 23.0186 48.6027 21.849C48.9648 20.6794 49.2742 19.7393 49.2997 19.7461Z" fill="#263238"/>
<path d="M50.9219 24.6762C50.9252 24.6481 50.9326 24.6206 50.944 24.5946L51.0205 24.3702C51.0885 24.1764 51.1905 23.8976 51.3265 23.5542C51.5934 22.8742 51.9742 21.9239 52.4094 20.8869C52.8446 19.8499 53.2492 18.9166 53.5467 18.2434C53.6929 17.917 53.8136 17.6484 53.9054 17.4478L54.0057 17.2336C54.0312 17.186 54.0448 17.1605 54.0482 17.1622C54.042 17.1889 54.0334 17.2151 54.0227 17.2404L53.936 17.4614L53.6045 18.2689C53.3138 18.9591 52.9245 19.8907 52.491 20.9226C52.0575 21.9545 51.6733 22.8861 51.3843 23.578L51.0528 24.3838L50.9593 24.6014C50.9499 24.6278 50.9374 24.6529 50.9219 24.6762Z" fill="#263238"/>
<path d="M53.041 25.7828C53.0668 25.7227 53.0993 25.6657 53.1379 25.6128C53.2059 25.504 53.3079 25.3493 53.4337 25.1606C53.6887 24.7849 54.0559 24.2715 54.4826 23.7241C54.9093 23.1767 55.319 22.7041 55.6216 22.3641C55.7729 22.1941 55.8987 22.0598 55.9871 21.968C56.0297 21.9171 56.0782 21.8714 56.1316 21.832C56.0987 21.89 56.0588 21.9437 56.0126 21.9918C55.9208 22.104 55.8052 22.2417 55.6726 22.4049C55.3819 22.7551 54.9824 23.2396 54.5557 23.787C54.129 24.3344 53.7567 24.8393 53.4881 25.2065L53.1702 25.64C53.1322 25.692 53.0889 25.7399 53.041 25.7828Z" fill="#263238"/>
<path d="M56.1369 28.3177C56.1199 28.3007 57.4663 27.0223 59.1408 25.4634C60.8153 23.9045 62.1889 22.655 62.2008 22.672C62.2127 22.689 60.8731 23.9691 59.1969 25.528C57.5207 27.0869 56.1539 28.3364 56.1369 28.3177Z" fill="#263238"/>
<path d="M61.5407 28.8457C61.3768 28.9494 61.2064 29.0425 61.0307 29.1245C60.7111 29.2945 60.2776 29.5308 59.7982 29.8045C59.3188 30.0782 58.8768 30.306 58.5487 30.459C58.3787 30.5355 58.2529 30.595 58.1577 30.629C58.1112 30.6532 58.0613 30.6704 58.0098 30.68C58.1737 30.5763 58.344 30.4832 58.5198 30.4012C58.8394 30.2312 59.2729 29.9949 59.7523 29.7212C60.2317 29.4475 60.6737 29.2112 61.0018 29.0667C61.1718 28.9902 61.2976 28.9307 61.3928 28.8967C61.439 28.8718 61.4889 28.8545 61.5407 28.8457Z" fill="#263238"/>
<path d="M66.5373 30.9186C66.5458 30.9424 64.9444 31.5272 62.9673 32.2259C60.9902 32.9246 59.3701 33.4703 59.3633 33.4482C59.3565 33.4261 60.9545 32.8396 62.9333 32.1409C64.9121 31.4422 66.5288 30.8965 66.5373 30.9186Z" fill="#263238"/>
<path d="M68.1272 40.008C68.1272 40.0318 66.3847 39.8873 64.241 39.6833C62.0973 39.4793 60.3599 39.294 60.3633 39.2685C60.3667 39.243 62.1041 39.3909 64.2495 39.5949C66.3949 39.7989 68.1289 39.9842 68.1272 40.008Z" fill="#263238"/>
<path d="M66.8476 48.1599C66.8374 48.182 65.2105 47.434 63.2147 46.4922C61.2189 45.5504 59.609 44.7667 59.6192 44.7446C59.6294 44.7225 61.2563 45.4688 63.2521 46.4123C65.2479 47.3558 66.8578 48.1378 66.8476 48.1599Z" fill="#263238"/>
<path d="M61.4962 55.9184C61.4775 55.9337 60.3062 54.572 58.8765 52.8788C57.4468 51.1856 56.3044 49.7967 56.3265 49.7814C56.3486 49.7661 57.5165 51.1261 58.9462 52.821C60.3759 54.5159 61.5149 55.9014 61.4962 55.9184Z" fill="#263238"/>
<path d="M57.0283 56.9504C56.9754 56.8915 56.9282 56.8277 56.8872 56.76C56.8005 56.6342 56.6781 56.4489 56.5319 56.2194C56.2361 55.7587 55.84 55.1144 55.4218 54.3919C55.0036 53.6694 54.6466 53.003 54.4018 52.5219C54.2777 52.2788 54.1774 52.0816 54.1128 51.9439C54.0744 51.8739 54.0425 51.8005 54.0176 51.7246C54.0656 51.7881 54.1077 51.8558 54.1434 51.9269C54.225 52.0765 54.3304 52.2669 54.4579 52.493C54.7214 52.9707 55.0886 53.6303 55.5051 54.3528C55.9216 55.0753 56.3092 55.723 56.5914 56.1905C56.724 56.4149 56.8362 56.6002 56.9229 56.7464C56.9654 56.8103 57.0008 56.8787 57.0283 56.9504Z" fill="#263238"/>
<path d="M54.254 60.8438C54.254 60.8438 54.237 60.8217 54.2098 60.7741L54.0993 60.5667C54.0024 60.3848 53.8715 60.1196 53.7151 59.7898C53.4023 59.1285 52.9994 58.2003 52.6169 57.1497C52.2344 56.0991 51.9454 55.1301 51.7669 54.4297C51.6734 54.0761 51.5969 53.7871 51.5595 53.5882C51.5408 53.4964 51.5255 53.4182 51.5119 53.357C51.5051 53.3303 51.5011 53.3029 51.5 53.2754C51.5139 53.2997 51.5236 53.3261 51.5289 53.3536L51.5935 53.5797C51.653 53.7905 51.7312 54.071 51.8264 54.4127C52.027 55.1148 52.3245 56.0804 52.707 57.1327C53.0895 58.185 53.4805 59.1081 53.7797 59.7762L54.1367 60.5633C54.1741 60.6483 54.2064 60.7197 54.2336 60.7775C54.2431 60.7986 54.25 60.8209 54.254 60.8438Z" fill="#263238"/>
<path d="M48.6346 58.1085C48.5979 57.913 48.5734 57.7154 48.5615 57.5169C48.5224 57.1514 48.4595 56.6465 48.3677 56.094C48.2759 55.5415 48.1688 55.0451 48.0872 54.6864C48.0338 54.4943 47.9929 54.2989 47.9648 54.1016C47.9902 54.1489 48.0096 54.1991 48.0226 54.2512C48.0566 54.3498 48.0991 54.4926 48.1484 54.6711C48.2453 55.0264 48.3609 55.5211 48.4544 56.0804C48.5358 56.5542 48.5925 57.032 48.6244 57.5118C48.6363 57.6954 48.6431 57.8518 48.6431 57.9487C48.6475 58.0021 48.6447 58.0558 48.6346 58.1085Z" fill="#263238"/>
<path d="M44.9561 63.0024C44.9521 62.9736 44.9521 62.9444 44.9561 62.9157C44.9561 62.8477 44.9561 62.7644 44.9561 62.6658C44.9561 62.4482 44.9561 62.1337 44.9561 61.7461C44.9697 60.9692 45.0054 59.8982 45.0666 58.7167C45.1278 57.5352 45.2043 56.4642 45.2672 55.6907C45.2978 55.3031 45.3267 54.9903 45.3488 54.7744C45.3607 54.6758 45.3692 54.5924 45.376 54.5261C45.378 54.4966 45.3837 54.4675 45.393 54.4395C45.397 54.4688 45.397 54.4985 45.393 54.5279C45.393 54.5942 45.393 54.6775 45.3811 54.7778C45.3675 55.0073 45.3505 55.3166 45.3284 55.694C45.2825 56.4811 45.2213 57.5454 45.1584 58.7201C45.0955 59.8948 45.0513 60.9726 45.0224 61.7478C45.0088 62.1252 44.9969 62.4278 44.9884 62.6658C44.9884 62.7661 44.9782 62.8477 44.9748 62.9157C44.9729 62.9453 44.9666 62.9745 44.9561 63.0024Z" fill="#263238"/>
<path d="M41.9674 54.4395C41.9662 54.5859 41.9491 54.7319 41.9164 54.8747C41.8722 55.1399 41.8008 55.5054 41.7073 55.9049C41.6138 56.3044 41.5152 56.6648 41.437 56.9249C41.4031 57.067 41.3535 57.205 41.2891 57.3363C41.3042 57.191 41.3332 57.0476 41.3758 56.9079L41.6206 55.8879C41.709 55.5054 41.7906 55.1586 41.8552 54.8679C41.8787 54.7218 41.9163 54.5783 41.9674 54.4395Z" fill="#263238"/>
<path d="M36.5631 51.8496C36.3403 52.2179 36.0921 52.5701 35.8202 52.9036C35.5707 53.2547 35.2987 53.5891 35.0059 53.9049C35.2281 53.5364 35.4764 53.1841 35.7488 52.8509C35.9971 52.499 36.2691 52.1644 36.5631 51.8496Z" fill="#263238"/>
<path d="M33.7299 49.9396C33.7469 49.9549 32.6929 51.1942 31.3737 52.7055C30.0545 54.2168 28.9682 55.4255 28.9495 55.4136C28.9308 55.4017 29.9865 54.159 31.3057 52.6477C32.6249 51.1364 33.7112 49.9226 33.7299 49.9396Z" fill="#263238"/>
<path d="M32.3113 47.8301C31.8944 48.2322 31.4569 48.6123 31.0006 48.9691C30.2611 49.5777 29.6491 50.0571 29.6406 50.0384C30.0578 49.6371 30.4953 49.2576 30.9513 48.9011C31.3864 48.5215 31.8403 48.164 32.3113 47.8301Z" fill="#263238"/>
<path d="M30.6517 44.649C30.6619 44.6711 29.1931 45.4021 27.369 46.2793C25.5449 47.1564 24.0608 47.8517 24.0489 47.8296C24.037 47.8075 25.5075 47.0782 27.3316 46.1993C29.1557 45.3205 30.6415 44.6269 30.6517 44.649Z" fill="#263238"/>
<path d="M29.984 43.0625C29.9352 43.0839 29.8837 43.0988 29.831 43.1067C29.7307 43.1305 29.5862 43.1611 29.4077 43.1934C29.049 43.2614 28.5492 43.3362 27.995 43.3923C27.4408 43.4484 26.9359 43.4722 26.5704 43.4773C26.3885 43.4773 26.2406 43.4773 26.1386 43.4773C26.0854 43.4807 26.032 43.4756 25.9805 43.462C26.1755 43.4352 26.3719 43.4199 26.5687 43.4161C26.9325 43.394 27.434 43.36 27.9865 43.3039C28.539 43.2478 29.0371 43.1832 29.3975 43.1339C29.591 43.0963 29.787 43.0724 29.984 43.0625Z" fill="#263238"/>
<path d="M29.4464 39.3984C29.3474 39.4066 29.2479 39.4066 29.1489 39.3984L28.3397 39.3576C27.6597 39.3236 26.7145 39.293 25.6724 39.2981C24.6303 39.3032 23.6851 39.3457 23.0034 39.3865L22.1959 39.4358C22.0972 39.4471 21.9977 39.4505 21.8984 39.446C21.995 39.4228 22.0934 39.408 22.1925 39.4018C22.3829 39.3797 22.6583 39.3525 22.9983 39.3236C23.6783 39.2675 24.6269 39.2165 25.6707 39.2097C26.7145 39.2029 27.6614 39.2454 28.3448 39.2947C28.6848 39.3202 28.9619 39.344 29.1523 39.3644C29.251 39.3688 29.3493 39.3802 29.4464 39.3984Z" fill="#263238"/>
<path d="M29.7794 36.1829C29.7794 36.2067 28.6727 35.9194 27.3212 35.542C25.9697 35.1646 24.88 34.8416 24.8868 34.8178C24.8936 34.794 25.9935 35.0796 27.345 35.457C28.6965 35.8344 29.7862 36.1591 29.7794 36.1829Z" fill="#263238"/>
<path d="M30.4918 33.4893C30.4645 33.4877 30.4375 33.482 30.4119 33.4723L30.1858 33.4043C29.992 33.3431 29.7115 33.2479 29.3698 33.1238C28.477 32.796 27.602 32.4214 26.7484 32.0018C25.8952 31.5817 25.065 31.1164 24.2613 30.6078C23.9536 30.4123 23.7071 30.2491 23.5405 30.1318L23.3501 29.9941C23.3076 29.9618 23.2855 29.9448 23.2872 29.9414C23.3129 29.9518 23.3374 29.9649 23.3603 29.9805L23.5609 30.1029C23.7309 30.2117 23.9825 30.3664 24.2936 30.5551C24.9175 30.9325 25.7913 31.4306 26.7875 31.9151C27.7837 32.3996 28.7119 32.794 29.3919 33.0592C29.7319 33.1901 30.0056 33.2938 30.1977 33.3652L30.417 33.4485C30.443 33.46 30.4681 33.4736 30.4918 33.4893Z" fill="#263238"/>
<path d="M32.092 30.7706C32.0784 30.7893 31.2182 30.2079 30.171 29.4701C29.1238 28.7323 28.2857 28.1186 28.301 28.0982C28.3163 28.0778 29.1748 28.6609 30.2237 29.3987C31.2726 30.1365 32.1056 30.7553 32.092 30.7706Z" fill="#263238"/>
<path d="M28.7093 22.5117C28.7093 22.5117 28.7331 22.5253 28.7739 22.5576L28.9439 22.7072L29.5712 23.2614L31.6299 25.0991L33.6971 26.9266L34.3227 27.4825L34.4927 27.6372C34.5132 27.6541 34.5315 27.6735 34.5471 27.695C34.5471 27.695 34.5233 27.6831 34.4808 27.6508L34.3108 27.5097C34.1561 27.3856 33.9368 27.202 33.6665 26.9742C33.1259 26.5186 32.3881 25.8811 31.5806 25.1654C30.7731 24.4497 30.0506 23.7901 29.5406 23.3073C29.2822 23.0659 29.0748 22.8704 28.932 22.731L28.7705 22.5712C28.7297 22.5338 28.7059 22.5134 28.7093 22.5117Z" fill="#263238"/>
<path d="M34.0117 22.666C34.0117 22.666 34.0576 22.7034 34.1273 22.7833C34.197 22.8632 34.2973 22.9805 34.4146 23.1233C34.6509 23.4191 34.9654 23.8373 35.2918 24.3133C35.6182 24.7893 35.8919 25.2347 36.0806 25.5628C36.1758 25.7328 36.2506 25.8603 36.2982 25.9538C36.3276 26.0003 36.3505 26.0507 36.3662 26.1034C36.2416 25.9412 36.128 25.7708 36.0262 25.5934C35.8239 25.2738 35.5417 24.8369 35.217 24.3609C34.8923 23.8849 34.5863 23.465 34.367 23.1607C34.2389 23.003 34.1202 22.8378 34.0117 22.666Z" fill="#263238"/>
<g opacity="0.2">
<path d="M27.2168 21.2192L34.6135 27.6945L36.4512 26.224L32.1604 19.6484C32.1604 19.6484 31.8306 19.8898 30.9704 20.1346C30.1493 20.3709 27.7098 20.4338 27.2168 21.2192Z" fill="black"/>
</g>
<g opacity="0.2">
<path d="M35.4512 15.7409L39.062 24.7798L41.3706 24.0573L40.6005 16.2169C40.6005 16.2169 40.2044 16.3104 39.3221 16.1982C38.467 16.0894 36.3947 15.2785 35.4512 15.7409Z" fill="black"/>
</g>
<g opacity="0.3">
<path d="M45.0801 13.8489L45.3232 23.6647L47.4856 23.7684L49.6752 16.234C49.2203 16.1436 48.7876 15.9646 48.4019 15.707C47.6539 15.2276 46.1273 13.769 45.0801 13.8489Z" fill="black"/>
</g>
<g opacity="0.2">
<path d="M54.5106 15.7051L50.9219 24.7542L52.8701 25.6875L57.8086 19.5913C57.4374 19.2779 57.1209 18.9051 56.8719 18.488C56.4061 17.7349 55.6037 16.006 54.5106 15.7051Z" fill="black"/>
</g>
<g opacity="0.2">
<path d="M62.9403 21.3496L56.2559 28.3196L57.7451 30.3273L64.2765 25.9685C64.0614 25.5724 63.9159 25.1423 63.8464 24.6969C63.69 23.8469 63.6679 22.3033 62.9403 21.3496Z" fill="black"/>
</g>
<g opacity="0.2">
<path d="M68.2163 29.2148L59.2148 32.9191L59.9611 35.2192L67.793 34.3692C67.793 34.3692 67.7437 34.1278 67.8474 33.2455C67.946 32.3904 68.8504 30.4796 68.2163 29.2148Z" fill="black"/>
</g>
<g opacity="0.2">
<path d="M70.2101 39.0215L60.396 39.3615L60.3145 41.5256L67.7945 43.7152C67.8441 43.4036 67.944 43.1022 68.0903 42.8227C68.6479 41.7823 70.2101 40.3135 70.2101 39.0215Z" fill="black"/>
</g>
<g opacity="0.2">
<path d="M68.3996 48.3L59.3641 44.7793L58.4512 46.7496L64.6001 51.6167C64.9233 51.3072 65.281 51.0357 65.666 50.8075C66.414 50.3298 68.1922 49.5563 68.3996 48.3Z" fill="black"/>
</g>
<g opacity="0.2">
<path d="M55.1102 48.1602L52.873 50.0302C53.043 50.2002 56.0231 55.273 57.8608 58.4044C57.8847 58.3837 57.9097 58.3645 57.9356 58.3466C59.1443 57.5374 61.2966 57.8621 62.5104 57.0614L55.1102 48.1602Z" fill="black"/>
<path d="M50.999 51.7109L47.6602 52.8499L49.2412 61.9143C49.3438 61.8781 49.4489 61.8492 49.5557 61.8276C51.1299 61.5165 53.2056 62.8867 54.6557 62.2866C54.8542 62.2015 55.0388 62.0869 55.2031 61.9466L50.999 51.7109Z" fill="black"/>
<path d="M44.9034 64.1921L45.4355 52.3499L42.5455 51.6172L40.3984 61.8172L40.4766 61.8308C41.9726 62.1215 43.3343 64.0901 44.9034 64.1921Z" fill="black"/>
<path d="M37.6446 50.3379C37.6446 50.3379 33.8298 55.4481 31.834 58.1987C31.9263 58.2452 32.016 58.2968 32.1026 58.3534C33.4133 59.2306 33.908 61.6735 35.3819 62.2855C35.4499 62.3127 35.5196 62.3348 35.5893 62.3552L40.9188 52.2674L37.6446 50.3379Z" fill="black"/>
<path d="M33.7299 46.2246L25.5938 51.8159C25.6243 51.8567 25.6583 51.8958 25.6855 51.9383C26.5695 53.2575 26.0986 55.7038 27.2155 56.8224C27.3186 56.9237 27.4327 57.0132 27.5555 57.0893C30.4302 53.8491 35.5914 48.0317 35.7784 47.8294L33.7299 46.2246Z" fill="black"/>
<path d="M31.8639 42.2305L22.2436 43.7843C22.3983 45.3279 21.1811 47.2761 21.754 48.6565C21.7885 48.7408 21.83 48.8221 21.8781 48.8996C25.2441 47.2234 32.277 43.7367 32.5694 43.718L31.8639 42.2305Z" fill="black"/>
<path d="M31.3391 36.8731L22.2458 34.25C22.2373 34.3282 22.2271 34.4064 22.2135 34.4829C21.9109 36.0129 19.8438 37.4052 19.8438 39.0219C19.8442 39.1296 19.8533 39.237 19.8709 39.3432H30.9702L31.3391 36.8731Z" fill="black"/>
<path d="M21.791 29.3129C25.191 31.1336 31.8329 34.8175 31.8329 34.8175L33.4683 31.7116L25.7877 25.9316C25.7537 25.9911 25.7214 26.0523 25.684 26.1016C24.8187 27.3919 22.4506 27.8951 21.791 29.3129Z" fill="black"/>
</g>
<path d="M70.1933 39.0221L70.1831 38.9133C70.179 38.8067 70.1642 38.7008 70.1389 38.5971C70.0399 38.1895 69.8671 37.8034 69.6289 37.4581C69.3365 36.9889 68.8945 36.4636 68.4389 35.7989C68.1816 35.4453 67.984 35.0519 67.8541 34.6344C67.7434 34.147 67.7434 33.6411 67.8541 33.1537C67.9493 32.6352 68.104 32.1014 68.2383 31.5353C68.3726 30.9692 68.4984 30.3572 68.3726 29.7316C68.3014 29.415 68.1563 29.1196 67.9493 28.8697C67.7272 28.6153 67.4735 28.3902 67.1945 28.1999C66.6301 27.7987 65.9807 27.4791 65.3602 27.0609C65.0392 26.8539 64.7476 26.6046 64.4932 26.3197C64.2435 26.0105 64.0621 25.6518 63.9611 25.2674C63.7435 24.4939 63.6942 23.6677 63.5293 22.8415C63.4572 22.4208 63.3153 22.0152 63.1094 21.6413C62.8858 21.2649 62.5464 20.971 62.1421 20.8032C61.7246 20.6355 61.2877 20.5212 60.8416 20.4632C60.3911 20.3884 59.9287 20.3357 59.4663 20.2541C58.9925 20.1858 58.5331 20.0405 58.1063 19.824C57.683 19.5696 57.3246 19.2204 57.0591 18.804C56.7769 18.3994 56.5338 17.9642 56.2754 17.5341C56.0279 17.094 55.7313 16.6834 55.3914 16.3101C55.041 15.9325 54.5631 15.6981 54.0501 15.6522C53.5259 15.6328 53.0018 15.6942 52.4963 15.8341C51.9863 15.9582 51.4627 16.1095 50.9272 16.2098C50.3859 16.3374 49.8212 16.3269 49.285 16.1792C48.7623 15.9742 48.2735 15.6916 47.8349 15.3411C47.381 15.0011 46.939 14.6611 46.4545 14.3585C45.97 14.0559 45.4209 13.8366 44.8497 13.9012H44.7426C44.7069 13.9012 44.6729 13.9165 44.6389 13.9233C44.5692 13.9403 44.4978 13.9522 44.4298 13.9726C44.2928 14.0162 44.1588 14.0684 44.0286 14.129C43.7656 14.2541 43.5132 14.4002 43.2738 14.5659C42.791 14.9059 42.3337 15.2765 41.8373 15.6131C41.5901 15.7861 41.3285 15.9374 41.0553 16.0653C40.7753 16.1906 40.4755 16.2659 40.1696 16.288C39.5562 16.292 38.9455 16.2055 38.3574 16.0313C37.7652 15.8622 37.1611 15.7378 36.5503 15.659C36.2452 15.629 35.9373 15.6497 35.6391 15.7202C35.342 15.8028 35.0679 15.9529 34.8384 16.1588C34.3692 16.5685 34.0428 17.1193 33.7164 17.6599C33.4082 18.226 33.048 18.7621 32.6403 19.2613C32.4244 19.5086 32.1652 19.7143 31.8753 19.8682C31.5793 20.0081 31.2685 20.1142 30.9488 20.1844C30.3096 20.3255 29.6568 20.385 29.0125 20.5006C28.3682 20.6162 27.7103 20.7981 27.2445 21.2503C27.0196 21.4898 26.8461 21.7727 26.7345 22.0816C26.6219 22.3932 26.5394 22.7148 26.488 23.0421C26.369 23.6983 26.318 24.3715 26.148 25.0328C26.0749 25.3684 25.9529 25.6915 25.7859 25.9916C25.6099 26.289 25.3791 26.5503 25.1059 26.7617C24.5687 27.1935 23.9584 27.5131 23.3736 27.8701C23.0806 28.0464 22.7995 28.2418 22.5321 28.4549C22.266 28.6675 22.0423 28.9281 21.8725 29.2233C21.7105 29.5239 21.6286 29.8611 21.6345 30.2025C21.6405 30.5457 21.6809 30.8874 21.7552 31.2225C21.898 31.9025 22.1139 32.5706 22.2295 33.2625C22.298 33.6176 22.3118 33.9811 22.2703 34.3403C22.222 34.6987 22.1067 35.0447 21.9303 35.3603C21.575 35.9808 21.1126 36.5265 20.7029 37.1045C20.4925 37.3894 20.3092 37.6933 20.1555 38.0123C19.987 38.3235 19.8988 38.6717 19.8988 39.0255C19.8988 39.3793 19.987 39.7276 20.1555 40.0387C20.3089 40.3579 20.4922 40.6618 20.7029 40.9465C21.1126 41.5245 21.575 42.0702 21.9303 42.6907C22.1034 43.0005 22.2186 43.3392 22.2703 43.6903C22.3135 44.0447 22.302 44.4036 22.2363 44.7545C22.1224 45.4532 21.9065 46.123 21.762 46.803C21.6883 47.1382 21.6479 47.4799 21.6413 47.823C21.6346 48.1648 21.7159 48.5026 21.8776 48.8039C22.0461 49.1 22.2693 49.3613 22.5355 49.574C22.8029 49.7871 23.084 49.9825 23.377 50.1588C23.9618 50.5158 24.567 50.8388 25.111 51.2672C25.3838 51.4791 25.6144 51.7403 25.791 52.0373C25.9593 52.3363 26.0813 52.6589 26.1531 52.9944C26.3129 53.6574 26.3673 54.3306 26.4931 54.9868C26.5459 55.314 26.6289 55.6355 26.7413 55.9473C26.8502 56.2561 27.0209 56.5395 27.2428 56.7803C27.7137 57.2376 28.3767 57.4195 29.0125 57.5351C29.6483 57.6507 30.3096 57.7051 30.9488 57.8513C31.269 57.9218 31.5803 58.0278 31.877 58.1675C32.1665 58.322 32.4257 58.5276 32.642 58.7744C33.0456 59.2744 33.4024 59.8105 33.7079 60.3758C34.0343 60.9164 34.3607 61.4672 34.8299 61.8769C35.0591 62.0824 35.3324 62.2325 35.6289 62.3155C35.9297 62.3915 36.2411 62.4168 36.5503 62.3903C37.16 62.3083 37.7628 62.1816 38.354 62.0112C38.9425 61.8357 39.5538 61.7486 40.1679 61.7528C40.4738 61.7759 40.7735 61.8518 41.0536 61.9772C41.3266 62.1055 41.5882 62.2568 41.8356 62.4294C42.332 62.7694 42.7876 63.1451 43.2721 63.4749C43.5105 63.6418 43.7624 63.7885 44.0252 63.9135C44.1556 63.9738 44.2895 64.0261 44.4264 64.0699C44.4961 64.0886 44.5658 64.1022 44.6355 64.1192L44.7409 64.1413H44.8463C45.4192 64.2059 45.97 63.9713 46.4528 63.684C46.9356 63.3967 47.3793 63.0346 47.8315 62.7014C48.2707 62.3509 48.7601 62.0684 49.2833 61.8633C49.8196 61.7165 50.3841 61.706 50.9255 61.8327C51.461 61.9347 51.9778 62.086 52.4946 62.2101C53.001 62.3485 53.5254 62.4098 54.0501 62.392C54.5625 62.3443 55.0394 62.1095 55.3897 61.7324C55.7286 61.3576 56.025 60.9466 56.2737 60.5067C56.5304 60.0783 56.7735 59.6431 57.0557 59.2368C57.3227 58.8211 57.6815 58.4721 58.1046 58.2168C58.5312 58.0001 58.9907 57.8553 59.4646 57.7884C59.9287 57.7051 60.3894 57.6524 60.8399 57.5793C61.2863 57.5185 61.7233 57.4014 62.1404 57.2308C62.5444 57.0624 62.8835 56.7686 63.1077 56.3927C63.3123 56.0185 63.4536 55.6129 63.5259 55.1925C63.6959 54.3663 63.7401 53.5384 63.9594 52.7649C64.0594 52.3806 64.2408 52.0223 64.4915 51.7143C64.7451 51.4286 65.0368 51.1792 65.3585 50.9731C65.979 50.5549 66.6284 50.2353 67.1911 49.8341C67.4714 49.6442 67.7258 49.4185 67.9476 49.1626C68.1544 48.9134 68.2989 48.6185 68.3692 48.3024C68.4285 47.9971 68.4371 47.684 68.3947 47.3759C68.3596 47.0805 68.3062 46.7875 68.2349 46.4987C68.0989 45.9326 67.9459 45.3988 67.8507 44.8803C67.74 44.3929 67.74 43.887 67.8507 43.3996C67.9813 42.9824 68.1788 42.5891 68.4355 42.2351C68.8962 41.5704 69.3399 41.0451 69.6255 40.5759C69.8639 40.2308 70.0368 39.8447 70.1355 39.4369C70.1609 39.3333 70.1757 39.2273 70.1797 39.1207L70.1899 39.0136C70.1899 39.0136 70.1899 39.0493 70.1899 39.1207C70.1866 39.2277 70.1729 39.3342 70.1491 39.4386C70.0523 39.8496 69.8793 40.2389 69.6391 40.5861C69.3484 41.0587 68.9081 41.5857 68.4491 42.2504C68.194 42.6016 67.9993 42.9929 67.8728 43.4081C67.7622 43.8903 67.7622 44.3913 67.8728 44.8735C67.968 45.3835 68.1227 45.9224 68.2604 46.4885C68.3344 46.7796 68.3912 47.0747 68.4304 47.3725C68.4727 47.6846 68.4641 48.0015 68.4049 48.3109C68.3339 48.6343 68.1871 48.9361 67.9765 49.1915C67.7525 49.4502 67.4959 49.6788 67.2132 49.8715C66.6454 50.2761 65.9977 50.5974 65.3806 51.0139C65.0655 51.2187 64.7795 51.4651 64.5306 51.7466C64.285 52.0498 64.1076 52.4024 64.0104 52.7802C63.7945 53.5452 63.7469 54.3714 63.5803 55.2027C63.5084 55.6298 63.3653 56.0419 63.157 56.4216C62.9273 56.8086 62.5792 57.1114 62.1642 57.2852C61.7429 57.4582 61.3013 57.5771 60.8501 57.6388C60.3979 57.7136 59.9355 57.7663 59.4748 57.8496C59.007 57.9164 58.5533 58.0594 58.1318 58.2729C57.7205 58.5225 57.3717 58.8626 57.1118 59.2674C56.833 59.6703 56.5899 60.1038 56.3315 60.5356C56.0814 60.9799 55.7826 61.395 55.4407 61.7732C55.0792 62.163 54.5863 62.4052 54.0569 62.4532C53.5248 62.4741 52.9926 62.4128 52.4793 62.2713C51.9608 62.1472 51.444 61.9976 50.9136 61.8973C50.384 61.7734 49.8319 61.7833 49.3071 61.9262C48.7919 62.1293 48.31 62.4084 47.8774 62.7541C47.4269 63.0856 46.9832 63.4426 46.4936 63.7418C46.3661 63.8098 46.2454 63.8897 46.1128 63.9458C46.0465 63.9764 45.9819 64.0087 45.9156 64.0359L45.7099 64.109C45.4309 64.2048 45.1347 64.2396 44.8412 64.211L44.7307 64.2025C44.695 64.2025 44.6593 64.1872 44.6219 64.1804C44.5505 64.1634 44.4774 64.1498 44.4077 64.1294C44.2664 64.0858 44.1284 64.0324 43.9946 63.9696C43.7278 63.843 43.4719 63.6946 43.2296 63.5259C42.7417 63.1859 42.2844 62.8153 41.7931 62.4804C41.549 62.3111 41.2914 62.1622 41.023 62.035C40.7513 61.9142 40.4609 61.8412 40.1645 61.8191C39.5584 61.8164 38.9552 61.9029 38.3744 62.0758C37.7771 62.2515 37.1673 62.3817 36.5503 62.4651C36.235 62.4959 35.9168 62.4747 35.6085 62.4022C35.2996 62.3161 35.0146 62.1602 34.7755 61.9466C34.2927 61.5233 33.9629 60.9674 33.6365 60.4251C33.334 59.8642 32.98 59.3326 32.5791 58.8373C32.3702 58.5979 32.1189 58.399 31.8379 58.2508C31.5482 58.1131 31.2435 58.0093 30.9301 57.9414C30.2977 57.802 29.6466 57.7425 28.9972 57.6252C28.67 57.5708 28.3485 57.4866 28.0367 57.3736C27.7204 57.2577 27.4312 57.0783 27.1867 56.8466C26.9546 56.5988 26.7769 56.3052 26.6648 55.9847C26.55 55.6681 26.4652 55.3414 26.4115 55.0089C26.2925 54.3476 26.2415 53.6744 26.0715 53.0216C26.0009 52.6946 25.8817 52.38 25.7179 52.0883C25.5458 51.8 25.3209 51.5468 25.0549 51.342C24.5279 50.9187 23.9193 50.5991 23.3328 50.2404C23.0369 50.0619 22.7529 49.8643 22.4828 49.6488C22.2078 49.4284 21.977 49.1578 21.8028 48.8515C21.6349 48.5382 21.5506 48.1869 21.558 47.8315C21.562 47.4797 21.603 47.1293 21.6804 46.786C21.8249 46.106 22.0408 45.426 22.153 44.746C22.2171 44.4035 22.228 44.0531 22.1853 43.7073C22.1338 43.3637 22.0184 43.0327 21.8453 42.7315C21.5053 42.1195 21.0361 41.5772 20.623 40.9941C20.4077 40.7036 20.2193 40.394 20.0603 40.0693C19.8873 39.7461 19.7969 39.3853 19.7969 39.0187C19.7969 38.6522 19.8873 38.2913 20.0603 37.9681C20.2172 37.6444 20.4038 37.3359 20.6179 37.0467C21.031 36.4636 21.4917 35.9213 21.8385 35.311C22.0115 35.0091 22.1268 34.6776 22.1785 34.3335C22.2181 33.9875 22.2067 33.6375 22.1445 33.2948C22.0306 32.6148 21.8147 31.9348 21.6702 31.2548C21.5942 30.9119 21.5538 30.5622 21.5495 30.211C21.5427 29.8555 21.6276 29.5042 21.796 29.191C21.9714 28.886 22.202 28.6162 22.476 28.3954C22.7457 28.1794 23.0297 27.9817 23.326 27.8038C23.9125 27.4451 24.516 27.1238 25.0481 26.7022C25.3136 26.4973 25.5379 26.2441 25.7094 25.9559C25.8724 25.6634 25.991 25.3483 26.0613 25.0209C26.2194 24.3681 26.2738 23.6966 26.4013 23.0353C26.4544 22.7029 26.5386 22.3762 26.6529 22.0595C26.7554 21.7354 26.9338 21.4404 27.1733 21.1991C27.4128 20.9578 27.7065 20.7772 28.0299 20.6723C28.3417 20.5593 28.6632 20.4751 28.9904 20.4207C29.6398 20.3034 30.2909 20.2507 30.9233 20.1062C31.2362 20.0362 31.5405 19.9325 31.8311 19.7968C32.1113 19.6473 32.3619 19.448 32.5706 19.2086C32.9715 18.7133 33.3255 18.1817 33.628 17.6208C33.9544 17.0785 34.2842 16.5226 34.7687 16.101C35.009 15.8842 35.2965 15.7265 35.6085 15.6403C35.9169 15.5686 36.235 15.5474 36.5503 15.5774C37.1635 15.6594 37.7698 15.7867 38.3642 15.9582C38.9448 16.1325 39.5481 16.2196 40.1543 16.2166C40.448 16.1932 40.7355 16.1196 41.0043 15.999C41.2736 15.8736 41.5313 15.7245 41.7744 15.5536C42.2674 15.2136 42.7247 14.8413 43.2126 14.5098C43.4545 14.3405 43.7104 14.192 43.9776 14.0661C44.1112 14.0038 44.2486 13.9499 44.389 13.9046C44.4604 13.8842 44.5335 13.8723 44.6049 13.8553L44.712 13.8315H44.8225C45.116 13.8038 45.412 13.8386 45.6912 13.9335L45.8969 14.0066C45.9632 14.0338 46.0278 14.0661 46.0941 14.0967C46.2284 14.1545 46.3491 14.2327 46.4749 14.3007C46.9662 14.5999 47.4082 14.9569 47.8604 15.2884C48.2926 15.6338 48.7739 15.9129 49.2884 16.1163C49.813 16.2601 50.3654 16.27 50.8949 16.1452C51.4253 16.0466 51.9421 15.897 52.4606 15.7729C52.974 15.6317 53.506 15.5698 54.0382 15.5893C54.5674 15.6379 55.0601 15.8801 55.422 16.2693C55.7643 16.6482 56.0636 17.0638 56.3145 17.5086C56.5729 17.9387 56.8143 18.3739 57.0931 18.7751C57.3525 19.1808 57.7014 19.5216 58.1131 19.7713C58.5343 19.9856 58.9881 20.1286 59.4561 20.1946C59.9168 20.2779 60.3792 20.3306 60.8314 20.4054C61.2824 20.468 61.7239 20.5868 62.1455 20.759C62.5605 20.9327 62.909 21.2348 63.14 21.6209C63.3476 22.001 63.4906 22.4129 63.5633 22.8398C63.7333 23.6711 63.7775 24.4973 63.9917 25.2623C64.0901 25.6397 64.2674 25.992 64.5119 26.2959C64.7604 26.5784 65.0463 26.8255 65.3619 27.0303C65.979 27.4468 66.6284 27.7681 67.1945 28.1727C67.4772 28.3654 67.7338 28.594 67.9578 28.8527C68.1685 29.1076 68.3159 29.4088 68.3879 29.7316C68.4471 30.0415 68.4557 30.359 68.4134 30.6717C68.3744 30.9689 68.3176 31.2636 68.2434 31.554C68.1074 32.1218 67.951 32.6539 67.8558 33.1707C67.7452 33.6529 67.7452 34.1539 67.8558 34.6361C67.9823 35.0513 68.177 35.4426 68.4321 35.7938C68.8894 36.4602 69.3297 36.9838 69.6221 37.4581C69.8618 37.8056 70.0348 38.1948 70.1321 38.6056C70.1559 38.71 70.1696 38.8165 70.1729 38.9235C70.1933 38.9847 70.1933 39.0221 70.1933 39.0221Z" fill="#263238"/>
<path d="M40.2893 62.3907C40.3131 62.3907 39.6858 64.9407 38.8885 68.0721C38.0912 71.2035 37.4248 73.7382 37.401 73.7331C37.3772 73.728 38.0045 71.1831 38.8018 68.05C39.5991 64.9169 40.2723 62.3771 40.2893 62.3907Z" fill="#263238"/>
<path d="M45.0205 54.455C53.5437 54.455 60.4531 47.5456 60.4531 39.0224C60.4531 30.4993 53.5437 23.5898 45.0205 23.5898C36.4973 23.5898 29.5879 30.4993 29.5879 39.0224C29.5879 47.5456 36.4973 54.455 45.0205 54.455Z" fill="#425252"/>
<path d="M35.5176 33.6739C35.3051 33.8864 34.1355 36.0148 34.0284 37.7709C33.9213 39.527 34.1746 49.3836 34.1746 49.3836L34.2205 50.0381C36.9983 53.2868 47.0963 58.1216 56.1912 50.0211L56.7012 43.9572L55.2002 31.1205L49.9812 29.8438L48.7589 27.8633L40.6125 29.7707L39.8849 31.4877L35.5176 33.6739Z" fill="#455A64"/>
<path d="M48.1982 22.702C48.5569 21.3675 48.9088 20.0245 49.0329 18.6492C49.157 17.2739 49.0431 15.8527 48.4957 14.5845C48.4124 14.3924 47.7239 13.1089 47.5165 13.1412C47.3686 13.1633 47.814 14.3703 47.746 14.5012C47.0915 15.7711 46.9725 17.262 47.1612 18.6781C47.3559 20.0533 47.7037 21.4024 48.1982 22.7003" fill="#263238"/>
<path d="M48.0636 17.4308C47.999 13.9679 45.9284 11.1204 42.4689 11.2819L42.1493 11.3159C40.6019 11.4791 39.1727 12.2186 38.1458 13.3876C37.1189 14.5565 36.5697 16.0692 36.6073 17.6246C36.6821 20.6251 36.8011 23.9401 36.9898 25.5347C37.3791 28.8344 40.7298 29.001 40.7298 29.001L40.8845 31.1719L42.304 32.7138L48.8847 28.6338L48.0636 17.4308Z" fill="#FFBF9D"/>
<path d="M40.7383 29.0282C40.7383 29.0282 42.8344 28.9313 44.9067 27.3027C44.9067 27.3027 44.2131 30.2964 40.8845 30.3457L40.7383 29.0282Z" fill="#FF9A6C"/>
<path d="M38.5084 20.3172C38.5201 20.4413 38.5802 20.5558 38.6756 20.636C38.771 20.7162 38.8942 20.7556 39.0184 20.7456C39.0789 20.7441 39.1385 20.7305 39.1937 20.7056C39.2489 20.6807 39.2985 20.6451 39.3397 20.6007C39.3809 20.5564 39.4128 20.5042 39.4335 20.4474C39.4543 20.3905 39.4634 20.3301 39.4604 20.2696C39.4484 20.1457 39.3882 20.0315 39.2929 19.9514C39.1975 19.8713 39.0746 19.8317 38.9504 19.8412C38.8899 19.8425 38.8302 19.856 38.7749 19.8808C38.7196 19.9056 38.6699 19.9412 38.6286 19.9856C38.5874 20.03 38.5555 20.0823 38.5349 20.1392C38.5142 20.1962 38.5052 20.2567 38.5084 20.3172Z" fill="#263238"/>
<path d="M37.4577 18.9218C37.5223 18.9762 37.8521 18.6753 38.3604 18.6226C38.8687 18.5699 39.2665 18.7926 39.3158 18.7161C39.3396 18.6872 39.2682 18.5818 39.0931 18.4798C38.8574 18.3513 38.588 18.2985 38.3213 18.3285C38.0571 18.3557 37.8084 18.4658 37.6107 18.643C37.4662 18.7807 37.4254 18.8963 37.4577 18.9218Z" fill="#263238"/>
<path d="M42.9947 19.9361C43.0064 20.0602 43.0664 20.1747 43.1618 20.2549C43.2573 20.3351 43.3804 20.3744 43.5047 20.3645C43.5652 20.363 43.6248 20.3494 43.68 20.3245C43.7351 20.2996 43.7848 20.264 43.8259 20.2196C43.8671 20.1752 43.899 20.1231 43.9198 20.0662C43.9405 20.0094 43.9497 19.949 43.9467 19.8885C43.935 19.7643 43.875 19.6496 43.7796 19.5692C43.6843 19.4887 43.5611 19.4489 43.4367 19.4584C43.3761 19.4601 43.3165 19.4739 43.2613 19.499C43.2061 19.5241 43.1565 19.5599 43.1153 19.6044C43.0742 19.6489 43.0423 19.7011 43.0216 19.7581C43.0009 19.815 42.9917 19.8756 42.9947 19.9361Z" fill="#263238"/>
<path d="M42.4549 18.602C42.5195 18.6581 42.851 18.3555 43.3576 18.3028C43.8642 18.2501 44.2654 18.4728 44.313 18.398C44.3368 18.3674 44.2671 18.262 44.092 18.1617C43.8559 18.0326 43.5857 17.9798 43.3185 18.0104C43.054 18.0365 42.805 18.1467 42.6079 18.3249C42.4651 18.4609 42.4243 18.5782 42.4549 18.602Z" fill="#263238"/>
<path d="M41.0431 22.6977C41.0431 22.6688 40.7218 22.6467 40.2033 22.6348C40.0724 22.6348 39.9466 22.6229 39.916 22.5362C39.8903 22.4037 39.9063 22.2665 39.9619 22.1435L40.2407 21.1235C40.6249 19.6615 40.8884 18.4647 40.8306 18.4494C40.7728 18.4341 40.4107 19.6071 40.0265 21.0708L39.7647 22.0993C39.7007 22.2624 39.6958 22.4429 39.7511 22.6093C39.7743 22.6535 39.8074 22.6919 39.8477 22.7214C39.8881 22.7509 39.9347 22.7707 39.984 22.7793C40.0579 22.7883 40.1327 22.7883 40.2067 22.7793C40.7252 22.7572 41.0448 22.7266 41.0431 22.6977Z" fill="#263238"/>
<path d="M42.5752 22.8928C42.4919 22.8928 42.5497 23.447 42.1196 23.889C41.6895 24.331 41.0996 24.331 41.0996 24.4092C41.0996 24.4432 41.2407 24.5027 41.4906 24.4823C41.8125 24.4521 42.1134 24.3095 42.3406 24.0794C42.5574 23.8569 42.6793 23.5588 42.6806 23.2481C42.6891 23.0152 42.6126 22.886 42.5752 22.8928Z" fill="#263238"/>
<path d="M42.2649 16.5388C42.3295 16.6714 42.8293 16.5524 43.4328 16.5626C44.0363 16.5728 44.5361 16.6833 44.6007 16.5507C44.6296 16.4878 44.5327 16.3671 44.3236 16.2532C44.0462 16.1187 43.7419 16.0488 43.4336 16.0488C43.1254 16.0488 42.8211 16.1187 42.5437 16.2532C42.3295 16.3552 42.236 16.4759 42.2649 16.5388Z" fill="#263238"/>
<path d="M37.4897 17.2127C37.59 17.3181 37.9283 17.1617 38.3482 17.1107C38.7681 17.0597 39.1336 17.1107 39.1982 16.9781C39.2288 16.9152 39.1608 16.8081 38.9942 16.7129C38.7711 16.6041 38.5206 16.5639 38.2745 16.5975C38.0285 16.6311 37.798 16.7369 37.6121 16.9016C37.4795 17.0359 37.4438 17.16 37.4897 17.2127Z" fill="#263238"/>
<path d="M48.0508 19.908C48.1052 19.8774 50.2506 18.9968 50.4172 21.268C50.5838 23.5392 48.2803 23.2298 48.265 23.1652C48.2497 23.1006 48.0508 19.908 48.0508 19.908Z" fill="#FFBF9D"/>
<path d="M48.8941 22.256C48.9043 22.256 48.9349 22.2798 49.0046 22.3053C49.1014 22.3388 49.2075 22.3333 49.3004 22.29C49.5333 22.1846 49.7067 21.7902 49.688 21.3805C49.6801 21.1856 49.6284 20.995 49.5367 20.8229C49.5101 20.7538 49.4671 20.6921 49.4114 20.6433C49.3558 20.5944 49.2891 20.5598 49.2171 20.5424C49.171 20.5333 49.1232 20.5408 49.0822 20.5635C49.0411 20.5862 49.0094 20.6227 48.9927 20.6665C48.9655 20.7328 48.9842 20.777 48.9723 20.7821C48.9604 20.7872 48.9213 20.7464 48.9315 20.6529C48.9404 20.5954 48.9685 20.5427 49.0114 20.5033C49.0704 20.4518 49.1473 20.4256 49.2256 20.4302C49.32 20.4414 49.4099 20.4768 49.4864 20.5332C49.563 20.5895 49.6237 20.6647 49.6625 20.7515C49.7741 20.9406 49.8372 21.1543 49.8461 21.3737C49.8648 21.831 49.6625 22.2764 49.3361 22.3937C49.2766 22.4161 49.2129 22.4248 49.1496 22.4192C49.0864 22.4136 49.0251 22.3939 48.9706 22.3614C48.9026 22.3104 48.8873 22.2594 48.8941 22.256Z" fill="#FF9A6C"/>
<path d="M37.833 13.7699C37.4539 13.5897 38.479 12.33 39.363 11.8625C40.6873 11.157 42.7443 10.6419 44.0244 10.9173C45.5663 11.2573 46.8719 11.9203 47.7202 13.2497C48.5685 14.5791 48.9578 16.1652 49.0156 17.7411C49.0326 18.2222 49.0156 18.7254 48.7844 19.147C48.5005 19.6689 47.9123 20.0242 47.9837 20.7144C48.0007 20.839 47.9926 20.9658 47.9599 21.0872C47.9272 21.2087 47.8706 21.3224 47.7933 21.4216C47.4057 21.8908 46.8719 21.5083 46.6118 21.1071C46.0559 20.2571 45.9318 19.1946 45.823 18.178C45.7448 17.4572 45.6683 16.7194 45.823 16.0122C45.908 15.6263 46.0644 15.2574 46.129 14.8681C46.1936 14.4788 46.1545 14.0453 45.8961 13.7461C45.8359 13.6833 45.7699 13.6264 45.6989 13.5761C45.3645 13.3194 44.9675 13.1566 44.5491 13.1046C44.1307 13.0526 43.706 13.1133 43.3189 13.2803C42.0694 13.8141 39.9325 14.6301 39.3341 14.2323C38.4756 13.6611 38.2512 13.2599 38.2512 13.2599L37.833 13.7699Z" fill="#263238"/>
<path d="M35.5165 33.6738C35.3856 33.8557 33.5275 34.4728 32.822 35.6475C32.1165 36.8222 31.4195 42.0956 31.4195 42.0956L30.9707 45.5602C31.8547 46.9576 33.0413 48.8089 34.2993 50.1145L35.5165 33.6738Z" fill="#455A64"/>
<g opacity="0.3">
<path d="M49.4785 38.7598C49.5286 39.4708 49.6633 40.1733 49.8797 40.8525C50.1228 41.5206 50.5495 42.1496 51.1734 42.4947C51.4335 42.6375 51.7276 42.7327 51.9469 42.9367C52.1662 43.1407 52.2988 43.4705 52.5113 43.7102C52.7772 43.9738 53.1052 44.1662 53.465 44.2695C54.4777 44.6408 55.5523 44.8139 56.6304 44.7795C56.6644 44.4157 56.6661 43.0795 56.7001 42.714L49.4785 38.7598Z" fill="black"/>
</g>
<path d="M55.2 31.1191C55.2 31.1191 57.5426 31.8127 58.2294 32.8106C58.9162 33.8085 60.1317 37.6777 60.3816 38.3951C60.6315 39.1125 60.4122 40.7751 59.9447 41.9651C59.4772 43.1551 58.6646 44.1904 57.2621 44.3451C55.8596 44.4998 53.6428 43.6906 53.143 43.1551C52.6432 42.6196 52.4375 41.4347 52.4375 41.4347C53.0603 41.3256 53.6745 41.1716 54.2752 40.974" fill="#455A64"/>
<path d="M54.2741 40.9869L54.2452 40.9988L54.1568 41.0311C54.0786 41.0583 53.9613 41.0974 53.8066 41.1433C53.3596 41.2769 52.9056 41.3859 52.4466 41.4697L52.4653 41.4442C52.5223 41.7363 52.6025 42.0233 52.705 42.3027C52.761 42.461 52.8286 42.615 52.9073 42.7634C52.988 42.9219 53.0943 43.0661 53.2218 43.1901C53.3657 43.3136 53.5245 43.4187 53.6944 43.5029C53.8739 43.5971 54.0584 43.6817 54.2469 43.7562C54.6515 43.918 55.0674 44.0498 55.4913 44.1506C55.9488 44.2629 56.4177 44.3228 56.8887 44.3291C57.0113 44.3302 57.1339 44.3245 57.2559 44.3121C57.3789 44.298 57.501 44.2764 57.6214 44.2475C57.8684 44.192 58.1056 44.0997 58.3252 43.9738C58.7825 43.7093 59.1665 43.3347 59.4421 42.8841C59.7336 42.4161 59.9569 41.9089 60.1051 41.3779C60.2261 40.9698 60.3165 40.5533 60.3754 40.1318C60.4387 39.7236 60.4592 39.31 60.4366 38.8976C60.4232 38.6992 60.3826 38.5035 60.3159 38.3162C60.2513 38.1258 60.1884 37.9371 60.1272 37.7501L59.7617 36.657C59.5203 35.9464 59.2823 35.2749 59.0443 34.651C58.8354 34.0704 58.5837 33.5062 58.2912 32.9629C58.1561 32.732 57.9757 32.5307 57.7608 32.3713C57.5736 32.2223 57.3746 32.0887 57.1658 31.9718C56.8305 31.7805 56.4836 31.6101 56.1271 31.4618C55.8347 31.3411 55.6035 31.2561 55.4471 31.2L55.2686 31.1371C55.2474 31.1314 55.2269 31.1234 55.2074 31.1133C55.2289 31.1161 55.25 31.1212 55.2703 31.1286L55.4522 31.183C55.612 31.234 55.8466 31.3139 56.1424 31.4295C56.5019 31.5714 56.8522 31.7355 57.1913 31.9208C57.4039 32.0377 57.6068 32.1713 57.7982 32.3203C58.0194 32.4826 58.2056 32.6879 58.3456 32.9238C58.6447 33.47 58.9016 34.0384 59.114 34.6238C59.3571 35.246 59.5968 35.9192 59.8399 36.6298C59.9606 36.9851 60.083 37.3506 60.2088 37.7229C60.2717 37.9082 60.3346 38.0969 60.3975 38.2873C60.4674 38.4811 60.5103 38.6836 60.525 38.8891C60.5492 39.3076 60.5292 39.7276 60.4655 40.142C60.4054 40.5681 60.3139 40.9891 60.1918 41.4017C60.04 41.9418 59.8109 42.4571 59.5118 42.9317C59.2284 43.3944 58.8332 43.7784 58.3626 44.0486C58.1359 44.1775 57.8912 44.2721 57.6367 44.3291C57.5129 44.3586 57.3874 44.3807 57.261 44.3954C57.1352 44.3954 57.0094 44.4175 56.887 44.4124C56.4094 44.4037 55.9344 44.341 55.4709 44.2254C55.0432 44.1228 54.6238 43.9881 54.2163 43.8225C54.0265 43.7457 53.841 43.6589 53.6604 43.5624C53.4855 43.4748 53.3222 43.3657 53.1742 43.2377C53.0427 43.1075 52.9335 42.9564 52.8512 42.7906C52.7723 42.64 52.7047 42.4837 52.6489 42.3231C52.5493 42.0387 52.4714 41.7472 52.416 41.451V41.4289H52.4381C53.0365 41.3252 53.4955 41.2079 53.8066 41.1229L54.1602 41.0226L54.2503 40.9971C54.2639 40.9869 54.2741 40.9852 54.2741 40.9869Z" fill="#263238"/>
<path d="M58.573 39.7331C58.556 39.7331 58.5016 39.4441 58.3061 39.0123C58.0493 38.451 57.6908 37.942 57.2487 37.5112C57.0037 37.278 56.7267 37.0811 56.4259 36.9264L56.2202 36.8346C56.1522 36.804 56.0808 36.7904 56.0162 36.7683C55.8939 36.7298 55.768 36.7036 55.6405 36.6901L55.5555 36.6782H55.3243C55.2445 36.677 55.1648 36.6838 55.0863 36.6986C55.018 36.7123 54.9486 36.7197 54.8789 36.7207C54.9433 36.694 55.0106 36.6752 55.0795 36.6646C55.1586 36.6422 55.2404 36.6302 55.3226 36.6289H55.4756H55.5589L55.6473 36.6391C55.7791 36.6483 55.9095 36.6711 56.0366 36.7071C56.1079 36.725 56.1783 36.7465 56.2474 36.7717L56.4616 36.8635C56.7735 37.0175 57.0601 37.2182 57.3116 37.4585C57.7634 37.8951 58.1214 38.4192 58.3639 38.9987C58.4072 39.0973 58.4447 39.1983 58.4761 39.3013C58.5023 39.3787 58.5239 39.4576 58.5407 39.5376C58.5577 39.6016 58.5685 39.6671 58.573 39.7331Z" fill="#263238"/>
<path d="M59.8519 37.6319C59.7554 37.3845 59.637 37.1461 59.4983 36.9196C59.1461 36.3819 58.6188 35.9825 58.0057 35.7891C57.2866 35.5698 56.5879 35.6378 56.1 35.6837L55.5169 35.7534C55.4463 35.7662 55.3746 35.7724 55.3027 35.7721C55.37 35.7459 55.4402 35.7282 55.5118 35.7194C55.6478 35.6922 55.8518 35.6565 56.0932 35.6225C56.7376 35.5099 57.3986 35.5378 58.0312 35.7041C58.3776 35.8082 58.6992 35.9818 58.9764 36.2141C59.2034 36.407 59.3975 36.6355 59.551 36.8907C59.6561 37.0582 59.7401 37.2381 59.8009 37.4262C59.8258 37.4926 59.8429 37.5616 59.8519 37.6319Z" fill="#263238"/>
<path d="M58.0855 35.1165C57.169 34.9004 56.2111 34.938 55.3145 35.2253C55.4321 35.1486 55.5612 35.0912 55.697 35.0553C56.0187 34.9564 56.3518 34.8993 56.6881 34.8853C57.0244 34.8734 57.3608 34.9042 57.6894 34.9771C57.8276 35.0035 57.9611 35.0505 58.0855 35.1165Z" fill="#263238"/>
<path d="M54.295 31.7051C54.3086 31.7051 54.2746 31.9448 54.2474 32.329C54.1761 33.3131 54.261 34.3022 54.499 35.2598L54.4378 35.2802C54.3681 35.0847 54.3137 34.9249 54.278 34.8127C54.2558 34.758 54.2398 34.701 54.2304 34.6427C54.265 34.6955 54.2925 34.7526 54.312 34.8127C54.3579 34.9198 54.4208 35.0762 54.499 35.27L54.4378 35.2887C54.3032 34.8183 54.2138 34.3361 54.1709 33.8488C54.1264 33.3446 54.131 32.8373 54.1845 32.3341C54.2066 32.142 54.2321 31.9941 54.2525 31.8802C54.2582 31.8201 54.2725 31.7611 54.295 31.7051Z" fill="#263238"/>
<path d="M50.9806 27.3438C50.9806 27.3438 49.7651 27.3437 49.6121 28.804C49.4948 29.926 49.6121 31.014 49.6121 31.507C49.6121 32 49.3962 33.7459 49.3962 33.7459C49.3962 33.7459 48.5666 34.482 48.5802 35.366C48.5938 36.25 49.2262 36.5254 49.2262 36.5254C49.1202 36.7994 49.0969 37.0984 49.1591 37.3855C49.2214 37.6725 49.3665 37.935 49.5764 38.1404C49.5764 38.1404 49.2245 38.9547 49.5135 39.5004C49.6801 39.7719 49.9401 39.9732 50.2445 40.0665C50.1947 40.174 50.1684 40.2909 50.1676 40.4093C50.1667 40.5277 50.1913 40.645 50.2397 40.7531C50.288 40.8612 50.359 40.9577 50.4478 41.0361C50.5366 41.1144 50.6412 41.1728 50.7545 41.2072C51.163 41.3338 51.5908 41.3861 52.0176 41.3619L52.9254 41.345L53.7244 41.7869C53.7244 41.7869 55.0946 41.1902 55.1286 40.3827L55.1643 39.5752C55.1643 39.5752 54.7716 38.2492 54.7393 37.8242C54.707 37.3992 55.0555 36.3843 54.8447 35.9288C54.6339 35.4732 53.8978 35.2046 53.9675 34.5687C54.0372 33.933 53.8978 33.5793 53.5816 33.2275C53.2654 32.8756 51.8697 32.1751 51.8697 32.1751C51.8697 32.1751 51.511 31.1551 51.511 30.4564C51.511 29.7577 52.2097 27.6107 50.9806 27.3438Z" fill="#FFBF9D"/>
<path d="M51.8017 32.4414C51.6972 32.5269 51.5831 32.5999 51.4617 32.659C51.2475 32.7848 50.9517 32.9514 50.6117 33.1316C50.2717 33.3118 49.9759 33.4716 49.7617 33.5821C49.6459 33.6521 49.5228 33.7091 49.3945 33.7521C49.4987 33.6656 49.6128 33.592 49.7345 33.5328C49.9487 33.407 50.2445 33.2404 50.5845 33.0602C50.9245 32.88 51.2203 32.7202 51.4345 32.6097C51.5501 32.5397 51.6733 32.4832 51.8017 32.4414Z" fill="#FF9A6C"/>
<path d="M52.5991 35.1895C52.5991 35.1895 52.5651 35.2286 52.492 35.2847C52.3906 35.3643 52.285 35.4387 52.1758 35.5074C51.8169 35.7374 51.4352 35.93 51.0368 36.082C50.6385 36.2365 50.2256 36.3504 49.8043 36.422C49.6343 36.4475 49.5102 36.4628 49.4201 36.4679C49.373 36.4767 49.3245 36.4767 49.2773 36.4679C49.2773 36.4543 49.4745 36.4271 49.7873 36.3608C50.1998 36.2741 50.6051 36.1559 50.9994 36.0072C51.3929 35.8549 51.7738 35.6719 52.1384 35.4598C52.2873 35.3619 52.4411 35.2717 52.5991 35.1895Z" fill="#FF9A6C"/>
<path d="M53.6439 34.3151C53.666 34.3236 53.6201 34.4851 53.4739 34.6092C53.3277 34.7333 53.1713 34.7707 53.1662 34.7486C53.1611 34.7265 53.2869 34.6619 53.4144 34.5429C53.5419 34.4239 53.6201 34.3049 53.6439 34.3151Z" fill="#FF9A6C"/>
<path d="M53.1432 37.5957C52.9799 37.675 52.809 37.7377 52.6332 37.7827C52.2149 37.9071 51.789 38.0042 51.3582 38.0734C50.9274 38.1436 50.4923 38.1845 50.056 38.1958C49.8751 38.2098 49.6933 38.2041 49.5137 38.1788C49.6923 38.1534 49.8722 38.1386 50.0526 38.1346C50.3926 38.1108 50.8431 38.0666 51.3446 37.9867C51.8461 37.9068 52.2932 37.8031 52.6162 37.7215C52.7892 37.6693 52.9652 37.6273 53.1432 37.5957Z" fill="#FF9A6C"/>
<path d="M54.254 37.399C54.2798 37.3105 54.3111 37.2236 54.3475 37.1389C54.4149 36.9312 54.4375 36.7116 54.4138 36.4946C54.3867 36.2777 54.3125 36.0694 54.1962 35.8843C54.1411 35.8104 54.0906 35.7332 54.0449 35.6531C54.0449 35.6446 54.1418 35.7075 54.2489 35.8486C54.3864 36.0351 54.4731 36.2541 54.5005 36.4841C54.5279 36.7142 54.4951 36.9474 54.4053 37.161C54.3356 37.3157 54.2625 37.399 54.254 37.399Z" fill="#FF9A6C"/>
<path d="M53.2095 40.0573C53.0702 40.1087 52.9252 40.1429 52.7777 40.1593C52.4245 40.215 52.0676 40.2429 51.7101 40.2426C51.3518 40.242 50.9941 40.2119 50.6408 40.1525C50.4931 40.1359 50.3481 40.101 50.209 40.0488C50.3566 40.0514 50.5039 40.0656 50.6493 40.0913C51.0015 40.1311 51.3556 40.1521 51.7101 40.1542C52.0639 40.1535 52.4174 40.1342 52.7692 40.0964C52.9147 40.0717 53.0619 40.0586 53.2095 40.0573Z" fill="#FF9A6C"/>
<path d="M51.0474 30.4746C51.0474 30.4848 50.9913 30.5307 50.8774 30.5715C50.7275 30.6216 50.5683 30.6378 50.4113 30.619C50.2543 30.6002 50.1035 30.5468 49.9696 30.4627C49.8676 30.3964 49.82 30.3386 49.8268 30.3301C50.0148 30.4245 50.2151 30.492 50.4218 30.5307C50.6319 30.5419 50.8426 30.523 51.0474 30.4746Z" fill="#FF9A6C"/>
<path d="M54.5053 37.4961C54.5206 37.538 54.5275 37.5824 54.5257 37.627C54.5257 37.7478 54.5114 37.8682 54.4832 37.9857C54.4509 38.1336 54.3948 38.3053 54.3404 38.4957C54.2745 38.6949 54.253 38.9061 54.2775 39.1145C54.3064 39.3304 54.4679 39.5038 54.4934 39.7231C54.5108 39.9085 54.4633 40.0941 54.3591 40.2484C54.2957 40.3507 54.2222 40.4464 54.1398 40.534C54.082 40.5969 54.0463 40.6275 54.0412 40.6241C54.0361 40.6207 54.1585 40.4745 54.3047 40.2178C54.3926 40.0731 54.4302 39.9033 54.4118 39.735C54.3914 39.5497 54.2282 39.3763 54.1891 39.1298C54.1632 38.9083 54.1882 38.6839 54.2622 38.4736C54.3217 38.2815 54.3829 38.1132 54.422 37.9636C54.4612 37.81 54.489 37.6538 54.5053 37.4961Z" fill="#FF9A6C"/>
<path d="M54.9627 38.5645C54.9904 38.6143 55.0099 38.6682 55.0205 38.7243C55.0511 38.828 55.0919 38.981 55.1293 39.1714C55.1755 39.3953 55.2028 39.6228 55.2109 39.8514C55.2255 40.1371 55.1731 40.4224 55.0579 40.6844C54.9241 40.9352 54.7468 41.1602 54.5343 41.3491C54.3653 41.5031 54.1851 41.6446 53.9954 41.7724C53.8339 41.8829 53.6979 41.9645 53.6027 42.0172C53.5559 42.0488 53.505 42.074 53.4514 42.092C53.4429 42.0801 53.6469 41.9509 53.9614 41.7214C54.1438 41.5886 54.3176 41.4444 54.4816 41.2896C54.6837 41.1048 54.8527 40.8869 54.9814 40.6453C55.0904 40.3952 55.1421 40.124 55.1327 39.8514C55.1288 39.6263 55.1083 39.4019 55.0715 39.1799C55.0052 38.8008 54.9491 38.5679 54.9627 38.5645Z" fill="#263238"/>
<path d="M42.1361 32.9056C42.0654 32.864 41.9993 32.815 41.9389 32.7594L41.4289 32.3327L41.0753 32.0352C41.0149 31.9787 40.9475 31.9301 40.8747 31.8907C40.8395 31.8727 40.8004 31.8632 40.7608 31.8632C40.7212 31.8632 40.6822 31.8727 40.6469 31.8907C40.5007 31.9672 40.4021 32.1542 40.278 32.3106C40.1539 32.467 40.0315 32.6506 39.9023 32.8206C39.6983 33.096 39.4994 33.3595 39.3175 33.6043L39.207 33.7505L39.2427 33.5703C39.3402 33.0647 39.4818 32.5687 39.666 32.0879C39.734 31.9179 39.7952 31.7717 39.836 31.6782C39.8552 31.628 39.8809 31.5805 39.9125 31.5371C39.9009 31.589 39.8844 31.6396 39.8632 31.6884C39.8275 31.7853 39.7748 31.9264 39.7136 32.1066C39.5474 32.5899 39.4173 33.0848 39.3243 33.5873L39.2478 33.5533L39.8309 32.7679L40.2066 32.2579L40.3868 32.0182C40.444 31.9331 40.521 31.8631 40.6112 31.8142C40.6585 31.7935 40.7098 31.7838 40.7614 31.7859C40.8129 31.7879 40.8633 31.8017 40.9087 31.8261C40.986 31.8696 41.0574 31.9227 41.1212 31.9842L41.4612 32.2902L41.9576 32.7373C42.0215 32.7886 42.0812 32.8449 42.1361 32.9056Z" fill="#263238"/>
<path d="M49.3137 31.4692C49.294 31.4916 49.2717 31.5115 49.2474 31.5287L49.0468 31.6851L48.2971 32.2478L45.7964 34.0889L45.759 34.1161L45.7335 34.077C45.7131 34.0464 45.6927 34.0124 45.6706 33.9801L44.416 31.9979L44.4619 32.0132C43.9785 32.2053 43.5121 32.4378 43.0679 32.7085C42.9081 32.8054 42.784 32.8785 42.699 32.9414C42.6577 32.9726 42.6132 32.9993 42.5664 33.0213C42.6025 32.9838 42.6423 32.9502 42.6854 32.921C42.767 32.8615 42.8877 32.7748 43.0458 32.6711C43.4844 32.3856 43.9488 32.142 44.433 31.9435L44.4619 31.9316L44.4789 31.9571C44.8478 32.53 45.2813 33.2083 45.7454 33.9325C45.7675 33.9648 45.7879 33.9988 45.8083 34.0294L45.7437 34.0175L48.2614 32.1985L49.0264 31.6562L49.2372 31.5134C49.2865 31.4811 49.312 31.4658 49.3137 31.4692Z" fill="#263238"/>
<path d="M34.0557 38.2305C34.0634 38.2696 34.0668 38.3095 34.0659 38.3495C34.0659 38.4379 34.0659 38.5518 34.0744 38.6895C34.0744 38.9972 34.0897 39.4273 34.0982 39.9543C34.1186 41.0219 34.1611 42.5043 34.2172 44.1278C34.2733 45.7513 34.3056 47.2337 34.309 48.303C34.309 48.8385 34.309 49.2703 34.309 49.5695C34.309 49.7106 34.309 49.8262 34.3005 49.9095C34.3023 49.9499 34.2994 49.9904 34.292 50.0302C34.2895 49.99 34.2895 49.9497 34.292 49.9095C34.292 49.8228 34.292 49.7072 34.2818 49.5695C34.2818 49.2601 34.2682 48.83 34.258 48.3047C34.2393 47.2354 34.1951 45.7547 34.1407 44.1295C34.0863 42.5043 34.0523 41.0236 34.0489 39.9543C34.0489 39.4205 34.0489 38.987 34.0489 38.6895C34.0489 38.5467 34.0489 38.4328 34.0489 38.3495C34.0486 38.3097 34.0508 38.2699 34.0557 38.2305Z" fill="#263238"/>
<path d="M42.1932 53.5832C42.1875 53.5679 42.1841 53.5519 42.183 53.5356C42.183 53.4982 42.183 53.4506 42.1677 53.3911C42.1541 53.2568 42.1354 53.0715 42.1133 52.8352C42.0657 52.3524 42.0113 51.6452 41.9569 50.7867C41.9025 49.9282 41.8566 48.8878 41.8277 47.742C41.7988 46.5962 41.7954 45.3331 41.8277 44.002C41.86 42.6709 41.9195 41.418 41.9977 40.2739C42.0759 39.1298 42.1677 38.0996 42.2595 37.2377C42.3513 36.3758 42.4295 35.6771 42.5043 35.1977C42.5383 34.9614 42.5638 34.7778 42.5825 34.6452C42.5927 34.5857 42.5995 34.5381 42.6063 34.5007C42.6071 34.4844 42.6105 34.4683 42.6165 34.4531C42.6191 34.4695 42.6191 34.4861 42.6165 34.5024C42.6165 34.5398 42.608 34.5874 42.6029 34.6469C42.5876 34.7795 42.5672 34.9648 42.54 35.2011C42.4822 35.6839 42.4074 36.3809 42.3241 37.2411C42.2408 38.1013 42.1541 39.1332 42.081 40.2773C42.0079 41.4214 41.9518 42.6811 41.9212 44.0037C41.8906 45.3263 41.8991 46.586 41.9212 47.7318C41.9433 48.8776 41.9858 49.9078 42.0334 50.7731C42.081 51.6384 42.1235 52.3405 42.1609 52.8233C42.1762 53.0596 42.1898 53.2466 42.1983 53.3809C42.1983 53.4404 42.1983 53.488 42.2068 53.5254C42.2038 53.545 42.1993 53.5644 42.1932 53.5832Z" fill="#263238"/>
<path d="M37.1257 25.7577L36.9455 25.8767L36.4151 26.2167C36.1805 26.368 35.9051 26.5839 35.5821 26.8219C35.4121 26.9443 35.2557 27.0922 35.0721 27.2418L34.795 27.4747C34.6998 27.5563 34.6097 27.6447 34.5128 27.7382C33.5726 28.6153 32.7467 29.6074 32.0546 30.6911L31.752 31.1773C31.6449 31.3388 31.5633 31.5173 31.4647 31.6873C31.3661 31.8573 31.2692 32.0409 31.1808 32.2279C31.0924 32.4149 31.0108 32.607 30.919 32.8008C30.8765 32.8977 30.8289 32.9929 30.7881 33.0932C30.7473 33.1935 30.7116 33.2955 30.6725 33.3992C30.596 33.6032 30.5144 33.8089 30.4396 34.0214C30.3138 34.4515 30.154 34.8867 30.0588 35.3508C29.5742 37.3588 29.4933 39.4431 29.8208 41.4827C30.2471 44.1091 31.3468 46.5801 33.0129 48.6547C34.6789 50.7293 36.8543 52.3366 39.3267 53.3197C41.7992 54.3029 44.4843 54.6283 47.12 54.2642C49.7558 53.9001 52.2521 52.859 54.3654 51.2424C54.899 50.8322 55.4066 50.3894 55.8852 49.9164L56.2252 49.556C56.3408 49.437 56.453 49.3163 56.5652 49.1888L56.8882 48.8165C56.9902 48.6873 57.0905 48.5581 57.1925 48.4306C58.7303 46.4499 59.7562 44.1208 60.1794 41.6493C60.2789 41.0755 60.3465 40.4966 60.3817 39.9153C60.3987 39.628 60.3987 39.3441 60.4089 39.0653C60.4191 38.7865 60.3885 38.5026 60.3783 38.2255C60.3783 38.0878 60.3664 37.9484 60.3613 37.8107C60.3562 37.673 60.3307 37.5387 60.3171 37.4027C60.2831 37.1324 60.2508 36.8638 60.2185 36.5986C60.1862 36.3334 60.1165 36.075 60.0655 35.8166C60.0229 35.5603 59.9662 35.3066 59.8955 35.0567L59.6847 34.3206C59.6517 34.1998 59.6114 34.0812 59.564 33.9653C59.5198 33.848 59.4756 33.7307 59.4331 33.6151C59.343 33.3856 59.2631 33.151 59.1662 32.9351C59.0693 32.7192 58.9639 32.4999 58.8636 32.2874C58.1243 30.7504 57.1325 29.3483 55.9294 28.1394C55.0179 27.2337 54.0008 26.4409 52.9 25.7781L52.2506 25.4058C52.1526 25.3483 52.0516 25.2961 51.948 25.2494L51.6624 25.1134L51.1524 24.872C50.9994 24.7938 50.8481 24.7496 50.7206 24.702L50.129 24.4742L49.9284 24.3926L50.1324 24.4657L50.7257 24.6867C50.8549 24.7377 51.0062 24.7819 51.1609 24.8567L51.6709 25.0947L51.9582 25.2307C52.0623 25.2762 52.1639 25.3273 52.2625 25.3837L52.9136 25.7543C54.0216 26.4129 55.0452 27.2041 55.9617 28.1105C57.172 29.3185 58.1708 30.7213 58.9163 32.2602C59.0166 32.4761 59.1186 32.692 59.2223 32.913C59.326 33.134 59.3923 33.3669 59.4909 33.593L59.6235 33.9432C59.6709 34.0597 59.7112 34.1789 59.7442 34.3002C59.8156 34.545 59.887 34.7898 59.9584 35.0397C60.0321 35.2906 60.0917 35.5454 60.1369 35.803C60.1879 36.0614 60.2491 36.313 60.2933 36.5867C60.3375 36.8604 60.3579 37.1239 60.3919 37.3959C60.4072 37.5319 60.4293 37.6679 60.4378 37.8056C60.4463 37.9433 60.4497 38.0827 60.4548 38.2221C60.465 38.5009 60.4803 38.7814 60.4871 39.0721C60.4939 39.3628 60.4786 39.6416 60.4599 39.9221C60.2863 43.034 59.1698 46.0194 57.2588 48.4816L56.9494 48.8692L56.623 49.2449C56.5176 49.3724 56.4037 49.4948 56.283 49.6138L55.943 49.9776C55.4614 50.4534 54.9504 50.8985 54.413 51.3104C52.2894 52.9337 49.7815 53.9791 47.1336 54.3446C44.4858 54.7101 41.7884 54.3834 39.3044 53.3962C36.8204 52.4089 34.6346 50.7949 32.9601 48.7115C31.2855 46.6281 30.1794 44.1463 29.7494 41.5082C29.577 40.4447 29.52 39.3658 29.5794 38.2901C29.6223 37.2979 29.7653 36.3125 30.0061 35.3491C30.1013 34.8833 30.2628 34.4481 30.3886 34.0146C30.4651 33.8038 30.5484 33.5964 30.6266 33.3907C30.6657 33.2887 30.7048 33.1867 30.7422 33.0847C30.7796 32.9827 30.8323 32.8892 30.8748 32.7906C30.9649 32.5968 31.0448 32.4064 31.1383 32.2177C31.2318 32.029 31.3321 31.8539 31.4256 31.6754C31.5191 31.4969 31.6075 31.3201 31.7146 31.1569L32.0206 30.6707C32.7163 29.5853 33.5488 28.594 34.4975 27.7212C34.5944 27.6311 34.6845 27.5393 34.7797 27.4577L35.0585 27.2248C35.2421 27.0769 35.3985 26.9307 35.5685 26.8083C35.9 26.5703 36.172 26.3578 36.4083 26.2082L36.9438 25.8682C37.0594 25.7934 37.1257 25.7577 37.1257 25.7577Z" fill="#263238"/>
</svg>
