<svg width="288" height="153" viewBox="0 0 288 153" fill="none" xmlns="http://www.w3.org/2000/svg">
<path d="M17.418 132.047L20.1797 131.787C20.9909 131.787 21.3965 132.006 21.3965 132.443C21.3965 132.872 21.1322 133.245 20.6035 133.564C19.3092 134.339 17.9238 134.863 16.4473 135.137C14.9707 135.41 13.5306 135.547 12.127 135.547C10.7324 135.547 9.73438 135.52 9.13281 135.465C8.54036 135.419 7.94792 135.319 7.35547 135.164C6.77214 135.009 6.29362 134.799 5.91992 134.535C5.10872 133.952 4.70312 133.054 4.70312 131.842C4.70312 129.736 5.97461 127.089 8.51758 123.898C10.4408 121.492 12.0723 120.089 13.4121 119.688C14.1139 119.478 14.9297 119.373 15.8594 119.373C16.7982 119.373 17.2676 119.729 17.2676 120.439C17.2676 120.676 17.1992 120.959 17.0625 121.287C16.543 122.354 16.0872 123.616 15.6953 125.074C15.3034 126.523 15.1074 127.827 15.1074 128.984C15.1074 131.026 15.8776 132.047 17.418 132.047ZM3.54102 120.795C3.07617 120.795 2.84375 120.526 2.84375 119.988C2.84375 119.396 3.02148 118.585 3.37695 117.555C4.06966 115.595 4.8125 114.506 5.60547 114.287C5.82422 114.205 6.48503 114.164 7.58789 114.164L16.8301 114.383C17.2858 114.383 18.612 114.246 20.8086 113.973C23.0143 113.699 24.1719 113.562 24.2812 113.562C25.457 113.562 26.0449 113.964 26.0449 114.766C26.0449 115.121 25.9173 115.686 25.6621 116.461C25.416 117.227 25.0879 117.951 24.6777 118.635C24.2676 119.318 23.8893 119.66 23.543 119.66C23.3333 119.66 22.8594 119.492 22.1211 119.154C19.888 118.133 18.0879 117.623 16.7207 117.623C15.3535 117.623 13.7721 117.755 11.9766 118.02C10.181 118.284 8.8457 118.598 7.9707 118.963C7.0957 119.318 6.33008 119.646 5.67383 119.947C4.45247 120.512 3.74154 120.795 3.54102 120.795ZM30.3672 120.932L36.5469 120.781C36.7839 120.781 36.9616 120.854 37.0801 121C37.1986 121.137 37.2578 121.346 37.2578 121.629C37.2578 121.902 37.0026 122.622 36.4922 123.789C35.9909 124.947 35.485 126.182 34.9746 127.494C34.4642 128.798 34.209 129.75 34.209 130.352C34.209 131.482 34.8105 132.047 36.0137 132.047C36.5879 132.047 37.2168 131.974 37.9004 131.828C38.1191 131.053 38.4837 130.028 38.9941 128.752C40.2884 125.553 41.0677 123.119 41.332 121.451C41.3776 121.114 41.6191 120.945 42.0566 120.945C43.3783 120.945 44.7682 120.918 46.2266 120.863C47.6849 120.809 48.5234 120.781 48.7422 120.781C48.9701 120.781 49.1432 120.845 49.2617 120.973C49.3893 121.091 49.4531 121.205 49.4531 121.314C49.4531 121.752 49.1706 122.677 48.6055 124.09C48.0404 125.503 47.4753 126.965 46.9102 128.479C46.3451 129.982 46.0625 131.081 46.0625 131.773C46.0625 132.466 46.3678 132.812 46.9785 132.812C47.5983 132.812 48.4505 132.648 49.5352 132.32C50.6289 131.983 51.39 131.696 51.8184 131.459C52.2559 131.222 52.5384 131.104 52.666 131.104C53.0124 131.104 53.1855 131.268 53.1855 131.596C53.1855 131.924 52.9395 132.238 52.4473 132.539C51.9642 132.831 51.3763 133.132 50.6836 133.441C50 133.742 49.1751 134.061 48.209 134.398C45.985 135.164 43.7201 135.547 41.4141 135.547C39.1081 135.547 37.8092 134.927 37.5176 133.688C36.6335 134.052 35.9089 134.339 35.3438 134.549C34.7786 134.749 33.9948 134.964 32.9922 135.191C31.9896 135.428 31.069 135.547 30.2305 135.547C27.5508 135.547 26.2109 134.453 26.2109 132.266C26.2109 131.509 26.3568 130.593 26.6484 129.518C26.9401 128.433 27.2637 127.453 27.6191 126.578C28.5579 124.254 29.0273 122.814 29.0273 122.258C29.0273 121.693 29.1094 121.333 29.2734 121.178C29.4375 121.014 29.8021 120.932 30.3672 120.932ZM56.7832 120.932L63.2637 120.781C63.5007 120.781 63.6784 120.854 63.7969 121C63.9154 121.137 63.9746 121.264 63.9746 121.383C63.9746 121.501 63.9427 121.697 63.8789 121.971C63.8151 122.244 63.7331 122.577 63.6328 122.969C63.5326 123.352 63.4688 123.598 63.4414 123.707C64.1523 122.859 65.041 122.112 66.1074 121.465C67.1738 120.818 68.1126 120.494 68.9238 120.494C70.6465 120.494 71.5078 120.868 71.5078 121.615C71.5078 122.354 71.2754 123.242 70.8105 124.281C70.3457 125.311 69.9082 125.99 69.498 126.318C69.2975 126.464 69.0514 126.537 68.7598 126.537C68.4772 126.537 68.2129 126.446 67.9668 126.264C66.8639 125.443 65.6608 125.033 64.3574 125.033C63.8561 125.033 63.4186 125.07 63.0449 125.143C62.6895 126.364 62.1243 128.16 61.3496 130.529C60.5749 132.89 60.1465 134.207 60.0645 134.48C59.9277 134.909 59.6725 135.123 59.2988 135.123C57.9772 135.123 56.5599 135.191 55.0469 135.328C53.5339 135.474 52.6634 135.547 52.4355 135.547C52.2168 135.547 52.0436 135.483 51.916 135.355C51.7975 135.237 51.7383 135.096 51.7383 134.932C51.7383 134.758 51.9297 134.148 52.3125 133.1C52.7044 132.042 53.1328 130.908 53.5977 129.695C54.0716 128.483 54.5 127.152 54.8828 125.703C55.2747 124.254 55.4707 123.064 55.4707 122.135L55.457 121.615C55.457 121.16 55.8991 120.932 56.7832 120.932ZM87.3828 135.547C84.3477 135.547 82.8301 134.54 82.8301 132.525C82.8301 131.377 83.5547 129.085 85.0039 125.648C86.4531 122.203 87.1777 119.815 87.1777 118.484C87.1777 117.737 86.8997 117.208 86.3438 116.898C85.7969 116.579 84.9993 116.42 83.9512 116.42C82.9121 116.42 81.8548 116.511 80.7793 116.693C79.7038 116.876 79.0111 116.967 78.7012 116.967C78.4004 116.967 78.25 116.83 78.25 116.557C78.25 116.201 78.8926 115.732 80.1777 115.148C82.6478 114.018 85.3685 113.453 88.3398 113.453C90.6914 113.453 92.4505 113.877 93.6172 114.725C94.793 115.572 95.3809 116.949 95.3809 118.854C95.3809 119.984 95.1803 121.401 94.7793 123.105C94.3783 124.801 93.9772 126.396 93.5762 127.891C93.1842 129.385 92.9883 130.411 92.9883 130.967C92.9883 131.523 93.0931 131.91 93.3027 132.129C93.5671 132.402 94.0775 132.539 94.834 132.539C95.2988 132.539 95.5586 132.589 95.6133 132.689C95.6771 132.79 95.709 132.895 95.709 133.004C95.709 133.423 95.5176 133.765 95.1348 134.029C93.6855 135.041 91.1016 135.547 87.3828 135.547ZM79.4258 125.648L82.9258 125.566C83.5638 125.566 83.8828 125.753 83.8828 126.127C83.8828 126.391 83.7324 126.601 83.4316 126.756C82.3743 127.294 80.5514 127.635 77.9629 127.781C77.2246 129.24 76.8555 130.52 76.8555 131.623C76.8555 132.115 76.9193 132.571 77.0469 132.99C77.1745 133.4 77.2383 133.697 77.2383 133.879C77.2383 134.362 76.9329 134.69 76.3223 134.863C75.7116 135.027 74.8138 135.109 73.6289 135.109C72.4531 135.109 71.6784 135.005 71.3047 134.795C70.931 134.576 70.7441 134.193 70.7441 133.646C70.7441 132.626 71.0404 131.5 71.6328 130.27C72.2344 129.039 73 127.863 73.9297 126.742C74.8594 125.612 75.8893 124.505 77.0195 123.42C78.1497 122.335 79.248 121.401 80.3145 120.617C82.6842 118.858 84.2975 117.979 85.1543 117.979C85.5462 117.979 85.7422 118.097 85.7422 118.334C85.7422 118.571 85.5508 118.835 85.168 119.127C84.3568 119.719 83.3861 120.622 82.2559 121.834C81.1257 123.046 80.1185 124.318 79.2344 125.648H79.4258ZM105.186 114.861L111.885 114.711C112.122 114.711 112.299 114.784 112.418 114.93C112.536 115.066 112.596 115.221 112.596 115.395C112.596 116.352 111.721 119.113 109.971 123.68C108.23 128.246 107.359 130.935 107.359 131.746C107.359 132.083 107.428 132.339 107.564 132.512C107.701 132.676 107.943 132.758 108.289 132.758C109.374 132.758 111.055 132.257 113.334 131.254C113.562 131.154 113.781 131.104 113.99 131.104C114.364 131.104 114.551 131.249 114.551 131.541C114.551 131.787 114.364 132.042 113.99 132.307C113.617 132.571 113.102 132.863 112.445 133.182C111.789 133.501 110.992 133.847 110.053 134.221C109.114 134.594 108.048 134.909 106.854 135.164C105.669 135.419 104.424 135.547 103.121 135.547C101.818 135.547 100.774 135.369 99.9902 135.014C99.2064 134.667 98.8145 134.025 98.8145 133.086C98.8145 132.43 99.6576 129.855 101.344 125.361C101.973 123.684 102.551 121.943 103.08 120.139C103.609 118.325 103.873 116.967 103.873 116.064L103.859 115.545C103.859 115.089 104.301 114.861 105.186 114.861ZM143.416 122.436C143.762 122.436 143.936 122.704 143.936 123.242C143.936 123.771 143.762 124.227 143.416 124.609C143.07 124.992 142.691 125.197 142.281 125.225C141.88 125.252 141.461 125.298 141.023 125.361C140.595 125.425 140.103 125.516 139.547 125.635C139 125.744 138.499 125.895 138.043 126.086C137.587 126.277 137.163 126.501 136.771 126.756C135.915 127.303 135.486 128.05 135.486 128.998C135.486 129.627 135.641 130.178 135.951 130.652C136.27 131.117 136.685 131.477 137.195 131.732C138.18 132.225 139.269 132.471 140.463 132.471C142.295 132.471 144.637 132.079 147.49 131.295C147.654 131.249 147.796 131.227 147.914 131.227C148.26 131.227 148.434 131.4 148.434 131.746C148.434 132.384 147.782 133.004 146.479 133.605C145.184 134.207 143.603 134.681 141.734 135.027C139.866 135.374 138.098 135.547 136.43 135.547C134.771 135.547 133.285 135.442 131.973 135.232C130.66 135.023 129.498 134.708 128.486 134.289C127.475 133.861 126.686 133.296 126.121 132.594C125.565 131.883 125.287 131.067 125.287 130.146C125.287 129.226 125.561 128.401 126.107 127.672C126.663 126.934 127.393 126.327 128.295 125.854C129.197 125.37 130.245 124.965 131.439 124.637C133.691 124.035 136.174 123.734 138.891 123.734C136.958 123.634 135.514 123.47 134.557 123.242C133.609 123.014 132.857 122.796 132.301 122.586C131.754 122.367 131.294 122.121 130.92 121.848C130.063 121.228 129.635 120.453 129.635 119.523C129.635 118.594 129.981 117.737 130.674 116.953C131.376 116.16 132.301 115.513 133.449 115.012C135.828 113.973 138.59 113.453 141.734 113.453C146.009 113.453 148.944 113.932 150.539 114.889C150.885 115.098 151.059 115.408 151.059 115.818C151.059 116.219 150.758 116.885 150.156 117.814C149.564 118.744 149.081 119.387 148.707 119.742C148.342 120.098 148.001 120.275 147.682 120.275C147.372 120.275 147.089 120.161 146.834 119.934C146.579 119.706 146.378 119.423 146.232 119.086C145.239 116.853 143.708 115.736 141.639 115.736C140.436 115.736 139.419 116.064 138.59 116.721C137.77 117.368 137.359 118.161 137.359 119.1C137.359 120.029 137.833 120.831 138.781 121.506C139.738 122.18 140.9 122.518 142.268 122.518L143.416 122.436ZM165.498 122.914C165.89 123.707 166.191 124.423 166.4 125.061C167.877 123.611 169.158 122.467 170.242 121.629C171.336 120.781 172.215 120.357 172.881 120.357C173.355 120.357 173.774 120.74 174.139 121.506C174.512 122.262 174.699 123.133 174.699 124.117C174.699 124.299 174.626 124.505 174.48 124.732C174.344 124.951 174.139 125.092 173.865 125.156C173.592 125.211 173.018 125.238 172.143 125.238C171.268 125.238 170.452 125.361 169.695 125.607C168.948 125.844 168.1 126.323 167.152 127.043C168.128 129.632 168.966 131.359 169.668 132.225C170.023 132.68 170.493 132.908 171.076 132.908C171.66 132.908 172.421 132.753 173.359 132.443C174.298 132.133 175.014 131.833 175.506 131.541C175.998 131.249 176.34 131.104 176.531 131.104C176.914 131.104 177.105 131.272 177.105 131.609C177.105 131.837 176.91 132.124 176.518 132.471C175.196 133.628 173.733 134.458 172.129 134.959C170.525 135.46 168.734 135.711 166.756 135.711C163.857 135.711 161.925 135.1 160.959 133.879C160.412 133.204 159.893 132.288 159.4 131.131C157.96 132.498 156.68 133.578 155.559 134.371C154.438 135.164 153.48 135.561 152.688 135.561C152.104 135.561 151.612 135.187 151.211 134.439C150.819 133.683 150.623 132.904 150.623 132.102C150.623 131.299 150.828 130.88 151.238 130.844C151.475 130.816 151.904 130.794 152.523 130.775C153.152 130.757 153.795 130.725 154.451 130.68C156.046 130.57 157.445 130.06 158.648 129.148C158.557 128.875 158.407 128.419 158.197 127.781C157.997 127.143 157.842 126.669 157.732 126.359C157.158 124.737 156.625 123.798 156.133 123.543C155.896 123.415 155.554 123.352 155.107 123.352C154.661 123.352 154.223 123.393 153.795 123.475C153.367 123.557 153.102 123.598 153.002 123.598C152.656 123.598 152.482 123.434 152.482 123.105C152.482 122.777 152.847 122.413 153.576 122.012C154.305 121.602 155.294 121.246 156.543 120.945C157.801 120.645 158.881 120.494 159.783 120.494C160.686 120.494 161.351 120.517 161.779 120.562C162.208 120.599 162.59 120.672 162.928 120.781C163.265 120.882 163.561 120.991 163.816 121.109C164.072 121.219 164.304 121.378 164.514 121.588C164.723 121.788 164.901 121.984 165.047 122.176C165.193 122.358 165.343 122.604 165.498 122.914ZM180.416 120.932L186.623 120.781C186.86 120.781 187.038 120.854 187.156 121C187.275 121.137 187.334 121.296 187.334 121.479C187.334 121.652 187.302 121.957 187.238 122.395C187.174 122.823 187.143 123.137 187.143 123.338C188.82 121.442 191.057 120.494 193.855 120.494C195.56 120.494 196.9 120.932 197.875 121.807C198.859 122.673 199.352 123.903 199.352 125.498C199.352 128.597 198.135 131.131 195.701 133.1C198.527 132.899 200.696 132.375 202.209 131.527C202.71 131.245 203.079 131.104 203.316 131.104C203.626 131.104 203.781 131.272 203.781 131.609C203.781 131.846 203.613 132.088 203.275 132.334C201.726 133.419 199.73 134.221 197.287 134.74C194.854 135.26 192.233 135.52 189.426 135.52C189.079 135.538 188.82 135.547 188.646 135.547C187.68 135.547 186.714 135.401 185.748 135.109C184.782 134.818 183.98 134.408 183.342 133.879C182.713 135.802 182.398 138.021 182.398 140.537L182.412 140.934C182.412 141.389 181.97 141.617 181.086 141.617L174.729 141.781C174.51 141.781 174.337 141.713 174.209 141.576C174.081 141.449 174.018 141.303 174.018 141.139C174.018 139.58 174.87 136.559 176.574 132.074C178.279 127.581 179.131 124.573 179.131 123.051L179.076 121.916C179.076 121.579 179.158 121.333 179.322 121.178C179.495 121.014 179.86 120.932 180.416 120.932ZM189.822 123.967C188.109 123.967 186.678 125.279 185.529 127.904C185.001 129.107 184.736 130.083 184.736 130.83C184.736 131.577 184.859 132.092 185.105 132.375C185.361 132.658 185.853 132.799 186.582 132.799C187.32 132.799 188.113 132.462 188.961 131.787C189.818 131.104 190.506 130.247 191.025 129.217C191.545 128.187 191.805 127.262 191.805 126.441C191.805 125.612 191.622 124.992 191.258 124.582C190.893 124.172 190.415 123.967 189.822 123.967ZM205.574 134.084C203.861 133.054 203.004 131.491 203.004 129.395C203.004 128.301 203.227 127.275 203.674 126.318C204.13 125.352 204.749 124.518 205.533 123.816C206.326 123.115 207.247 122.513 208.295 122.012C210.391 121 212.793 120.494 215.5 120.494C220.823 120.494 223.699 122.18 224.127 125.553C224.765 125.762 225.421 125.867 226.096 125.867C226.779 125.867 227.349 125.817 227.805 125.717C228.26 125.617 228.689 125.466 229.09 125.266C229.5 125.065 229.792 124.965 229.965 124.965C230.311 124.965 230.484 125.133 230.484 125.471C230.484 125.808 230.215 126.159 229.678 126.523C228.666 127.216 227.326 127.562 225.658 127.562C225.029 127.562 224.519 127.531 224.127 127.467C223.835 129.764 222.65 131.673 220.572 133.195C219.579 133.924 218.357 134.499 216.908 134.918C215.468 135.337 213.973 135.547 212.424 135.547C210.883 135.547 209.562 135.424 208.459 135.178C207.356 134.941 206.395 134.576 205.574 134.084ZM210.537 130.598C210.537 132.284 211.152 133.127 212.383 133.127C213.167 133.127 213.896 132.699 214.57 131.842C215.254 130.985 215.783 129.923 216.156 128.656C216.539 127.389 216.73 126.1 216.73 124.787C216.73 123.465 216.27 122.805 215.35 122.805C214.548 122.805 213.768 123.183 213.012 123.939C212.264 124.696 211.663 125.68 211.207 126.893C210.76 128.096 210.537 129.331 210.537 130.598ZM231.744 120.932L238.225 120.781C238.462 120.781 238.639 120.854 238.758 121C238.876 121.137 238.936 121.264 238.936 121.383C238.936 121.501 238.904 121.697 238.84 121.971C238.776 122.244 238.694 122.577 238.594 122.969C238.493 123.352 238.43 123.598 238.402 123.707C239.113 122.859 240.002 122.112 241.068 121.465C242.135 120.818 243.074 120.494 243.885 120.494C245.607 120.494 246.469 120.868 246.469 121.615C246.469 122.354 246.236 123.242 245.771 124.281C245.307 125.311 244.869 125.99 244.459 126.318C244.258 126.464 244.012 126.537 243.721 126.537C243.438 126.537 243.174 126.446 242.928 126.264C241.825 125.443 240.622 125.033 239.318 125.033C238.817 125.033 238.38 125.07 238.006 125.143C237.65 126.364 237.085 128.16 236.311 130.529C235.536 132.89 235.107 134.207 235.025 134.48C234.889 134.909 234.633 135.123 234.26 135.123C232.938 135.123 231.521 135.191 230.008 135.328C228.495 135.474 227.624 135.547 227.396 135.547C227.178 135.547 227.005 135.483 226.877 135.355C226.758 135.237 226.699 135.096 226.699 134.932C226.699 134.758 226.891 134.148 227.273 133.1C227.665 132.042 228.094 130.908 228.559 129.695C229.033 128.483 229.461 127.152 229.844 125.703C230.236 124.254 230.432 123.064 230.432 122.135L230.418 121.615C230.418 121.16 230.86 120.932 231.744 120.932ZM259.76 121.082L263.355 120.617C264.03 120.617 264.367 120.882 264.367 121.41C264.367 121.939 264.048 122.271 263.41 122.408C262.772 122.536 261.332 122.709 259.09 122.928C258.78 123.739 258.315 124.865 257.695 126.305C256.428 129.258 255.795 131.031 255.795 131.623C255.795 132.27 256.196 132.594 256.998 132.594C259.587 132.594 261.911 132.161 263.971 131.295C264.271 131.167 264.508 131.104 264.682 131.104C265.019 131.104 265.188 131.254 265.188 131.555C265.188 131.855 264.969 132.152 264.531 132.443C263.191 133.327 261.173 134.066 258.475 134.658C255.777 135.251 253.288 135.547 251.01 135.547C249.715 135.547 248.727 135.346 248.043 134.945C247.359 134.535 247.018 133.975 247.018 133.264C247.018 132.544 247.492 131.199 248.439 129.23C249.506 127.025 250.271 125.088 250.736 123.42C250.171 123.447 249.779 123.461 249.561 123.461C249.023 123.461 248.754 123.242 248.754 122.805C248.754 122.486 248.84 122.271 249.014 122.162C249.187 122.053 249.365 121.975 249.547 121.93C249.738 121.884 249.898 121.857 250.025 121.848C250.162 121.829 250.349 121.811 250.586 121.793C250.823 121.775 250.996 121.761 251.105 121.752C251.224 121.059 251.283 120.408 251.283 119.797L251.27 119.277C251.27 118.867 251.789 118.589 252.828 118.443C253.174 118.398 254.264 118.17 256.096 117.76C257.928 117.35 259.049 117.145 259.459 117.145C260.115 117.145 260.443 117.372 260.443 117.828C260.443 118.612 260.215 119.697 259.76 121.082ZM273.475 135.533C273.247 135.542 272.91 135.547 272.463 135.547C270.367 135.547 268.389 135.351 266.529 134.959C264.679 134.567 263.585 134.111 263.248 133.592C263.139 133.428 263.084 133.223 263.084 132.977C263.084 132.73 263.376 132.339 263.959 131.801C264.542 131.254 264.943 130.98 265.162 130.98C265.381 130.98 265.604 131.062 265.832 131.227C266.069 131.382 266.329 131.573 266.611 131.801C266.894 132.029 267.208 132.257 267.555 132.484C268.384 133.031 269.382 133.305 270.549 133.305C271.014 133.305 271.387 133.186 271.67 132.949C271.962 132.712 272.107 132.416 272.107 132.061C272.107 131.696 271.984 131.382 271.738 131.117C271.501 130.853 271.187 130.625 270.795 130.434C270.412 130.233 269.988 130.037 269.523 129.846C269.059 129.645 268.589 129.431 268.115 129.203C267.65 128.966 267.222 128.711 266.83 128.438C265.964 127.827 265.531 127.07 265.531 126.168C265.531 125.257 265.805 124.468 266.352 123.803C266.908 123.137 267.605 122.604 268.443 122.203C269.282 121.802 270.23 121.465 271.287 121.191C273.146 120.727 274.901 120.494 276.551 120.494C278.21 120.494 279.75 120.581 281.172 120.754C282.603 120.918 283.587 121.164 284.125 121.492C284.271 121.574 284.344 121.793 284.344 122.148C284.344 122.495 284.221 122.996 283.975 123.652C283.729 124.299 283.414 124.901 283.031 125.457C282.658 126.004 282.32 126.277 282.02 126.277C281.901 126.277 281.801 126.227 281.719 126.127C280.853 125.088 280.01 124.29 279.189 123.734C278.378 123.169 277.494 122.887 276.537 122.887C275.808 122.887 275.284 123.037 274.965 123.338C274.655 123.63 274.5 123.935 274.5 124.254C274.5 124.573 274.673 124.878 275.02 125.17C275.375 125.462 275.812 125.726 276.332 125.963C276.861 126.2 277.43 126.478 278.041 126.797C278.661 127.107 279.23 127.426 279.75 127.754C280.279 128.073 280.716 128.479 281.062 128.971C281.418 129.454 281.596 130.064 281.596 130.803C281.596 131.541 281.327 132.261 280.789 132.963C283.049 132.507 284.818 131.947 286.094 131.281C286.312 131.163 286.499 131.104 286.654 131.104C287.001 131.104 287.174 131.277 287.174 131.623C287.174 131.915 286.996 132.184 286.641 132.43C286.285 132.667 285.697 132.958 284.877 133.305C284.057 133.642 283.081 133.984 281.951 134.33C279.317 135.132 276.492 135.533 273.475 135.533Z" fill="#383D45"/>
<path d="M201.038 57.8665H164.746L146.6 85.9665H128.454L137.527 57.8665H119.381H83.0887L74.0156 48.4999V26.0199L83.0887 39.1332H119.381H137.527H142.063L132.99 11.0332H146.6L164.746 39.1332H201.038" stroke="#FF691F" stroke-width="8"/>
<path d="M201.04 39.1328C203.146 39.1328 205.165 40.1197 206.654 41.8762C208.143 43.6328 208.979 46.0153 208.979 48.4995C208.979 50.9837 208.143 53.3661 206.654 55.1227C205.165 56.8793 203.146 57.8661 201.04 57.8661" stroke="#FF691F" stroke-width="8"/>
</svg>
