<svg width="64" height="64" viewBox="0 0 64 64" fill="none" xmlns="http://www.w3.org/2000/svg">
<path d="M29.3789 3.42871C30.2723 0.898409 33.6018 0.86033 34.5713 3.30176L34.6582 3.5498L39.2646 18.3457V18.3467C39.6367 19.5379 40.3632 20.5876 41.3525 21.3379C42.2812 22.0421 43.3954 22.4465 44.5527 22.4951L44.7842 22.5H59.6875C61.008 22.5 61.9768 23.3568 62.3486 24.5527C62.7215 25.7525 62.4234 27.0941 61.3125 27.9395L49.2607 37.0801C48.2692 37.8311 47.5411 38.8828 47.1689 40.0762C46.8202 41.1946 46.7974 42.3928 47.1016 43.5215L47.167 43.7461V43.7471L51.7734 58.542V58.543C52.2157 59.9611 51.6691 61.2176 50.7354 61.9258C49.8691 62.5826 48.7286 62.7349 47.6895 62.0693L47.4824 61.9248L35.4307 52.7842H35.4297C34.4381 52.0326 33.2362 51.6221 31.9951 51.6221C30.8315 51.6221 29.7017 51.982 28.748 52.6465L28.5605 52.7842H28.5596L16.5078 61.9248L16.5068 61.9258C15.4172 62.7529 14.1838 62.6263 13.2607 61.9258C12.3277 61.2176 11.7808 59.9609 12.2217 58.542L16.8271 43.7471V43.7461C17.1979 42.5528 17.1972 41.2691 16.8252 40.0762C16.4531 38.8828 15.7258 37.8311 14.7344 37.0801H14.7334L2.68652 27.9443C1.57598 27.0994 1.27801 25.7578 1.65137 24.5576C2.02381 23.3608 2.99371 22.5049 4.31152 22.5049H19.209V22.5039C20.4498 22.5041 21.652 22.0949 22.6436 21.3438C23.5722 20.6403 24.2698 19.6736 24.6602 18.5732L24.7344 18.3506V18.3496L29.3398 3.55469L29.3789 3.42871Z" stroke="black" stroke-width="3"/>
</svg>
