<svg width="15" height="15" viewBox="0 0 15 15" fill="none" xmlns="http://www.w3.org/2000/svg">
<path fill-rule="evenodd" clip-rule="evenodd" d="M14.5436 7.18151C14.7077 7.3456 14.7998 7.56812 14.7998 7.80014C14.7998 8.03216 14.7077 8.25469 14.5436 8.41878L8.41853 14.5439C8.25444 14.7079 8.03192 14.8 7.7999 14.8C7.56788 14.8 7.34535 14.7079 7.18127 14.5439L1.05618 8.41878C0.974809 8.33763 0.910269 8.2412 0.866272 8.13504C0.822275 8.02887 0.799686 7.91506 0.799805 7.80014V3.42508C0.799805 2.72888 1.07637 2.06119 1.56866 1.5689C2.06095 1.07661 2.72864 0.800049 3.42484 0.800049H7.7999C8.0239 0.800049 8.2479 0.8858 8.41853 1.05643L14.5436 7.18151ZM3.42484 4.3001C3.65691 4.3001 3.87947 4.20791 4.04357 4.04381C4.20766 3.87971 4.29985 3.65715 4.29985 3.42508C4.29985 3.19302 4.20766 2.97045 4.04357 2.80636C3.87947 2.64226 3.65691 2.55007 3.42484 2.55007C3.19277 2.55007 2.97021 2.64226 2.80611 2.80636C2.64202 2.97045 2.54983 3.19302 2.54983 3.42508C2.54983 3.65715 2.64202 3.87971 2.80611 4.04381C2.97021 4.20791 3.19277 4.3001 3.42484 4.3001Z" fill="#6B2D0E"/>
</svg>
