<svg width="18" height="19" viewBox="0 0 18 19" fill="none" xmlns="http://www.w3.org/2000/svg">
<path fill-rule="evenodd" clip-rule="evenodd" d="M15.9371 8.83128C16.1058 9.00005 16.2006 9.22893 16.2006 9.46758C16.2006 9.70623 16.1058 9.9351 15.9371 10.1039L9.63708 16.4039C9.46831 16.5726 9.23943 16.6674 9.00078 16.6674C8.76213 16.6674 8.53326 16.5726 8.36448 16.4039L2.06448 10.1039C1.98078 10.0204 1.9144 9.92123 1.86915 9.81204C1.82389 9.70284 1.80066 9.58578 1.80078 9.46758V4.96758C1.80078 4.25149 2.08525 3.56474 2.59159 3.05839C3.09794 2.55204 3.7847 2.26758 4.50078 2.26758H9.00078C9.23118 2.26758 9.46158 2.35578 9.63708 2.53128L15.9371 8.83128ZM4.50078 5.86758C4.73948 5.86758 4.96839 5.77276 5.13718 5.60397C5.30596 5.43519 5.40078 5.20627 5.40078 4.96758C5.40078 4.72888 5.30596 4.49996 5.13718 4.33118C4.96839 4.1624 4.73948 4.06758 4.50078 4.06758C4.26209 4.06758 4.03317 4.1624 3.86439 4.33118C3.6956 4.49996 3.60078 4.72888 3.60078 4.96758C3.60078 5.20627 3.6956 5.43519 3.86439 5.60397C4.03317 5.77276 4.26209 5.86758 4.50078 5.86758Z" fill="#6B2D0E"/>
</svg>
