<svg width="22" height="18" viewBox="0 0 22 18" fill="none" xmlns="http://www.w3.org/2000/svg">
<path d="M21.67 2.02344C20.9 2.37344 20.07 2.60344 19.21 2.71344C20.09 2.18344 20.77 1.34344 21.09 0.333437C20.26 0.833437 19.34 1.18344 18.37 1.38344C17.58 0.523438 16.47 0.0234375 15.21 0.0234375C12.86 0.0234375 10.94 1.94344 10.94 4.31344C10.94 4.65344 10.98 4.98344 11.05 5.29344C7.49 5.11344 4.32 3.40344 2.21 0.813437C1.84 1.44344 1.63 2.18344 1.63 2.96344C1.63 4.45344 2.38 5.77344 3.54 6.52344C2.83 6.52344 2.17 6.32344 1.59 6.02344V6.05344C1.59 8.13344 3.07 9.87344 5.03 10.2634C4.40073 10.4356 3.7401 10.4596 3.1 10.3334C3.37161 11.1859 3.90354 11.9318 4.62102 12.4664C5.3385 13.0009 6.20545 13.2971 7.1 13.3134C5.58363 14.5139 3.704 15.1628 1.77 15.1534C1.43 15.1534 1.09 15.1334 0.75 15.0934C2.65 16.3134 4.91 17.0234 7.33 17.0234C15.21 17.0234 19.54 10.4834 19.54 4.81344C19.54 4.62344 19.54 4.44344 19.53 4.25344C20.37 3.65344 21.09 2.89344 21.67 2.02344Z" fill="white"/>
</svg>
