<svg width="21" height="15" viewBox="0 0 21 15" fill="none" xmlns="http://www.w3.org/2000/svg">
<path d="M8.66992 10.5234L13.8599 7.52344L8.66992 4.52344V10.5234ZM20.2299 2.69344C20.3599 3.16344 20.4499 3.79344 20.5099 4.59344C20.5799 5.39344 20.6099 6.08344 20.6099 6.68344L20.6699 7.52344C20.6699 9.71344 20.5099 11.3234 20.2299 12.3534C19.9799 13.2534 19.3999 13.8334 18.4999 14.0834C18.0299 14.2134 17.1699 14.3034 15.8499 14.3634C14.5499 14.4334 13.3599 14.4634 12.2599 14.4634L10.6699 14.5234C6.47992 14.5234 3.86992 14.3634 2.83992 14.0834C1.93992 13.8334 1.35992 13.2534 1.10992 12.3534C0.979922 11.8834 0.889922 11.2534 0.829922 10.4534C0.759922 9.65344 0.729922 8.96344 0.729922 8.36344L0.669922 7.52344C0.669922 5.33344 0.829922 3.72344 1.10992 2.69344C1.35992 1.79344 1.93992 1.21344 2.83992 0.963438C3.30992 0.833438 4.16992 0.743437 5.48992 0.683437C6.78992 0.613437 7.97992 0.583437 9.07992 0.583437L10.6699 0.523438C14.8599 0.523438 17.4699 0.683438 18.4999 0.963438C19.3999 1.21344 19.9799 1.79344 20.2299 2.69344Z" fill="white"/>
</svg>
